<svg width="122" height="122" viewBox="0 0 122 122" fill="none" xmlns="http://www.w3.org/2000/svg">
<circle cx="61" cy="61" r="60.5" fill="white" stroke="#E3E7EC"/>
<rect x="29" y="29" width="64" height="64" fill="white"/>
<path fill-rule="evenodd" clip-rule="evenodd" d="M48.1668 36.0441C48.324 35.9533 48.5251 36.0072 48.6158 36.1644L51.1795 40.6051C53.3988 38.6011 56.3968 37.2537 59.7509 36.9302H62.8874C66.2417 37.2538 69.2397 38.6014 71.4589 40.6054L74.023 36.1644C74.1138 36.0072 74.3148 35.9533 74.472 36.0441C74.6293 36.1349 74.6831 36.3359 74.5924 36.4931L71.9491 41.0713C74.0596 43.184 75.3506 45.9323 75.3925 48.9422H47.2457C47.2877 45.932 48.5787 43.1837 50.6894 41.071L48.0465 36.4931C47.9557 36.3359 48.0096 36.1349 48.1668 36.0441ZM55.5167 44.9401C56.4086 44.9377 57.1294 44.2297 57.1268 43.3588V43.35C57.1241 42.4787 56.3992 41.775 55.5077 41.7774C54.616 41.7798 53.8952 42.4876 53.8976 43.3588V43.3675C53.9002 44.2384 54.6252 44.9423 55.5167 44.9401ZM67.569 44.9401C68.461 44.9377 69.1818 44.2297 69.1791 43.3588V43.35C69.1765 42.4787 68.4516 41.775 67.5601 41.7774C66.6683 41.7798 65.9476 42.4876 65.95 43.3588V43.3675C65.9526 44.2384 66.6775 44.9423 67.569 44.9401Z" fill="#586376"/>
<path d="M65.2386 74.8563H57.4003V82.8792C57.4003 84.6028 56.003 85.9998 54.2794 85.9998C52.556 85.9998 51.1587 84.6028 51.1587 82.8792V74.8563H51.0055C48.862 74.8563 47.1353 73.0989 47.1353 70.9175V50.6336C47.1353 50.5127 47.1443 50.393 47.1546 50.2747H75.4887C75.4988 50.3926 75.5032 50.5127 75.5032 50.6336V70.9175C75.5032 73.0987 73.7765 74.8563 71.6328 74.8563H71.4802V82.8794C71.4802 84.603 70.0829 86 68.3593 86C66.6359 86 65.2386 84.603 65.2386 82.8794V74.8563Z" fill="#586376"/>
<path d="M45.2416 55.2007C45.2416 53.4771 43.8443 52.0798 42.1209 52.0798C40.3971 52.0798 38.9998 53.4773 39 55.2009V68.5888C39 70.3122 40.3973 71.7095 42.1209 71.7095C43.8443 71.7095 45.2416 70.3122 45.2416 68.5886V55.2007Z" fill="#586376"/>
<path d="M83.6387 55.2007C83.6387 53.4771 82.2414 52.0798 80.518 52.0798C78.7943 52.0798 77.3971 53.4773 77.3971 55.2009V68.5888C77.3971 70.3122 78.7943 71.7095 80.518 71.7095C82.2414 71.7095 83.6387 70.3122 83.6387 68.5886V55.2007Z" fill="#586376"/>
</svg>
