<svg width="400" height="300" viewBox="0 0 400 300" fill="none" xmlns="http://www.w3.org/2000/svg">
<rect width="400" height="300" fill="white"/>
<rect x="16.5" y="167.5" width="179" height="31" rx="5.5" fill="#FAFAFA" stroke="#B7BBC1"/>
<rect opacity="0.01" x="168" y="171" width="24" height="24" fill="white"/>
<rect x="172" y="177" width="16" height="14" rx="2" stroke="#5D6066" stroke-width="1.25" stroke-linejoin="round"/>
<path d="M176 175V179" stroke="#5D6066" stroke-width="1.25" stroke-linejoin="round"/>
<path d="M184 175V179" stroke="#5D6066" stroke-width="1.25" stroke-linejoin="round"/>
<path d="M175 181H185" stroke="#5D6066" stroke-width="1.25" stroke-linejoin="round"/>
<path d="M28.4375 188C28.4831 187.157 28.6562 186.423 28.957 185.799C29.2624 185.174 29.8548 184.607 30.7344 184.097L32.0469 183.338C32.6348 182.996 33.0472 182.704 33.2842 182.463C33.6579 182.085 33.8447 181.652 33.8447 181.164C33.8447 180.594 33.6738 180.143 33.332 179.811C32.9902 179.473 32.5345 179.305 31.9648 179.305C31.1217 179.305 30.5384 179.624 30.2148 180.262C30.0417 180.604 29.946 181.077 29.9277 181.684H28.6768C28.6904 180.831 28.8477 180.136 29.1484 179.599C29.6816 178.651 30.6227 178.177 31.9717 178.177C33.0928 178.177 33.9108 178.48 34.4258 179.086C34.9453 179.692 35.2051 180.367 35.2051 181.109C35.2051 181.893 34.9294 182.563 34.3779 183.119C34.0589 183.443 33.487 183.835 32.6621 184.295L31.7256 184.814C31.279 185.061 30.9281 185.295 30.6729 185.519C30.2171 185.915 29.93 186.355 29.8115 186.838H35.1572V188H28.4375ZM39.5801 178.211C40.847 178.211 41.763 178.733 42.3281 179.776C42.7656 180.583 42.9844 181.688 42.9844 183.092C42.9844 184.423 42.7861 185.523 42.3896 186.394C41.8154 187.642 40.8766 188.267 39.5732 188.267C38.3975 188.267 37.5225 187.756 36.9482 186.735C36.4697 185.883 36.2305 184.739 36.2305 183.304C36.2305 182.192 36.374 181.237 36.6611 180.439C37.1989 178.954 38.1719 178.211 39.5801 178.211ZM39.5664 187.146C40.2044 187.146 40.7126 186.863 41.0908 186.298C41.4691 185.733 41.6582 184.68 41.6582 183.14C41.6582 182.028 41.5215 181.114 41.248 180.398C40.9746 179.678 40.4437 179.318 39.6553 179.318C38.9307 179.318 38.3997 179.66 38.0625 180.344C37.7298 181.023 37.5635 182.025 37.5635 183.352C37.5635 184.35 37.6706 185.152 37.8848 185.758C38.2129 186.683 38.7734 187.146 39.5664 187.146ZM44.0234 188C44.069 187.157 44.2422 186.423 44.543 185.799C44.8483 185.174 45.4408 184.607 46.3203 184.097L47.6328 183.338C48.2207 182.996 48.6331 182.704 48.8701 182.463C49.2438 182.085 49.4307 181.652 49.4307 181.164C49.4307 180.594 49.2598 180.143 48.918 179.811C48.5762 179.473 48.1204 179.305 47.5508 179.305C46.7077 179.305 46.1243 179.624 45.8008 180.262C45.6276 180.604 45.5319 181.077 45.5137 181.684H44.2627C44.2764 180.831 44.4336 180.136 44.7344 179.599C45.2676 178.651 46.2087 178.177 47.5576 178.177C48.6787 178.177 49.4967 178.48 50.0117 179.086C50.5312 179.692 50.791 180.367 50.791 181.109C50.791 181.893 50.5153 182.563 49.9639 183.119C49.6449 183.443 49.0729 183.835 48.248 184.295L47.3115 184.814C46.8649 185.061 46.514 185.295 46.2588 185.519C45.8031 185.915 45.516 186.355 45.3975 186.838H50.7432V188H44.0234ZM55.0156 188.267C53.8581 188.267 53.0173 187.95 52.4932 187.316C51.9736 186.678 51.7139 185.904 51.7139 184.992H52.999C53.0537 185.626 53.1722 186.086 53.3545 186.373C53.6735 186.888 54.25 187.146 55.084 187.146C55.7311 187.146 56.2507 186.972 56.6426 186.626C57.0345 186.28 57.2305 185.833 57.2305 185.286C57.2305 184.612 57.0231 184.14 56.6084 183.871C56.1982 183.602 55.6263 183.468 54.8926 183.468C54.8105 183.468 54.7262 183.47 54.6396 183.475C54.5576 183.475 54.4733 183.477 54.3867 183.481V182.395C54.5143 182.408 54.6214 182.417 54.708 182.422C54.7946 182.426 54.888 182.429 54.9883 182.429C55.4486 182.429 55.8268 182.356 56.123 182.21C56.6426 181.955 56.9023 181.499 56.9023 180.843C56.9023 180.355 56.7292 179.979 56.3828 179.715C56.0365 179.451 55.6331 179.318 55.1729 179.318C54.3525 179.318 53.7852 179.592 53.4707 180.139C53.2975 180.439 53.1995 180.868 53.1768 181.424H51.96C51.96 180.695 52.1058 180.075 52.3975 179.564C52.8988 178.653 53.7806 178.197 55.043 178.197C56.041 178.197 56.8135 178.421 57.3604 178.867C57.9072 179.309 58.1807 179.952 58.1807 180.795C58.1807 181.396 58.0189 181.884 57.6953 182.258C57.4948 182.49 57.235 182.673 56.916 182.805C57.431 182.946 57.832 183.219 58.1191 183.625C58.4108 184.026 58.5566 184.518 58.5566 185.102C58.5566 186.036 58.249 186.797 57.6338 187.385C57.0186 187.973 56.1458 188.267 55.0156 188.267ZM59.7529 183.468H63.1846V184.732H59.7529V183.468ZM71.1553 178.375V179.448C70.8408 179.754 70.4215 180.285 69.8975 181.041C69.3779 181.798 68.9176 182.613 68.5166 183.488C68.1201 184.34 67.8193 185.118 67.6143 185.819C67.4821 186.271 67.3112 186.997 67.1016 188H65.7412C66.0511 186.132 66.7347 184.272 67.792 182.422C68.4163 181.337 69.0726 180.401 69.7607 179.612H64.3467V178.375H71.1553ZM72.208 183.468H75.6396V184.732H72.208V183.468ZM76.7266 188C76.7721 187.157 76.9453 186.423 77.2461 185.799C77.5514 185.174 78.1439 184.607 79.0234 184.097L80.3359 183.338C80.9238 182.996 81.3363 182.704 81.5732 182.463C81.9469 182.085 82.1338 181.652 82.1338 181.164C82.1338 180.594 81.9629 180.143 81.6211 179.811C81.2793 179.473 80.8236 179.305 80.2539 179.305C79.4108 179.305 78.8275 179.624 78.5039 180.262C78.3307 180.604 78.235 181.077 78.2168 181.684H76.9658C76.9795 180.831 77.1367 180.136 77.4375 179.599C77.9707 178.651 78.9118 178.177 80.2607 178.177C81.3818 178.177 82.1999 178.48 82.7148 179.086C83.2344 179.692 83.4941 180.367 83.4941 181.109C83.4941 181.893 83.2184 182.563 82.667 183.119C82.348 183.443 81.776 183.835 80.9512 184.295L80.0146 184.814C79.568 185.061 79.2171 185.295 78.9619 185.519C78.5062 185.915 78.2191 186.355 78.1006 186.838H83.4463V188H76.7266ZM87.8691 178.211C89.1361 178.211 90.0521 178.733 90.6172 179.776C91.0547 180.583 91.2734 181.688 91.2734 183.092C91.2734 184.423 91.0752 185.523 90.6787 186.394C90.1045 187.642 89.1657 188.267 87.8623 188.267C86.6865 188.267 85.8115 187.756 85.2373 186.735C84.7588 185.883 84.5195 184.739 84.5195 183.304C84.5195 182.192 84.6631 181.237 84.9502 180.439C85.488 178.954 86.4609 178.211 87.8691 178.211ZM87.8555 187.146C88.4935 187.146 89.0016 186.863 89.3799 186.298C89.7581 185.733 89.9473 184.68 89.9473 183.14C89.9473 182.028 89.8105 181.114 89.5371 180.398C89.2637 179.678 88.7327 179.318 87.9443 179.318C87.2197 179.318 86.6888 179.66 86.3516 180.344C86.0189 181.023 85.8525 182.025 85.8525 183.352C85.8525 184.35 85.9596 185.152 86.1738 185.758C86.502 186.683 87.0625 187.146 87.8555 187.146Z" fill="#5D6066"/>
<rect x="204.5" y="167.5" width="179" height="31" rx="5.5" fill="#FAFAFA" stroke="#B7BBC1"/>
<rect opacity="0.01" x="356" y="171" width="24" height="24" fill="white"/>
<circle cx="368" cy="183" r="8" stroke="#5D6066" stroke-width="1.25" stroke-linejoin="round"/>
<path d="M368 177V183L372 187" stroke="#5D6066" stroke-width="1.25" stroke-linejoin="round"/>
<path d="M217.34 181.068V180.125C218.229 180.038 218.848 179.895 219.199 179.694C219.55 179.489 219.812 179.008 219.985 178.252H220.956V188H219.644V181.068H217.34ZM227.601 182.312C228.143 182.312 228.567 182.162 228.872 181.861C229.177 181.556 229.33 181.194 229.33 180.774C229.33 180.41 229.184 180.075 228.893 179.77C228.601 179.464 228.157 179.312 227.56 179.312C226.967 179.312 226.539 179.464 226.274 179.77C226.01 180.075 225.878 180.433 225.878 180.843C225.878 181.303 226.049 181.663 226.391 181.923C226.732 182.183 227.136 182.312 227.601 182.312ZM227.676 187.159C228.245 187.159 228.717 187.007 229.091 186.701C229.469 186.391 229.658 185.931 229.658 185.32C229.658 184.687 229.465 184.206 229.077 183.878C228.69 183.55 228.193 183.386 227.587 183.386C226.999 183.386 226.518 183.554 226.145 183.892C225.775 184.224 225.591 184.687 225.591 185.279C225.591 185.79 225.759 186.232 226.097 186.605C226.438 186.975 226.965 187.159 227.676 187.159ZM225.926 182.784C225.584 182.638 225.317 182.467 225.126 182.271C224.766 181.907 224.586 181.433 224.586 180.85C224.586 180.12 224.85 179.494 225.379 178.97C225.908 178.446 226.657 178.184 227.628 178.184C228.567 178.184 229.303 178.432 229.836 178.929C230.369 179.421 230.636 179.997 230.636 180.658C230.636 181.269 230.481 181.763 230.171 182.142C229.998 182.356 229.729 182.565 229.364 182.771C229.77 182.957 230.089 183.172 230.321 183.413C230.754 183.869 230.971 184.461 230.971 185.19C230.971 186.052 230.681 186.783 230.103 187.385C229.524 187.982 228.706 188.28 227.648 188.28C226.696 188.28 225.889 188.023 225.229 187.508C224.572 186.988 224.244 186.236 224.244 185.252C224.244 184.673 224.385 184.174 224.668 183.755C224.951 183.331 225.37 183.007 225.926 182.784ZM233.138 180.774H234.566V182.265H233.138V180.774ZM233.138 186.51H234.566V188H233.138V186.51ZM239.27 178.211C240.536 178.211 241.452 178.733 242.018 179.776C242.455 180.583 242.674 181.688 242.674 183.092C242.674 184.423 242.476 185.523 242.079 186.394C241.505 187.642 240.566 188.267 239.263 188.267C238.087 188.267 237.212 187.756 236.638 186.735C236.159 185.883 235.92 184.739 235.92 183.304C235.92 182.192 236.063 181.237 236.351 180.439C236.888 178.954 237.861 178.211 239.27 178.211ZM239.256 187.146C239.894 187.146 240.402 186.863 240.78 186.298C241.159 185.733 241.348 184.68 241.348 183.14C241.348 182.028 241.211 181.114 240.938 180.398C240.664 179.678 240.133 179.318 239.345 179.318C238.62 179.318 238.089 179.66 237.752 180.344C237.419 181.023 237.253 182.025 237.253 183.352C237.253 184.35 237.36 185.152 237.574 185.758C237.902 186.683 238.463 187.146 239.256 187.146ZM247.062 178.211C248.329 178.211 249.245 178.733 249.811 179.776C250.248 180.583 250.467 181.688 250.467 183.092C250.467 184.423 250.269 185.523 249.872 186.394C249.298 187.642 248.359 188.267 247.056 188.267C245.88 188.267 245.005 187.756 244.431 186.735C243.952 185.883 243.713 184.739 243.713 183.304C243.713 182.192 243.856 181.237 244.144 180.439C244.681 178.954 245.654 178.211 247.062 178.211ZM247.049 187.146C247.687 187.146 248.195 186.863 248.573 186.298C248.951 185.733 249.141 184.68 249.141 183.14C249.141 182.028 249.004 181.114 248.73 180.398C248.457 179.678 247.926 179.318 247.138 179.318C246.413 179.318 245.882 179.66 245.545 180.344C245.212 181.023 245.046 182.025 245.046 183.352C245.046 184.35 245.153 185.152 245.367 185.758C245.695 186.683 246.256 187.146 247.049 187.146Z" fill="#5D6066"/>
<rect x="16.5" y="237.5" width="179" height="31" rx="5.5" fill="#FAFAFA" stroke="#B7BBC1"/>
<rect opacity="0.01" x="168" y="241" width="24" height="24" fill="white"/>
<rect x="172" y="247" width="16" height="14" rx="2" stroke="#5D6066" stroke-width="1.25" stroke-linejoin="round"/>
<path d="M176 245V249" stroke="#5D6066" stroke-width="1.25" stroke-linejoin="round"/>
<path d="M184 245V249" stroke="#5D6066" stroke-width="1.25" stroke-linejoin="round"/>
<path d="M175 251H185" stroke="#5D6066" stroke-width="1.25" stroke-linejoin="round"/>
<path d="M28.4375 258C28.4831 257.157 28.6562 256.423 28.957 255.799C29.2624 255.174 29.8548 254.607 30.7344 254.097L32.0469 253.338C32.6348 252.996 33.0472 252.704 33.2842 252.463C33.6579 252.085 33.8447 251.652 33.8447 251.164C33.8447 250.594 33.6738 250.143 33.332 249.811C32.9902 249.473 32.5345 249.305 31.9648 249.305C31.1217 249.305 30.5384 249.624 30.2148 250.262C30.0417 250.604 29.946 251.077 29.9277 251.684H28.6768C28.6904 250.831 28.8477 250.136 29.1484 249.599C29.6816 248.651 30.6227 248.177 31.9717 248.177C33.0928 248.177 33.9108 248.48 34.4258 249.086C34.9453 249.692 35.2051 250.367 35.2051 251.109C35.2051 251.893 34.9294 252.563 34.3779 253.119C34.0589 253.443 33.487 253.835 32.6621 254.295L31.7256 254.814C31.279 255.061 30.9281 255.295 30.6729 255.519C30.2171 255.915 29.93 256.355 29.8115 256.838H35.1572V258H28.4375ZM39.5801 248.211C40.847 248.211 41.763 248.733 42.3281 249.776C42.7656 250.583 42.9844 251.688 42.9844 253.092C42.9844 254.423 42.7861 255.523 42.3896 256.394C41.8154 257.642 40.8766 258.267 39.5732 258.267C38.3975 258.267 37.5225 257.756 36.9482 256.735C36.4697 255.883 36.2305 254.739 36.2305 253.304C36.2305 252.192 36.374 251.237 36.6611 250.439C37.1989 248.954 38.1719 248.211 39.5801 248.211ZM39.5664 257.146C40.2044 257.146 40.7126 256.863 41.0908 256.298C41.4691 255.733 41.6582 254.68 41.6582 253.14C41.6582 252.028 41.5215 251.114 41.248 250.398C40.9746 249.678 40.4437 249.318 39.6553 249.318C38.9307 249.318 38.3997 249.66 38.0625 250.344C37.7298 251.023 37.5635 252.025 37.5635 253.352C37.5635 254.35 37.6706 255.152 37.8848 255.758C38.2129 256.683 38.7734 257.146 39.5664 257.146ZM44.0234 258C44.069 257.157 44.2422 256.423 44.543 255.799C44.8483 255.174 45.4408 254.607 46.3203 254.097L47.6328 253.338C48.2207 252.996 48.6331 252.704 48.8701 252.463C49.2438 252.085 49.4307 251.652 49.4307 251.164C49.4307 250.594 49.2598 250.143 48.918 249.811C48.5762 249.473 48.1204 249.305 47.5508 249.305C46.7077 249.305 46.1243 249.624 45.8008 250.262C45.6276 250.604 45.5319 251.077 45.5137 251.684H44.2627C44.2764 250.831 44.4336 250.136 44.7344 249.599C45.2676 248.651 46.2087 248.177 47.5576 248.177C48.6787 248.177 49.4967 248.48 50.0117 249.086C50.5312 249.692 50.791 250.367 50.791 251.109C50.791 251.893 50.5153 252.563 49.9639 253.119C49.6449 253.443 49.0729 253.835 48.248 254.295L47.3115 254.814C46.8649 255.061 46.514 255.295 46.2588 255.519C45.8031 255.915 45.516 256.355 45.3975 256.838H50.7432V258H44.0234ZM55.0156 258.267C53.8581 258.267 53.0173 257.95 52.4932 257.316C51.9736 256.678 51.7139 255.904 51.7139 254.992H52.999C53.0537 255.626 53.1722 256.086 53.3545 256.373C53.6735 256.888 54.25 257.146 55.084 257.146C55.7311 257.146 56.2507 256.972 56.6426 256.626C57.0345 256.28 57.2305 255.833 57.2305 255.286C57.2305 254.612 57.0231 254.14 56.6084 253.871C56.1982 253.602 55.6263 253.468 54.8926 253.468C54.8105 253.468 54.7262 253.47 54.6396 253.475C54.5576 253.475 54.4733 253.477 54.3867 253.481V252.395C54.5143 252.408 54.6214 252.417 54.708 252.422C54.7946 252.426 54.888 252.429 54.9883 252.429C55.4486 252.429 55.8268 252.356 56.123 252.21C56.6426 251.955 56.9023 251.499 56.9023 250.843C56.9023 250.355 56.7292 249.979 56.3828 249.715C56.0365 249.451 55.6331 249.318 55.1729 249.318C54.3525 249.318 53.7852 249.592 53.4707 250.139C53.2975 250.439 53.1995 250.868 53.1768 251.424H51.96C51.96 250.695 52.1058 250.075 52.3975 249.564C52.8988 248.653 53.7806 248.197 55.043 248.197C56.041 248.197 56.8135 248.421 57.3604 248.867C57.9072 249.309 58.1807 249.952 58.1807 250.795C58.1807 251.396 58.0189 251.884 57.6953 252.258C57.4948 252.49 57.235 252.673 56.916 252.805C57.431 252.946 57.832 253.219 58.1191 253.625C58.4108 254.026 58.5566 254.518 58.5566 255.102C58.5566 256.036 58.249 256.797 57.6338 257.385C57.0186 257.973 56.1458 258.267 55.0156 258.267ZM59.7529 253.468H63.1846V254.732H59.7529V253.468ZM67.6416 252.312C68.1839 252.312 68.6077 252.162 68.9131 251.861C69.2184 251.556 69.3711 251.194 69.3711 250.774C69.3711 250.41 69.2253 250.075 68.9336 249.77C68.6419 249.464 68.1976 249.312 67.6006 249.312C67.0081 249.312 66.5798 249.464 66.3154 249.77C66.0511 250.075 65.9189 250.433 65.9189 250.843C65.9189 251.303 66.0898 251.663 66.4316 251.923C66.7734 252.183 67.1768 252.312 67.6416 252.312ZM67.7168 257.159C68.2865 257.159 68.7581 257.007 69.1318 256.701C69.5101 256.391 69.6992 255.931 69.6992 255.32C69.6992 254.687 69.5055 254.206 69.1182 253.878C68.7308 253.55 68.234 253.386 67.6279 253.386C67.04 253.386 66.5592 253.554 66.1855 253.892C65.8164 254.224 65.6318 254.687 65.6318 255.279C65.6318 255.79 65.8005 256.232 66.1377 256.605C66.4795 256.975 67.0059 257.159 67.7168 257.159ZM65.9668 252.784C65.625 252.638 65.3584 252.467 65.167 252.271C64.807 251.907 64.627 251.433 64.627 250.85C64.627 250.12 64.8913 249.494 65.4199 248.97C65.9486 248.446 66.6982 248.184 67.6689 248.184C68.6077 248.184 69.3438 248.432 69.877 248.929C70.4102 249.421 70.6768 249.997 70.6768 250.658C70.6768 251.269 70.5218 251.763 70.2119 252.142C70.0387 252.356 69.7699 252.565 69.4053 252.771C69.8109 252.957 70.1299 253.172 70.3623 253.413C70.7952 253.869 71.0117 254.461 71.0117 255.19C71.0117 256.052 70.7223 256.783 70.1436 257.385C69.5648 257.982 68.7467 258.28 67.6895 258.28C66.737 258.28 65.9303 258.023 65.2695 257.508C64.6133 256.988 64.2852 256.236 64.2852 255.252C64.2852 254.673 64.4264 254.174 64.709 253.755C64.9915 253.331 65.4108 253.007 65.9668 252.784ZM72.208 253.468H75.6396V254.732H72.208V253.468ZM76.7266 258C76.7721 257.157 76.9453 256.423 77.2461 255.799C77.5514 255.174 78.1439 254.607 79.0234 254.097L80.3359 253.338C80.9238 252.996 81.3363 252.704 81.5732 252.463C81.9469 252.085 82.1338 251.652 82.1338 251.164C82.1338 250.594 81.9629 250.143 81.6211 249.811C81.2793 249.473 80.8236 249.305 80.2539 249.305C79.4108 249.305 78.8275 249.624 78.5039 250.262C78.3307 250.604 78.235 251.077 78.2168 251.684H76.9658C76.9795 250.831 77.1367 250.136 77.4375 249.599C77.9707 248.651 78.9118 248.177 80.2607 248.177C81.3818 248.177 82.1999 248.48 82.7148 249.086C83.2344 249.692 83.4941 250.367 83.4941 251.109C83.4941 251.893 83.2184 252.563 82.667 253.119C82.348 253.443 81.776 253.835 80.9512 254.295L80.0146 254.814C79.568 255.061 79.2171 255.295 78.9619 255.519C78.5062 255.915 78.2191 256.355 78.1006 256.838H83.4463V258H76.7266ZM87.8691 248.211C89.1361 248.211 90.0521 248.733 90.6172 249.776C91.0547 250.583 91.2734 251.688 91.2734 253.092C91.2734 254.423 91.0752 255.523 90.6787 256.394C90.1045 257.642 89.1657 258.267 87.8623 258.267C86.6865 258.267 85.8115 257.756 85.2373 256.735C84.7588 255.883 84.5195 254.739 84.5195 253.304C84.5195 252.192 84.6631 251.237 84.9502 250.439C85.488 248.954 86.4609 248.211 87.8691 248.211ZM87.8555 257.146C88.4935 257.146 89.0016 256.863 89.3799 256.298C89.7581 255.733 89.9473 254.68 89.9473 253.14C89.9473 252.028 89.8105 251.114 89.5371 250.398C89.2637 249.678 88.7327 249.318 87.9443 249.318C87.2197 249.318 86.6888 249.66 86.3516 250.344C86.0189 251.023 85.8525 252.025 85.8525 253.352C85.8525 254.35 85.9596 255.152 86.1738 255.758C86.502 256.683 87.0625 257.146 87.8555 257.146Z" fill="#5D6066"/>
<rect x="204.5" y="237.5" width="179" height="31" rx="5.5" fill="#FAFAFA" stroke="#B7BBC1"/>
<rect opacity="0.01" x="356" y="241" width="24" height="24" fill="white"/>
<circle cx="368" cy="253" r="8" stroke="#5D6066" stroke-width="1.25" stroke-linejoin="round"/>
<path d="M368 247V253L372 257" stroke="#5D6066" stroke-width="1.25" stroke-linejoin="round"/>
<path d="M217.34 251.068V250.125C218.229 250.038 218.848 249.895 219.199 249.694C219.55 249.489 219.812 249.008 219.985 248.252H220.956V258H219.644V251.068H217.34ZM227.601 252.312C228.143 252.312 228.567 252.162 228.872 251.861C229.177 251.556 229.33 251.194 229.33 250.774C229.33 250.41 229.184 250.075 228.893 249.77C228.601 249.464 228.157 249.312 227.56 249.312C226.967 249.312 226.539 249.464 226.274 249.77C226.01 250.075 225.878 250.433 225.878 250.843C225.878 251.303 226.049 251.663 226.391 251.923C226.732 252.183 227.136 252.312 227.601 252.312ZM227.676 257.159C228.245 257.159 228.717 257.007 229.091 256.701C229.469 256.391 229.658 255.931 229.658 255.32C229.658 254.687 229.465 254.206 229.077 253.878C228.69 253.55 228.193 253.386 227.587 253.386C226.999 253.386 226.518 253.554 226.145 253.892C225.775 254.224 225.591 254.687 225.591 255.279C225.591 255.79 225.759 256.232 226.097 256.605C226.438 256.975 226.965 257.159 227.676 257.159ZM225.926 252.784C225.584 252.638 225.317 252.467 225.126 252.271C224.766 251.907 224.586 251.433 224.586 250.85C224.586 250.12 224.85 249.494 225.379 248.97C225.908 248.446 226.657 248.184 227.628 248.184C228.567 248.184 229.303 248.432 229.836 248.929C230.369 249.421 230.636 249.997 230.636 250.658C230.636 251.269 230.481 251.763 230.171 252.142C229.998 252.356 229.729 252.565 229.364 252.771C229.77 252.957 230.089 253.172 230.321 253.413C230.754 253.869 230.971 254.461 230.971 255.19C230.971 256.052 230.681 256.783 230.103 257.385C229.524 257.982 228.706 258.28 227.648 258.28C226.696 258.28 225.889 258.023 225.229 257.508C224.572 256.988 224.244 256.236 224.244 255.252C224.244 254.673 224.385 254.174 224.668 253.755C224.951 253.331 225.37 253.007 225.926 252.784ZM233.138 250.774H234.566V252.265H233.138V250.774ZM233.138 256.51H234.566V258H233.138V256.51ZM239.119 258.267C237.962 258.267 237.121 257.95 236.597 257.316C236.077 256.678 235.817 255.904 235.817 254.992H237.103C237.157 255.626 237.276 256.086 237.458 256.373C237.777 256.888 238.354 257.146 239.188 257.146C239.835 257.146 240.354 256.972 240.746 256.626C241.138 256.28 241.334 255.833 241.334 255.286C241.334 254.612 241.127 254.14 240.712 253.871C240.302 253.602 239.73 253.468 238.996 253.468C238.914 253.468 238.83 253.47 238.743 253.475C238.661 253.475 238.577 253.477 238.49 253.481V252.395C238.618 252.408 238.725 252.417 238.812 252.422C238.898 252.426 238.992 252.429 239.092 252.429C239.552 252.429 239.93 252.356 240.227 252.21C240.746 251.955 241.006 251.499 241.006 250.843C241.006 250.355 240.833 249.979 240.486 249.715C240.14 249.451 239.737 249.318 239.276 249.318C238.456 249.318 237.889 249.592 237.574 250.139C237.401 250.439 237.303 250.868 237.28 251.424H236.063C236.063 250.695 236.209 250.075 236.501 249.564C237.002 248.653 237.884 248.197 239.146 248.197C240.145 248.197 240.917 248.421 241.464 248.867C242.011 249.309 242.284 249.952 242.284 250.795C242.284 251.396 242.122 251.884 241.799 252.258C241.598 252.49 241.339 252.673 241.02 252.805C241.535 252.946 241.936 253.219 242.223 253.625C242.514 254.026 242.66 254.518 242.66 255.102C242.66 256.036 242.353 256.797 241.737 257.385C241.122 257.973 240.249 258.267 239.119 258.267ZM247.062 248.211C248.329 248.211 249.245 248.733 249.811 249.776C250.248 250.583 250.467 251.688 250.467 253.092C250.467 254.423 250.269 255.523 249.872 256.394C249.298 257.642 248.359 258.267 247.056 258.267C245.88 258.267 245.005 257.756 244.431 256.735C243.952 255.883 243.713 254.739 243.713 253.304C243.713 252.192 243.856 251.237 244.144 250.439C244.681 248.954 245.654 248.211 247.062 248.211ZM247.049 257.146C247.687 257.146 248.195 256.863 248.573 256.298C248.951 255.733 249.141 254.68 249.141 253.14C249.141 252.028 249.004 251.114 248.73 250.398C248.457 249.678 247.926 249.318 247.138 249.318C246.413 249.318 245.882 249.66 245.545 250.344C245.212 251.023 245.046 252.025 245.046 253.352C245.046 254.35 245.153 255.152 245.367 255.758C245.695 256.683 246.256 257.146 247.049 257.146Z" fill="#5D6066"/>
<path d="M29.6758 155.223C29.7031 155.711 29.8184 156.107 30.0215 156.412C30.4082 156.982 31.0898 157.268 32.0664 157.268C32.5039 157.268 32.9023 157.205 33.2617 157.08C33.957 156.838 34.3047 156.404 34.3047 155.779C34.3047 155.311 34.1582 154.977 33.8652 154.777C33.5684 154.582 33.1035 154.412 32.4707 154.268L31.3047 154.004C30.543 153.832 30.0039 153.643 29.6875 153.436C29.1406 153.076 28.8672 152.539 28.8672 151.824C28.8672 151.051 29.1348 150.416 29.6699 149.92C30.2051 149.424 30.9629 149.176 31.9434 149.176C32.8457 149.176 33.6113 149.395 34.2402 149.832C34.873 150.266 35.1895 150.961 35.1895 151.918H34.0938C34.0352 151.457 33.9102 151.104 33.7188 150.857C33.3633 150.408 32.7598 150.184 31.9082 150.184C31.2207 150.184 30.7266 150.328 30.4258 150.617C30.125 150.906 29.9746 151.242 29.9746 151.625C29.9746 152.047 30.1504 152.355 30.502 152.551C30.7324 152.676 31.2539 152.832 32.0664 153.02L33.2734 153.295C33.8555 153.428 34.3047 153.609 34.6211 153.84C35.168 154.242 35.4414 154.826 35.4414 155.592C35.4414 156.545 35.0938 157.227 34.3984 157.637C33.707 158.047 32.9023 158.252 31.9844 158.252C30.9141 158.252 30.0762 157.979 29.4707 157.432C28.8652 156.889 28.5684 156.152 28.5801 155.223H29.6758ZM36.9883 149.973H38.0547V151.725H39.0566V152.586H38.0547V156.682C38.0547 156.9 38.1289 157.047 38.2773 157.121C38.3594 157.164 38.4961 157.186 38.6875 157.186C38.7383 157.186 38.793 157.186 38.8516 157.186C38.9102 157.182 38.9785 157.176 39.0566 157.168V158C38.9355 158.035 38.8086 158.061 38.6758 158.076C38.5469 158.092 38.4062 158.1 38.2539 158.1C37.7617 158.1 37.4277 157.975 37.252 157.725C37.0762 157.471 36.9883 157.143 36.9883 156.74V152.586H36.1387V151.725H36.9883V149.973ZM40.9258 156.33C40.9258 156.635 41.0371 156.875 41.2598 157.051C41.4824 157.227 41.7461 157.314 42.0508 157.314C42.4219 157.314 42.7812 157.229 43.1289 157.057C43.7148 156.771 44.0078 156.305 44.0078 155.656V154.807C43.8789 154.889 43.7129 154.957 43.5098 155.012C43.3066 155.066 43.1074 155.105 42.9121 155.129L42.2734 155.211C41.8906 155.262 41.6035 155.342 41.4121 155.451C41.0879 155.635 40.9258 155.928 40.9258 156.33ZM43.4805 154.197C43.7227 154.166 43.8848 154.064 43.9668 153.893C44.0137 153.799 44.0371 153.664 44.0371 153.488C44.0371 153.129 43.9082 152.869 43.6504 152.709C43.3965 152.545 43.0312 152.463 42.5547 152.463C42.0039 152.463 41.6133 152.611 41.3828 152.908C41.2539 153.072 41.1699 153.316 41.1309 153.641H40.1465C40.166 152.867 40.416 152.33 40.8965 152.029C41.3809 151.725 41.9414 151.572 42.5781 151.572C43.3164 151.572 43.916 151.713 44.377 151.994C44.834 152.275 45.0625 152.713 45.0625 153.307V156.922C45.0625 157.031 45.084 157.119 45.127 157.186C45.1738 157.252 45.2695 157.285 45.4141 157.285C45.4609 157.285 45.5137 157.283 45.5723 157.279C45.6309 157.271 45.6934 157.262 45.7598 157.25V158.029C45.5957 158.076 45.4707 158.105 45.3848 158.117C45.2988 158.129 45.1816 158.135 45.0332 158.135C44.6699 158.135 44.4062 158.006 44.2422 157.748C44.1562 157.611 44.0957 157.418 44.0605 157.168C43.8457 157.449 43.5371 157.693 43.1348 157.9C42.7324 158.107 42.2891 158.211 41.8047 158.211C41.2227 158.211 40.7461 158.035 40.375 157.684C40.0078 157.328 39.8242 156.885 39.8242 156.354C39.8242 155.771 40.0059 155.32 40.3691 155C40.7324 154.68 41.209 154.482 41.7988 154.408L43.4805 154.197ZM46.8262 151.725H47.8281V152.809C47.9102 152.598 48.1113 152.342 48.4316 152.041C48.752 151.736 49.1211 151.584 49.5391 151.584C49.5586 151.584 49.5918 151.586 49.6387 151.59C49.6855 151.594 49.7656 151.602 49.8789 151.613V152.727C49.8164 152.715 49.7578 152.707 49.7031 152.703C49.6523 152.699 49.5957 152.697 49.5332 152.697C49.002 152.697 48.5938 152.869 48.3086 153.213C48.0234 153.553 47.8809 153.945 47.8809 154.391V158H46.8262V151.725ZM51.0039 149.973H52.0703V151.725H53.0723V152.586H52.0703V156.682C52.0703 156.9 52.1445 157.047 52.293 157.121C52.375 157.164 52.5117 157.186 52.7031 157.186C52.7539 157.186 52.8086 157.186 52.8672 157.186C52.9258 157.182 52.9941 157.176 53.0723 157.168V158C52.9512 158.035 52.8242 158.061 52.6914 158.076C52.5625 158.092 52.4219 158.1 52.2695 158.1C51.7773 158.1 51.4434 157.975 51.2676 157.725C51.0918 157.471 51.0039 157.143 51.0039 156.74V152.586H50.1543V151.725H51.0039V149.973ZM63.666 149.393V150.418H60.7656V158H59.582V150.418H56.6816V149.393H63.666ZM64.1523 151.754H65.2246V158H64.1523V151.754ZM64.1523 149.393H65.2246V150.588H64.1523V149.393ZM66.8242 151.725H67.8672V152.615C68.1172 152.307 68.3438 152.082 68.5469 151.941C68.8945 151.703 69.2891 151.584 69.7305 151.584C70.2305 151.584 70.6328 151.707 70.9375 151.953C71.1094 152.094 71.2656 152.301 71.4062 152.574C71.6406 152.238 71.916 151.99 72.2324 151.83C72.5488 151.666 72.9043 151.584 73.2988 151.584C74.1426 151.584 74.7168 151.889 75.0215 152.498C75.1855 152.826 75.2676 153.268 75.2676 153.822V158H74.1719V153.641C74.1719 153.223 74.0664 152.936 73.8555 152.779C73.6484 152.623 73.3945 152.545 73.0938 152.545C72.6797 152.545 72.3223 152.684 72.0215 152.961C71.7246 153.238 71.5762 153.701 71.5762 154.35V158H70.5039V153.904C70.5039 153.479 70.4531 153.168 70.3516 152.973C70.1914 152.68 69.8926 152.533 69.4551 152.533C69.0566 152.533 68.6934 152.688 68.3652 152.996C68.041 153.305 67.8789 153.863 67.8789 154.672V158H66.8242V151.725ZM79.4336 151.584C79.8789 151.584 80.3105 151.689 80.7285 151.9C81.1465 152.107 81.4648 152.377 81.6836 152.709C81.8945 153.025 82.0352 153.395 82.1055 153.816C82.168 154.105 82.1992 154.566 82.1992 155.199H77.5996C77.6191 155.836 77.7695 156.348 78.0508 156.734C78.332 157.117 78.7676 157.309 79.3574 157.309C79.9082 157.309 80.3477 157.127 80.6758 156.764C80.8633 156.553 80.9961 156.309 81.0742 156.031H82.1113C82.084 156.262 81.9922 156.52 81.8359 156.805C81.6836 157.086 81.5117 157.316 81.3203 157.496C81 157.809 80.6035 158.02 80.1309 158.129C79.877 158.191 79.5898 158.223 79.2695 158.223C78.4883 158.223 77.8262 157.939 77.2832 157.373C76.7402 156.803 76.4688 156.006 76.4688 154.982C76.4688 153.975 76.7422 153.156 77.2891 152.527C77.8359 151.898 78.5508 151.584 79.4336 151.584ZM81.1152 154.361C81.0723 153.904 80.9727 153.539 80.8164 153.266C80.5273 152.758 80.0449 152.504 79.3691 152.504C78.8848 152.504 78.4785 152.68 78.1504 153.031C77.8223 153.379 77.6484 153.822 77.6289 154.361H81.1152Z" fill="#B7BBC1"/>
<path d="M29.0254 219.393H35.3008V220.447H30.1621V223.061H34.9141V224.057H30.1621V226.975H35.3887V228H29.0254V219.393ZM36.7773 221.725H37.7793V222.615C38.0762 222.248 38.3906 221.984 38.7227 221.824C39.0547 221.664 39.4238 221.584 39.8301 221.584C40.7207 221.584 41.3223 221.895 41.6348 222.516C41.8066 222.855 41.8926 223.342 41.8926 223.975V228H40.8203V224.045C40.8203 223.662 40.7637 223.354 40.6504 223.119C40.4629 222.729 40.123 222.533 39.6309 222.533C39.3809 222.533 39.1758 222.559 39.0156 222.609C38.7266 222.695 38.4727 222.867 38.2539 223.125C38.0781 223.332 37.9629 223.547 37.9082 223.77C37.8574 223.988 37.832 224.303 37.832 224.713V228H36.7773V221.725ZM44.125 224.936C44.125 225.607 44.2676 226.17 44.5527 226.623C44.8379 227.076 45.2949 227.303 45.9238 227.303C46.4121 227.303 46.8125 227.094 47.125 226.676C47.4414 226.254 47.5996 225.65 47.5996 224.865C47.5996 224.072 47.4375 223.486 47.1133 223.107C46.7891 222.725 46.3887 222.533 45.9121 222.533C45.3809 222.533 44.9492 222.736 44.6172 223.143C44.2891 223.549 44.125 224.146 44.125 224.936ZM45.7129 221.613C46.1934 221.613 46.5957 221.715 46.9199 221.918C47.1074 222.035 47.3203 222.24 47.5586 222.533V219.363H48.5723V228H47.623V227.127C47.377 227.514 47.0859 227.793 46.75 227.965C46.4141 228.137 46.0293 228.223 45.5957 228.223C44.8965 228.223 44.291 227.93 43.7793 227.344C43.2676 226.754 43.0117 225.971 43.0117 224.994C43.0117 224.08 43.2441 223.289 43.709 222.621C44.1777 221.949 44.8457 221.613 45.7129 221.613ZM59.6699 219.393V220.418H56.7695V228H55.5859V220.418H52.6855V219.393H59.6699ZM60.1562 221.754H61.2285V228H60.1562V221.754ZM60.1562 219.393H61.2285V220.588H60.1562V219.393ZM62.8281 221.725H63.8711V222.615C64.1211 222.307 64.3477 222.082 64.5508 221.941C64.8984 221.703 65.293 221.584 65.7344 221.584C66.2344 221.584 66.6367 221.707 66.9414 221.953C67.1133 222.094 67.2695 222.301 67.4102 222.574C67.6445 222.238 67.9199 221.99 68.2363 221.83C68.5527 221.666 68.9082 221.584 69.3027 221.584C70.1465 221.584 70.7207 221.889 71.0254 222.498C71.1895 222.826 71.2715 223.268 71.2715 223.822V228H70.1758V223.641C70.1758 223.223 70.0703 222.936 69.8594 222.779C69.6523 222.623 69.3984 222.545 69.0977 222.545C68.6836 222.545 68.3262 222.684 68.0254 222.961C67.7285 223.238 67.5801 223.701 67.5801 224.35V228H66.5078V223.904C66.5078 223.479 66.457 223.168 66.3555 222.973C66.1953 222.68 65.8965 222.533 65.459 222.533C65.0605 222.533 64.6973 222.688 64.3691 222.996C64.0449 223.305 63.8828 223.863 63.8828 224.672V228H62.8281V221.725ZM75.4375 221.584C75.8828 221.584 76.3145 221.689 76.7324 221.9C77.1504 222.107 77.4688 222.377 77.6875 222.709C77.8984 223.025 78.0391 223.395 78.1094 223.816C78.1719 224.105 78.2031 224.566 78.2031 225.199H73.6035C73.623 225.836 73.7734 226.348 74.0547 226.734C74.3359 227.117 74.7715 227.309 75.3613 227.309C75.9121 227.309 76.3516 227.127 76.6797 226.764C76.8672 226.553 77 226.309 77.0781 226.031H78.1152C78.0879 226.262 77.9961 226.52 77.8398 226.805C77.6875 227.086 77.5156 227.316 77.3242 227.496C77.0039 227.809 76.6074 228.02 76.1348 228.129C75.8809 228.191 75.5938 228.223 75.2734 228.223C74.4922 228.223 73.8301 227.939 73.2871 227.373C72.7441 226.803 72.4727 226.006 72.4727 224.982C72.4727 223.975 72.7461 223.156 73.293 222.527C73.8398 221.898 74.5547 221.584 75.4375 221.584ZM77.1191 224.361C77.0762 223.904 76.9766 223.539 76.8203 223.266C76.5312 222.758 76.0488 222.504 75.373 222.504C74.8887 222.504 74.4824 222.68 74.1543 223.031C73.8262 223.379 73.6523 223.822 73.6328 224.361H77.1191Z" fill="#B7BBC1"/>
<rect x="149.5" y="31.5" width="101" height="97" rx="11.5" fill="#FAFAFA" stroke="#B7BBC1"/>
<path d="M294.08 99.1582C295.6 99.1582 296.725 99.6465 297.455 100.623C298.025 101.385 298.311 102.359 298.311 103.547C298.311 104.832 297.984 105.9 297.332 106.752C296.566 107.752 295.475 108.252 294.057 108.252C292.732 108.252 291.691 107.814 290.934 106.939C290.258 106.096 289.92 105.029 289.92 103.74C289.92 102.576 290.209 101.58 290.787 100.752C291.529 99.6895 292.627 99.1582 294.08 99.1582ZM294.197 107.209C295.225 107.209 295.967 106.842 296.424 106.107C296.885 105.369 297.115 104.521 297.115 103.564C297.115 102.553 296.85 101.738 296.318 101.121C295.791 100.504 295.068 100.195 294.15 100.195C293.26 100.195 292.533 100.502 291.971 101.115C291.408 101.725 291.127 102.625 291.127 103.816C291.127 104.77 291.367 105.574 291.848 106.23C292.332 106.883 293.115 107.209 294.197 107.209ZM299.564 101.725H300.566V102.615C300.863 102.248 301.178 101.984 301.51 101.824C301.842 101.664 302.211 101.584 302.617 101.584C303.508 101.584 304.109 101.895 304.422 102.516C304.594 102.855 304.68 103.342 304.68 103.975V108H303.607V104.045C303.607 103.662 303.551 103.354 303.438 103.119C303.25 102.729 302.91 102.533 302.418 102.533C302.168 102.533 301.963 102.559 301.803 102.609C301.514 102.695 301.26 102.867 301.041 103.125C300.865 103.332 300.75 103.547 300.695 103.77C300.645 103.988 300.619 104.303 300.619 104.713V108H299.564V101.725ZM308.857 101.584C309.303 101.584 309.734 101.689 310.152 101.9C310.57 102.107 310.889 102.377 311.107 102.709C311.318 103.025 311.459 103.395 311.529 103.816C311.592 104.105 311.623 104.566 311.623 105.199H307.023C307.043 105.836 307.193 106.348 307.475 106.734C307.756 107.117 308.191 107.309 308.781 107.309C309.332 107.309 309.771 107.127 310.1 106.764C310.287 106.553 310.42 106.309 310.498 106.031H311.535C311.508 106.262 311.416 106.52 311.26 106.805C311.107 107.086 310.936 107.316 310.744 107.496C310.424 107.809 310.027 108.02 309.555 108.129C309.301 108.191 309.014 108.223 308.693 108.223C307.912 108.223 307.25 107.939 306.707 107.373C306.164 106.803 305.893 106.006 305.893 104.982C305.893 103.975 306.166 103.156 306.713 102.527C307.26 101.898 307.975 101.584 308.857 101.584ZM310.539 104.361C310.496 103.904 310.396 103.539 310.24 103.266C309.951 102.758 309.469 102.504 308.793 102.504C308.309 102.504 307.902 102.68 307.574 103.031C307.246 103.379 307.072 103.822 307.053 104.361H310.539ZM316.475 99.9727H317.541V101.725H318.543V102.586H317.541V106.682C317.541 106.9 317.615 107.047 317.764 107.121C317.846 107.164 317.982 107.186 318.174 107.186C318.225 107.186 318.279 107.186 318.338 107.186C318.396 107.182 318.465 107.176 318.543 107.168V108C318.422 108.035 318.295 108.061 318.162 108.076C318.033 108.092 317.893 108.1 317.74 108.1C317.248 108.1 316.914 107.975 316.738 107.725C316.562 107.471 316.475 107.143 316.475 106.74V102.586H315.625V101.725H316.475V99.9727ZM322.094 107.32C322.793 107.32 323.271 107.057 323.529 106.529C323.791 105.998 323.922 105.408 323.922 104.76C323.922 104.174 323.828 103.697 323.641 103.33C323.344 102.752 322.832 102.463 322.105 102.463C321.461 102.463 320.992 102.709 320.699 103.201C320.406 103.693 320.26 104.287 320.26 104.982C320.26 105.65 320.406 106.207 320.699 106.652C320.992 107.098 321.457 107.32 322.094 107.32ZM322.135 101.543C322.943 101.543 323.627 101.812 324.186 102.352C324.744 102.891 325.023 103.684 325.023 104.73C325.023 105.742 324.777 106.578 324.285 107.238C323.793 107.898 323.029 108.229 321.994 108.229C321.131 108.229 320.445 107.938 319.938 107.355C319.43 106.77 319.176 105.984 319.176 105C319.176 103.945 319.443 103.105 319.979 102.48C320.514 101.855 321.232 101.543 322.135 101.543ZM333.479 99.1582C334.998 99.1582 336.123 99.6465 336.854 100.623C337.424 101.385 337.709 102.359 337.709 103.547C337.709 104.832 337.383 105.9 336.73 106.752C335.965 107.752 334.873 108.252 333.455 108.252C332.131 108.252 331.09 107.814 330.332 106.939C329.656 106.096 329.318 105.029 329.318 103.74C329.318 102.576 329.607 101.58 330.186 100.752C330.928 99.6895 332.025 99.1582 333.479 99.1582ZM333.596 107.209C334.623 107.209 335.365 106.842 335.822 106.107C336.283 105.369 336.514 104.521 336.514 103.564C336.514 102.553 336.248 101.738 335.717 101.121C335.189 100.504 334.467 100.195 333.549 100.195C332.658 100.195 331.932 100.502 331.369 101.115C330.807 101.725 330.525 102.625 330.525 103.816C330.525 104.77 330.766 105.574 331.246 106.23C331.73 106.883 332.514 107.209 333.596 107.209ZM338.963 101.725H339.965V102.615C340.262 102.248 340.576 101.984 340.908 101.824C341.24 101.664 341.609 101.584 342.016 101.584C342.906 101.584 343.508 101.895 343.82 102.516C343.992 102.855 344.078 103.342 344.078 103.975V108H343.006V104.045C343.006 103.662 342.949 103.354 342.836 103.119C342.648 102.729 342.309 102.533 341.816 102.533C341.566 102.533 341.361 102.559 341.201 102.609C340.912 102.695 340.658 102.867 340.439 103.125C340.264 103.332 340.148 103.547 340.094 103.77C340.043 103.988 340.018 104.303 340.018 104.713V108H338.963V101.725ZM348.256 101.584C348.701 101.584 349.133 101.689 349.551 101.9C349.969 102.107 350.287 102.377 350.506 102.709C350.717 103.025 350.857 103.395 350.928 103.816C350.99 104.105 351.021 104.566 351.021 105.199H346.422C346.441 105.836 346.592 106.348 346.873 106.734C347.154 107.117 347.59 107.309 348.18 107.309C348.73 107.309 349.17 107.127 349.498 106.764C349.686 106.553 349.818 106.309 349.896 106.031H350.934C350.906 106.262 350.814 106.52 350.658 106.805C350.506 107.086 350.334 107.316 350.143 107.496C349.822 107.809 349.426 108.02 348.953 108.129C348.699 108.191 348.412 108.223 348.092 108.223C347.311 108.223 346.648 107.939 346.105 107.373C345.562 106.803 345.291 106.006 345.291 104.982C345.291 103.975 345.564 103.156 346.111 102.527C346.658 101.898 347.373 101.584 348.256 101.584ZM349.938 104.361C349.895 103.904 349.795 103.539 349.639 103.266C349.35 102.758 348.867 102.504 348.191 102.504C347.707 102.504 347.301 102.68 346.973 103.031C346.645 103.379 346.471 103.822 346.451 104.361H349.938Z" fill="#B7BBC1"/>
<rect opacity="0.01" x="296" y="47" width="48" height="48" fill="white"/>
<path d="M304 69V59C304 57.8954 304.895 57 306 57H334C335.105 57 336 57.8954 336 59V69" stroke="#B7BBC1" stroke-width="2" stroke-linejoin="round"/>
<path d="M338 85V85C338 82.7909 336.209 81 334 81H330C327.791 81 326 82.7909 326 85V85" stroke="#B7BBC1" stroke-width="2" stroke-linejoin="round"/>
<path d="M326 85V85C326 82.7909 324.209 81 322 81H318C315.791 81 314 82.7909 314 85V85" stroke="#B7BBC1" stroke-width="2" stroke-linejoin="round"/>
<path d="M314 85V85C314 82.7909 312.209 81 310 81H306C303.791 81 302 82.7909 302 85V85" stroke="#B7BBC1" stroke-width="2" stroke-linejoin="round"/>
<circle cx="332" cy="76" r="3" stroke="#B7BBC1" stroke-width="2" stroke-linejoin="round"/>
<circle cx="320" cy="76" r="3" stroke="#B7BBC1" stroke-width="2" stroke-linejoin="round"/>
<circle cx="308" cy="76" r="3" stroke="#B7BBC1" stroke-width="2" stroke-linejoin="round"/>
<path d="M169.982 105.223C170.01 105.711 170.125 106.107 170.328 106.412C170.715 106.982 171.396 107.268 172.373 107.268C172.811 107.268 173.209 107.205 173.568 107.08C174.264 106.838 174.611 106.404 174.611 105.779C174.611 105.311 174.465 104.977 174.172 104.777C173.875 104.582 173.41 104.412 172.777 104.268L171.611 104.004C170.85 103.832 170.311 103.643 169.994 103.436C169.447 103.076 169.174 102.539 169.174 101.824C169.174 101.051 169.441 100.416 169.977 99.9199C170.512 99.4238 171.27 99.1758 172.25 99.1758C173.152 99.1758 173.918 99.3945 174.547 99.832C175.18 100.266 175.496 100.961 175.496 101.918H174.4C174.342 101.457 174.217 101.104 174.025 100.857C173.67 100.408 173.066 100.184 172.215 100.184C171.527 100.184 171.033 100.328 170.732 100.617C170.432 100.906 170.281 101.242 170.281 101.625C170.281 102.047 170.457 102.355 170.809 102.551C171.039 102.676 171.561 102.832 172.373 103.02L173.58 103.295C174.162 103.428 174.611 103.609 174.928 103.84C175.475 104.242 175.748 104.826 175.748 105.592C175.748 106.545 175.4 107.227 174.705 107.637C174.014 108.047 173.209 108.252 172.291 108.252C171.221 108.252 170.383 107.979 169.777 107.432C169.172 106.889 168.875 106.152 168.887 105.223H169.982ZM177.084 101.725H178.127V102.615C178.377 102.307 178.604 102.082 178.807 101.941C179.154 101.703 179.549 101.584 179.99 101.584C180.49 101.584 180.893 101.707 181.197 101.953C181.369 102.094 181.525 102.301 181.666 102.574C181.9 102.238 182.176 101.99 182.492 101.83C182.809 101.666 183.164 101.584 183.559 101.584C184.402 101.584 184.977 101.889 185.281 102.498C185.445 102.826 185.527 103.268 185.527 103.822V108H184.432V103.641C184.432 103.223 184.326 102.936 184.115 102.779C183.908 102.623 183.654 102.545 183.354 102.545C182.939 102.545 182.582 102.684 182.281 102.961C181.984 103.238 181.836 103.701 181.836 104.35V108H180.764V103.904C180.764 103.479 180.713 103.168 180.611 102.973C180.451 102.68 180.152 102.533 179.715 102.533C179.316 102.533 178.953 102.688 178.625 102.996C178.301 103.305 178.139 103.863 178.139 104.672V108H177.084V101.725ZM187.889 106.33C187.889 106.635 188 106.875 188.223 107.051C188.445 107.227 188.709 107.314 189.014 107.314C189.385 107.314 189.744 107.229 190.092 107.057C190.678 106.771 190.971 106.305 190.971 105.656V104.807C190.842 104.889 190.676 104.957 190.473 105.012C190.27 105.066 190.07 105.105 189.875 105.129L189.236 105.211C188.854 105.262 188.566 105.342 188.375 105.451C188.051 105.635 187.889 105.928 187.889 106.33ZM190.443 104.197C190.686 104.166 190.848 104.064 190.93 103.893C190.977 103.799 191 103.664 191 103.488C191 103.129 190.871 102.869 190.613 102.709C190.359 102.545 189.994 102.463 189.518 102.463C188.967 102.463 188.576 102.611 188.346 102.908C188.217 103.072 188.133 103.316 188.094 103.641H187.109C187.129 102.867 187.379 102.33 187.859 102.029C188.344 101.725 188.904 101.572 189.541 101.572C190.279 101.572 190.879 101.713 191.34 101.994C191.797 102.275 192.025 102.713 192.025 103.307V106.922C192.025 107.031 192.047 107.119 192.09 107.186C192.137 107.252 192.232 107.285 192.377 107.285C192.424 107.285 192.477 107.283 192.535 107.279C192.594 107.271 192.656 107.262 192.723 107.25V108.029C192.559 108.076 192.434 108.105 192.348 108.117C192.262 108.129 192.145 108.135 191.996 108.135C191.633 108.135 191.369 108.006 191.205 107.748C191.119 107.611 191.059 107.418 191.023 107.168C190.809 107.449 190.5 107.693 190.098 107.9C189.695 108.107 189.252 108.211 188.768 108.211C188.186 108.211 187.709 108.035 187.338 107.684C186.971 107.328 186.787 106.885 186.787 106.354C186.787 105.771 186.969 105.32 187.332 105C187.695 104.68 188.172 104.482 188.762 104.408L190.443 104.197ZM193.789 99.3926H194.844V108H193.789V99.3926ZM196.461 99.3926H197.516V108H196.461V99.3926ZM206.211 99.1582C207.301 99.1582 208.146 99.4453 208.748 100.02C209.35 100.594 209.684 101.246 209.75 101.977H208.613C208.484 101.422 208.227 100.982 207.84 100.658C207.457 100.334 206.918 100.172 206.223 100.172C205.375 100.172 204.689 100.471 204.166 101.068C203.646 101.662 203.387 102.574 203.387 103.805C203.387 104.812 203.621 105.631 204.09 106.26C204.562 106.885 205.266 107.197 206.199 107.197C207.059 107.197 207.713 106.867 208.162 106.207C208.4 105.859 208.578 105.402 208.695 104.836H209.832C209.73 105.742 209.395 106.502 208.824 107.115C208.141 107.854 207.219 108.223 206.059 108.223C205.059 108.223 204.219 107.92 203.539 107.314C202.645 106.514 202.197 105.277 202.197 103.605C202.197 102.336 202.533 101.295 203.205 100.482C203.932 99.5996 204.934 99.1582 206.211 99.1582ZM211.145 99.3926H212.199V108H211.145V99.3926ZM214.596 106.33C214.596 106.635 214.707 106.875 214.93 107.051C215.152 107.227 215.416 107.314 215.721 107.314C216.092 107.314 216.451 107.229 216.799 107.057C217.385 106.771 217.678 106.305 217.678 105.656V104.807C217.549 104.889 217.383 104.957 217.18 105.012C216.977 105.066 216.777 105.105 216.582 105.129L215.943 105.211C215.561 105.262 215.273 105.342 215.082 105.451C214.758 105.635 214.596 105.928 214.596 106.33ZM217.15 104.197C217.393 104.166 217.555 104.064 217.637 103.893C217.684 103.799 217.707 103.664 217.707 103.488C217.707 103.129 217.578 102.869 217.32 102.709C217.066 102.545 216.701 102.463 216.225 102.463C215.674 102.463 215.283 102.611 215.053 102.908C214.924 103.072 214.84 103.316 214.801 103.641H213.816C213.836 102.867 214.086 102.33 214.566 102.029C215.051 101.725 215.611 101.572 216.248 101.572C216.986 101.572 217.586 101.713 218.047 101.994C218.504 102.275 218.732 102.713 218.732 103.307V106.922C218.732 107.031 218.754 107.119 218.797 107.186C218.844 107.252 218.939 107.285 219.084 107.285C219.131 107.285 219.184 107.283 219.242 107.279C219.301 107.271 219.363 107.262 219.43 107.25V108.029C219.266 108.076 219.141 108.105 219.055 108.117C218.969 108.129 218.852 108.135 218.703 108.135C218.34 108.135 218.076 108.006 217.912 107.748C217.826 107.611 217.766 107.418 217.73 107.168C217.516 107.449 217.207 107.693 216.805 107.9C216.402 108.107 215.959 108.211 215.475 108.211C214.893 108.211 214.416 108.035 214.045 107.684C213.678 107.328 213.494 106.885 213.494 106.354C213.494 105.771 213.676 105.32 214.039 105C214.402 104.68 214.879 104.482 215.469 104.408L217.15 104.197ZM221.094 106.031C221.125 106.383 221.213 106.652 221.357 106.84C221.623 107.18 222.084 107.35 222.74 107.35C223.131 107.35 223.475 107.266 223.771 107.098C224.068 106.926 224.217 106.662 224.217 106.307C224.217 106.037 224.098 105.832 223.859 105.691C223.707 105.605 223.406 105.506 222.957 105.393L222.119 105.182C221.584 105.049 221.189 104.9 220.936 104.736C220.482 104.451 220.256 104.057 220.256 103.553C220.256 102.959 220.469 102.479 220.895 102.111C221.324 101.744 221.9 101.561 222.623 101.561C223.568 101.561 224.25 101.838 224.668 102.393C224.93 102.744 225.057 103.123 225.049 103.529H224.053C224.033 103.291 223.949 103.074 223.801 102.879C223.559 102.602 223.139 102.463 222.541 102.463C222.143 102.463 221.84 102.539 221.633 102.691C221.43 102.844 221.328 103.045 221.328 103.295C221.328 103.568 221.463 103.787 221.732 103.951C221.889 104.049 222.119 104.135 222.424 104.209L223.121 104.379C223.879 104.562 224.387 104.74 224.645 104.912C225.055 105.182 225.26 105.605 225.26 106.184C225.26 106.742 225.047 107.225 224.621 107.631C224.199 108.037 223.555 108.24 222.688 108.24C221.754 108.24 221.092 108.029 220.701 107.607C220.314 107.182 220.107 106.656 220.08 106.031H221.094ZM227.094 106.031C227.125 106.383 227.213 106.652 227.357 106.84C227.623 107.18 228.084 107.35 228.74 107.35C229.131 107.35 229.475 107.266 229.771 107.098C230.068 106.926 230.217 106.662 230.217 106.307C230.217 106.037 230.098 105.832 229.859 105.691C229.707 105.605 229.406 105.506 228.957 105.393L228.119 105.182C227.584 105.049 227.189 104.9 226.936 104.736C226.482 104.451 226.256 104.057 226.256 103.553C226.256 102.959 226.469 102.479 226.895 102.111C227.324 101.744 227.9 101.561 228.623 101.561C229.568 101.561 230.25 101.838 230.668 102.393C230.93 102.744 231.057 103.123 231.049 103.529H230.053C230.033 103.291 229.949 103.074 229.801 102.879C229.559 102.602 229.139 102.463 228.541 102.463C228.143 102.463 227.84 102.539 227.633 102.691C227.43 102.844 227.328 103.045 227.328 103.295C227.328 103.568 227.463 103.787 227.732 103.951C227.889 104.049 228.119 104.135 228.424 104.209L229.121 104.379C229.879 104.562 230.387 104.74 230.645 104.912C231.055 105.182 231.26 105.605 231.26 106.184C231.26 106.742 231.047 107.225 230.621 107.631C230.199 108.037 229.555 108.24 228.688 108.24C227.754 108.24 227.092 108.029 226.701 107.607C226.314 107.182 226.107 106.656 226.08 106.031H227.094Z" fill="#3381FF"/>
<rect opacity="0.01" x="176" y="47" width="48" height="48" fill="white"/>
<path d="M212 73H214C215.105 73 216 72.1046 216 71V59C216 57.8954 215.105 57 214 57H186C184.895 57 184 57.8954 184 59V71C184 72.1046 184.895 73 186 73H188" stroke="#3381FF" stroke-width="2" stroke-linejoin="round"/>
<path d="M212 85V85C212 82.7909 210.209 81 208 81H204C201.791 81 200 82.7909 200 85V85" stroke="#3381FF" stroke-width="2" stroke-linejoin="round"/>
<path d="M200 85V85C200 82.7909 198.209 81 196 81H192C189.791 81 188 82.7909 188 85V85" stroke="#3381FF" stroke-width="2" stroke-linejoin="round"/>
<circle cx="206" cy="76" r="3" stroke="#3381FF" stroke-width="2" stroke-linejoin="round"/>
<circle cx="194" cy="76" r="3" stroke="#3381FF" stroke-width="2" stroke-linejoin="round"/>
<path d="M49.375 99.3926H50.541V106.975H54.9004V108H49.375V99.3926ZM56.7227 106.33C56.7227 106.635 56.834 106.875 57.0566 107.051C57.2793 107.227 57.543 107.314 57.8477 107.314C58.2188 107.314 58.5781 107.229 58.9258 107.057C59.5117 106.771 59.8047 106.305 59.8047 105.656V104.807C59.6758 104.889 59.5098 104.957 59.3066 105.012C59.1035 105.066 58.9043 105.105 58.709 105.129L58.0703 105.211C57.6875 105.262 57.4004 105.342 57.209 105.451C56.8848 105.635 56.7227 105.928 56.7227 106.33ZM59.2773 104.197C59.5195 104.166 59.6816 104.064 59.7637 103.893C59.8105 103.799 59.834 103.664 59.834 103.488C59.834 103.129 59.7051 102.869 59.4473 102.709C59.1934 102.545 58.8281 102.463 58.3516 102.463C57.8008 102.463 57.4102 102.611 57.1797 102.908C57.0508 103.072 56.9668 103.316 56.9277 103.641H55.9434C55.9629 102.867 56.2129 102.33 56.6934 102.029C57.1777 101.725 57.7383 101.572 58.375 101.572C59.1133 101.572 59.7129 101.713 60.1738 101.994C60.6309 102.275 60.8594 102.713 60.8594 103.307V106.922C60.8594 107.031 60.8809 107.119 60.9238 107.186C60.9707 107.252 61.0664 107.285 61.2109 107.285C61.2578 107.285 61.3105 107.283 61.3691 107.279C61.4277 107.271 61.4902 107.262 61.5566 107.25V108.029C61.3926 108.076 61.2676 108.105 61.1816 108.117C61.0957 108.129 60.9785 108.135 60.8301 108.135C60.4668 108.135 60.2031 108.006 60.0391 107.748C59.9531 107.611 59.8926 107.418 59.8574 107.168C59.6426 107.449 59.334 107.693 58.9316 107.9C58.5293 108.107 58.0859 108.211 57.6016 108.211C57.0195 108.211 56.543 108.035 56.1719 107.684C55.8047 107.328 55.6211 106.885 55.6211 106.354C55.6211 105.771 55.8027 105.32 56.166 105C56.5293 104.68 57.0059 104.482 57.5957 104.408L59.2773 104.197ZM62.623 101.725H63.625V102.809C63.707 102.598 63.9082 102.342 64.2285 102.041C64.5488 101.736 64.918 101.584 65.3359 101.584C65.3555 101.584 65.3887 101.586 65.4355 101.59C65.4824 101.594 65.5625 101.602 65.6758 101.613V102.727C65.6133 102.715 65.5547 102.707 65.5 102.703C65.4492 102.699 65.3926 102.697 65.3301 102.697C64.7988 102.697 64.3906 102.869 64.1055 103.213C63.8203 103.553 63.6777 103.945 63.6777 104.391V108H62.623V101.725ZM68.8047 101.613C69.2969 101.613 69.7266 101.734 70.0938 101.977C70.293 102.113 70.4961 102.312 70.7031 102.574V101.783H71.6758V107.49C71.6758 108.287 71.5586 108.916 71.3242 109.377C70.8867 110.229 70.0605 110.654 68.8457 110.654C68.1699 110.654 67.6016 110.502 67.1406 110.197C66.6797 109.896 66.4219 109.424 66.3672 108.779H67.4395C67.4902 109.061 67.5918 109.277 67.7441 109.43C67.9824 109.664 68.3574 109.781 68.8691 109.781C69.6777 109.781 70.207 109.496 70.457 108.926C70.6055 108.59 70.6738 107.99 70.6621 107.127C70.4512 107.447 70.1973 107.686 69.9004 107.842C69.6035 107.998 69.2109 108.076 68.7227 108.076C68.043 108.076 67.4473 107.836 66.9355 107.355C66.4277 106.871 66.1738 106.072 66.1738 104.959C66.1738 103.908 66.4297 103.088 66.9414 102.498C67.457 101.908 68.0781 101.613 68.8047 101.613ZM70.7031 104.836C70.7031 104.059 70.543 103.482 70.2227 103.107C69.9023 102.732 69.4941 102.545 68.998 102.545C68.2559 102.545 67.748 102.893 67.4746 103.588C67.3301 103.959 67.2578 104.445 67.2578 105.047C67.2578 105.754 67.4004 106.293 67.6855 106.664C67.9746 107.031 68.3613 107.215 68.8457 107.215C69.6035 107.215 70.1367 106.873 70.4453 106.189C70.6172 105.803 70.7031 105.352 70.7031 104.836ZM75.8828 101.584C76.3281 101.584 76.7598 101.689 77.1777 101.9C77.5957 102.107 77.9141 102.377 78.1328 102.709C78.3438 103.025 78.4844 103.395 78.5547 103.816C78.6172 104.105 78.6484 104.566 78.6484 105.199H74.0488C74.0684 105.836 74.2188 106.348 74.5 106.734C74.7812 107.117 75.2168 107.309 75.8066 107.309C76.3574 107.309 76.7969 107.127 77.125 106.764C77.3125 106.553 77.4453 106.309 77.5234 106.031H78.5605C78.5332 106.262 78.4414 106.52 78.2852 106.805C78.1328 107.086 77.9609 107.316 77.7695 107.496C77.4492 107.809 77.0527 108.02 76.5801 108.129C76.3262 108.191 76.0391 108.223 75.7188 108.223C74.9375 108.223 74.2754 107.939 73.7324 107.373C73.1895 106.803 72.918 106.006 72.918 104.982C72.918 103.975 73.1914 103.156 73.7383 102.527C74.2852 101.898 75 101.584 75.8828 101.584ZM77.5645 104.361C77.5215 103.904 77.4219 103.539 77.2656 103.266C76.9766 102.758 76.4941 102.504 75.8184 102.504C75.334 102.504 74.9277 102.68 74.5996 103.031C74.2715 103.379 74.0977 103.822 74.0781 104.361H77.5645ZM87.0566 99.1582C88.1465 99.1582 88.9922 99.4453 89.5938 100.02C90.1953 100.594 90.5293 101.246 90.5957 101.977H89.459C89.3301 101.422 89.0723 100.982 88.6855 100.658C88.3027 100.334 87.7637 100.172 87.0684 100.172C86.2207 100.172 85.5352 100.471 85.0117 101.068C84.4922 101.662 84.2324 102.574 84.2324 103.805C84.2324 104.812 84.4668 105.631 84.9355 106.26C85.4082 106.885 86.1113 107.197 87.0449 107.197C87.9043 107.197 88.5586 106.867 89.0078 106.207C89.2461 105.859 89.4238 105.402 89.541 104.836H90.6777C90.5762 105.742 90.2402 106.502 89.6699 107.115C88.9863 107.854 88.0645 108.223 86.9043 108.223C85.9043 108.223 85.0645 107.92 84.3848 107.314C83.4902 106.514 83.043 105.277 83.043 103.605C83.043 102.336 83.3789 101.295 84.0508 100.482C84.7773 99.5996 85.7793 99.1582 87.0566 99.1582ZM91.9902 99.3926H93.0449V108H91.9902V99.3926ZM95.4414 106.33C95.4414 106.635 95.5527 106.875 95.7754 107.051C95.998 107.227 96.2617 107.314 96.5664 107.314C96.9375 107.314 97.2969 107.229 97.6445 107.057C98.2305 106.771 98.5234 106.305 98.5234 105.656V104.807C98.3945 104.889 98.2285 104.957 98.0254 105.012C97.8223 105.066 97.623 105.105 97.4277 105.129L96.7891 105.211C96.4062 105.262 96.1191 105.342 95.9277 105.451C95.6035 105.635 95.4414 105.928 95.4414 106.33ZM97.9961 104.197C98.2383 104.166 98.4004 104.064 98.4824 103.893C98.5293 103.799 98.5527 103.664 98.5527 103.488C98.5527 103.129 98.4238 102.869 98.166 102.709C97.9121 102.545 97.5469 102.463 97.0703 102.463C96.5195 102.463 96.1289 102.611 95.8984 102.908C95.7695 103.072 95.6855 103.316 95.6465 103.641H94.6621C94.6816 102.867 94.9316 102.33 95.4121 102.029C95.8965 101.725 96.457 101.572 97.0938 101.572C97.832 101.572 98.4316 101.713 98.8926 101.994C99.3496 102.275 99.5781 102.713 99.5781 103.307V106.922C99.5781 107.031 99.5996 107.119 99.6426 107.186C99.6895 107.252 99.7852 107.285 99.9297 107.285C99.9766 107.285 100.029 107.283 100.088 107.279C100.146 107.271 100.209 107.262 100.275 107.25V108.029C100.111 108.076 99.9863 108.105 99.9004 108.117C99.8145 108.129 99.6973 108.135 99.5488 108.135C99.1855 108.135 98.9219 108.006 98.7578 107.748C98.6719 107.611 98.6113 107.418 98.5762 107.168C98.3613 107.449 98.0527 107.693 97.6504 107.9C97.248 108.107 96.8047 108.211 96.3203 108.211C95.7383 108.211 95.2617 108.035 94.8906 107.684C94.5234 107.328 94.3398 106.885 94.3398 106.354C94.3398 105.771 94.5215 105.32 94.8848 105C95.248 104.68 95.7246 104.482 96.3145 104.408L97.9961 104.197ZM101.939 106.031C101.971 106.383 102.059 106.652 102.203 106.84C102.469 107.18 102.93 107.35 103.586 107.35C103.977 107.35 104.32 107.266 104.617 107.098C104.914 106.926 105.062 106.662 105.062 106.307C105.062 106.037 104.943 105.832 104.705 105.691C104.553 105.605 104.252 105.506 103.803 105.393L102.965 105.182C102.43 105.049 102.035 104.9 101.781 104.736C101.328 104.451 101.102 104.057 101.102 103.553C101.102 102.959 101.314 102.479 101.74 102.111C102.17 101.744 102.746 101.561 103.469 101.561C104.414 101.561 105.096 101.838 105.514 102.393C105.775 102.744 105.902 103.123 105.895 103.529H104.898C104.879 103.291 104.795 103.074 104.646 102.879C104.404 102.602 103.984 102.463 103.387 102.463C102.988 102.463 102.686 102.539 102.479 102.691C102.275 102.844 102.174 103.045 102.174 103.295C102.174 103.568 102.309 103.787 102.578 103.951C102.734 104.049 102.965 104.135 103.27 104.209L103.967 104.379C104.725 104.562 105.232 104.74 105.49 104.912C105.9 105.182 106.105 105.605 106.105 106.184C106.105 106.742 105.893 107.225 105.467 107.631C105.045 108.037 104.4 108.24 103.533 108.24C102.6 108.24 101.938 108.029 101.547 107.607C101.16 107.182 100.953 106.656 100.926 106.031H101.939ZM107.939 106.031C107.971 106.383 108.059 106.652 108.203 106.84C108.469 107.18 108.93 107.35 109.586 107.35C109.977 107.35 110.32 107.266 110.617 107.098C110.914 106.926 111.062 106.662 111.062 106.307C111.062 106.037 110.943 105.832 110.705 105.691C110.553 105.605 110.252 105.506 109.803 105.393L108.965 105.182C108.43 105.049 108.035 104.9 107.781 104.736C107.328 104.451 107.102 104.057 107.102 103.553C107.102 102.959 107.314 102.479 107.74 102.111C108.17 101.744 108.746 101.561 109.469 101.561C110.414 101.561 111.096 101.838 111.514 102.393C111.775 102.744 111.902 103.123 111.895 103.529H110.898C110.879 103.291 110.795 103.074 110.646 102.879C110.404 102.602 109.984 102.463 109.387 102.463C108.988 102.463 108.686 102.539 108.479 102.691C108.275 102.844 108.174 103.045 108.174 103.295C108.174 103.568 108.309 103.787 108.578 103.951C108.734 104.049 108.965 104.135 109.27 104.209L109.967 104.379C110.725 104.562 111.232 104.74 111.49 104.912C111.9 105.182 112.105 105.605 112.105 106.184C112.105 106.742 111.893 107.225 111.467 107.631C111.045 108.037 110.4 108.24 109.533 108.24C108.6 108.24 107.938 108.029 107.547 107.607C107.16 107.182 106.953 106.656 106.926 106.031H107.939Z" fill="#B7BBC1"/>
<rect opacity="0.01" x="56" y="47" width="48" height="48" fill="white"/>
<path d="M82 73H94C95.1046 73 96 72.1046 96 71V59C96 57.8954 95.1046 57 94 57H66C64.8954 57 64 57.8954 64 59V71C64 72.1046 64.8954 73 66 73H68" stroke="#B7BBC1" stroke-width="2" stroke-linejoin="round"/>
<path d="M80.9998 85V85C80.9998 82.7909 79.2089 81 76.9998 81H73C70.7909 81 69 82.7909 69 85V85" stroke="#B7BBC1" stroke-width="2" stroke-linejoin="round"/>
<circle cx="75" cy="76" r="3" stroke="#B7BBC1" stroke-width="2" stroke-linejoin="round"/>
<rect x="85" y="71" width="6" height="2" fill="#B7BBC1"/>
</svg>
