<svg width="400" height="300" viewBox="0 0 400 300" fill="none" xmlns="http://www.w3.org/2000/svg">
<rect width="400" height="300" fill="white"/>
<g filter="url(#filter0_bd_937_1384)">
<rect x="261" y="30" width="109" height="32" rx="4" fill="#5B9AFF"/>
<path d="M279.543 40.958V47.165C279.543 47.8942 279.68 48.5003 279.953 48.9834C280.359 49.7126 281.042 50.0771 282.004 50.0771C283.157 50.0771 283.941 49.6829 284.355 48.8945C284.579 48.4661 284.69 47.8896 284.69 47.165V40.958H286.071V46.5977C286.071 47.8327 285.905 48.7829 285.572 49.4482C284.962 50.6605 283.809 51.2666 282.113 51.2666C280.418 51.2666 279.267 50.6605 278.661 49.4482C278.328 48.7829 278.162 47.8327 278.162 46.5977V40.958H279.543ZM291.209 50.1729C291.784 50.1729 292.26 49.9336 292.638 49.4551C293.021 48.972 293.212 48.252 293.212 47.2949C293.212 46.7116 293.128 46.2103 292.959 45.791C292.64 44.9844 292.057 44.5811 291.209 44.5811C290.357 44.5811 289.774 45.0072 289.459 45.8594C289.291 46.3151 289.206 46.8939 289.206 47.5957C289.206 48.1608 289.291 48.6416 289.459 49.0381C289.778 49.7946 290.362 50.1729 291.209 50.1729ZM288.024 43.7129H289.22V44.6836C289.466 44.3509 289.735 44.0934 290.027 43.9111C290.441 43.6377 290.929 43.501 291.49 43.501C292.319 43.501 293.023 43.82 293.602 44.458C294.181 45.0915 294.47 45.9984 294.47 47.1787C294.47 48.7738 294.053 49.9131 293.219 50.5967C292.69 51.0296 292.075 51.2461 291.373 51.2461C290.822 51.2461 290.359 51.1253 289.986 50.8838C289.767 50.7471 289.523 50.5124 289.254 50.1797V53.9189H288.024V43.7129ZM296.047 40.958H297.277V51H296.047V40.958ZM302.135 50.207C302.951 50.207 303.509 49.8994 303.81 49.2842C304.115 48.6644 304.268 47.9762 304.268 47.2197C304.268 46.5361 304.158 45.9801 303.94 45.5518C303.593 44.8773 302.996 44.54 302.149 44.54C301.397 44.54 300.85 44.8271 300.508 45.4014C300.166 45.9756 299.995 46.6683 299.995 47.4795C299.995 48.2588 300.166 48.9082 300.508 49.4277C300.85 49.9473 301.392 50.207 302.135 50.207ZM302.183 43.4668C303.126 43.4668 303.924 43.7812 304.575 44.4102C305.227 45.0391 305.553 45.9642 305.553 47.1855C305.553 48.3659 305.266 49.3411 304.692 50.1113C304.117 50.8815 303.226 51.2666 302.019 51.2666C301.012 51.2666 300.212 50.9271 299.619 50.248C299.027 49.5645 298.731 48.6484 298.731 47.5C298.731 46.2695 299.043 45.2897 299.667 44.5605C300.292 43.8314 301.13 43.4668 302.183 43.4668ZM308.066 49.0518C308.066 49.4072 308.196 49.6875 308.456 49.8926C308.715 50.0977 309.023 50.2002 309.379 50.2002C309.811 50.2002 310.231 50.0999 310.636 49.8994C311.32 49.5667 311.662 49.0221 311.662 48.2656V47.2744C311.511 47.3701 311.318 47.4499 311.081 47.5137C310.844 47.5775 310.611 47.623 310.383 47.6504L309.638 47.7461C309.192 47.8053 308.857 47.8988 308.633 48.0264C308.255 48.2406 308.066 48.5824 308.066 49.0518ZM311.046 46.5635C311.329 46.527 311.518 46.4085 311.614 46.208C311.669 46.0986 311.696 45.9414 311.696 45.7363C311.696 45.3171 311.546 45.014 311.245 44.8271C310.949 44.6357 310.522 44.54 309.966 44.54C309.324 44.54 308.868 44.7132 308.599 45.0596C308.449 45.251 308.351 45.5358 308.305 45.9141H307.157C307.18 45.0117 307.471 44.3851 308.032 44.0342C308.597 43.6787 309.251 43.501 309.994 43.501C310.855 43.501 311.555 43.665 312.092 43.9932C312.626 44.3213 312.892 44.8317 312.892 45.5244V49.7422C312.892 49.8698 312.917 49.9723 312.967 50.0498C313.022 50.1273 313.134 50.166 313.302 50.166C313.357 50.166 313.419 50.1637 313.487 50.1592C313.555 50.1501 313.628 50.1387 313.706 50.125V51.0342C313.514 51.0889 313.368 51.123 313.268 51.1367C313.168 51.1504 313.031 51.1572 312.858 51.1572C312.434 51.1572 312.127 51.0068 311.935 50.7061C311.835 50.5465 311.764 50.321 311.723 50.0293C311.473 50.3574 311.113 50.6423 310.643 50.8838C310.174 51.1253 309.657 51.2461 309.091 51.2461C308.412 51.2461 307.856 51.041 307.423 50.6309C306.995 50.2161 306.781 49.6989 306.781 49.0791C306.781 48.4001 306.993 47.8737 307.417 47.5C307.84 47.1263 308.396 46.8962 309.085 46.8096L311.046 46.5635ZM315.795 47.4248C315.795 48.2087 315.961 48.8649 316.294 49.3936C316.627 49.9222 317.16 50.1865 317.894 50.1865C318.463 50.1865 318.93 49.9427 319.295 49.4551C319.664 48.9629 319.849 48.2588 319.849 47.3428C319.849 46.4176 319.66 45.734 319.281 45.292C318.903 44.8454 318.436 44.6221 317.88 44.6221C317.26 44.6221 316.757 44.859 316.369 45.333C315.986 45.807 315.795 46.5042 315.795 47.4248ZM317.647 43.5488C318.208 43.5488 318.677 43.6673 319.056 43.9043C319.274 44.041 319.523 44.2803 319.801 44.6221V40.9238H320.983V51H319.876V49.9814C319.589 50.4326 319.249 50.7585 318.857 50.959C318.465 51.1595 318.017 51.2598 317.511 51.2598C316.695 51.2598 315.989 50.918 315.392 50.2344C314.795 49.5462 314.496 48.6325 314.496 47.4932C314.496 46.4268 314.767 45.5039 315.31 44.7246C315.856 43.9408 316.636 43.5488 317.647 43.5488Z" fill="white"/>
<rect width="24" height="24" transform="matrix(0 -1 -1 0 354 58)" fill="white" fill-opacity="0.01"/>
<path d="M348 49L345 46L342 43L339 46L336 49" stroke="white" stroke-width="1.25" stroke-linejoin="round"/>
<rect x="261.5" y="30.5" width="108" height="31" rx="3.5" stroke="#2867CC"/>
</g>
<rect x="99.5" y="30.5" width="153" height="31" rx="3.5" fill="white"/>
<path d="M116.066 40.958H117.673L122.745 49.0928V40.958H124.037V51H122.513L117.365 42.8721V51H116.066V40.958ZM129.168 43.5146C129.688 43.5146 130.191 43.6377 130.679 43.8838C131.167 44.1253 131.538 44.4398 131.793 44.8271C132.039 45.1963 132.204 45.627 132.286 46.1191C132.358 46.4564 132.395 46.9941 132.395 47.7324H127.029C127.051 48.4753 127.227 49.0723 127.555 49.5234C127.883 49.9701 128.391 50.1934 129.079 50.1934C129.722 50.1934 130.235 49.9814 130.618 49.5576C130.836 49.3115 130.991 49.0267 131.082 48.7031H132.292C132.26 48.972 132.153 49.2728 131.971 49.6055C131.793 49.9336 131.593 50.2025 131.37 50.4121C130.996 50.7767 130.533 51.0228 129.982 51.1504C129.686 51.2233 129.351 51.2598 128.977 51.2598C128.065 51.2598 127.293 50.9294 126.66 50.2686C126.026 49.6032 125.709 48.6735 125.709 47.4795C125.709 46.3037 126.028 45.349 126.666 44.6152C127.304 43.8815 128.138 43.5146 129.168 43.5146ZM131.13 46.7549C131.08 46.2217 130.964 45.7956 130.782 45.4766C130.444 44.8841 129.882 44.5879 129.093 44.5879C128.528 44.5879 128.054 44.793 127.671 45.2031C127.288 45.6087 127.086 46.126 127.063 46.7549H131.13ZM134.58 43.6787L135.988 49.4482L137.417 43.6787H138.798L140.233 49.4141L141.73 43.6787H142.961L140.835 51H139.556L138.066 45.333L136.624 51H135.346L133.233 43.6787H134.58ZM152.246 49.8379C152.706 49.8379 153.084 49.79 153.38 49.6943C153.909 49.5166 154.342 49.1748 154.679 48.6689C154.948 48.2633 155.142 47.7438 155.26 47.1104C155.329 46.7321 155.363 46.3812 155.363 46.0576C155.363 44.8135 155.115 43.8473 154.618 43.1592C154.126 42.471 153.33 42.127 152.232 42.127H149.819V49.8379H152.246ZM148.452 40.958H152.519C153.9 40.958 154.971 41.4479 155.732 42.4277C156.411 43.3118 156.751 44.4443 156.751 45.8252C156.751 46.8916 156.55 47.8555 156.149 48.7168C155.443 50.2389 154.228 51 152.505 51H148.452V40.958ZM158.443 43.7129H159.694V51H158.443V43.7129ZM158.443 40.958H159.694V42.3525H158.443V40.958ZM161.695 43.6787H162.864V44.9434C162.959 44.6973 163.194 44.3988 163.568 44.0479C163.941 43.6924 164.372 43.5146 164.86 43.5146C164.883 43.5146 164.921 43.5169 164.976 43.5215C165.031 43.526 165.124 43.5352 165.256 43.5488V44.8477C165.183 44.834 165.115 44.8249 165.051 44.8203C164.992 44.8158 164.926 44.8135 164.853 44.8135C164.233 44.8135 163.757 45.014 163.424 45.415C163.092 45.8115 162.925 46.2695 162.925 46.7891V51H161.695V43.6787ZM169.471 43.5146C169.991 43.5146 170.495 43.6377 170.982 43.8838C171.47 44.1253 171.841 44.4398 172.096 44.8271C172.343 45.1963 172.507 45.627 172.589 46.1191C172.662 46.4564 172.698 46.9941 172.698 47.7324H167.332C167.355 48.4753 167.53 49.0723 167.858 49.5234C168.186 49.9701 168.694 50.1934 169.383 50.1934C170.025 50.1934 170.538 49.9814 170.921 49.5576C171.139 49.3115 171.294 49.0267 171.386 48.7031H172.596C172.564 48.972 172.457 49.2728 172.274 49.6055C172.096 49.9336 171.896 50.2025 171.673 50.4121C171.299 50.7767 170.836 51.0228 170.285 51.1504C169.989 51.2233 169.654 51.2598 169.28 51.2598C168.369 51.2598 167.596 50.9294 166.963 50.2686C166.329 49.6032 166.013 48.6735 166.013 47.4795C166.013 46.3037 166.332 45.349 166.97 44.6152C167.608 43.8815 168.442 43.5146 169.471 43.5146ZM171.433 46.7549C171.383 46.2217 171.267 45.7956 171.085 45.4766C170.748 44.8841 170.185 44.5879 169.396 44.5879C168.831 44.5879 168.357 44.793 167.974 45.2031C167.592 45.6087 167.389 46.126 167.366 46.7549H171.433ZM177.139 43.4668C177.964 43.4668 178.634 43.6673 179.149 44.0684C179.668 44.4694 179.98 45.1598 180.085 46.1396H178.889C178.816 45.6885 178.65 45.3148 178.39 45.0186C178.13 44.7178 177.713 44.5674 177.139 44.5674C176.355 44.5674 175.794 44.9502 175.457 45.7158C175.238 46.2126 175.129 46.8255 175.129 47.5547C175.129 48.2884 175.284 48.9059 175.594 49.4072C175.904 49.9085 176.391 50.1592 177.057 50.1592C177.567 50.1592 177.971 50.0042 178.267 49.6943C178.568 49.3799 178.775 48.9515 178.889 48.4092H180.085C179.948 49.3799 179.607 50.0908 179.06 50.542C178.513 50.9886 177.813 51.2119 176.961 51.2119C176.004 51.2119 175.241 50.8633 174.671 50.166C174.101 49.4642 173.817 48.5892 173.817 47.541C173.817 46.2559 174.129 45.2555 174.753 44.54C175.377 43.8245 176.173 43.4668 177.139 43.4668ZM181.662 41.6348H182.906V43.6787H184.075V44.6836H182.906V49.4619C182.906 49.7171 182.992 49.888 183.166 49.9746C183.261 50.0247 183.421 50.0498 183.644 50.0498C183.703 50.0498 183.767 50.0498 183.836 50.0498C183.904 50.0452 183.984 50.0384 184.075 50.0293V51C183.934 51.041 183.785 51.0706 183.63 51.0889C183.48 51.1071 183.316 51.1162 183.138 51.1162C182.564 51.1162 182.174 50.9704 181.969 50.6787C181.764 50.3825 181.662 49.9997 181.662 49.5303V44.6836H180.671V43.6787H181.662V41.6348ZM188.317 50.207C189.133 50.207 189.691 49.8994 189.992 49.2842C190.298 48.6644 190.45 47.9762 190.45 47.2197C190.45 46.5361 190.341 45.9801 190.122 45.5518C189.776 44.8773 189.179 44.54 188.331 44.54C187.579 44.54 187.032 44.8271 186.69 45.4014C186.349 45.9756 186.178 46.6683 186.178 47.4795C186.178 48.2588 186.349 48.9082 186.69 49.4277C187.032 49.9473 187.575 50.207 188.317 50.207ZM188.365 43.4668C189.309 43.4668 190.106 43.7812 190.758 44.4102C191.41 45.0391 191.735 45.9642 191.735 47.1855C191.735 48.3659 191.448 49.3411 190.874 50.1113C190.3 50.8815 189.409 51.2666 188.201 51.2666C187.194 51.2666 186.394 50.9271 185.802 50.248C185.209 49.5645 184.913 48.6484 184.913 47.5C184.913 46.2695 185.225 45.2897 185.85 44.5605C186.474 43.8314 187.312 43.4668 188.365 43.4668ZM193.339 43.6787H194.508V44.9434C194.604 44.6973 194.839 44.3988 195.212 44.0479C195.586 43.6924 196.017 43.5146 196.504 43.5146C196.527 43.5146 196.566 43.5169 196.621 43.5215C196.675 43.526 196.769 43.5352 196.901 43.5488V44.8477C196.828 44.834 196.76 44.8249 196.696 44.8203C196.636 44.8158 196.57 44.8135 196.497 44.8135C195.878 44.8135 195.401 45.014 195.069 45.415C194.736 45.8115 194.57 46.2695 194.57 46.7891V51H193.339V43.6787ZM202.64 43.6787H204.001C203.828 44.1481 203.443 45.2191 202.846 46.8916C202.399 48.1494 202.025 49.1748 201.724 49.9678C201.013 51.8363 200.512 52.9756 200.221 53.3857C199.929 53.7959 199.428 54.001 198.717 54.001C198.543 54.001 198.409 53.9941 198.313 53.9805C198.222 53.9668 198.108 53.9417 197.971 53.9053V52.7842C198.186 52.8434 198.341 52.8799 198.436 52.8936C198.532 52.9072 198.616 52.9141 198.689 52.9141C198.917 52.9141 199.083 52.8753 199.188 52.7979C199.298 52.7249 199.389 52.6338 199.462 52.5244C199.485 52.488 199.567 52.3011 199.708 51.9639C199.849 51.6266 199.952 51.376 200.015 51.2119L197.308 43.6787H198.703L200.665 49.6396L202.64 43.6787Z" fill="#5D6066"/>
<rect x="237" y="34" width="24" height="24" transform="rotate(90 237 34)" fill="white" fill-opacity="0.01"/>
<path d="M231 43L228 46L225 49L222 46L219 43" stroke="#5D6066" stroke-width="1.25" stroke-linejoin="round"/>
<rect x="99.5" y="30.5" width="153" height="31" rx="3.5" stroke="#B7BBC1"/>
<g filter="url(#filter1_d_937_1384)">
<rect x="243" y="66" width="127" height="136" rx="8" fill="white"/>
<rect x="243.5" y="66.5" width="126" height="135" rx="7.5" stroke="#B7BBC1"/>
</g>
<rect x="247" y="74" width="119" height="40" rx="6" fill="#F4F8FF"/>
<rect width="92" height="40" transform="translate(243 74)" fill="white" fill-opacity="0.01"/>
<path d="M260.066 88.958H261.427V97.8037H266.513V99H260.066V88.958ZM270.601 98.207C271.416 98.207 271.975 97.8994 272.275 97.2842C272.581 96.6644 272.733 95.9762 272.733 95.2197C272.733 94.5361 272.624 93.9801 272.405 93.5518C272.059 92.8773 271.462 92.54 270.614 92.54C269.862 92.54 269.315 92.8271 268.974 93.4014C268.632 93.9756 268.461 94.6683 268.461 95.4795C268.461 96.2588 268.632 96.9082 268.974 97.4277C269.315 97.9473 269.858 98.207 270.601 98.207ZM270.648 91.4668C271.592 91.4668 272.389 91.7812 273.041 92.4102C273.693 93.0391 274.019 93.9642 274.019 95.1855C274.019 96.3659 273.731 97.3411 273.157 98.1113C272.583 98.8815 271.692 99.2666 270.484 99.2666C269.477 99.2666 268.677 98.9271 268.085 98.248C267.493 97.5645 267.196 96.6484 267.196 95.5C267.196 94.2695 267.508 93.2897 268.133 92.5605C268.757 91.8314 269.596 91.4668 270.648 91.4668ZM278.312 91.4668C279.136 91.4668 279.806 91.6673 280.321 92.0684C280.841 92.4694 281.153 93.1598 281.258 94.1396H280.062C279.989 93.6885 279.822 93.3148 279.562 93.0186C279.303 92.7178 278.886 92.5674 278.312 92.5674C277.528 92.5674 276.967 92.9502 276.63 93.7158C276.411 94.2126 276.302 94.8255 276.302 95.5547C276.302 96.2884 276.457 96.9059 276.767 97.4072C277.076 97.9085 277.564 98.1592 278.229 98.1592C278.74 98.1592 279.143 98.0042 279.439 97.6943C279.74 97.3799 279.948 96.9515 280.062 96.4092H281.258C281.121 97.3799 280.779 98.0908 280.232 98.542C279.686 98.9886 278.986 99.2119 278.134 99.2119C277.177 99.2119 276.413 98.8633 275.844 98.166C275.274 97.4642 274.989 96.5892 274.989 95.541C274.989 94.2559 275.301 93.2555 275.926 92.54C276.55 91.8245 277.345 91.4668 278.312 91.4668ZM283.432 97.0518C283.432 97.4072 283.562 97.6875 283.821 97.8926C284.081 98.0977 284.389 98.2002 284.744 98.2002C285.177 98.2002 285.596 98.0999 286.002 97.8994C286.686 97.5667 287.027 97.0221 287.027 96.2656V95.2744C286.877 95.3701 286.683 95.4499 286.446 95.5137C286.209 95.5775 285.977 95.623 285.749 95.6504L285.004 95.7461C284.557 95.8053 284.222 95.8988 283.999 96.0264C283.621 96.2406 283.432 96.5824 283.432 97.0518ZM286.412 94.5635C286.695 94.527 286.884 94.4085 286.979 94.208C287.034 94.0986 287.062 93.9414 287.062 93.7363C287.062 93.3171 286.911 93.014 286.61 92.8271C286.314 92.6357 285.888 92.54 285.332 92.54C284.689 92.54 284.234 92.7132 283.965 93.0596C283.814 93.251 283.716 93.5358 283.671 93.9141H282.522C282.545 93.0117 282.837 92.3851 283.397 92.0342C283.963 91.6787 284.617 91.501 285.359 91.501C286.221 91.501 286.92 91.665 287.458 91.9932C287.991 92.3213 288.258 92.8317 288.258 93.5244V97.7422C288.258 97.8698 288.283 97.9723 288.333 98.0498C288.388 98.1273 288.499 98.166 288.668 98.166C288.723 98.166 288.784 98.1637 288.853 98.1592C288.921 98.1501 288.994 98.1387 289.071 98.125V99.0342C288.88 99.0889 288.734 99.123 288.634 99.1367C288.534 99.1504 288.397 99.1572 288.224 99.1572C287.8 99.1572 287.492 99.0068 287.301 98.7061C287.201 98.5465 287.13 98.321 287.089 98.0293C286.838 98.3574 286.478 98.6423 286.009 98.8838C285.539 99.1253 285.022 99.2461 284.457 99.2461C283.778 99.2461 283.222 99.041 282.789 98.6309C282.361 98.2161 282.146 97.6989 282.146 97.0791C282.146 96.4001 282.358 95.8737 282.782 95.5C283.206 95.1263 283.762 94.8962 284.45 94.8096L286.412 94.5635ZM290.315 88.958H291.546V99H290.315V88.958ZM297.589 88.958H304.555V90.1885H298.949V93.2373H303.878V94.4336H298.949V99H297.589V88.958ZM305.854 91.7129H307.104V99H305.854V91.7129ZM305.854 88.958H307.104V90.3525H305.854V88.958ZM309.005 88.958H310.235V99H309.005V88.958ZM315.137 91.5146C315.656 91.5146 316.16 91.6377 316.647 91.8838C317.135 92.1253 317.507 92.4398 317.762 92.8271C318.008 93.1963 318.172 93.627 318.254 94.1191C318.327 94.4564 318.363 94.9941 318.363 95.7324H312.997C313.02 96.4753 313.195 97.0723 313.523 97.5234C313.852 97.9701 314.36 98.1934 315.048 98.1934C315.69 98.1934 316.203 97.9814 316.586 97.5576C316.805 97.3115 316.96 97.0267 317.051 96.7031H318.261C318.229 96.972 318.122 97.2728 317.939 97.6055C317.762 97.9336 317.561 98.2025 317.338 98.4121C316.964 98.7767 316.502 99.0228 315.95 99.1504C315.654 99.2233 315.319 99.2598 314.945 99.2598C314.034 99.2598 313.261 98.9294 312.628 98.2686C311.994 97.6032 311.678 96.6735 311.678 95.4795C311.678 94.3037 311.997 93.349 312.635 92.6152C313.273 91.8815 314.107 91.5146 315.137 91.5146ZM317.099 94.7549C317.049 94.2217 316.932 93.7956 316.75 93.4766C316.413 92.8841 315.85 92.5879 315.062 92.5879C314.496 92.5879 314.022 92.793 313.64 93.2031C313.257 93.6087 313.054 94.126 313.031 94.7549H317.099Z" fill="#5D6066"/>
<rect width="127" height="40" transform="translate(243 114)" fill="white" fill-opacity="0.01"/>
<path d="M259.287 128.958H260.873L263.758 133.784L266.643 128.958H268.235L264.441 134.953V139H263.081V134.953L259.287 128.958ZM270.86 138.207C271.676 138.207 272.234 137.899 272.535 137.284C272.84 136.664 272.993 135.976 272.993 135.22C272.993 134.536 272.884 133.98 272.665 133.552C272.319 132.877 271.722 132.54 270.874 132.54C270.122 132.54 269.575 132.827 269.233 133.401C268.892 133.976 268.721 134.668 268.721 135.479C268.721 136.259 268.892 136.908 269.233 137.428C269.575 137.947 270.118 138.207 270.86 138.207ZM270.908 131.467C271.852 131.467 272.649 131.781 273.301 132.41C273.952 133.039 274.278 133.964 274.278 135.186C274.278 136.366 273.991 137.341 273.417 138.111C272.843 138.882 271.952 139.267 270.744 139.267C269.737 139.267 268.937 138.927 268.345 138.248C267.752 137.564 267.456 136.648 267.456 135.5C267.456 134.27 267.768 133.29 268.393 132.561C269.017 131.831 269.855 131.467 270.908 131.467ZM276.979 131.679V136.539C276.979 136.913 277.038 137.218 277.156 137.455C277.375 137.893 277.783 138.111 278.38 138.111C279.237 138.111 279.82 137.729 280.13 136.963C280.299 136.553 280.383 135.99 280.383 135.274V131.679H281.613V139H280.451L280.465 137.92C280.305 138.198 280.107 138.433 279.87 138.624C279.401 139.007 278.831 139.198 278.161 139.198C277.118 139.198 276.407 138.85 276.028 138.152C275.823 137.779 275.721 137.28 275.721 136.655V131.679H276.979ZM291.013 128.958V130.154H287.629V139H286.248V130.154H282.864V128.958H291.013ZM292.811 131.679V136.539C292.811 136.913 292.87 137.218 292.988 137.455C293.207 137.893 293.615 138.111 294.212 138.111C295.069 138.111 295.652 137.729 295.962 136.963C296.131 136.553 296.215 135.99 296.215 135.274V131.679H297.445V139H296.283L296.297 137.92C296.137 138.198 295.939 138.433 295.702 138.624C295.233 139.007 294.663 139.198 293.993 139.198C292.95 139.198 292.239 138.85 291.86 138.152C291.655 137.779 291.553 137.28 291.553 136.655V131.679H292.811ZM299.277 128.924H300.474V132.567C300.743 132.216 301.064 131.95 301.438 131.768C301.811 131.581 302.217 131.487 302.654 131.487C303.566 131.487 304.304 131.802 304.869 132.431C305.439 133.055 305.724 133.978 305.724 135.199C305.724 136.357 305.443 137.318 304.883 138.084C304.322 138.85 303.545 139.232 302.552 139.232C301.996 139.232 301.526 139.098 301.144 138.829C300.916 138.67 300.672 138.414 300.412 138.063V139H299.277V128.924ZM302.477 138.146C303.142 138.146 303.639 137.881 303.967 137.353C304.299 136.824 304.466 136.127 304.466 135.261C304.466 134.491 304.299 133.853 303.967 133.347C303.639 132.841 303.153 132.588 302.511 132.588C301.95 132.588 301.458 132.795 301.034 133.21C300.615 133.625 300.405 134.308 300.405 135.261C300.405 135.949 300.492 136.507 300.665 136.936C300.989 137.742 301.592 138.146 302.477 138.146ZM310.215 131.515C310.734 131.515 311.238 131.638 311.726 131.884C312.213 132.125 312.585 132.44 312.84 132.827C313.086 133.196 313.25 133.627 313.332 134.119C313.405 134.456 313.441 134.994 313.441 135.732H308.075C308.098 136.475 308.273 137.072 308.602 137.523C308.93 137.97 309.438 138.193 310.126 138.193C310.769 138.193 311.281 137.981 311.664 137.558C311.883 137.312 312.038 137.027 312.129 136.703H313.339C313.307 136.972 313.2 137.273 313.018 137.605C312.84 137.934 312.639 138.202 312.416 138.412C312.042 138.777 311.58 139.023 311.028 139.15C310.732 139.223 310.397 139.26 310.023 139.26C309.112 139.26 308.34 138.929 307.706 138.269C307.073 137.603 306.756 136.674 306.756 135.479C306.756 134.304 307.075 133.349 307.713 132.615C308.351 131.882 309.185 131.515 310.215 131.515ZM312.177 134.755C312.127 134.222 312.01 133.796 311.828 133.477C311.491 132.884 310.928 132.588 310.14 132.588C309.575 132.588 309.101 132.793 308.718 133.203C308.335 133.609 308.132 134.126 308.109 134.755H312.177ZM319.812 128.958L322.697 137.51L325.548 128.958H327.072L323.408 139H321.966L318.309 128.958H319.812ZM327.947 131.713H329.198V139H327.947V131.713ZM327.947 128.958H329.198V130.353H327.947V128.958ZM331.844 135.425C331.844 136.209 332.01 136.865 332.343 137.394C332.675 137.922 333.209 138.187 333.942 138.187C334.512 138.187 334.979 137.943 335.344 137.455C335.713 136.963 335.897 136.259 335.897 135.343C335.897 134.418 335.708 133.734 335.33 133.292C334.952 132.845 334.485 132.622 333.929 132.622C333.309 132.622 332.805 132.859 332.418 133.333C332.035 133.807 331.844 134.504 331.844 135.425ZM333.696 131.549C334.257 131.549 334.726 131.667 335.104 131.904C335.323 132.041 335.572 132.28 335.85 132.622V128.924H337.032V139H335.925V137.981C335.638 138.433 335.298 138.758 334.906 138.959C334.514 139.16 334.065 139.26 333.56 139.26C332.744 139.26 332.037 138.918 331.44 138.234C330.843 137.546 330.545 136.632 330.545 135.493C330.545 134.427 330.816 133.504 331.358 132.725C331.905 131.941 332.685 131.549 333.696 131.549ZM341.906 131.515C342.426 131.515 342.929 131.638 343.417 131.884C343.905 132.125 344.276 132.44 344.531 132.827C344.777 133.196 344.941 133.627 345.023 134.119C345.096 134.456 345.133 134.994 345.133 135.732H339.767C339.789 136.475 339.965 137.072 340.293 137.523C340.621 137.97 341.129 138.193 341.817 138.193C342.46 138.193 342.973 137.981 343.355 137.558C343.574 137.312 343.729 137.027 343.82 136.703H345.03C344.998 136.972 344.891 137.273 344.709 137.605C344.531 137.934 344.331 138.202 344.107 138.412C343.734 138.777 343.271 139.023 342.72 139.15C342.424 139.223 342.089 139.26 341.715 139.26C340.803 139.26 340.031 138.929 339.397 138.269C338.764 137.603 338.447 136.674 338.447 135.479C338.447 134.304 338.766 133.349 339.404 132.615C340.042 131.882 340.876 131.515 341.906 131.515ZM343.868 134.755C343.818 134.222 343.702 133.796 343.52 133.477C343.182 132.884 342.619 132.588 341.831 132.588C341.266 132.588 340.792 132.793 340.409 133.203C340.026 133.609 339.824 134.126 339.801 134.755H343.868ZM349.556 138.207C350.371 138.207 350.93 137.899 351.23 137.284C351.536 136.664 351.688 135.976 351.688 135.22C351.688 134.536 351.579 133.98 351.36 133.552C351.014 132.877 350.417 132.54 349.569 132.54C348.817 132.54 348.271 132.827 347.929 133.401C347.587 133.976 347.416 134.668 347.416 135.479C347.416 136.259 347.587 136.908 347.929 137.428C348.271 137.947 348.813 138.207 349.556 138.207ZM349.604 131.467C350.547 131.467 351.344 131.781 351.996 132.41C352.648 133.039 352.974 133.964 352.974 135.186C352.974 136.366 352.687 137.341 352.112 138.111C351.538 138.882 350.647 139.267 349.439 139.267C348.432 139.267 347.632 138.927 347.04 138.248C346.448 137.564 346.151 136.648 346.151 135.5C346.151 134.27 346.464 133.29 347.088 132.561C347.712 131.831 348.551 131.467 349.604 131.467Z" fill="#5D6066"/>
<rect width="113" height="40" transform="translate(243 154)" fill="white" fill-opacity="0.01"/>
<path d="M264.407 168.698C265.351 168.698 266.166 168.881 266.854 169.245C267.853 169.769 268.463 170.688 268.687 172H267.34C267.176 171.266 266.836 170.733 266.321 170.4C265.806 170.063 265.157 169.895 264.373 169.895C263.443 169.895 262.66 170.243 262.021 170.94C261.388 171.638 261.071 172.677 261.071 174.058C261.071 175.252 261.333 176.225 261.857 176.977C262.382 177.724 263.236 178.098 264.421 178.098C265.328 178.098 266.077 177.836 266.67 177.312C267.267 176.783 267.572 175.931 267.586 174.755H264.441V173.627H268.851V179H267.976L267.647 177.708C267.187 178.214 266.779 178.565 266.424 178.761C265.827 179.098 265.068 179.267 264.147 179.267C262.958 179.267 261.935 178.882 261.078 178.111C260.144 177.145 259.677 175.819 259.677 174.133C259.677 172.451 260.132 171.114 261.044 170.12C261.91 169.172 263.031 168.698 264.407 168.698ZM273.704 178.207C274.52 178.207 275.078 177.899 275.379 177.284C275.684 176.664 275.837 175.976 275.837 175.22C275.837 174.536 275.728 173.98 275.509 173.552C275.162 172.877 274.565 172.54 273.718 172.54C272.966 172.54 272.419 172.827 272.077 173.401C271.735 173.976 271.564 174.668 271.564 175.479C271.564 176.259 271.735 176.908 272.077 177.428C272.419 177.947 272.961 178.207 273.704 178.207ZM273.752 171.467C274.695 171.467 275.493 171.781 276.145 172.41C276.796 173.039 277.122 173.964 277.122 175.186C277.122 176.366 276.835 177.341 276.261 178.111C275.687 178.882 274.796 179.267 273.588 179.267C272.581 179.267 271.781 178.927 271.188 178.248C270.596 177.564 270.3 176.648 270.3 175.5C270.3 174.27 270.612 173.29 271.236 172.561C271.861 171.831 272.699 171.467 273.752 171.467ZM281.497 178.207C282.313 178.207 282.871 177.899 283.172 177.284C283.477 176.664 283.63 175.976 283.63 175.22C283.63 174.536 283.521 173.98 283.302 173.552C282.955 172.877 282.358 172.54 281.511 172.54C280.759 172.54 280.212 172.827 279.87 173.401C279.528 173.976 279.357 174.668 279.357 175.479C279.357 176.259 279.528 176.908 279.87 177.428C280.212 177.947 280.754 178.207 281.497 178.207ZM281.545 171.467C282.488 171.467 283.286 171.781 283.938 172.41C284.589 173.039 284.915 173.964 284.915 175.186C284.915 176.366 284.628 177.341 284.054 178.111C283.479 178.882 282.589 179.267 281.381 179.267C280.374 179.267 279.574 178.927 278.981 178.248C278.389 177.564 278.093 176.648 278.093 175.5C278.093 174.27 278.405 173.29 279.029 172.561C279.654 171.831 280.492 171.467 281.545 171.467ZM288.969 171.549C289.543 171.549 290.044 171.69 290.473 171.973C290.705 172.132 290.942 172.365 291.184 172.67V171.747H292.318V178.405C292.318 179.335 292.182 180.069 291.908 180.606C291.398 181.6 290.434 182.097 289.017 182.097C288.228 182.097 287.565 181.919 287.027 181.563C286.49 181.213 286.189 180.661 286.125 179.909H287.376C287.435 180.237 287.554 180.49 287.731 180.668C288.009 180.941 288.447 181.078 289.044 181.078C289.987 181.078 290.605 180.745 290.896 180.08C291.07 179.688 291.149 178.989 291.136 177.981C290.89 178.355 290.593 178.633 290.247 178.815C289.901 178.998 289.443 179.089 288.873 179.089C288.08 179.089 287.385 178.809 286.788 178.248C286.196 177.683 285.899 176.751 285.899 175.452C285.899 174.226 286.198 173.269 286.795 172.581C287.396 171.893 288.121 171.549 288.969 171.549ZM291.184 175.309C291.184 174.402 290.997 173.729 290.623 173.292C290.249 172.854 289.773 172.636 289.194 172.636C288.328 172.636 287.736 173.041 287.417 173.853C287.248 174.285 287.164 174.853 287.164 175.555C287.164 176.38 287.33 177.008 287.663 177.441C288 177.87 288.451 178.084 289.017 178.084C289.901 178.084 290.523 177.685 290.883 176.888C291.083 176.437 291.184 175.91 291.184 175.309ZM294.212 168.958H295.442V179H294.212V168.958ZM300.344 171.515C300.863 171.515 301.367 171.638 301.854 171.884C302.342 172.125 302.714 172.44 302.969 172.827C303.215 173.196 303.379 173.627 303.461 174.119C303.534 174.456 303.57 174.994 303.57 175.732H298.204C298.227 176.475 298.402 177.072 298.73 177.523C299.059 177.97 299.567 178.193 300.255 178.193C300.897 178.193 301.41 177.981 301.793 177.558C302.012 177.312 302.167 177.027 302.258 176.703H303.468C303.436 176.972 303.329 177.273 303.146 177.605C302.969 177.934 302.768 178.202 302.545 178.412C302.171 178.777 301.709 179.023 301.157 179.15C300.861 179.223 300.526 179.26 300.152 179.26C299.241 179.26 298.468 178.929 297.835 178.269C297.201 177.603 296.885 176.674 296.885 175.479C296.885 174.304 297.204 173.349 297.842 172.615C298.48 171.882 299.314 171.515 300.344 171.515ZM302.306 174.755C302.256 174.222 302.139 173.796 301.957 173.477C301.62 172.884 301.057 172.588 300.269 172.588C299.703 172.588 299.229 172.793 298.847 173.203C298.464 173.609 298.261 174.126 298.238 174.755H302.306ZM313.004 177.838C313.464 177.838 313.842 177.79 314.139 177.694C314.667 177.517 315.1 177.175 315.438 176.669C315.706 176.263 315.9 175.744 316.019 175.11C316.087 174.732 316.121 174.381 316.121 174.058C316.121 172.813 315.873 171.847 315.376 171.159C314.884 170.471 314.089 170.127 312.99 170.127H310.577V177.838H313.004ZM309.21 168.958H313.277C314.658 168.958 315.729 169.448 316.49 170.428C317.169 171.312 317.509 172.444 317.509 173.825C317.509 174.892 317.308 175.855 316.907 176.717C316.201 178.239 314.986 179 313.264 179H309.21V168.958ZM322.007 178.207C322.823 178.207 323.381 177.899 323.682 177.284C323.987 176.664 324.14 175.976 324.14 175.22C324.14 174.536 324.03 173.98 323.812 173.552C323.465 172.877 322.868 172.54 322.021 172.54C321.269 172.54 320.722 172.827 320.38 173.401C320.038 173.976 319.867 174.668 319.867 175.479C319.867 176.259 320.038 176.908 320.38 177.428C320.722 177.947 321.264 178.207 322.007 178.207ZM322.055 171.467C322.998 171.467 323.796 171.781 324.447 172.41C325.099 173.039 325.425 173.964 325.425 175.186C325.425 176.366 325.138 177.341 324.563 178.111C323.989 178.882 323.098 179.267 321.891 179.267C320.883 179.267 320.084 178.927 319.491 178.248C318.899 177.564 318.603 176.648 318.603 175.5C318.603 174.27 318.915 173.29 319.539 172.561C320.163 171.831 321.002 171.467 322.055 171.467ZM329.718 171.467C330.543 171.467 331.213 171.667 331.728 172.068C332.247 172.469 332.559 173.16 332.664 174.14H331.468C331.395 173.688 331.229 173.315 330.969 173.019C330.709 172.718 330.292 172.567 329.718 172.567C328.934 172.567 328.373 172.95 328.036 173.716C327.817 174.213 327.708 174.826 327.708 175.555C327.708 176.288 327.863 176.906 328.173 177.407C328.483 177.909 328.97 178.159 329.636 178.159C330.146 178.159 330.549 178.004 330.846 177.694C331.146 177.38 331.354 176.951 331.468 176.409H332.664C332.527 177.38 332.186 178.091 331.639 178.542C331.092 178.989 330.392 179.212 329.54 179.212C328.583 179.212 327.82 178.863 327.25 178.166C326.68 177.464 326.396 176.589 326.396 175.541C326.396 174.256 326.708 173.256 327.332 172.54C327.956 171.825 328.752 171.467 329.718 171.467ZM334.626 176.703C334.662 177.113 334.765 177.428 334.934 177.646C335.243 178.043 335.781 178.241 336.547 178.241C337.003 178.241 337.404 178.143 337.75 177.947C338.096 177.747 338.27 177.439 338.27 177.024C338.27 176.71 338.131 176.471 337.853 176.307C337.675 176.206 337.324 176.09 336.8 175.958L335.822 175.712C335.198 175.557 334.738 175.384 334.441 175.192C333.913 174.86 333.648 174.399 333.648 173.812C333.648 173.119 333.897 172.558 334.394 172.13C334.895 171.701 335.567 171.487 336.41 171.487C337.513 171.487 338.308 171.811 338.796 172.458C339.101 172.868 339.249 173.31 339.24 173.784H338.078C338.055 173.506 337.957 173.253 337.784 173.025C337.502 172.702 337.012 172.54 336.314 172.54C335.85 172.54 335.496 172.629 335.255 172.807C335.018 172.984 334.899 173.219 334.899 173.511C334.899 173.83 335.057 174.085 335.371 174.276C335.553 174.39 335.822 174.491 336.178 174.577L336.991 174.775C337.875 174.99 338.468 175.197 338.769 175.397C339.247 175.712 339.486 176.206 339.486 176.881C339.486 177.533 339.238 178.095 338.741 178.569C338.249 179.043 337.497 179.28 336.485 179.28C335.396 179.28 334.624 179.034 334.168 178.542C333.717 178.045 333.475 177.432 333.443 176.703H334.626Z" fill="#5D6066"/>
<rect x="30" y="100" width="190" height="10" fill="#F4F8FF"/>
<rect x="30" y="120" width="190" height="10" fill="#EBF2FF"/>
<rect x="30" y="140" width="190" height="10" fill="#EBF2FF"/>
<rect x="30" y="160" width="130" height="10" fill="#F4F8FF"/>
<rect x="30" y="180" width="190" height="10" fill="#F4F8FF"/>
<rect x="30" y="200" width="130" height="10" fill="#EBF2FF"/>
<rect x="30" y="220" width="190" height="10" fill="#F4F8FF"/>
<rect x="30" y="240" width="190" height="10" fill="#EBF2FF"/>
<rect x="30" y="260" width="130" height="10" fill="#F4F8FF"/>
<defs>
<filter id="filter0_bd_937_1384" x="255.563" y="24.5634" width="119.873" height="43.4366" filterUnits="userSpaceOnUse" color-interpolation-filters="sRGB">
<feFlood flood-opacity="0" result="BackgroundImageFix"/>
<feGaussianBlur in="BackgroundImageFix" stdDeviation="2.71828"/>
<feComposite in2="SourceAlpha" operator="in" result="effect1_backgroundBlur_937_1384"/>
<feColorMatrix in="SourceAlpha" type="matrix" values="0 0 0 0 0 0 0 0 0 0 0 0 0 0 0 0 0 0 127 0" result="hardAlpha"/>
<feOffset dy="2"/>
<feGaussianBlur stdDeviation="2"/>
<feColorMatrix type="matrix" values="0 0 0 0 0.2 0 0 0 0 0.505882 0 0 0 0 1 0 0 0 0.3 0"/>
<feBlend mode="normal" in2="effect1_backgroundBlur_937_1384" result="effect2_dropShadow_937_1384"/>
<feBlend mode="normal" in="SourceGraphic" in2="effect2_dropShadow_937_1384" result="shape"/>
</filter>
<filter id="filter1_d_937_1384" x="235" y="62" width="143" height="152" filterUnits="userSpaceOnUse" color-interpolation-filters="sRGB">
<feFlood flood-opacity="0" result="BackgroundImageFix"/>
<feColorMatrix in="SourceAlpha" type="matrix" values="0 0 0 0 0 0 0 0 0 0 0 0 0 0 0 0 0 0 127 0" result="hardAlpha"/>
<feOffset dy="4"/>
<feGaussianBlur stdDeviation="4"/>
<feColorMatrix type="matrix" values="0 0 0 0 0 0 0 0 0 0 0 0 0 0 0 0 0 0 0.25 0"/>
<feBlend mode="normal" in2="BackgroundImageFix" result="effect1_dropShadow_937_1384"/>
<feBlend mode="normal" in="SourceGraphic" in2="effect1_dropShadow_937_1384" result="shape"/>
</filter>
</defs>
</svg>
