<svg width="64" height="64" viewBox="0 0 64 64" fill="none" xmlns="http://www.w3.org/2000/svg">
<path fill-rule="evenodd" clip-rule="evenodd" d="M51.6667 16.9623C51.6667 14.6965 49.6322 12.973 47.3972 13.3455L26.0639 16.9011C24.2958 17.1958 23 18.7254 23 20.5179V24.699L51.6667 19.9212V16.9623ZM51.6667 23.3005V36.7026C50.6003 36.0456 49.3444 35.6666 48 35.6666C44.134 35.6666 41 38.8006 41 42.6666C41 46.5326 44.134 49.6666 48 49.6666C51.866 49.6666 55 46.5326 55 42.6666V42.6665V16.9623C55 12.6367 51.1159 9.34643 46.8492 10.0575L25.5159 13.6131C22.1406 14.1757 19.6667 17.096 19.6667 20.5179V42.036C18.6003 41.379 17.3444 41 16 41C12.134 41 9 44.134 9 48C9 51.866 12.134 55 16 55C19.866 55 23 51.866 23 48V47.9998V28.0783L51.6667 23.3005ZM16 44.3333C18.025 44.3333 19.6666 45.9749 19.6667 47.9998V48C19.6667 50.025 18.025 51.6666 16 51.6666C13.975 51.6666 12.3333 50.025 12.3333 48C12.3333 45.9749 13.975 44.3333 16 44.3333ZM51.6667 42.6666L51.6667 42.6665V42.6613C51.6638 40.6387 50.0233 39 48 39C45.975 39 44.3333 40.6416 44.3333 42.6666C44.3333 44.6917 45.975 46.3333 48 46.3333C50.025 46.3333 51.6667 44.6917 51.6667 42.6666Z" fill="#099DFD"/>
</svg>
