<svg width="156" height="40" viewBox="0 0 156 40" fill="none" xmlns="http://www.w3.org/2000/svg">
<path d="M0 14.4C0 9.35953 0 6.83929 0.980941 4.91409C1.8438 3.22063 3.22063 1.8438 4.91409 0.980941C6.83929 0 9.35953 0 14.4 0H25.6C30.6405 0 33.1607 0 35.0859 0.980941C36.7794 1.8438 38.1562 3.22063 39.0191 4.91409C40 6.83929 40 9.35953 40 14.4V25.6C40 30.6405 40 33.1607 39.0191 35.0859C38.1562 36.7794 36.7794 38.1562 35.0859 39.0191C33.1607 40 30.6405 40 25.6 40H14.4C9.35953 40 6.83929 40 4.91409 39.0191C3.22063 38.1562 1.8438 36.7794 0.980941 35.0859C0 33.1607 0 30.6405 0 25.6V14.4Z" fill="url(#paint0_linear_1333_3213)"/>
<path d="M9.2614 12.0455C9.2614 10.9158 10.1772 10 11.3069 10H13.3523V12.0455H9.2614Z" fill="white"/>
<path d="M9.2614 12.5568H12.3296V14.0909H13.3523V16.1364H12.3296V23.2955H9.2614V16.1364H8.23867V14.0909H9.2614V12.5568Z" fill="white"/>
<path d="M14.375 10H15.3978C16.5274 10 17.4432 10.9158 17.4432 12.0455V23.2955H14.375V10Z" fill="white"/>
<path d="M20 14.0909V16.1364H23.0682V21.25H21.5341V19.2045H22.5569V17.1591H20.5114C19.3817 17.1591 18.4659 18.0749 18.4659 19.2045V21.25C18.4659 22.3797 19.3817 23.2955 20.5114 23.2955H26.1364V16.1364C26.1364 15.0067 25.2206 14.0909 24.0909 14.0909H20Z" fill="white"/>
<path d="M30.2273 23.2955H27.1591V10H28.1819C29.3115 10 30.2273 10.9158 30.2273 12.0455V14.0909H31.25V16.1364H30.2273V23.2955Z" fill="white"/>
<path d="M9.59793 25.9091H15.9091L20 26.9318L24.0909 25.9091H30.4021L32.1906 26.9318H24.0909L20 27.9545L15.9091 26.9318H7.80947L9.59793 25.9091Z" fill="white"/>
<path d="M6.02101 27.9545L4.23254 28.9773H15.9091L20 30L24.0909 28.9773H35.7675L33.979 27.9545H24.0909L20 28.9773L15.9091 27.9545H6.02101Z" fill="white"/>
<path fill-rule="evenodd" clip-rule="evenodd" d="M55.7188 16.6328H59.9609L60.7031 19H63.3125L59.2344 7.48438H56.5156L52.4062 19H54.9219L55.7188 16.6328ZM57.8516 10.1172L59.2891 14.6484H56.3672L57.8516 10.1172ZM69.5 19.3047C70.4271 19.3047 71.2083 19.1094 71.8438 18.7188C72.2135 18.4948 72.6302 18.1094 73.0938 17.5625L73.3359 19H74.9297V12.8203H70.1328V14.7422H72.7969C72.6771 15.4974 72.3594 16.1094 71.8438 16.5781C71.3281 17.0417 70.6667 17.2734 69.8594 17.2734C69.0365 17.2734 68.3021 16.9792 67.6562 16.3906C67.0104 15.8021 66.6875 14.7995 66.6875 13.3828C66.6875 11.9766 66.9844 10.9245 67.5781 10.2266C68.1771 9.52344 68.9401 9.17188 69.8672 9.17188C70.3516 9.17188 70.7917 9.25781 71.1875 9.42969C71.8958 9.74219 72.3411 10.2917 72.5234 11.0781H74.8906C74.7604 9.96875 74.25 9.04427 73.3594 8.30469C72.474 7.5599 71.2995 7.1875 69.8359 7.1875C68.1484 7.1875 66.7917 7.75 65.7656 8.875C64.7396 10 64.2266 11.4948 64.2266 13.3594C64.2266 15.2031 64.7344 16.6562 65.75 17.7188C66.724 18.776 67.974 19.3047 69.5 19.3047ZM78.5547 17.9766C79.4245 18.8724 80.6823 19.3203 82.3281 19.3203C83.974 19.3203 85.2318 18.8724 86.1016 17.9766C87.263 16.8776 87.8438 15.2943 87.8438 13.2266C87.8438 11.1172 87.263 9.53385 86.1016 8.47656C85.2318 7.58073 83.974 7.13281 82.3281 7.13281C80.6823 7.13281 79.4245 7.58073 78.5547 8.47656C77.388 9.53385 76.8047 11.1172 76.8047 13.2266C76.8047 15.2943 77.388 16.8776 78.5547 17.9766ZM85.4375 13.2266C85.4375 14.5234 85.1589 15.5234 84.6016 16.2266C84.0391 16.9297 83.2812 17.2812 82.3281 17.2812C81.375 17.2812 80.6146 16.9297 80.0469 16.2266C79.4792 15.5234 79.1953 14.5234 79.1953 13.2266C79.1953 11.9297 79.4792 10.9297 80.0469 10.2266C80.6146 9.52344 81.375 9.17188 82.3281 9.17188C83.2812 9.17188 84.0365 9.52604 84.5938 10.2344C85.1562 10.9375 85.4375 11.9349 85.4375 13.2266ZM92.0938 14.4844H94.5781C95.2865 14.4844 95.7682 14.6068 96.0234 14.8516C96.2839 15.0964 96.4193 15.5859 96.4297 16.3203L96.4453 17.3906C96.4505 17.7292 96.4844 18.0599 96.5469 18.3828C96.5781 18.5391 96.6302 18.7448 96.7031 19H99.3516V18.7109C99.1224 18.5703 98.9766 18.3516 98.9141 18.0547C98.8724 17.8672 98.8516 17.5104 98.8516 16.9844V16.2109C98.8516 15.4036 98.7396 14.8047 98.5156 14.4141C98.2969 14.0182 97.9219 13.7135 97.3906 13.5C98.026 13.2812 98.4818 12.9089 98.7578 12.3828C99.0339 11.8516 99.1719 11.3125 99.1719 10.7656C99.1719 10.3125 99.099 9.90885 98.9531 9.55469C98.8073 9.20052 98.6094 8.8776 98.3594 8.58594C98.0573 8.23177 97.6875 7.96354 97.25 7.78125C96.8177 7.59896 96.1979 7.5 95.3906 7.48438H89.7422V19H92.0938V14.4844ZM96.7578 11.0938C96.7578 11.7396 96.5182 12.1719 96.0391 12.3906C95.7682 12.5156 95.362 12.5781 94.8203 12.5781H92.0938V9.48438H94.8906C95.4115 9.48438 95.8021 9.55208 96.0625 9.6875C96.526 9.92708 96.7578 10.3958 96.7578 11.0938ZM103.75 16.6328H107.992L108.734 19H111.344L107.266 7.48438H104.547L100.438 19H102.953L103.75 16.6328ZM105.883 10.1172L107.32 14.6484H104.398L105.883 10.1172ZM119.062 9.52344H124.836V7.5H116.672V19H119.062V14.1719H124.117V12.1719H119.062V9.52344ZM128.859 7.48438H126.453V19H134.562V16.9297H128.859V7.48438ZM138.734 16.6328H142.977L143.719 19H146.328L142.25 7.48438H139.531L135.422 19H137.938L138.734 16.6328ZM140.867 10.1172L142.305 14.6484H139.383L140.867 10.1172ZM154.977 9.52344V7.48438H145.648V9.52344H149.109V19H151.531V9.52344H154.977ZM59.056 28.788H56.308V29.628H59.056V32.94H55.816V33.792H63.34V32.94H59.932V29.628H62.8V28.788H59.932V26.556H59.056V28.788ZM52.96 30.636C53.464 30.216 53.932 29.772 54.376 29.316V34.236H55.228V28.332C55.876 27.516 56.44 26.628 56.908 25.68H63.328V24.828H57.292C57.508 24.312 57.688 23.772 57.856 23.22L56.956 23.112C56.788 23.7 56.572 24.276 56.332 24.828H52.84V25.68H55.924C55.084 27.276 53.92 28.692 52.42 29.928L52.96 30.636ZM87.496 32.64V31.812C86.32 32.268 84.94 32.64 83.356 32.904L83.464 33.744C84.976 33.468 86.32 33.096 87.496 32.64ZM86.188 23.46L85.36 23.136C84.88 24.564 84.316 25.836 83.668 26.94C83.56 27.096 83.44 27.204 83.308 27.252L83.512 28.044L83.5124 28.0439C84.1843 27.96 84.8561 27.876 85.516 27.78C84.892 28.896 84.352 29.688 83.908 30.144C83.8 30.24 83.668 30.324 83.512 30.396L83.752 31.188C84.904 31.032 86.104 30.744 87.364 30.336V29.556C86.5 29.844 85.636 30.072 84.772 30.24C85.468 29.388 86.356 27.948 87.412 25.92L86.644 25.632C86.5208 25.8784 86.3976 26.1184 86.2777 26.3522C86.1639 26.5738 86.0531 26.7897 85.948 27C85.408 27.084 84.868 27.156 84.328 27.204C84.952 26.268 85.576 25.02 86.188 23.46ZM93.436 26.112L93.316 25.32L90.328 25.74V23.196H89.464V25.86L87.628 26.124L87.76 26.916L89.488 26.664C89.5 27.24 89.536 27.792 89.596 28.308L87.424 28.656L87.544 29.472L89.704 29.124C89.752 29.436 89.8 29.736 89.872 30.048C90.016 30.696 90.196 31.272 90.424 31.8C89.536 32.46 88.54 32.964 87.436 33.324L87.94 34.02C88.96 33.708 89.92 33.216 90.808 32.556C90.88 32.712 90.976 32.856 91.084 33C91.6 33.72 92.14 34.08 92.716 34.104C93.34 34.104 93.82 33.3 94.156 31.716L93.424 31.236C93.208 32.52 92.932 33.168 92.62 33.168C92.308 33.168 91.96 32.868 91.564 32.28C91.54 32.244 91.519 32.205 91.498 32.166C91.477 32.127 91.456 32.088 91.432 32.052C92.176 31.404 92.86 30.612 93.496 29.688L92.812 29.22C92.308 29.988 91.732 30.66 91.084 31.26C90.916 30.78 90.772 30.24 90.652 29.616C90.616 29.424 90.58 29.208 90.556 28.992L93.772 28.488L93.64 27.672L90.46 28.176C90.412 27.66 90.376 27.12 90.352 26.544L93.436 26.112ZM93.088 24.648C92.752 24.228 92.284 23.736 91.672 23.16L91 23.58C91.6 24.132 92.08 24.648 92.416 25.116L93.088 24.648ZM120.004 28.68C120.292 28.272 120.544 27.828 120.784 27.324C121 28.596 121.348 29.736 121.828 30.744C121.156 31.824 120.244 32.712 119.08 33.384L119.56 34.164C120.664 33.48 121.576 32.616 122.272 31.584C122.86 32.592 123.616 33.456 124.552 34.164L124.984 33.408C124.072 32.7 123.316 31.836 122.74 30.804C123.46 29.436 123.856 27.78 123.928 25.86H124.672V25.032H121.552C121.672 24.504 121.792 23.94 121.888 23.328L121.036 23.184C120.772 25.224 120.256 26.844 119.488 28.044L120.004 28.68ZM121.336 25.86H123.124C123.076 27.372 122.788 28.716 122.272 29.88C121.768 28.74 121.456 27.42 121.312 25.932C121.312 25.908 121.324 25.884 121.336 25.86ZM116.248 24.336H114.676V25.104H116.248V26.328H114.112V27.132H117.088C116.74 27.504 116.368 27.864 115.96 28.212H114.688V28.98H114.964C114.628 29.208 114.268 29.436 113.884 29.652L114.424 30.264C115.072 29.904 115.684 29.472 116.284 28.98H118.144C117.736 29.412 117.316 29.784 116.884 30.108V30.984C116.044 31.08 115.132 31.164 114.124 31.212L114.244 32.04C115.204 31.956 116.092 31.86 116.884 31.764V32.808C116.884 33.168 116.704 33.36 116.356 33.36C116.092 33.36 115.732 33.336 115.288 33.3L115.504 34.08H116.68C117.376 34.08 117.724 33.732 117.724 33.036V31.644C118.564 31.524 119.272 31.38 119.86 31.224V30.42C119.236 30.588 118.516 30.744 117.724 30.864V30.276C118.276 29.796 118.756 29.316 119.164 28.836V28.212H117.124C117.46 27.876 117.784 27.516 118.108 27.132H119.608V26.328H118.72C119.2 25.644 119.656 24.888 120.088 24.072L119.416 23.724C118.948 24.66 118.396 25.536 117.772 26.328H117.076V25.104H118.36V24.336H117.076V23.268H116.248V24.336ZM154.132 26.268H146.188V27.06H148.156C147.376 28.02 146.74 28.608 146.248 28.824C146.237 28.8297 146.225 28.836 146.212 28.8427C146.171 28.8643 146.123 28.8897 146.068 28.908L146.26 29.652C147.436 29.604 148.588 29.556 149.716 29.496V30.792H145.912V31.596H149.716V33.096H144.952V33.912H155.368V33.096H150.604V31.596H154.432V30.792H150.604V29.448C151.492 29.4 152.368 29.34 153.22 29.28C153.484 29.568 153.736 29.868 153.952 30.168L154.576 29.532C153.904 28.728 153.076 27.912 152.092 27.096L151.54 27.624C151.9 27.948 152.248 28.272 152.584 28.608C150.892 28.728 149.2 28.812 147.508 28.884C147.976 28.5 148.516 27.9 149.14 27.06H154.132V26.268ZM150.688 24.324C150.496 23.868 150.304 23.448 150.112 23.088L149.152 23.256C149.368 23.58 149.572 23.94 149.752 24.324H145.144V26.652H146.02V25.14H154.3V26.652H155.176V24.324H150.688Z" fill="#18222D"/>
<defs>
<linearGradient id="paint0_linear_1333_3213" x1="0" y1="0" x2="40" y2="40" gradientUnits="userSpaceOnUse">
<stop stop-color="#3381FF"/>
<stop offset="1" stop-color="#0050D1"/>
</linearGradient>
</defs>
</svg>
