<svg width="155" height="40" viewBox="0 0 155 40" fill="none" xmlns="http://www.w3.org/2000/svg">
<path fill-rule="evenodd" clip-rule="evenodd" d="M55.7188 16.6328H59.9609L60.7031 19H63.3125L59.2344 7.48438H56.5156L52.4062 19H54.9219L55.7188 16.6328ZM57.8516 10.1172L59.2891 14.6484H56.3672L57.8516 10.1172ZM69.5 19.3047C70.4271 19.3047 71.2083 19.1094 71.8438 18.7188C72.2135 18.4948 72.6302 18.1094 73.0938 17.5625L73.3359 19H74.9297V12.8203H70.1328V14.7422H72.7969C72.6771 15.4974 72.3594 16.1094 71.8438 16.5781C71.3281 17.0417 70.6667 17.2734 69.8594 17.2734C69.0365 17.2734 68.3021 16.9792 67.6562 16.3906C67.0104 15.8021 66.6875 14.7995 66.6875 13.3828C66.6875 11.9766 66.9844 10.9245 67.5781 10.2266C68.1771 9.52344 68.9401 9.17188 69.8672 9.17188C70.3516 9.17188 70.7917 9.25781 71.1875 9.42969C71.8958 9.74219 72.3411 10.2917 72.5234 11.0781H74.8906C74.7604 9.96875 74.25 9.04427 73.3594 8.30469C72.474 7.5599 71.2995 7.1875 69.8359 7.1875C68.1484 7.1875 66.7917 7.75 65.7656 8.875C64.7396 10 64.2266 11.4948 64.2266 13.3594C64.2266 15.2031 64.7344 16.6562 65.75 17.7188C66.724 18.776 67.974 19.3047 69.5 19.3047ZM78.5547 17.9766C79.4245 18.8724 80.6823 19.3203 82.3281 19.3203C83.974 19.3203 85.2318 18.8724 86.1016 17.9766C87.263 16.8776 87.8438 15.2943 87.8438 13.2266C87.8438 11.1172 87.263 9.53385 86.1016 8.47656C85.2318 7.58073 83.974 7.13281 82.3281 7.13281C80.6823 7.13281 79.4245 7.58073 78.5547 8.47656C77.388 9.53385 76.8047 11.1172 76.8047 13.2266C76.8047 15.2943 77.388 16.8776 78.5547 17.9766ZM85.4375 13.2266C85.4375 14.5234 85.1589 15.5234 84.6016 16.2266C84.0391 16.9297 83.2812 17.2812 82.3281 17.2812C81.375 17.2812 80.6146 16.9297 80.0469 16.2266C79.4792 15.5234 79.1953 14.5234 79.1953 13.2266C79.1953 11.9297 79.4792 10.9297 80.0469 10.2266C80.6146 9.52344 81.375 9.17188 82.3281 9.17188C83.2812 9.17188 84.0365 9.52604 84.5938 10.2344C85.1562 10.9375 85.4375 11.9349 85.4375 13.2266ZM92.0938 14.4844H94.5781C95.2865 14.4844 95.7682 14.6068 96.0234 14.8516C96.2839 15.0964 96.4193 15.5859 96.4297 16.3203L96.4453 17.3906C96.4505 17.7292 96.4844 18.0599 96.5469 18.3828C96.5781 18.5391 96.6302 18.7448 96.7031 19H99.3516V18.7109C99.1224 18.5703 98.9766 18.3516 98.9141 18.0547C98.8724 17.8672 98.8516 17.5104 98.8516 16.9844V16.2109C98.8516 15.4036 98.7396 14.8047 98.5156 14.4141C98.2969 14.0182 97.9219 13.7135 97.3906 13.5C98.026 13.2812 98.4818 12.9089 98.7578 12.3828C99.0339 11.8516 99.1719 11.3125 99.1719 10.7656C99.1719 10.3125 99.099 9.90885 98.9531 9.55469C98.8073 9.20052 98.6094 8.8776 98.3594 8.58594C98.0573 8.23177 97.6875 7.96354 97.25 7.78125C96.8177 7.59896 96.1979 7.5 95.3906 7.48438H89.7422V19H92.0938V14.4844ZM96.7578 11.0938C96.7578 11.7396 96.5182 12.1719 96.0391 12.3906C95.7682 12.5156 95.362 12.5781 94.8203 12.5781H92.0938V9.48438H94.8906C95.4115 9.48438 95.8021 9.55208 96.0625 9.6875C96.526 9.92708 96.7578 10.3958 96.7578 11.0938ZM103.75 16.6328H107.992L108.734 19H111.344L107.266 7.48438H104.547L100.438 19H102.953L103.75 16.6328ZM105.883 10.1172L107.32 14.6484H104.398L105.883 10.1172ZM119.062 9.52344H124.836V7.5H116.672V19H119.062V14.1719H124.117V12.1719H119.062V9.52344ZM128.859 7.48438H126.453V19H134.562V16.9297H128.859V7.48438ZM138.734 16.6328H142.977L143.719 19H146.328L142.25 7.48438H139.531L135.422 19H137.938L138.734 16.6328ZM140.867 10.1172L142.305 14.6484H139.383L140.867 10.1172ZM154.977 9.52344V7.48438H145.648V9.52344H149.109V19H151.531V9.52344H154.977ZM60.0039 25.623C59.2734 24.6465 58.1484 24.1582 56.6289 24.1582C55.1758 24.1582 54.0781 24.6895 53.3359 25.752C52.7578 26.5801 52.4688 27.5762 52.4688 28.7402C52.4688 30.0293 52.8066 31.0957 53.4824 31.9395C54.2402 32.8145 55.2812 33.252 56.6055 33.252C58.0234 33.252 59.1152 32.752 59.8809 31.752C60.5332 30.9004 60.8594 29.832 60.8594 28.5469C60.8594 27.3594 60.5742 26.3848 60.0039 25.623ZM58.9727 31.1074C58.5156 31.8418 57.7734 32.209 56.7461 32.209C55.6641 32.209 54.8809 31.8828 54.3965 31.2305C53.916 30.5742 53.6758 29.7695 53.6758 28.8164C53.6758 27.625 53.957 26.7246 54.5195 26.1152C55.082 25.502 55.8086 25.1953 56.6992 25.1953C57.6172 25.1953 58.3398 25.5039 58.8672 26.1211C59.3984 26.7383 59.6641 27.5527 59.6641 28.5645C59.6641 29.5215 59.4336 30.3691 58.9727 31.1074ZM63.6192 26.7246H62.6173V33H63.672V29.7129C63.672 29.3027 63.6974 28.9883 63.7481 28.7695C63.8028 28.5469 63.9181 28.332 64.0938 28.125C64.3126 27.8672 64.5665 27.6953 64.8556 27.6094C65.0157 27.5586 65.2208 27.5332 65.4708 27.5332C65.963 27.5332 66.3028 27.7285 66.4903 28.1191C66.6036 28.3535 66.6602 28.6621 66.6602 29.0449V33H67.7325V28.9746C67.7325 28.3418 67.6466 27.8555 67.4747 27.5156C67.1622 26.8945 66.5606 26.584 65.67 26.584C65.2638 26.584 64.8946 26.6641 64.5626 26.8242C64.2306 26.9844 63.9161 27.248 63.6192 27.6152V26.7246ZM70.8849 24.3926H69.8303V33H70.8849V24.3926ZM74.0491 26.7539H72.9768V33H74.0491V26.7539ZM74.0491 24.3926H72.9768V25.5879H74.0491V24.3926ZM77.1547 26.7246H76.1527V33H77.2074V29.7129C77.2074 29.3027 77.2328 28.9883 77.2836 28.7695C77.3383 28.5469 77.4535 28.332 77.6293 28.125C77.848 27.8672 78.1019 27.6953 78.391 27.6094C78.5512 27.5586 78.7562 27.5332 79.0062 27.5332C79.4984 27.5332 79.8383 27.7285 80.0258 28.1191C80.139 28.3535 80.1957 28.6621 80.1957 29.0449V33H81.268V28.9746C81.268 28.3418 81.182 27.8555 81.0101 27.5156C80.6976 26.8945 80.0961 26.584 79.2055 26.584C78.7992 26.584 78.4301 26.6641 78.098 26.8242C77.766 26.9844 77.4515 27.248 77.1547 27.6152V26.7246ZM87.2446 26.9004C86.8266 26.6895 86.395 26.584 85.9497 26.584C85.0669 26.584 84.352 26.8984 83.8052 27.5273C83.2583 28.1562 82.9848 28.9746 82.9848 29.9824C82.9848 31.0059 83.2563 31.8027 83.7993 32.373C84.3423 32.9395 85.0044 33.2227 85.7856 33.2227C86.1059 33.2227 86.3931 33.1914 86.647 33.1289C87.1196 33.0195 87.5161 32.8086 87.8364 32.4961C88.0278 32.3164 88.1997 32.0859 88.352 31.8047C88.5083 31.5195 88.6001 31.2617 88.6274 31.0312H87.5903C87.5122 31.3086 87.3794 31.5527 87.1919 31.7637C86.8638 32.127 86.4243 32.3086 85.8735 32.3086C85.2837 32.3086 84.8481 32.1172 84.5669 31.7344C84.2856 31.3477 84.1352 30.8359 84.1157 30.1992H88.7153C88.7153 29.5664 88.6841 29.1055 88.6216 28.8164C88.5513 28.3945 88.4106 28.0254 88.1997 27.709C87.9809 27.377 87.6626 27.1074 87.2446 26.9004ZM87.3325 28.2656C87.4888 28.5391 87.5884 28.9043 87.6313 29.3613H84.145C84.1645 28.8223 84.3384 28.3789 84.6665 28.0312C84.9946 27.6797 85.4009 27.5039 85.8852 27.5039C86.561 27.5039 87.0434 27.7578 87.3325 28.2656ZM100.669 25.0195C100.067 24.4453 99.2214 24.1582 98.1315 24.1582C96.8542 24.1582 95.8522 24.5996 95.1257 25.4824C94.4538 26.2949 94.1178 27.3359 94.1178 28.6055C94.1178 30.2773 94.5651 31.5137 95.4596 32.3145C96.1393 32.9199 96.9792 33.2227 97.9792 33.2227C99.1393 33.2227 100.061 32.8535 100.745 32.1152C101.315 31.502 101.651 30.7422 101.753 29.8359H100.616C100.499 30.4023 100.321 30.8594 100.083 31.207C99.6335 31.8672 98.9792 32.1973 98.1198 32.1973C97.1862 32.1973 96.4831 31.8848 96.0104 31.2598C95.5417 30.6309 95.3073 29.8125 95.3073 28.8047C95.3073 27.5742 95.5671 26.6621 96.0866 26.0684C96.61 25.4707 97.2956 25.1719 98.1432 25.1719C98.8385 25.1719 99.3776 25.334 99.7604 25.6582C100.147 25.9824 100.405 26.4219 100.534 26.9766H101.671C101.604 26.2461 101.27 25.5938 100.669 25.0195ZM104.624 24.3926H103.569V33H104.624V24.3926ZM107.858 32.0508C107.636 31.875 107.524 31.6348 107.524 31.3301C107.524 30.9277 107.686 30.6348 108.011 30.4512C108.202 30.3418 108.489 30.2617 108.872 30.2109L109.511 30.1289C109.706 30.1055 109.905 30.0664 110.108 30.0117C110.311 29.957 110.477 29.8887 110.606 29.8066V30.6562C110.606 31.3047 110.313 31.7715 109.727 32.0566C109.38 32.2285 109.02 32.3145 108.649 32.3145C108.345 32.3145 108.081 32.2266 107.858 32.0508ZM110.565 28.8926C110.483 29.0645 110.321 29.166 110.079 29.1973L108.397 29.4082C107.807 29.4824 107.331 29.6797 106.968 30C106.604 30.3203 106.423 30.7715 106.423 31.3535C106.423 31.8848 106.606 32.3281 106.973 32.6836C107.345 33.0352 107.821 33.2109 108.403 33.2109C108.888 33.2109 109.331 33.1074 109.733 32.9004C110.136 32.6934 110.444 32.4492 110.659 32.168C110.694 32.418 110.755 32.6113 110.841 32.748C111.005 33.0059 111.268 33.1348 111.632 33.1348C111.78 33.1348 111.897 33.1289 111.983 33.1172C112.069 33.1055 112.194 33.0762 112.358 33.0293V32.25C112.292 32.2617 112.229 32.2715 112.171 32.2793C112.112 32.2832 112.059 32.2852 112.013 32.2852C111.868 32.2852 111.772 32.252 111.725 32.1855C111.682 32.1191 111.661 32.0312 111.661 31.9219V28.3066C111.661 27.7129 111.432 27.2754 110.975 26.9941C110.515 26.7129 109.915 26.5723 109.177 26.5723C108.54 26.5723 107.979 26.7246 107.495 27.0293C107.015 27.3301 106.765 27.8672 106.745 28.6406H107.729C107.768 28.3164 107.852 28.0723 107.981 27.9082C108.212 27.6113 108.602 27.4629 109.153 27.4629C109.63 27.4629 109.995 27.5449 110.249 27.709C110.507 27.8691 110.636 28.1289 110.636 28.4883C110.636 28.6641 110.612 28.7988 110.565 28.8926ZM114.79 31.8398C114.645 31.6523 114.558 31.3828 114.526 31.0312H113.513C113.54 31.6562 113.747 32.1816 114.134 32.6074C114.524 33.0293 115.186 33.2402 116.12 33.2402C116.987 33.2402 117.632 33.0371 118.054 32.6309C118.479 32.2246 118.692 31.7422 118.692 31.1836C118.692 30.6055 118.487 30.1816 118.077 29.9121C117.819 29.7402 117.311 29.5625 116.554 29.3789L115.856 29.209C115.552 29.1348 115.321 29.0488 115.165 28.9512C114.895 28.7871 114.761 28.5684 114.761 28.2949C114.761 28.0449 114.862 27.8438 115.065 27.6914C115.272 27.5391 115.575 27.4629 115.974 27.4629C116.571 27.4629 116.991 27.6016 117.233 27.8789C117.382 28.0742 117.466 28.291 117.485 28.5293H118.481C118.489 28.123 118.362 27.7441 118.101 27.3926C117.683 26.8379 117.001 26.5605 116.056 26.5605C115.333 26.5605 114.757 26.7441 114.327 27.1113C113.901 27.4785 113.688 27.959 113.688 28.5527C113.688 29.0566 113.915 29.4512 114.368 29.7363C114.622 29.9004 115.017 30.0488 115.552 30.1816L116.39 30.3926C116.839 30.5059 117.14 30.6055 117.292 30.6914C117.53 30.832 117.649 31.0371 117.649 31.3066C117.649 31.6621 117.501 31.9258 117.204 32.0977C116.907 32.2656 116.563 32.3496 116.173 32.3496C115.517 32.3496 115.056 32.1797 114.79 31.8398ZM121.294 31.8398C121.149 31.6523 121.062 31.3828 121.03 31.0312H120.017C120.044 31.6562 120.251 32.1816 120.638 32.6074C121.028 33.0293 121.69 33.2402 122.624 33.2402C123.491 33.2402 124.136 33.0371 124.558 32.6309C124.983 32.2246 125.196 31.7422 125.196 31.1836C125.196 30.6055 124.991 30.1816 124.581 29.9121C124.323 29.7402 123.815 29.5625 123.058 29.3789L122.36 29.209C122.056 29.1348 121.825 29.0488 121.669 28.9512C121.399 28.7871 121.265 28.5684 121.265 28.2949C121.265 28.0449 121.366 27.8438 121.569 27.6914C121.776 27.5391 122.079 27.4629 122.478 27.4629C123.075 27.4629 123.495 27.6016 123.737 27.8789C123.886 28.0742 123.97 28.291 123.989 28.5293H124.985C124.993 28.123 124.866 27.7441 124.605 27.3926C124.187 26.8379 123.505 26.5605 122.56 26.5605C121.837 26.5605 121.261 26.7441 120.831 27.1113C120.405 27.4785 120.192 27.959 120.192 28.5527C120.192 29.0566 120.419 29.4512 120.872 29.7363C121.126 29.9004 121.521 30.0488 122.056 30.1816L122.894 30.3926C123.343 30.5059 123.644 30.6055 123.796 30.6914C124.034 30.832 124.153 31.0371 124.153 31.3066C124.153 31.6621 124.005 31.9258 123.708 32.0977C123.411 32.2656 123.067 32.3496 122.677 32.3496C122.021 32.3496 121.56 32.1797 121.294 31.8398ZM127.939 26.7246H126.937V33H127.991V29.3906C127.991 28.9453 128.134 28.5527 128.419 28.2129C128.704 27.8691 129.112 27.6973 129.644 27.6973C129.706 27.6973 129.763 27.6992 129.814 27.7031C129.868 27.707 129.927 27.7148 129.989 27.7266V26.6133C129.876 26.6016 129.796 26.5938 129.749 26.5898C129.702 26.5859 129.669 26.584 129.65 26.584C129.232 26.584 128.862 26.7363 128.542 27.041C128.222 27.3418 128.021 27.5977 127.939 27.8086V26.7246ZM135.333 31.5293C135.075 32.0566 134.597 32.3203 133.898 32.3203C133.261 32.3203 132.796 32.0977 132.503 31.6523C132.21 31.207 132.064 30.6504 132.064 29.9824C132.064 29.2871 132.21 28.6934 132.503 28.2012C132.796 27.709 133.265 27.4629 133.909 27.4629C134.636 27.4629 135.148 27.752 135.445 28.3301C135.632 28.6973 135.726 29.1738 135.726 29.7598C135.726 30.4082 135.595 30.998 135.333 31.5293ZM135.99 27.3516C135.431 26.8125 134.747 26.543 133.939 26.543C133.036 26.543 132.318 26.8555 131.782 27.4805C131.247 28.1055 130.98 28.9453 130.98 30C130.98 30.9844 131.234 31.7695 131.741 32.3555C132.249 32.9375 132.935 33.2285 133.798 33.2285C134.833 33.2285 135.597 32.8984 136.089 32.2383C136.581 31.5781 136.827 30.7422 136.827 29.7305C136.827 28.6836 136.548 27.8906 135.99 27.3516ZM142.517 31.5293C142.259 32.0566 141.781 32.3203 141.081 32.3203C140.445 32.3203 139.98 32.0977 139.687 31.6523C139.394 31.207 139.247 30.6504 139.247 29.9824C139.247 29.2871 139.394 28.6934 139.687 28.2012C139.98 27.709 140.449 27.4629 141.093 27.4629C141.82 27.4629 142.331 27.752 142.628 28.3301C142.816 28.6973 142.91 29.1738 142.91 29.7598C142.91 30.4082 142.779 30.998 142.517 31.5293ZM143.173 27.3516C142.615 26.8125 141.931 26.543 141.122 26.543C140.22 26.543 139.501 26.8555 138.966 27.4805C138.431 28.1055 138.163 28.9453 138.163 30C138.163 30.9844 138.417 31.7695 138.925 32.3555C139.433 32.9375 140.118 33.2285 140.982 33.2285C142.017 33.2285 142.781 32.8984 143.273 32.2383C143.765 31.5781 144.011 30.7422 144.011 29.7305C144.011 28.6836 143.732 27.8906 143.173 27.3516ZM146.818 26.7246H145.775V33H146.83V29.6719C146.83 28.8633 146.992 28.3047 147.316 27.9961C147.644 27.6875 148.007 27.5332 148.406 27.5332C148.843 27.5332 149.142 27.6797 149.302 27.9727C149.404 28.168 149.455 28.4785 149.455 28.9043V33H150.527V29.3496C150.527 28.7012 150.675 28.2383 150.972 27.9609C151.273 27.6836 151.63 27.5449 152.044 27.5449C152.345 27.5449 152.599 27.623 152.806 27.7793C153.017 27.9355 153.122 28.2227 153.122 28.6406V33H154.218V28.8223C154.218 28.2676 154.136 27.8262 153.972 27.498C153.667 26.8887 153.093 26.584 152.249 26.584C151.855 26.584 151.499 26.666 151.183 26.8301C150.867 26.9902 150.591 27.2383 150.357 27.5742C150.216 27.3008 150.06 27.0938 149.888 26.9531C149.583 26.707 149.181 26.584 148.681 26.584C148.24 26.584 147.845 26.7031 147.497 26.9414C147.294 27.082 147.068 27.3066 146.818 27.6152V26.7246Z" fill="#18222D"/>
<path d="M0 14.4C0 9.35953 0 6.83929 0.980941 4.91409C1.8438 3.22063 3.22063 1.8438 4.91409 0.980941C6.83929 0 9.35953 0 14.4 0H25.6C30.6405 0 33.1607 0 35.0859 0.980941C36.7794 1.8438 38.1562 3.22063 39.0191 4.91409C40 6.83929 40 9.35953 40 14.4V25.6C40 30.6405 40 33.1607 39.0191 35.0859C38.1562 36.7794 36.7794 38.1562 35.0859 39.0191C33.1607 40 30.6405 40 25.6 40H14.4C9.35953 40 6.83929 40 4.91409 39.0191C3.22063 38.1562 1.8438 36.7794 0.980941 35.0859C0 33.1607 0 30.6405 0 25.6V14.4Z" fill="url(#paint0_linear_1332_3155)"/>
<path fill-rule="evenodd" clip-rule="evenodd" d="M9.26127 12.0455C9.26127 10.9158 10.1771 10 11.3067 10H13.3522V12.0455H9.26127ZM9.26127 12.5568H12.3295V14.0909H13.3522V16.1364H12.3295V23.2955H9.26127V16.1364H8.23855V14.0909H9.26127V12.5568ZM14.3749 10H15.3976C16.5273 10 17.4431 10.9158 17.4431 12.0455V23.2955H14.3749V10ZM23.0681 14.0909H19.9999V16.1364H23.0681V21.25H21.534V19.2045H22.5567V17.1591H20.5113C19.3816 17.1591 18.4658 18.0749 18.4658 19.2045V21.25C18.4658 22.3797 19.3816 23.2955 20.5113 23.2955H23.0681H26.1363V16.1364C26.1363 15.0067 25.2205 14.0909 24.0908 14.0909H23.0681ZM30.2272 23.2955H27.159V16.1364V14.0909V10H28.1817C29.3114 10 30.2272 10.9158 30.2272 12.0455V14.0909H31.2499V16.1364H30.2272V23.2955ZM9.59781 25.9091H11.8181H15.909L19.9999 26.9318L24.0908 25.9091H28.1817H30.402L32.1905 26.9318H28.1817H24.0908L19.9999 27.9545L15.909 26.9318H11.8181H7.80935L9.59781 25.9091ZM11.8181 27.9545H6.02088L4.23242 28.9773H11.8181H15.909L19.9999 30L24.0908 28.9773H28.1817H35.7674L33.9789 27.9545H28.1817H24.0908L19.9999 28.9773L15.909 27.9545H11.8181Z" fill="#3381FF"/>
<defs>
<linearGradient id="paint0_linear_1332_3155" x1="20" y1="0" x2="20" y2="40" gradientUnits="userSpaceOnUse">
<stop stop-color="white"/>
<stop offset="1" stop-color="#EBF2FF"/>
</linearGradient>
</defs>
</svg>
