<svg width="122" height="122" viewBox="0 0 122 122" fill="none" xmlns="http://www.w3.org/2000/svg">
<circle cx="61" cy="61" r="60.5" fill="white" stroke="#E3E7EC"/>
<rect x="29" y="29" width="64" height="64" fill="white"/>
<g clip-path="url(#clip0_985_1619)">
<path d="M33 61C33 45.536 45.536 33 61 33C76.464 33 89 45.536 89 61C89 76.464 76.464 89 61 89C45.536 89 33 76.464 33 61Z" fill="#586376"/>
<path d="M52.835 71.1055L52.8395 71.1069L51.2128 73.9245C50.619 74.953 49.3038 75.3054 48.2754 74.7115C47.2469 74.1178 46.8945 72.8026 47.4883 71.7742L48.6867 69.6986L48.8016 69.4994C49.007 69.2041 49.5139 68.6947 50.5277 68.7905C50.5277 68.7905 52.9135 69.0494 53.0861 70.2894C53.0861 70.2894 53.1097 70.6974 52.835 71.1055ZM75.9075 63.9091H70.8348C70.4894 63.886 70.3385 63.7626 70.2793 63.6909L70.2755 63.6843L64.8453 54.279L64.8383 54.2837L64.5126 53.8168C63.9789 53.0006 63.1314 55.0881 63.1314 55.0881C62.1195 57.4142 63.2749 60.0588 63.6779 60.8581L71.2201 73.9216C71.8138 74.95 73.129 75.3024 74.1574 74.7086C75.1859 74.1149 75.5383 72.7997 74.9445 71.7712L73.0585 68.5046C73.022 68.4255 72.9584 68.2106 73.3451 68.2097H75.9075C77.0951 68.2097 78.0578 67.247 78.0578 66.0594C78.0578 64.8718 77.0951 63.9091 75.9075 63.9091ZM66.0547 66.8324C66.0547 66.8324 66.3254 68.2097 65.2777 68.2097H64.2301L46.5253 68.2097C45.3377 68.2097 44.375 67.247 44.375 66.0594C44.375 64.8718 45.3377 63.9091 46.5253 63.9091H51.3464C52.1247 63.864 52.3092 63.4147 52.3092 63.4147L52.3135 63.4168L58.6066 52.5169L58.6047 52.5165C58.7194 52.3059 58.6239 52.107 58.6073 52.0755L56.529 48.4758C55.9352 47.4474 56.2876 46.1322 57.316 45.5385C58.3445 44.9446 59.6596 45.297 60.2534 46.3255L61.2173 47.995L62.1795 46.3285C62.7732 45.3 64.0884 44.9476 65.1168 45.5414C66.1453 46.1352 66.4977 47.4504 65.9039 48.4788L57.1469 63.6463C57.1086 63.7386 57.0969 63.8836 57.3818 63.9091H62.6162L62.6173 63.9601C62.6173 63.9601 65.6427 64.0072 66.0547 66.8324Z" fill="white"/>
</g>
<defs>
<clipPath id="clip0_985_1619">
<rect width="56" height="56" fill="white" transform="translate(33 33)"/>
</clipPath>
</defs>
</svg>
