<svg width="122" height="122" viewBox="0 0 122 122" fill="none" xmlns="http://www.w3.org/2000/svg">
<circle cx="61" cy="61" r="60.5" fill="white" stroke="#E3E7EC"/>
<rect x="29" y="29" width="64" height="64" fill="white"/>
<path d="M62.5907 39.1771C65.7445 35.0203 70.1291 35 70.1291 35C70.1291 35 70.7813 38.9081 67.6481 42.6729C64.3027 46.6928 60.5002 46.035 60.5002 46.035C60.5002 46.035 59.7862 42.8735 62.5907 39.1771ZM60.9013 48.7726C62.5238 48.7726 65.535 46.5423 69.4546 46.5423C76.2014 46.5423 78.8556 51.3431 78.8556 51.3431C78.8556 51.3431 73.6644 53.9973 73.6644 60.4373C73.6644 67.7023 80.1312 70.206 80.1312 70.206C80.1312 70.206 75.6107 82.9295 69.5048 82.9295C66.7004 82.9295 64.5201 81.0396 61.5652 81.0396C58.554 81.0396 55.5658 83 53.6195 83C48.0439 83.0002 41 70.9306 41 61.2287C41 51.6834 46.9622 46.6761 52.5546 46.6761C56.1901 46.6761 59.0113 48.7726 60.9013 48.7726Z" fill="#586376"/>
</svg>
