<svg width="64" height="64" viewBox="0 0 64 64" fill="none" xmlns="http://www.w3.org/2000/svg">
<path fill-rule="evenodd" clip-rule="evenodd" d="M6.33325 32C6.33325 17.8247 17.8246 6.33333 31.9999 6.33333C46.1752 6.33333 57.6666 17.8247 57.6666 32C57.6666 43.0882 50.6362 52.5301 40.7953 56.1196L39.2059 56.6993L32.8672 38.4755L34.3467 37.8848C36.6855 36.951 38.3333 34.6659 38.3333 32C38.3333 28.5022 35.4977 25.6667 31.9999 25.6667C28.5021 25.6667 25.6666 28.5022 25.6666 32C25.6666 34.666 27.3144 36.9511 29.6532 37.8848L31.1328 38.4755L24.7941 56.6993L23.2046 56.1196C13.3636 52.5302 6.33325 43.0882 6.33325 32ZM31.9999 9.66667C19.6656 9.66667 9.66658 19.6656 9.66658 32C9.66658 41.0439 15.0431 48.8359 22.7786 52.3472L26.9817 40.2633C24.1963 38.5682 22.3333 35.5032 22.3333 32C22.3333 26.6612 26.6612 22.3333 31.9999 22.3333C37.3387 22.3333 41.6666 26.6612 41.6666 32C41.6666 35.5031 39.8036 38.5681 37.0182 40.2632L41.2213 52.3472C48.9568 48.8358 54.3332 41.0439 54.3332 32C54.3332 19.6656 44.3343 9.66667 31.9999 9.66667ZM31.9659 57.6666L31.9683 54.3333H32.0291L32.0339 57.6666L31.9999 57.6667L31.9659 57.6666Z" fill="#099DFD"/>
</svg>
