<svg width="64" height="64" viewBox="0 0 64 64" fill="none" xmlns="http://www.w3.org/2000/svg">
<path fill-rule="evenodd" clip-rule="evenodd" d="M18.6667 9C14.8008 9 11.6667 12.134 11.6667 16V48C11.6667 51.866 14.8008 55 18.6667 55H45.3334C49.1994 55 52.3334 51.866 52.3334 48V16C52.3334 12.134 49.1994 9 45.3334 9H18.6667ZM15.0001 16C15.0001 13.975 16.6417 12.3333 18.6667 12.3333H45.3334C47.3585 12.3333 49.0001 13.975 49.0001 16V48C49.0001 50.025 47.3585 51.6667 45.3334 51.6667H18.6667C16.6417 51.6667 15.0001 50.025 15.0001 48V16ZM21.3334 14.3333C18.9402 14.3333 17.0001 16.2734 17.0001 18.6667V40C17.0001 42.3932 18.9402 44.3333 21.3334 44.3333H42.6668C45.06 44.3333 47.0001 42.3932 47.0001 40V18.6667C47.0001 16.2734 45.06 14.3333 42.6668 14.3333H21.3334ZM20.3334 18.6667C20.3334 18.1144 20.7811 17.6667 21.3334 17.6667H42.6668C43.219 17.6667 43.6668 18.1144 43.6668 18.6667V40C43.6668 40.5523 43.219 41 42.6668 41H21.3334C20.7811 41 20.3334 40.5523 20.3334 40V18.6667Z" fill="#099DFD"/>
</svg>
