<svg width="64" height="64" viewBox="0 0 64 64" fill="none" xmlns="http://www.w3.org/2000/svg">
<path fill-rule="evenodd" clip-rule="evenodd" d="M13.3334 11.6667C12.4129 11.6667 11.6667 12.4129 11.6667 13.3333V29.3333C11.6667 30.2538 12.4129 31 13.3334 31H29.3334C30.2539 31 31.0001 30.2538 31.0001 29.3333V13.3333C31.0001 12.4129 30.2539 11.6667 29.3334 11.6667H13.3334ZM15.0001 27.6667V15H27.6667V27.6667H15.0001ZM34.6668 11.6667C33.7463 11.6667 33.0001 12.4129 33.0001 13.3334V29.3334C33.0001 30.2539 33.7463 31 34.6668 31H50.6668C51.5872 31 52.3334 30.2539 52.3334 29.3334V13.3334C52.3334 12.4129 51.5872 11.6667 50.6668 11.6667H34.6668ZM36.3334 27.6667V15H49.0001V27.6667H36.3334ZM11.6668 34.6667C11.6668 33.7462 12.413 33 13.3334 33H29.3334C30.2539 33 31.0001 33.7462 31.0001 34.6667V50.6667C31.0001 51.5872 30.2539 52.3334 29.3334 52.3334H13.3334C12.413 52.3334 11.6668 51.5872 11.6668 50.6667V34.6667ZM15.0001 36.3334V49H27.6668V36.3334H15.0001ZM34.6668 33C33.7463 33 33.0001 33.7462 33.0001 34.6667V50.6667C33.0001 51.5872 33.7463 52.3334 34.6668 52.3334H50.6668C51.5872 52.3334 52.3334 51.5872 52.3334 50.6667V34.6667C52.3334 33.7462 51.5872 33 50.6668 33H34.6668ZM36.3334 49V36.3334H49.0001V49H36.3334Z" fill="#099DFD"/>
</svg>
