<svg width="65" height="65" viewBox="0 0 65 65" fill="none" xmlns="http://www.w3.org/2000/svg">
<path d="M33.0991 64.9956C15.6077 65.1124 1.10547 50.7662 0.996954 33.2404C0.888434 15.6341 15.1391 1.1005 32.6124 0.996923C50.579 0.891703 64.8789 14.983 64.9957 32.9083C65.1091 50.536 50.8536 64.8773 33.0991 64.9956ZM55.3654 21.2058C55.0036 20.8819 54.4857 20.6156 54.3377 20.2128C54.2489 19.9728 54.3459 19.6867 53.9908 19.6275C53.8855 19.6094 53.7606 19.713 53.6455 19.7623C53.7704 20.0155 53.8675 20.2901 54.0319 20.5137C54.1914 20.7307 54.4495 20.8754 54.6123 21.0907C54.808 21.3522 54.9461 21.6547 55.1089 21.9391C55.0579 21.9933 55.0053 22.0459 54.9543 22.1002C54.637 22.0196 54.3196 21.9391 53.9776 21.8503C54.244 22.7628 54.7257 23.2231 55.196 23.0488C55.7189 22.8565 55.8011 22.2745 55.4278 21.4113C55.395 21.3357 55.3703 21.2584 55.3423 21.1828C55.5331 21.3637 55.6991 21.5889 55.9211 21.7106C56.1809 21.8536 56.5722 22.0591 56.7564 21.9605C57.0014 21.8289 57.1 21.4261 57.2118 21.2305C56.4506 21.0184 55.8619 20.8556 55.2848 20.6945C55.3095 20.8573 55.3374 21.0316 55.3654 21.2058ZM50.334 15.9234C49.9394 15.4976 49.5448 15.0702 49.0465 14.5326C49.017 15.0439 48.989 15.5371 48.9512 16.2013C49.5415 16.0747 49.9509 15.9859 50.3603 15.8988C49.5184 16.7372 48.6782 17.5757 47.8364 18.4142C47.9071 18.498 47.9794 18.5802 48.0501 18.6641C48.5878 18.2284 49.1485 17.8174 49.6582 17.3488C50.4261 16.6435 50.9867 16.6123 51.8927 17.2781C52.0571 17.3998 52.261 17.4689 52.4435 17.5609C53.0881 16.4627 53.0684 16.1914 52.3153 15.3875C52.8579 14.7298 52.853 14.6476 52.2331 14.207C52.0128 14.4684 51.7908 14.7315 51.4751 15.1063C51.0805 14.5901 50.7335 14.1363 50.2682 13.528C50.1301 13.8979 49.89 14.2251 49.9279 14.5161C49.9805 14.9107 50.2436 15.2757 50.4178 15.6538C50.5017 15.6439 50.5856 15.6341 50.6711 15.6242C50.5592 15.7212 50.4491 15.8199 50.334 15.9234ZM21.3576 10.8482C21.2869 11.0964 21.2145 11.3431 21.1438 11.5913C21.0665 11.593 20.9909 11.5946 20.9136 11.5962C20.8725 11.2214 20.7525 10.8367 20.8051 10.4766C20.8972 9.85846 21.1109 9.26002 21.2458 8.64678C21.277 8.50375 21.1964 8.33605 21.1668 8.17822C21.0041 8.267 20.8051 8.32454 20.69 8.45607C20.5946 8.56622 20.6061 8.7668 20.5552 8.92298C20.4088 9.3751 20.1786 9.57897 19.7347 9.20905C19.6278 9.11863 19.4749 9.0841 19.1724 8.94271C19.3763 9.41785 19.5078 9.722 19.6443 10.0377C19.1346 10.7874 18.0214 10.9452 17.8389 11.9941C19.4585 12.5334 19.2891 10.8416 20.1375 10.1034C20.1885 10.4618 20.2773 10.6871 20.2395 10.8909C20.0652 11.8609 19.8991 12.8342 19.6476 13.7845C19.4864 14.3895 19.6229 14.6674 20.3414 14.715C20.3891 13.7746 20.4351 12.8572 20.491 11.7524C20.713 12.0023 20.8084 12.0911 20.8824 12.1947C21.5878 13.191 21.8492 13.1844 22.6614 12.1536C22.594 12.4775 22.525 12.803 22.451 13.1598C22.7897 13.043 23.2073 12.8983 23.745 12.7109C23.2731 11.9662 22.8785 11.2921 22.428 10.6591C22.2257 10.3747 21.7966 9.92422 21.6667 9.98176C21.3263 10.1363 21.0928 10.5292 20.8166 10.8268C20.8643 10.8811 20.912 10.937 20.9597 10.9912C21.0912 10.9468 21.2244 10.8975 21.3576 10.8482ZM48.6289 21.7911C48.2244 21.9917 48.037 22.0657 47.8709 22.1725C47.2724 22.5556 46.7117 23.011 46.082 23.3283C43.688 24.5351 41.2824 25.7155 38.8638 26.8713C37.259 27.6374 36.3349 28.8754 35.8285 30.5721C35.2349 32.5581 34.5312 34.5179 33.7502 36.4365C33.1221 37.9786 32.055 39.3333 30.6623 40.1718C29.2335 41.0333 27.5662 41.5167 25.9812 42.102C23.7532 42.9256 21.4776 43.6227 19.2792 44.5171C18.4292 44.8624 17.7369 45.5989 16.974 46.1579C17.0299 46.2384 17.0875 46.319 17.1434 46.4012C17.5199 46.2631 17.8932 46.1217 18.2713 45.9902C21.6963 44.7949 25.3087 44.6947 28.8504 44.1949C32.1734 43.7263 35.3747 42.9141 37.9331 40.5845C39.1384 39.4862 40.1874 38.217 41.2956 37.0136C41.4041 36.8952 41.4239 36.6963 41.539 36.3954C40.8484 36.7226 40.3025 36.9823 39.755 37.2421C39.6908 37.1714 39.6251 37.1023 39.5609 37.0316C40.9141 35.3547 42.2657 33.6761 43.6189 31.9991C43.5597 31.9252 43.4989 31.8528 43.4397 31.7788C42.6768 32.083 41.9138 32.3855 41.1509 32.6897C41.123 32.6502 41.0934 32.6107 41.0654 32.5696C42.2772 31.3317 43.489 30.092 44.7008 28.854C44.6548 28.8047 44.6104 28.7554 44.5644 28.7077C44.0711 28.7998 43.5794 28.8919 43.0862 28.9839C43.0451 28.9149 43.0056 28.8475 42.9645 28.7784C43.369 28.3953 43.757 27.9925 44.1812 27.6325C45.1168 26.8384 46.1165 26.1134 47.006 25.2733C47.9252 24.4019 48.2129 23.1952 48.6289 21.7911ZM21.249 28.7653C21.2392 28.8573 21.231 28.9478 21.2211 29.0398C22.3244 29.7862 22.2882 30.799 21.8508 31.8315C21.4694 32.7357 21.0271 33.6235 20.5174 34.462C19.5078 36.1225 18.8287 37.8997 18.4949 39.8035C18.2927 40.961 18.194 42.1381 18.0477 43.3054C18.1201 43.3301 18.1924 43.3547 18.2631 43.3794C20.5026 41.2076 23.2419 39.9712 26.241 39.1459C25.7016 37.0925 26.2426 35.1919 26.6356 33.2585C26.8822 32.0435 27.0285 30.7661 26.9414 29.538C26.846 28.2211 25.7773 27.4862 24.4898 27.7443C23.3866 27.9646 22.3277 28.4151 21.249 28.7653ZM34.3027 31.4878C34.2632 31.4813 34.2221 31.4747 34.1826 31.4681C33.6269 32.6617 33.0974 33.8685 32.5104 35.0473C31.4959 37.0875 29.9142 38.5623 27.8194 39.4353C26.1094 40.1472 24.3435 40.7275 22.6318 41.4361C21.9182 41.7304 21.277 42.2039 20.6029 42.5952C20.7952 42.8023 20.8807 42.8352 20.9481 42.8138C22.7453 42.2549 24.5309 41.6531 26.3396 41.1352C29.924 40.1061 32.4989 38.0049 33.6318 34.365C33.9212 33.4262 34.0823 32.448 34.3027 31.4878ZM40.4784 7.84447C40.6313 7.85434 40.9059 7.94805 41.1131 7.86585C41.3696 7.76556 41.5685 7.51895 41.7938 7.33646C41.5176 7.02737 41.6031 6.33029 40.9125 6.4799C40.7892 6.5062 40.6576 6.71171 40.6165 6.85803C40.383 7.68336 40.2104 7.75569 39.3653 7.30522C39.4869 7.16383 39.6037 7.02737 39.755 6.8531C39.5182 6.79885 39.3242 6.75446 39.1712 6.71993C39.1893 6.41742 39.2025 6.1741 39.2304 5.70554C38.992 5.96037 38.9263 6.03435 38.8556 6.10505C38.3656 6.59498 37.8427 7.07012 38.9164 7.52059C39.0134 7.56169 39.0578 8.09273 38.9411 8.2111C38.6073 8.54978 38.1551 8.76844 37.7917 9.08246C37.6125 9.237 37.5254 9.49512 37.3955 9.70556C37.6109 9.74831 37.8246 9.81078 38.0417 9.82558C38.3261 9.84695 38.6122 9.83051 38.8983 9.83051C38.9016 9.90121 38.9065 9.97026 38.9098 10.041C38.5234 10.1544 38.1255 10.2432 37.7506 10.3911C37.3988 10.5292 37.0716 10.7298 36.7345 10.9041C36.7756 10.9912 36.8167 11.0784 36.8594 11.1671C37.4004 11.011 37.9397 10.8531 38.5777 10.669C37.9233 11.9596 37.9233 11.9596 38.4741 12.3607C38.6862 11.8313 38.8934 11.3118 39.1005 10.7906C39.4425 10.9337 39.7221 11.1227 40.0213 11.1622C40.6264 11.2444 41.0539 10.9008 41.1674 10.3402C41.2857 9.7516 40.8155 9.64473 40.3452 9.57239C40.0542 9.528 39.7747 9.39976 39.6135 9.34715C39.9243 8.81283 40.1742 8.37715 40.4784 7.84447ZM7.91427 25.2239C8.34999 25.732 8.69857 26.1841 9.09647 26.5902C9.51247 27.016 10.3856 27.0094 10.5829 26.5523C10.915 25.7829 11.1666 24.974 11.3853 24.1619C11.4379 23.9662 11.2307 23.6999 11.1419 23.4648C10.6305 23.6654 10.6865 23.2034 10.5303 22.9633C10.4217 22.794 10.2507 22.5622 10.088 22.5457C9.29872 22.4652 8.53086 22.5392 7.75478 23.1886C8.08033 23.3415 8.27764 23.4549 8.48975 23.5256C8.71501 23.6012 8.95343 23.6341 9.16718 23.6818C9.30694 24.6288 9.33489 24.6436 10.5335 24.2671C10.2737 24.8606 10.0715 25.3242 9.86927 25.7879C9.19184 25.51 8.77256 24.8179 7.91427 25.2239ZM12.7122 16.4791C12.7631 16.8014 12.7746 17.0513 12.8486 17.2814C12.9193 17.5017 13.0361 17.8585 13.1693 17.8766C13.3912 17.9062 13.6971 17.7681 13.8713 17.602C14.1574 17.3291 14.3679 16.9773 14.6474 16.609C14.9565 16.8967 15.2246 17.1466 15.4646 17.3702C15.3331 17.6908 15.2377 17.9226 15.1177 18.2169C16.1667 17.898 16.563 17.3669 16.2045 16.8458C15.754 16.1898 14.7724 15.7722 15.4975 14.6065C15.4038 14.6164 15.3084 14.6279 15.2147 14.6378C14.6491 15.1129 14.0818 15.588 13.4817 16.0928C14.2725 16.5959 13.8039 16.8951 13.4175 17.408C13.2646 16.4693 13.0032 15.7344 13.5458 14.9929C13.753 14.7101 13.919 14.3813 14.0144 14.0475C14.0407 13.9538 13.628 13.6365 13.6165 13.6464C13.2794 13.944 12.8585 14.2185 12.676 14.6032C12.4014 15.1787 12.2962 15.8363 12.1137 16.4808C12.1778 16.4791 12.4047 16.4791 12.7122 16.4791ZM26.7457 7.70966C27.2489 7.70966 27.5136 7.70966 27.8392 7.70966C27.4347 8.20124 27.0861 8.62376 26.6964 9.09726C27.0236 9.2107 27.2061 9.27481 27.4166 9.3488C27.0401 9.77461 26.7112 10.1445 26.384 10.5144C26.4202 10.5753 26.4547 10.6377 26.4909 10.6986C27.0187 10.641 27.5465 10.5835 28.1828 10.5144C27.8589 10.9534 27.6303 11.2592 27.4034 11.5666C27.9888 11.5108 28.4738 11.3529 28.9112 11.1096C29.0855 11.0126 29.1529 10.7265 29.2696 10.526C29.0707 10.4158 28.8832 10.2465 28.6711 10.2054C28.311 10.138 27.9378 10.1527 27.4445 10.1248C27.9197 9.722 28.2864 9.40963 28.6547 9.09726C28.6235 9.03314 28.5922 8.96902 28.561 8.9049C28.2403 8.88188 27.9197 8.86051 27.5333 8.83256C27.9641 8.31468 28.3324 7.87242 28.8109 7.30029C28.311 7.24603 28.0315 7.2148 27.8063 7.19178C27.9362 6.75117 28.0611 6.327 28.1861 5.90283C27.974 5.85515 27.7635 5.80583 27.7224 5.79596C27.6221 6.2152 27.609 6.50456 27.484 6.73473C27.3212 7.03395 27.0729 7.28549 26.7457 7.70966ZM33.7979 7.79515C33.7814 7.26412 33.9442 7.02737 34.4671 7.09478C34.7417 7.13095 35.0343 7.04052 35.3188 7.00764C35.2662 6.71335 35.2136 6.41907 35.1445 6.03107C34.4737 6.47661 33.7798 6.74295 33.4033 7.24768C33.0645 7.70144 32.5877 8.32125 32.9396 9.14658C33.3013 8.83585 33.5512 8.58431 33.839 8.38702C34.1201 8.19466 34.4391 8.0582 34.9916 7.76556C34.8173 8.53005 34.8107 9.11205 34.5509 9.54115C34.2813 9.98505 33.7666 10.281 33.3687 10.6312C34.5888 10.9633 35.0245 10.641 35.3385 9.14987C35.6296 7.77213 35.3056 7.43839 34.0083 7.77707C33.9557 7.79022 33.9015 7.78693 33.7979 7.79515ZM29.564 51.779C29.6051 51.802 29.7415 51.9401 29.8764 51.9401C29.9536 51.9401 30.0885 51.7165 30.0967 51.5882C30.1246 51.0983 30.1394 50.6034 30.0983 50.1168C30.0819 49.9212 29.9208 49.5956 29.7958 49.5808C29.5788 49.5545 29.3387 49.7255 29.1217 49.8077C28.88 49.7206 28.556 49.6039 28.1483 49.4559C28.1483 50.4012 28.1483 51.1526 28.1483 51.9664C28.6383 51.9006 29.0592 51.8464 29.564 51.779ZM43.6863 10.0952C43.5729 10.2317 43.2966 10.429 43.2342 10.6821C43.1963 10.8301 43.4611 11.1786 43.6518 11.2395C44.8932 11.6324 45.9061 12.2999 46.6049 13.4244C46.7002 13.5773 46.9682 13.6217 47.1557 13.7154C47.2231 13.4968 47.4056 13.2255 47.3332 13.071C47.1951 12.775 46.9534 12.4857 46.6821 12.3015C45.9603 11.8165 45.1875 11.4105 44.4624 10.9287C44.1977 10.7528 44.0135 10.4536 43.6863 10.0952ZM23.6694 50.7383C23.9193 51.1986 24.0936 51.6573 24.3994 51.996C24.4882 52.0946 25.1969 51.8776 25.2067 51.7658C25.2709 51.0868 25.2495 50.393 25.1607 49.7173C25.1492 49.6252 24.4635 49.4575 24.3172 49.5858C24.036 49.8307 23.9176 50.2631 23.6694 50.7383ZM51.6214 22.4126C51.5458 22.7414 51.4603 22.9683 51.4636 23.1952C51.4636 23.2659 51.7941 23.4155 51.8171 23.3908C51.9716 23.2182 52.2265 22.9716 52.187 22.8154C51.8944 21.6711 52.7116 21.7023 53.5205 21.6021C53.4252 21.2519 53.3364 20.9296 53.264 20.66C52.6968 20.9691 52.1903 21.2469 51.7793 21.4722C51.3238 21.2946 50.9325 21.1417 50.5428 20.9888C50.5296 21.0398 50.5149 21.0891 50.5017 21.1401C50.7911 21.3275 51.0805 21.5149 51.3699 21.704C51.3353 21.7747 51.3008 21.8454 51.2679 21.9161C50.967 21.8602 50.6645 21.8059 50.3784 21.7533C50.4211 22.725 51.166 22.3452 51.6214 22.4126ZM22.7502 51.6655C22.936 51.7559 23.1531 51.8628 23.3718 51.9697C23.4457 51.7592 23.5674 51.5521 23.5855 51.3351C23.62 50.929 23.6184 50.5147 23.5839 50.1086C23.5674 49.9195 23.4392 49.742 23.3602 49.5578C23.1975 49.6861 23.0363 49.8159 22.8999 49.9228C22.7617 49.8274 22.5579 49.6877 22.3523 49.548C22.2718 49.7831 22.1419 50.0132 22.1221 50.2516C22.086 50.6856 22.0942 51.1263 22.132 51.5587C22.1452 51.7033 22.3046 51.8349 22.3967 51.973C22.5217 51.8661 22.645 51.7576 22.7502 51.6655ZM46.6427 53.8143C45.1711 53.7075 45.0198 53.8636 45.204 55.146C45.2188 55.2496 45.3256 55.3647 45.301 55.4469C45.1365 55.9993 45.4457 56.1144 45.8896 56.1127C46.3747 56.1111 46.6558 55.9006 46.6443 55.3762C46.6328 54.8665 46.6427 54.3585 46.6427 53.8143ZM34.4786 49.5874C33.372 49.6877 32.9659 50.2302 33.0695 51.3877C33.1665 52.4662 33.9393 51.8546 34.4786 52.0009C34.4786 51.1559 34.4786 50.3733 34.4786 49.5874ZM32.8344 51.9286C32.8344 51.5439 32.836 51.1937 32.8344 50.8418C32.8327 50.541 32.8607 50.2335 32.8097 49.9409C32.785 49.7962 32.5384 49.5529 32.517 49.566C32.1323 49.7896 31.5913 49.9655 31.4318 50.3124C30.9205 51.4189 31.4614 52.065 32.8344 51.9286ZM34.3158 54.1579C34.3651 53.9919 34.4309 53.7683 34.4967 53.543C34.13 53.4921 33.6187 53.2635 33.4213 53.423C32.8376 53.8932 33.2438 54.3749 33.5611 54.6939C33.4181 54.9389 33.178 55.1772 33.2273 55.3022C33.3095 55.5126 33.5726 55.7839 33.7633 55.7872C34.0412 55.7905 34.546 55.5948 34.5575 55.4535C34.5871 55.049 34.4178 54.6281 34.3158 54.1579ZM12.1844 23.8133C12.2896 23.8413 12.3932 23.8692 12.4984 23.8955C12.7697 23.228 13.064 22.5671 13.2975 21.8865C13.3616 21.6974 13.2663 21.2584 13.2071 21.2502C12.7911 21.2025 12.3455 21.1631 11.9525 21.2732C11.7305 21.3341 11.5891 21.6843 11.3425 21.9901C11.6878 22.0459 11.8884 22.0772 12.0364 22.1002C12.0873 22.697 12.135 23.256 12.1844 23.8133ZM35.5424 54.4473C35.5671 54.4456 35.5917 54.444 35.618 54.444C35.6312 54.4966 35.6394 54.5492 35.6559 54.5985C35.7874 54.9816 35.3763 55.5603 36.0653 55.7444C36.1639 55.3663 36.2626 54.9898 36.3596 54.6117C36.5947 53.6894 35.6098 53.7732 35.2876 53.3112C35.1593 53.4132 34.9291 53.5102 34.9225 53.6203C34.8864 54.2171 34.888 54.8172 34.9242 55.414C34.9324 55.5357 35.1494 55.6425 35.2695 55.7576C35.3599 55.6195 35.5095 55.488 35.5309 55.34C35.572 55.0457 35.5424 54.7449 35.5424 54.4473ZM41.9204 50.6133C41.9681 50.615 42.0158 50.6166 42.0635 50.6182C42.0635 50.9438 42.0322 51.2726 42.0783 51.5899C42.098 51.7296 42.2739 51.848 42.3775 51.9762C42.491 51.8595 42.6899 51.751 42.7031 51.6228C42.7442 51.2183 42.8658 50.712 42.68 50.4193C42.4367 50.0379 41.9303 49.8225 41.5373 49.5364C41.4518 49.6548 41.2989 49.7715 41.294 49.8949C41.2677 50.467 41.2627 51.0424 41.2989 51.6129C41.3071 51.7411 41.5077 51.8579 41.6195 51.9795C41.7198 51.848 41.8875 51.7263 41.9073 51.5833C41.95 51.2677 41.9204 50.9388 41.9204 50.6133ZM41.4666 55.7264C41.4666 55.0112 41.4798 54.3371 41.4551 53.6663C41.4502 53.548 41.2249 53.326 41.2134 53.3342C40.8221 53.5726 40.2433 53.7535 40.0986 54.107C39.6316 55.2562 40.0937 55.8069 41.4666 55.7264ZM31.2378 9.5428C31.8001 8.87202 32.3213 8.24892 32.8557 7.61102C32.392 7.66856 32.0336 7.71295 31.6768 7.75734C31.7212 7.36934 31.7656 6.98134 31.8133 6.57032C30.7807 7.35125 30.4732 8.83585 31.2378 9.5428ZM39.2239 50.2746C39.2765 50.2138 39.3291 50.1513 39.3834 50.0905C39.1976 49.8948 39.0397 49.5841 38.821 49.5332C38.5826 49.4773 38.1485 49.5841 38.0515 49.76C37.9249 49.9869 37.9529 50.4078 38.0877 50.6445C38.239 50.9092 38.5875 51.0605 38.8506 51.2594C38.7996 51.2956 38.747 51.3334 38.6961 51.3696C38.4757 51.3005 38.257 51.2315 38.0367 51.1624C38.0022 51.2841 37.9002 51.4469 37.9446 51.5175C38.0647 51.7115 38.239 51.996 38.4083 52.0075C38.6961 52.0272 39.1203 51.9516 39.2551 51.7543C39.3949 51.5537 39.334 51.1263 39.2173 50.8632C39.1071 50.6166 38.8062 50.4538 38.5563 50.222C38.8095 50.2417 39.0167 50.2582 39.2239 50.2746ZM37.8575 55.871C37.9562 55.7905 38.0548 55.7083 38.1551 55.6277C38.0219 55.0276 37.9249 54.416 37.7194 53.8423C37.6898 53.7601 36.8973 53.7962 36.8726 53.8916C36.7295 54.4111 36.5947 54.9948 36.7164 55.4929C36.7657 55.6984 37.4579 55.7494 37.8575 55.871ZM41.7543 54.6955C41.7527 55.2183 41.6672 55.7724 42.3989 55.8004C43.1306 55.8283 43.1947 55.3334 43.1947 54.7629C43.1947 54.2319 43.1536 53.7436 42.4778 53.7272C41.7872 53.7107 41.7182 54.1957 41.7543 54.6955ZM44.7041 50.9668C44.6975 51.4732 44.6318 52.0256 45.3783 52.0272C46.0623 52.0289 46.1445 51.5603 46.1428 51.0145C46.1412 50.4867 46.1149 49.982 45.4226 49.9606C44.709 49.9409 44.6679 50.4423 44.7041 50.9668ZM43.4496 53.8258C43.4496 54.3717 43.4282 54.883 43.4644 55.391C43.4742 55.5192 43.6699 55.6359 43.7801 55.7576C43.8853 55.631 44.0579 55.5159 44.0809 55.3745C44.1286 55.0868 44.0957 54.786 44.0957 54.49C44.2059 54.8139 44.201 55.1427 44.2618 55.4567C44.2848 55.5718 44.4608 55.7297 44.5726 55.7346C44.6729 55.7395 44.8406 55.5784 44.8768 55.46C45.2582 54.2253 44.8439 53.7025 43.4496 53.8258ZM38.9706 54.4078C39.0167 54.398 39.0644 54.3881 39.1104 54.3766C39.1104 54.7268 39.0857 55.0802 39.1236 55.4255C39.1367 55.5422 39.2962 55.7132 39.408 55.7297C39.5083 55.7445 39.7007 55.6063 39.7402 55.4962C40.1857 54.2648 39.6727 53.6335 38.3228 53.8686C38.3228 54.3585 38.3014 54.8698 38.3376 55.3762C38.3475 55.5077 38.5349 55.6261 38.6418 55.7494C38.7503 55.6261 38.9345 55.5143 38.9542 55.3778C39.0035 55.0622 38.9706 54.7333 38.9706 54.4078ZM29.2581 54.3815C29.3009 54.3947 29.3453 54.4062 29.388 54.4193C29.388 54.7728 29.3716 55.1263 29.3979 55.4765C29.4061 55.5751 29.5574 55.7494 29.6166 55.7395C29.7481 55.7165 29.9652 55.5981 29.9652 55.5176C29.9717 54.9816 30.0441 54.398 29.8501 53.931C29.7678 53.7338 29.0937 53.7814 28.5758 53.6992C28.5758 54.347 28.556 54.8583 28.5889 55.3663C28.5988 55.5028 28.7698 55.6294 28.8668 55.7609C28.9967 55.6244 29.2088 55.5044 29.2384 55.3482C29.2992 55.0359 29.2581 54.7054 29.2581 54.3815ZM44.4147 51.0128C44.4525 50.467 44.4032 49.9688 43.7077 49.9655C42.9958 49.9623 42.9974 50.4867 43.004 51.003C43.0105 51.5093 42.976 52.0486 43.7077 52.0338C44.4032 52.0223 44.4542 51.5323 44.4147 51.0128ZM24.8647 10.0031C25.506 10.2185 26.0765 9.61349 26.2755 8.34263C26.2163 8.28344 26.1555 8.22261 26.0963 8.16342C25.9762 8.43634 25.8546 8.70925 25.7345 8.98217C25.6622 8.93614 25.5915 8.89175 25.5191 8.84571C25.5191 8.21603 25.5191 7.588 25.5191 6.74788C25.062 7.10464 24.8006 7.30851 24.3895 7.6291C24.7611 7.6291 24.9239 7.6291 25.2166 7.6291C25.0949 8.4347 24.9864 9.17781 24.8647 10.0031ZM24.0508 54.8435C24.0623 54.2566 24.041 53.7403 23.3389 53.7288C22.6171 53.719 22.6269 54.2418 22.6335 54.758C22.6401 55.2578 22.5776 55.802 23.3208 55.7987C24.0229 55.7954 24.0706 55.3022 24.0508 54.8435ZM37.1307 51.1213C37.2376 50.5081 37.231 50.0214 36.5306 49.9655C35.8976 49.9146 35.7529 50.3338 35.7742 50.8714C35.794 51.3844 35.6756 52.0025 36.4517 52.0289C37.1291 52.0519 37.2853 51.6359 37.1307 51.1213ZM30.5226 55.9911C31.3891 56.116 31.69 55.5061 31.4762 53.6696C31.2427 53.8587 31.075 53.9952 30.9533 54.0922C30.7758 53.9869 30.562 53.8603 30.2217 53.6565C30.3384 54.5574 30.4288 55.2611 30.5226 55.9911ZM40.2926 51.2709C40.2926 51.1197 40.2926 50.8533 40.2926 50.638C40.5162 50.6824 40.7267 50.7251 40.9355 50.7662C40.9881 50.684 41.0407 50.6002 41.0917 50.518C40.8615 50.3338 40.6478 50.0362 40.3946 49.9984C40.1742 49.9655 39.7434 50.1826 39.6974 50.3618C39.5938 50.7679 39.5511 51.2775 39.7204 51.6326C39.8207 51.8447 40.3666 51.8825 40.7185 51.9072C40.7925 51.9121 40.8961 51.5225 40.9848 51.3137C40.776 51.3005 40.5656 51.289 40.2926 51.2709ZM27.2078 55.7099C27.1321 54.9701 27.0844 54.3601 26.9957 53.7568C26.9726 53.6039 26.8214 53.4707 26.7276 53.3277C26.5978 53.4641 26.3659 53.594 26.3577 53.737C26.3166 54.3832 26.3396 55.0326 26.3396 55.7099C26.7408 55.7099 27.0466 55.7099 27.2078 55.7099ZM24.9963 53.3852C24.9256 53.3277 24.8565 53.2701 24.7858 53.2142C24.6148 53.474 24.3419 53.7173 24.2975 53.9968C24.2317 54.4144 24.3008 54.8616 24.3665 55.2874C24.3928 55.4534 24.5704 55.5948 24.6806 55.7477C24.7858 55.5948 24.9716 55.4452 24.9798 55.2858C25.016 54.6528 24.9963 54.0182 24.9963 53.3852ZM16.1815 15.6702C16.2127 15.8133 16.2456 15.9547 16.2769 16.0977C16.8852 16.0106 17.5002 15.9497 18.097 15.8133C18.2138 15.787 18.2647 15.4697 18.3453 15.2872C18.1562 15.2066 17.9359 15.0192 17.783 15.0636C17.2371 15.2247 16.7126 15.4631 16.1815 15.6702ZM26.5024 49.8801C26.578 50.5393 26.6208 51.0654 26.7112 51.5833C26.7359 51.7296 26.8986 51.8513 26.9989 51.9828C27.1091 51.8924 27.3097 51.8053 27.3146 51.7099C27.3409 51.003 27.3294 50.2944 27.3294 49.4066C26.8641 49.6729 26.5961 49.8258 26.5024 49.8801ZM47.0537 50.8353C47.0537 50.5903 47.0932 50.3355 47.0406 50.1004C46.9962 49.9031 46.8449 49.7304 46.7397 49.548C46.6164 49.7436 46.4273 49.9261 46.3878 50.1382C46.327 50.4538 46.3303 50.7974 46.3845 51.1164C46.4355 51.4173 46.5868 51.7017 46.6936 51.9943C46.8137 51.6902 46.9386 51.3877 47.0488 51.0802C47.0767 51.0062 47.0537 50.9175 47.0537 50.8353ZM34.6611 50.6199C34.717 50.6445 34.7746 50.6676 34.8305 50.6922C34.8305 50.9914 34.8009 51.294 34.8436 51.5866C34.865 51.7313 35.0195 51.8546 35.1149 51.9894C35.2366 51.8497 35.4339 51.7263 35.4651 51.5685C35.5227 51.2808 35.5227 50.9684 35.4766 50.6774C35.4142 50.2944 35.2826 49.9228 35.1823 49.5463C35.008 49.9047 34.8354 50.2615 34.6611 50.6199ZM32.4907 54.7712C32.4907 54.6347 32.5285 54.4835 32.4825 54.3634C32.3986 54.1464 32.2638 53.9475 32.1503 53.7403C32.0221 53.9343 31.8363 54.1152 31.782 54.3273C31.7179 54.5854 31.7212 54.8797 31.7787 55.1411C31.8264 55.3597 31.9941 55.5521 32.1092 55.7543C32.2358 55.562 32.3855 55.3811 32.4808 55.1756C32.5318 55.0638 32.4891 54.9093 32.4907 54.7712ZM56.7909 20.6584C56.4489 20.0254 56.1694 19.4911 55.8685 18.9666C55.7863 18.8236 55.6597 18.6608 55.5183 18.6131C55.4147 18.5803 55.1483 18.7118 55.1401 18.7907C55.1187 18.9798 55.1697 19.2017 55.2618 19.3727C55.3637 19.565 55.6695 19.7229 55.6646 19.8889C55.6383 20.7044 56.1661 20.6173 56.7909 20.6584ZM24.2564 10.3221C24.3336 10.3056 24.4126 10.2908 24.4898 10.2744C24.4093 9.39976 24.3287 8.52347 24.2268 7.41537C23.6743 8.50703 23.7466 9.75982 24.2564 10.3221ZM28.436 54.7432C28.2519 54.3782 28.0924 54.0626 27.9329 53.7453C27.8211 54.0839 27.6221 54.4243 27.6221 54.7629C27.6238 55.0967 27.826 55.4304 27.9411 55.7642C28.0957 55.4452 28.2502 55.1279 28.436 54.7432ZM31.0882 51.0572C31.0898 51.0572 31.0898 51.0572 31.0915 51.0572C31.0915 50.8665 31.1391 50.6577 31.0783 50.4884C31.0109 50.2993 30.8465 50.1464 30.7231 49.9771C30.6196 50.1365 30.4535 50.2845 30.4239 50.4571C30.3746 50.7498 30.368 51.0638 30.4223 51.3531C30.4634 51.5751 30.6294 51.7724 30.7396 51.9812C30.8563 51.7822 30.9862 51.5899 31.0816 51.3811C31.1227 51.2907 31.0882 51.1657 31.0882 51.0572ZM14.1262 18.549C14.0308 18.5523 13.9338 18.5556 13.8385 18.5605C13.6148 18.9699 13.3896 19.3793 13.166 19.7886C13.2104 19.8511 13.2531 19.9152 13.2975 19.9777C13.5951 19.8659 14.0555 19.8281 14.1492 19.6226C14.2824 19.3283 14.1459 18.9124 14.1262 18.549Z" fill="#18222D"/>
</svg>
