<svg width="64" height="64" viewBox="0 0 64 64" fill="none" xmlns="http://www.w3.org/2000/svg">
<path d="M64 34.56C63.8445 35.5904 63.7093 36.6234 63.5296 37.6499C62.581 43.0784 60.3576 47.9245 56.881 52.183C52.1702 57.9533 46.1896 61.6934 38.9444 63.3702C37.8301 63.6275 36.6955 63.7926 35.571 64C33.1908 64 30.8118 64 28.4316 64C26.9884 63.6493 25.5044 63.511 24.0625 63.1347C19.4843 61.9392 15.3294 59.8669 11.724 56.823C5.28701 51.3907 1.37944 44.4902 0.251155 36.0704C0.178486 35.5226 0.0841434 34.9786 0 34.432C0 32.8538 0 31.2742 0 29.696C0.25753 28.1869 0.415618 26.6611 0.752191 25.1635C1.549 21.6179 2.89912 18.3053 4.80637 15.2154C6.78375 12.0128 9.2494 9.2416 12.188 6.9184C16.5928 3.43552 21.57 1.2224 27.1312 0.37632C27.9471 0.25216 28.7618 0.12544 29.5777 0C31.193 0 32.807 0 34.4223 0C36.1192 0.26496 37.8263 0.46848 39.4977 0.88064C44.452 2.10048 48.8759 4.352 52.7554 7.68896C56.1555 10.6125 58.8558 14.0787 60.8319 18.1082C62.5109 21.5296 63.4977 25.152 63.884 28.9446C63.9057 29.1546 63.9605 29.3606 64 29.568C64 31.232 64 32.896 64 34.56ZM63.1127 32.0755C63.3014 14.9824 49.1181 0.91776 32.0994 0.85888C14.9622 0.80128 0.815936 14.9606 0.855458 32.137C0.89498 49.1366 14.8602 63.223 31.9388 63.2589C49.1678 63.2947 63.2835 49.065 63.1127 32.0755Z" fill="#18222D"/>
<path d="M54.4739 32.1664C54.5874 44.4186 44.3474 54.6342 31.9286 54.5997C19.5659 54.5664 9.36414 44.2598 9.50056 31.8144C9.63187 19.7824 19.4218 9.29664 32.4016 9.50784C44.9071 9.7088 54.6397 19.9834 54.4739 32.1664ZM10.0628 31.9501C9.82948 43.9667 19.5366 54.135 32.0752 54.0915C44.3538 54.048 54.0137 44.3686 53.9971 32.009C53.9806 19.648 44.1957 10.0198 31.9694 10.025C19.3453 10.0301 9.91363 20.3469 10.0628 31.9501Z" fill="#18222D"/>
<path d="M58.9055 22.1581C59.1592 22.2336 59.4167 22.2618 59.5073 22.5127C59.673 22.9722 59.8923 22.9018 60.1995 22.6394C60.3818 22.4832 60.6419 22.1632 60.8497 22.6035C61.0257 22.9747 61.1761 23.4663 60.6649 23.6391C60.1753 23.8042 60.0784 24.0141 60.2123 24.4672C60.3028 24.7731 60.2314 25.0906 59.9433 25.2557C59.65 25.4234 59.4945 25.1085 59.3033 24.9677C58.6646 24.4992 58.0666 23.9911 57.7849 23.1872C57.7339 23.2231 57.6842 23.2576 57.6332 23.2935C57.7823 23.5597 57.934 23.8234 58.0794 24.0909C58.1584 24.2381 58.2821 24.3891 58.1814 24.5645C58.0704 24.7565 57.8869 24.6797 57.7237 24.6426C57.512 24.5939 57.2966 24.5914 57.0951 24.6656C56.7497 24.7936 56.1976 24.6259 56.1454 25.1891C56.1109 25.5578 56.9422 26.2912 57.3208 26.3143C57.5452 26.3283 57.7708 26.3168 58.0105 26.3168C57.6344 26.8749 56.8159 27.0963 56.371 26.7213C55.9324 26.3527 55.5704 25.8931 55.3447 25.3543C55.1637 24.9203 55.527 24.3559 56.0714 24.2074C56.2512 24.1587 56.4437 24.1549 56.6617 24.1255C56.5189 23.8208 56.2537 23.7479 56.0038 23.6455C55.7081 23.5251 55.6392 23.2691 55.7654 23.0144C55.9261 22.6906 56.1237 22.9683 56.2894 23.0464C56.612 23.1962 56.9256 23.369 57.266 23.5443C57.0352 22.8839 57.4011 22.0109 58.1584 21.3875C57.9162 21.2275 57.7581 21.4106 57.5924 21.5053C56.8389 21.9341 56.0191 22.1197 55.165 22.2003C54.8806 22.2272 54.6818 22.1338 54.655 21.8611C54.6282 21.5847 54.8972 21.6192 55.0706 21.5872C55.949 21.4247 56.8147 21.2314 57.6077 20.7923C58.1061 20.5159 58.8214 20.7578 59.1809 20.1255C59.2255 20.0461 59.3925 20.0487 59.4665 20.1434C59.7903 20.5645 60.1485 20.9792 60.0032 21.5757C59.9178 21.9264 59.7559 22.1799 59.3326 22.016C59.1796 21.9546 59.0432 21.9315 58.9055 22.1581Z" fill="#18222D"/>
<path d="M40.3098 4.78847C40.7968 4.91263 41.2265 5.01503 41.651 5.13663C41.7849 5.17503 41.9774 5.21343 41.9532 5.40671C41.9264 5.61919 41.7262 5.65119 41.5592 5.64351C41.3718 5.63583 41.1857 5.58207 40.9995 5.54111C40.8351 5.50399 40.6706 5.41695 40.5087 5.42463C40.1504 5.44255 39.7705 5.64991 39.6928 5.93407C39.6061 6.24383 40.0625 6.23103 40.2869 6.35007C40.4169 6.41919 40.691 6.36927 40.6056 6.62143C40.5469 6.79295 40.3238 6.78015 40.153 6.74815C39.7463 6.67263 39.3702 6.44735 38.7557 6.46015C39.2019 6.76863 39.5793 6.71743 39.8891 6.84927C40.1313 6.95167 40.677 6.96191 40.1645 7.44063C40.1364 7.46751 40.0944 7.52127 40.1033 7.53919C40.5202 8.30591 39.8253 8.08191 39.5257 8.15871C39.4646 8.60159 40.3404 8.89471 39.7004 9.32223C39.1331 9.70111 38.9597 9.08671 38.6818 8.73087C38.4332 8.89727 38.4395 9.17375 38.3375 9.38751C38.2827 9.50271 38.2394 9.64863 38.0787 9.61919C37.9028 9.58719 37.8327 9.42847 37.8646 9.27871C37.9296 8.97151 38.0328 8.67327 38.1463 8.28159C37.9895 8.37759 37.913 8.44543 37.8238 8.47487C37.5981 8.54911 37.403 8.88831 37.1519 8.67071C36.939 8.48639 36.9823 8.20095 37.185 7.98335C37.3036 7.85663 37.2309 7.80927 37.1175 7.75807C36.9683 7.69151 36.7465 7.65311 36.814 7.42655C36.8867 7.18335 37.1264 7.16287 37.3406 7.15391C37.5726 7.14367 37.8046 7.15135 38.0379 7.15135C38.0214 7.13087 38.0061 7.08991 37.9831 7.08479C37.6975 7.02847 37.2373 7.02847 37.2819 6.69823C37.3342 6.31167 37.7715 6.58047 38.0379 6.55103C38.1361 6.53951 38.2381 6.56127 38.4536 6.57535C38.1463 6.23359 37.8289 6.34111 37.5611 6.28479C37.4209 6.25535 37.2322 6.25151 37.2449 6.05055C37.2551 5.89439 37.4158 5.89311 37.542 5.87263C37.7128 5.84319 37.9857 5.95839 37.9984 5.67423C38.0124 5.38879 37.7715 5.30943 37.5216 5.26207C37.236 5.20831 36.7363 5.29023 36.7936 4.88191C36.8548 4.44415 37.3227 4.73599 37.6108 4.70655C37.7575 4.69119 37.9181 4.72575 38.052 4.67839C38.2406 4.61183 38.5237 4.77567 38.6129 4.50047C38.6907 4.25983 38.4089 4.21247 38.3006 4.06911C38.0877 3.78879 38.117 3.51871 38.3031 3.24351C38.4714 2.99519 38.6945 2.79167 38.9903 2.94783C39.2746 3.09759 39.4034 3.01823 39.5436 2.77631C39.6226 2.63807 39.7221 2.44223 39.9299 2.52543C40.1007 2.59327 40.1543 2.78271 40.1568 2.95423C40.1683 3.51359 40.3277 3.86047 41.0008 3.80159C41.3081 3.77471 41.5707 4.03583 41.5324 4.39167C41.4929 4.77055 41.1742 4.73727 40.8912 4.73983C40.7203 4.73983 40.5533 4.51071 40.3098 4.78847Z" fill="#18222D"/>
<path d="M14.2419 14.1171C14.4166 14.592 14.5071 14.9747 13.8454 15.0041C13.825 15.0054 13.7906 15.0067 13.7855 15.0182C13.31 16.1126 12.9721 15.255 12.6126 14.9069C12.4927 15.0643 12.6317 15.1654 12.6406 15.2819C12.6572 15.4982 12.8472 15.7862 12.5106 15.8771C12.1676 15.9693 12.0236 15.7056 11.9573 15.4086C11.9025 15.1654 11.854 14.9209 11.7967 14.6521C11.4665 14.8544 11.5506 15.2589 11.3096 15.4713C11.2013 15.5661 11.1057 15.7376 10.9437 15.6288C10.8175 15.543 10.9093 15.3945 10.9527 15.2781C11.1108 14.8608 11.2612 14.4384 11.4359 14.0275C11.5914 13.6601 11.6335 13.2941 11.5276 12.896C11.3058 13.4118 11.0215 13.8713 10.6123 14.2413C10.5192 14.3245 10.4096 14.4243 10.2808 14.3129C10.1865 14.2323 10.2005 14.0915 10.2604 14.0185C10.9552 13.1673 10.4159 12.7219 9.72494 12.3072C9.59108 12.2265 9.41387 12.0717 9.56558 11.895C9.68797 11.7529 9.84606 11.9027 9.9557 11.9846C10.2183 12.1779 10.4555 12.2086 10.7716 12.0601C11.0445 11.9334 11.3517 12.0934 11.636 12.1766C11.7699 12.215 11.8999 12.2125 11.9254 12.0358C11.9458 11.895 11.9012 11.7593 11.7342 11.7773C11.5136 11.8016 11.3823 11.7337 11.4333 11.5085C11.4881 11.2691 11.7125 11.2153 11.8884 11.3113C12.2556 11.5136 12.3665 11.3062 12.494 11.0233C12.6024 10.7853 12.6534 10.4345 13.0193 10.4768C13.3495 10.5139 13.3571 10.8045 13.3648 11.0694C13.3724 11.3497 13.5573 11.3485 13.7676 11.3254C13.9551 11.3049 14.1514 11.2742 14.3324 11.3075C15.003 11.4329 15.1586 11.7837 14.8819 12.4109C14.748 12.7155 14.3503 12.9651 14.4637 13.2953C14.6078 13.7152 15.0005 13.9955 15.3766 14.2464C15.5882 14.3885 15.8011 14.5293 16.0076 14.679C16.181 14.8057 16.524 14.8979 16.3034 15.1872C16.0969 15.4585 15.7731 15.3625 15.5844 15.1334C15.2236 14.6944 14.6996 14.4857 14.2419 14.1171Z" fill="#18222D"/>
<path d="M48.5966 13.015C48.7866 13.3082 48.6489 13.6064 48.7547 13.8522C48.8198 14.0032 48.8006 14.2208 48.9868 14.2797C49.1232 14.3232 49.1946 14.1619 49.2762 14.071C49.4355 13.8931 49.3909 13.7306 49.2443 13.5629C49.0008 13.2864 48.8147 12.9907 49.0008 12.5837C49.076 12.6131 49.1359 12.6298 49.1869 12.6579C49.3654 12.7578 49.4075 13.1584 49.7084 12.9626C49.9417 12.8115 49.8945 12.5619 49.7364 12.3418C49.6841 12.2688 49.6739 12.16 49.767 12.1203C49.8307 12.0947 49.9366 12.1139 49.999 12.1536C50.3407 12.3674 50.6798 12.5888 51.0113 12.8192C51.2 12.9498 51.3632 13.1366 51.7724 12.9728C51.047 12.5197 50.481 12 49.8792 11.5226C49.7096 11.3882 49.5643 11.5187 49.4304 11.6339C49.2545 11.7862 49.0747 11.9373 48.8912 12.0806C48.7394 12.1997 48.5775 12.2355 48.4551 12.0435C48.357 11.8886 48.1912 11.7325 48.3735 11.5328C48.6935 11.1834 49.0543 10.8838 49.521 10.761C49.7364 10.7034 49.9442 10.7341 50.0411 10.9952C50.2171 11.4675 50.5409 11.3626 50.8685 11.191C51.4588 10.8826 51.9407 10.4282 52.4443 10.0019C52.5501 9.91233 52.6636 9.73441 52.8166 9.86369C52.981 10.0019 52.8676 10.1798 52.7834 10.327C52.7311 10.4179 52.6508 10.4922 52.582 10.5728C52.3512 10.8454 52.2964 11.0643 52.7515 11.1258C52.7719 11.1283 52.7936 11.1322 52.814 11.1398C53.2628 11.3152 53.8773 11.4214 53.9563 11.9206C54.0341 12.4122 53.4068 12.5773 53.0512 12.7923C52.6508 13.0342 52.5973 13.2058 52.8892 13.5526C53.0588 13.7536 53.1608 14.0326 52.9734 14.2592C52.7873 14.4832 52.5399 14.3053 52.327 14.2362C52.2276 14.2042 52.1128 14.1645 52.0453 14.0915C51.5442 13.5462 50.9297 13.5565 50.2897 13.7203C50.5013 13.9891 50.7296 14.2669 50.9437 14.5549C51.0445 14.6906 51.1554 14.8595 50.9437 14.9914C50.7678 15.1014 50.6199 15.0157 50.5039 14.8659C50.4516 14.7981 50.3981 14.7315 50.3522 14.6598C50.0921 14.2477 49.8562 14.3078 49.5962 14.6726C49.4406 14.8915 49.2864 15.2038 48.9715 15.1462C48.6056 15.0784 48.5661 14.6931 48.4551 14.4013C48.2792 13.9418 48.204 13.4835 48.5966 13.015Z" fill="#18222D"/>
<path d="M7.14072 22.5523C7.15347 22.2413 6.89849 22.112 6.75697 21.9162C6.6843 21.815 6.54407 21.719 6.63713 21.591C6.7557 21.4285 6.91251 21.5386 7.0298 21.6179C7.27586 21.7843 7.54869 21.9341 7.73737 22.1555C8.06502 22.5408 8.42072 22.583 8.87076 22.4358C9.25196 22.3104 9.651 22.2323 10.0462 22.1555C10.2948 22.1082 10.5524 22.1786 10.6072 22.4448C10.6582 22.697 10.3764 22.7162 10.212 22.7686C9.9506 22.8506 9.66375 22.857 9.40877 22.9504C9.14486 23.0477 8.62215 22.999 8.9549 23.5661C9.01482 23.6685 8.94088 23.7683 8.84271 23.831C8.65275 23.9539 8.48956 23.8733 8.30725 23.7875C8.12367 23.7018 7.89419 23.3498 7.74247 23.6339C7.58183 23.9347 7.9847 24.0038 8.19379 24.1178C8.30343 24.1779 8.43347 24.1997 8.55458 24.2394C8.71395 24.2918 8.82741 24.3725 8.73689 24.5645C8.66295 24.7206 8.54056 24.7885 8.37355 24.7347C8.25243 24.6963 8.14024 24.6323 8.0204 24.5901C7.86486 24.5338 7.69275 24.4314 7.57419 24.6438C7.46964 24.8307 7.48239 25.0074 7.6545 25.161C7.81259 25.3018 7.97578 25.4426 8.11474 25.6026C8.26008 25.7702 8.50486 25.9494 8.2945 26.2003C8.09435 26.4397 7.81514 26.5856 7.50534 26.3872C7.07825 26.112 6.65116 25.8291 6.25339 25.5142C5.94104 25.2672 5.68861 24.9574 5.32909 24.7475C4.93642 24.5197 4.91984 24.0768 4.96191 23.6608C4.98869 23.3958 5.01674 23.1654 4.62279 23.3024C4.42391 23.3715 4.18168 23.4624 4.10901 23.1501C4.05036 22.8966 4.2416 22.7149 4.44686 22.6803C5.27427 22.5421 6.09275 22.0582 6.95203 22.569C6.99411 22.5946 7.06932 22.5613 7.14072 22.5523Z" fill="#18222D"/>
<path d="M22.9941 8.97153C22.7379 8.92929 22.3987 9.00353 22.3414 8.62209C22.2929 8.30337 22.5543 8.19329 22.7952 8.09217C23.0489 7.98465 23.2937 7.84641 23.5576 7.77473C24.051 7.64161 24.0816 7.37025 23.8674 6.96961C23.4454 6.18369 23.4493 6.17985 22.6053 6.56769C22.4918 6.62017 22.3796 6.72641 22.261 6.62017C22.145 6.51649 22.21 6.37697 22.261 6.26561C22.4217 5.91745 22.5759 5.54753 22.9457 5.37601C23.5997 5.07521 24.2601 4.78849 24.9307 4.52609C25.2112 4.41601 25.5732 4.36097 25.6191 4.79745C25.6548 5.13793 25.5732 5.50401 25.113 5.53729C24.9422 5.55009 24.7764 5.55649 24.6222 5.63841C24.4399 5.73441 24.1925 5.77409 24.1823 6.04033C24.1734 6.25793 24.3391 6.37569 24.5074 6.47553C24.5444 6.49729 24.6005 6.50881 24.6145 6.53953C25.0531 7.47649 25.6689 6.98497 26.2579 6.75329C26.4147 6.69185 26.583 6.65857 26.7474 6.61889C26.9514 6.57025 27.1809 6.47297 27.2663 6.78017C27.3351 7.02721 27.2956 7.29089 27.0419 7.38049C25.753 7.83745 24.6056 8.64769 23.2516 8.94721C23.17 8.96641 23.0834 8.96385 22.9941 8.97153Z" fill="#18222D"/>
<path d="M38.9265 60.855C38.8641 60.8627 38.8016 60.8576 38.7493 60.8794C37.9589 61.2045 37.4948 61.1456 37.0715 60.6643C36.6266 60.1574 36.4915 59.1834 36.7809 58.6253C37.004 58.1939 37.3941 58.0429 37.8314 58.0224C38.0966 58.0096 38.3528 58.112 38.6206 57.9443C38.8016 57.8317 38.9495 57.993 38.9903 58.1747C39.1841 59.0451 39.439 59.9104 39.5308 60.7936C39.6265 61.7088 38.5555 62.3859 37.7115 62.0122C37.4821 61.911 37.199 61.7498 37.3329 61.4528C37.4425 61.2109 37.6861 61.353 37.8888 61.4362C38.5237 61.696 38.8551 61.5078 38.9265 60.855ZM37.7715 58.5203C37.3801 58.5638 37.1812 58.8198 37.2041 59.2845C37.2449 60.0806 37.6096 60.6579 38.0991 60.6195C38.6053 60.5798 38.7544 60.2227 38.7429 59.7696C38.7225 59.0323 38.3375 58.5024 37.7715 58.5203Z" fill="#18222D"/>
<path d="M5.6733 40.1702C6.42039 40.1753 6.94438 40.6054 7.06677 41.3145C7.16366 41.8765 6.73147 42.5049 6.10804 42.7392C5.80589 42.8531 5.6223 42.7853 5.52669 42.4678C5.42214 42.1209 5.30995 41.7753 5.18501 41.4361C5.11617 41.2505 5.09195 40.9638 4.78597 41.0573C4.54756 41.1289 4.39712 41.3286 4.3882 41.5859C4.37418 41.9712 4.58836 42.2208 4.91601 42.3897C5.11489 42.4921 5.43872 42.5638 5.26916 42.8672C5.12254 43.1296 4.83569 42.967 4.63936 42.8698C4.12812 42.6189 3.91904 42.1401 3.90246 41.6115C3.88334 40.9894 4.25816 40.5888 4.80382 40.3379C5.08175 40.2099 5.37115 40.1638 5.6733 40.1702Z" fill="#18222D"/>
<path d="M44.8701 58.6176C44.4864 58.6086 44.2225 58.464 44.0644 58.1478C43.9089 57.8355 43.9114 57.5168 44.1409 57.2531C44.3334 57.0317 44.5795 56.8576 44.7987 56.6605C44.9352 56.5376 45.1583 56.4198 44.9772 56.2035C44.8242 56.0205 44.6266 56.1395 44.4583 56.2317C44.2607 56.3418 44.1791 56.5363 44.0899 56.7322C44.0172 56.8922 43.8732 57.0266 43.687 56.9523C43.4881 56.873 43.5187 56.6707 43.5659 56.5082C43.738 55.9258 44.2059 55.6838 44.7375 55.5597C45.2475 55.4394 45.5535 55.7069 45.8059 56.1459C46.0507 56.5709 46.1438 57.1072 46.6665 57.3606C46.8641 57.4566 46.7442 57.7485 46.5823 57.7434C45.9487 57.7242 45.6644 58.2758 45.1965 58.5178C45.0881 58.5754 44.9568 58.592 44.8701 58.6176Z" fill="#18222D"/>
<path d="M56.9052 43.287C57.679 43.3024 57.8563 43.5827 57.521 44.2624C57.3794 44.5491 57.2354 44.8346 57.0977 45.1226C57.0441 45.2339 56.9422 45.3594 57.0531 45.472C57.1742 45.5936 57.345 45.5526 57.4687 45.4733C57.8346 45.2339 58.0666 44.9229 57.8932 44.4531C57.8065 44.2189 57.7326 43.9386 58.0258 43.8605C58.3216 43.7824 58.3802 44.1075 58.4516 44.3162C58.6199 44.8102 58.3254 45.5552 57.8524 45.8944C57.3437 46.2566 56.7343 46.2106 56.1402 45.7651C55.643 45.3914 55.4658 44.8038 55.6762 44.2304C55.8929 43.6339 56.3595 43.2755 56.9052 43.287Z" fill="#18222D"/>
<path d="M4.56287 33.0023C5.99331 33.0023 6.77482 33.8202 6.64223 35.1091C6.60654 35.4599 6.48415 35.7799 6.23299 36.0218C6.02773 36.2189 5.74598 36.5299 5.48207 36.2599C5.18502 35.9578 5.60447 35.8055 5.7804 35.6301C6.34263 35.0682 6.14885 34.0813 5.37371 33.7216C4.75538 33.4349 4.12813 33.5002 3.5455 33.8381C3.16431 34.0595 2.99602 34.4435 3.02024 34.8659C3.04574 35.3114 3.24972 35.6775 3.70104 35.8579C3.9216 35.9463 4.28877 35.9911 4.11156 36.3456C3.95474 36.6592 3.65387 36.4519 3.43841 36.361C2.2757 35.872 2.07809 34.2477 3.08016 33.4695C3.53403 33.1149 4.05546 32.9754 4.56287 33.0023Z" fill="#18222D"/>
<path d="M19.9139 56.6745C19.8808 57.5283 19.5888 57.7037 18.8787 57.2953C18.6033 57.1366 18.3292 56.9741 18.0526 56.8179C17.9455 56.7578 17.8269 56.6566 17.7084 56.7654C17.5809 56.8819 17.6089 57.0483 17.6727 57.1827C17.9034 57.6614 18.291 57.8598 18.8137 57.7766C18.9947 57.7485 19.2357 57.6217 19.2854 57.8944C19.3237 58.1107 19.0763 58.1862 18.9017 58.2528C18.4032 58.441 17.6956 58.1696 17.3412 57.6627C16.9906 57.1609 17.0531 56.576 17.5235 55.9578C17.9506 55.3971 18.4733 55.2013 19.0139 55.4253C19.5621 55.6544 19.9407 56.0217 19.9139 56.6745Z" fill="#18222D"/>
<path d="M7.51427 48.5056C7.04128 48.073 6.67539 47.6506 6.84622 47.0259C7.01833 46.3949 7.46965 46.0288 8.08542 45.8662C8.64893 45.7178 9.07347 45.9379 9.40112 46.3987C9.62041 46.7059 9.50056 47.1898 9.96208 47.3907C10.0947 47.4483 9.92001 47.6557 9.79762 47.7338C9.08112 48.1856 8.38885 48.6912 7.63156 49.0598C6.76463 49.4822 5.78678 48.7603 5.85052 47.8131C5.86582 47.5776 5.91045 47.2806 6.19347 47.287C6.49945 47.2934 6.39108 47.5942 6.40001 47.7926C6.42933 48.4557 6.76335 48.6886 7.51427 48.5056ZM7.91459 48.0986C8.56351 48.0947 9.28383 47.4944 9.23793 47.0246C9.19586 46.601 8.94853 46.3053 8.50104 46.2861C7.94901 46.263 7.26311 46.8902 7.27714 47.3818C7.28989 47.8374 7.52957 48.0845 7.91459 48.0986Z" fill="#18222D"/>
<path d="M51.7916 53.3594C51.7724 54.144 51.2752 54.5843 50.6454 54.9056C50.0424 55.2141 49.5184 54.9914 49.0939 54.5472C48.5954 54.0262 48.1402 53.4656 47.666 52.9203C47.5359 52.7706 47.397 52.6054 47.6099 52.4326C47.8126 52.2688 47.9707 52.4237 48.0994 52.567C48.4959 53.0086 48.8848 53.4592 49.2749 53.9072C49.7504 54.4538 50.2936 54.5498 50.7665 54.1696C51.3326 53.7139 51.3696 53.1904 50.8583 52.5696C50.4937 52.128 50.1036 51.7082 49.73 51.2742C49.5822 51.1014 49.3552 50.9094 49.614 50.6816C49.8486 50.4742 49.994 50.7149 50.1291 50.8672C50.5511 51.3434 50.9743 51.8195 51.381 52.3085C51.6284 52.608 51.8043 52.9472 51.7916 53.3594Z" fill="#18222D"/>
<path d="M11.5557 49.5501C11.8566 49.3286 12.0758 49.1622 12.3015 49.0035C12.4558 48.896 12.6253 48.8601 12.749 49.0381C12.8612 49.1994 12.7477 49.3158 12.6241 49.4131C11.7915 50.071 10.959 50.7315 10.1214 51.3843C9.99138 51.4867 9.7415 51.6378 9.68668 51.456C9.55027 51.0042 9.09641 50.8736 8.88477 50.5101C8.4666 49.792 8.78915 48.905 9.65736 48.4506C10.3866 48.0678 11.1222 48.3686 11.446 49.1866C11.4856 49.2838 11.5072 49.385 11.5557 49.5501ZM9.81417 50.6368C10.37 50.6547 11.0534 50.0403 11.0585 49.5283C11.0636 49.0739 10.8137 48.8166 10.3637 48.8C9.89959 48.7821 9.1117 49.4822 9.13083 49.9085C9.14995 50.3475 9.41258 50.5946 9.81417 50.6368Z" fill="#18222D"/>
<path d="M4.72094 37.6909C4.2658 37.7856 3.83106 37.8765 3.39505 37.9687C3.22166 38.0045 3.03935 38.0327 2.9705 37.8176C2.88764 37.5603 3.08907 37.4669 3.27266 37.4234C4.30278 37.175 5.33545 36.9395 6.36811 36.704C6.516 36.6707 6.68047 36.6643 6.73401 36.8551C6.78883 37.0535 6.68684 37.1827 6.50198 37.2455C6.36174 37.2928 6.21895 37.335 6.07361 37.3671C5.81991 37.4221 5.71919 37.4848 5.86963 37.7907C6.33752 38.7507 6.11441 39.1821 5.07537 39.4445C4.64445 39.5533 4.21098 39.6557 3.77752 39.7581C3.60668 39.799 3.42437 39.8272 3.3619 39.6019C3.2956 39.3613 3.44859 39.2423 3.6513 39.1898C4.06182 39.0823 4.47489 38.9901 4.88668 38.8903C5.2207 38.8083 5.51011 38.665 5.44254 38.2515C5.37752 37.8471 5.07537 37.7127 4.72094 37.6909Z" fill="#18222D"/>
<path d="M24.0191 57.0125C24.0089 57.0496 23.9796 57.1738 23.9375 57.2941C23.8304 57.5949 23.9082 57.696 24.2486 57.7088C25.2991 57.7472 25.5873 58.1606 25.3234 59.1923C25.2175 59.6032 25.0939 60.0102 24.9702 60.4173C24.9179 60.5888 24.8261 60.7411 24.6081 60.6861C24.3532 60.6221 24.3646 60.4352 24.4194 60.2317C24.5367 59.8016 24.6515 59.3702 24.7662 58.9402C24.8491 58.6304 24.8631 58.3321 24.5074 58.1862C24.1887 58.0569 23.9235 58.1824 23.7259 58.4422C23.4314 58.8262 23.4161 59.3178 23.2504 59.7504C23.1713 59.9565 23.1828 60.2714 22.8398 60.1933C22.4956 60.1139 22.6116 59.8426 22.6741 59.6237C22.9406 58.6829 23.2083 57.7434 23.4862 56.8064C23.5398 56.6272 23.615 56.4147 23.8776 56.5043C24.0816 56.5734 24.0854 56.7462 24.0191 57.0125Z" fill="#18222D"/>
<path d="M60.4532 40.1049C60.4481 40.8038 60.1052 41.3657 59.6105 41.463C59.4295 41.4989 59.1987 41.5629 59.1311 41.3056C59.0802 41.1123 59.2191 40.9869 59.4052 40.9408C59.6513 40.8793 59.8209 40.736 59.9088 40.4979C60.0172 40.201 60.0873 39.8784 59.7418 39.7158C59.4231 39.5661 59.3084 39.8861 59.1732 40.0896C59.033 40.3021 58.9361 40.5465 58.7818 40.7475C58.4376 41.1955 57.8958 41.2019 57.5222 40.7833C57.0505 40.2547 57.3998 39.0848 58.0806 38.9325C58.2655 38.8915 58.4937 38.8518 58.5715 39.0886C58.6378 39.2909 58.4669 39.3792 58.3012 39.4547C58.1686 39.5149 58.0207 39.5814 57.9315 39.6877C57.7708 39.8784 57.6969 40.1306 57.9123 40.3174C58.1571 40.5299 58.3394 40.3584 58.4758 40.1369C58.588 39.9552 58.6951 39.7721 58.8009 39.5865C59.0202 39.2038 59.316 38.9555 59.7877 39.0681C60.2288 39.1744 60.457 39.5417 60.4532 40.1049Z" fill="#18222D"/>
<path d="M60.5042 34.1069C59.9802 33.8842 59.455 33.6627 58.9323 33.4362C58.7308 33.3491 58.5141 33.2391 58.6161 32.9703C58.7385 32.6477 58.9845 32.841 59.1515 32.9139C60.0669 33.3107 60.9772 33.7203 61.8811 34.1427C62.2139 34.2976 62.5045 34.5229 62.5823 34.9171C62.6167 35.0912 62.5976 35.2755 62.4102 35.3536C62.1871 35.4471 62.108 35.2883 62.0672 35.104C61.9602 34.6279 61.6312 34.5792 61.2347 34.6765C60.5552 34.8442 59.8795 35.0298 59.1962 35.1795C58.959 35.232 58.6059 35.5226 58.4822 35.136C58.3305 34.665 58.8111 34.6867 59.0891 34.6048C59.5531 34.4679 60.0261 34.3642 60.4953 34.2451C60.4966 34.1991 60.5004 34.153 60.5042 34.1069Z" fill="#18222D"/>
<path d="M29.0371 60.3059C29.0346 59.3561 29.5777 58.6509 30.3273 58.6278C31.1267 58.6035 31.7374 59.287 31.7259 60.1894C31.7131 61.1123 31.0833 61.8329 30.2954 61.8278C29.5267 61.824 29.0397 61.2352 29.0371 60.3059ZM31.0999 60.1702C31.1139 59.6557 31.003 59.2141 30.3936 59.1539C29.913 59.1065 29.5904 59.5968 29.5968 60.3161C29.6019 60.9433 29.8824 61.3094 30.3464 61.3017C30.8309 61.2928 31.0974 60.8921 31.0999 60.1702Z" fill="#18222D"/>
<path d="M33.5107 59.8656C33.5107 59.0553 34.0717 58.4115 34.792 58.3961C35.6003 58.3795 36.2225 59.127 36.2186 60.1075C36.2148 61.0137 35.7036 61.591 34.9093 61.5846C34.0742 61.5782 33.512 60.887 33.5107 59.8656ZM34.0691 59.8669C34.1163 60.3251 34.2056 60.8064 34.6926 61.0752C34.9246 61.2032 35.1515 61.1392 35.33 60.9561C35.7201 60.5555 35.6972 60.0793 35.548 59.5891C35.4193 59.168 35.2051 58.8326 34.6977 58.9273C34.217 59.0169 34.073 59.3805 34.0691 59.8669Z" fill="#18222D"/>
<path d="M8.14278 44.3827C8.1262 44.7782 7.93752 45.0266 7.64557 45.193C7.2019 45.4438 6.74931 45.6806 6.29927 45.92C6.09911 46.0262 5.8913 46.0992 5.75744 45.8304C5.61975 45.5526 5.83648 45.4477 6.02517 45.3478C6.36302 45.1686 6.71106 45.0074 7.04636 44.8243C7.29497 44.6886 7.54867 44.5312 7.38166 44.1792C7.23377 43.8656 6.97114 43.7325 6.64604 43.8515C6.26867 43.9897 5.9066 44.1728 5.54198 44.3443C5.32015 44.4493 5.08429 44.5683 4.9517 44.2585C4.83059 43.9769 5.09321 43.8963 5.27298 43.8003C5.79696 43.5187 6.32222 43.2409 6.85258 42.9721C7.2019 42.7955 7.51553 42.7059 7.527 43.2909C7.53465 43.6467 7.98341 43.7222 8.04971 44.055C8.07393 44.1779 8.11728 44.2982 8.14278 44.3827Z" fill="#18222D"/>
<path d="M10.6862 52.2573C10.6824 52.0576 10.7461 51.8758 10.8762 51.7299C11.2153 51.351 11.5544 50.9709 11.9101 50.6086C12.0657 50.4499 12.2556 50.2233 12.4966 50.4768C12.7146 50.7059 12.4838 50.8633 12.3512 51.0118C12.1115 51.2806 11.8515 51.5328 11.6054 51.7952C11.3632 52.0525 11.2382 52.3417 11.5238 52.6349C11.7954 52.9126 12.1141 52.8563 12.3806 52.6259C12.7006 52.3494 12.9887 52.0358 13.2921 51.7401C13.4158 51.6198 13.5484 51.4905 13.7281 51.6429C13.9066 51.7939 13.9168 51.9782 13.7587 52.1433C13.2449 52.6797 12.7235 53.207 12.2021 53.7357C12.1052 53.8329 11.8999 53.8931 11.8719 53.7869C11.7227 53.2134 11.0674 53.1865 10.8073 52.7462C10.7194 52.5913 10.6786 52.4313 10.6862 52.2573Z" fill="#18222D"/>
<path d="M28.4634 59.4445C28.3461 59.9834 28.2365 60.5235 28.109 61.0598C28.0656 61.2454 27.9892 61.463 27.7354 61.3862C27.4919 61.3133 27.5391 61.0944 27.5723 60.9037C27.6398 60.5056 27.7201 60.1101 27.7724 59.7107C27.8158 59.3766 27.7826 59.04 27.3848 58.9478C26.9743 58.8531 26.741 59.1194 26.6352 59.4701C26.5192 59.8541 26.4644 60.2573 26.3675 60.6477C26.3165 60.8512 26.2515 61.1021 25.9646 61.0266C25.7122 60.96 25.7772 60.7309 25.8116 60.5453C25.9251 59.9194 26.0411 59.2934 26.1648 58.6688C26.1852 58.5677 26.2451 58.391 26.2872 58.391C26.8188 58.391 27.3683 58.2797 27.877 58.4627C28.2913 58.6112 28.466 58.985 28.4634 59.4445Z" fill="#18222D"/>
<path d="M52.5348 49.6576C52.7834 49.6602 52.9887 49.7728 53.1697 49.9238C53.5458 50.2362 53.9143 50.5587 54.284 50.8774C54.4204 50.9952 54.539 51.1283 54.3834 51.3088C54.2368 51.4778 54.08 51.4138 53.9359 51.296C53.6236 51.04 53.3163 50.7763 53.0014 50.5229C52.7108 50.2899 52.4201 50.1606 52.1192 50.5242C51.8311 50.8723 51.8885 51.1974 52.183 51.488C52.4698 51.7722 52.7847 52.0269 53.0856 52.297C53.2194 52.4173 53.3316 52.553 53.1812 52.7322C53.0359 52.905 52.8676 52.841 52.7312 52.727C52.1753 52.265 51.6258 51.7965 51.0776 51.3242C50.9565 51.2205 50.8647 50.9888 51.0126 50.953C51.5034 50.8352 51.4894 50.368 51.7151 50.071C51.9165 49.8035 52.1906 49.6538 52.5348 49.6576Z" fill="#18222D"/>
<path d="M42.2017 56.6067C42.3968 56.6144 42.5829 56.6579 42.7398 56.7757C42.908 56.8998 43.1375 57.0355 43.0037 57.2813C42.866 57.5334 42.6518 57.4387 42.4656 57.2941C42.2221 57.1059 41.9659 57.0611 41.7071 57.2595C41.4534 57.4541 41.4304 57.7331 41.4916 58.0134C41.577 58.4115 41.7122 58.7955 41.999 59.0989C42.379 59.5008 42.7895 59.401 42.9476 58.8736C42.9718 58.793 42.9743 58.7059 42.9896 58.6214C43.0304 58.409 43.1439 58.2464 43.3721 58.2835C43.6245 58.3245 43.6003 58.5574 43.6003 58.7443C43.5965 59.5712 42.6199 60.119 41.8766 59.7171C41.2162 59.36 40.7407 58.2298 40.9447 57.5014C41.0939 56.9715 41.6191 56.5978 42.2017 56.6067Z" fill="#18222D"/>
<path d="M19.8706 58.1862C19.914 57.6038 20.1498 56.9997 20.721 56.5811C21.4005 56.0832 22.5351 56.5478 22.6167 57.3427C22.6346 57.5142 22.6537 57.7178 22.4561 57.7818C22.2304 57.8547 22.094 57.7062 22.0507 57.4912C21.9857 57.1712 21.8454 56.9152 21.4936 56.8858C21.0907 56.8525 20.8803 57.152 20.7197 57.4528C20.5922 57.6934 20.5183 57.9686 20.452 58.2349C20.3869 58.4986 20.443 58.743 20.6789 58.9184C20.93 59.1053 21.1583 59.0349 21.3724 58.8544C21.5802 58.679 21.848 58.4998 22.0265 58.7827C22.2381 59.1181 21.8696 59.2691 21.6516 59.3946C20.8446 59.8643 19.8872 59.2614 19.8706 58.1862Z" fill="#18222D"/>
<path d="M18.3802 53.8611C18.2974 54.1658 18.1214 54.1402 17.8894 54.0467C17.5949 53.929 17.3986 53.44 17.025 53.6934C16.7598 53.8739 16.5992 54.2118 16.4016 54.4858C16.0421 54.985 15.6889 55.488 15.3332 55.991C15.2198 56.1523 15.1025 56.3341 14.8781 56.1754C14.6333 56.0013 14.757 55.8157 14.8921 55.6314C15.3702 54.9824 15.8279 54.3181 16.3213 53.6806C16.6171 53.2992 16.6515 53.015 16.1645 52.7898C16.0523 52.7373 15.9541 52.649 15.8585 52.5658C15.7514 52.4723 15.7157 52.3494 15.7973 52.2253C15.8776 52.1024 16.0089 52.064 16.1288 52.1485C16.8555 52.6605 17.5783 53.1789 18.2986 53.7011C18.342 53.7344 18.3547 53.8086 18.3802 53.8611Z" fill="#18222D"/>
<path d="M55.9516 47.8426C55.5155 47.2807 55.2045 46.8787 54.8934 46.4781C54.7315 46.2695 54.5492 46.0224 54.836 45.8202C55.091 45.641 55.1968 45.9469 55.3141 46.0979C55.7195 46.6176 56.1096 47.1488 56.5049 47.6762C56.6336 47.849 56.7726 48.0205 56.6298 48.2522C56.4768 48.4992 56.2486 48.4787 56.0089 48.4314C55.3434 48.2983 54.6767 48.169 54.0124 48.0333C53.834 47.9962 53.5751 48 53.6185 47.7274C53.6657 47.4304 53.913 47.3971 54.1654 47.4509C54.7009 47.5635 55.2351 47.6839 55.9516 47.8426Z" fill="#18222D"/>
<path d="M60.4201 36.8909C59.905 36.8051 59.3428 36.5389 58.9221 36.6848C58.3458 36.8845 58.0615 36.521 57.6561 36.3763C57.5019 36.3213 57.3846 36.2407 57.4152 36.0589C57.4394 35.9117 57.5579 35.849 57.6918 35.8451C57.9532 35.8362 58.1814 35.7799 58.3764 35.5789C58.4976 35.4535 58.6952 35.4803 58.7219 35.6647C58.7615 35.9501 58.8915 36.073 59.1656 36.0922C59.6373 36.1255 60.1001 36.416 60.5782 36.1843C60.7771 36.0883 60.9836 35.8029 61.1366 36.1357C61.273 36.4314 61.0983 36.7155 60.7809 36.8448C60.6674 36.8909 60.531 36.8781 60.4201 36.8909Z" fill="#18222D"/>
<path d="M59.3339 43.1309C59.2829 43.4342 59.1133 43.4854 58.8672 43.3881C58.1788 43.1129 57.4903 42.8352 56.8019 42.5613C56.5954 42.4794 56.45 42.3373 56.6005 42.1286C56.7662 41.8982 56.7624 41.6653 56.7547 41.4093C56.7496 41.257 56.8261 41.1072 57.0161 41.1123C57.1474 41.1161 57.3004 41.1814 57.2978 41.3209C57.2762 42.3923 58.1954 42.4102 58.843 42.7328C59.0381 42.8301 59.3224 42.8275 59.3339 43.1309Z" fill="#18222D"/>
<path d="M32.2269 59.6467C32.2269 59.1386 32.2231 58.6291 32.2295 58.121C32.232 57.9482 32.2626 57.7626 32.4921 57.76C32.7216 57.7574 32.7547 57.9469 32.7637 58.1171C32.8096 59.1322 32.8529 60.1485 32.8861 61.1635C32.8937 61.3786 32.8669 61.6256 32.5814 61.6333C32.2869 61.641 32.2741 61.3798 32.2677 61.1725C32.2537 60.6643 32.2626 60.1549 32.2626 59.6467C32.2512 59.6467 32.2384 59.6467 32.2269 59.6467Z" fill="#18222D"/>
<path d="M47.9528 56.7219C47.9528 56.8563 47.9006 56.9447 47.7909 56.9869C47.652 57.0394 47.5385 56.9831 47.4633 56.8666C46.8551 55.9181 46.2483 54.9696 45.6453 54.0173C45.5637 53.888 45.5088 53.7306 45.6669 53.6192C45.8212 53.5104 45.9589 53.5936 46.0469 53.7267C46.6639 54.6701 47.2746 55.616 47.8853 56.5632C47.9197 56.6144 47.935 56.6784 47.9528 56.7219Z" fill="#18222D"/>
<path d="M40.872 59.7875C40.9345 60.1306 40.8695 60.2765 40.668 60.3226C40.4411 60.375 40.3684 60.1997 40.3213 60.0346C40.1339 59.3792 39.9566 58.7213 39.7756 58.0646C39.7246 57.8765 39.7539 57.7267 39.9656 57.6627C40.1836 57.5962 40.2932 57.7254 40.3442 57.9008C40.5406 58.5754 40.7229 59.2538 40.872 59.7875Z" fill="#18222D"/>
<path d="M58.5575 37.3965C59.2357 37.5693 59.9165 37.7383 60.5935 37.9187C60.772 37.9661 60.9071 38.0749 60.8434 38.2912C60.7783 38.5126 60.6011 38.5011 60.4277 38.4602C59.7661 38.304 59.1057 38.1453 58.4465 37.9802C58.2591 37.9328 58.0526 37.8675 58.1342 37.6C58.1992 37.3888 58.3739 37.385 58.5575 37.3965Z" fill="#18222D"/>
<path d="M53.2322 48.2368C53.2755 48.2547 53.3418 48.2675 53.389 48.3047C54.0061 48.7859 54.6218 49.2672 55.2325 49.7549C55.36 49.856 55.4123 49.9955 55.2835 50.1402C55.1624 50.2771 55.0209 50.2669 54.8883 50.1645C54.2891 49.6973 53.6912 49.2263 53.0958 48.7527C52.9925 48.6707 52.9211 48.5619 52.981 48.4211C53.0231 48.32 53.0945 48.2458 53.2322 48.2368Z" fill="#18222D"/>
<path d="M30.1743 28.3699C29.3661 27.3331 29.1978 26.1696 29.2258 24.9242C29.2475 23.9424 29.6453 23.0131 29.5598 22.0237C29.5152 21.5143 29.477 21.0048 29.4477 20.4954C29.4311 20.2138 29.4502 19.9104 29.6695 19.7184C30.3975 19.0771 31.1152 18.4154 32.0268 18.0301C32.19 17.961 32.3672 17.9571 32.5214 18.0429C32.6668 18.1248 32.8274 18.2144 32.9243 18.3424C33.4215 19.0042 34.3012 19.424 34.2056 20.4647C34.1546 21.0151 34.1941 21.5731 34.1903 22.1274C34.1865 22.5075 34.3114 22.665 34.6824 22.4307C34.8877 22.3015 35.1146 22.2695 35.3543 22.2682C35.7406 22.2643 35.9943 22.4359 36.1473 22.7917C36.2951 23.136 36.2059 23.4151 35.9535 23.6595C35.2217 24.3687 34.8392 25.2403 34.6709 26.2439C34.5804 26.784 34.3802 27.3114 34.1814 27.8259C33.9837 28.3405 34.3815 28.4519 34.6684 28.6387C34.996 28.8512 35.163 28.617 35.3351 28.3789C35.8196 27.7095 36.0261 26.921 36.313 26.1658C36.5323 25.5885 36.7299 24.9971 37.0116 24.4506C37.5165 23.4714 38.4931 23.4279 39.3983 23.4573C41.9226 23.5405 44.4469 23.52 46.9699 23.5571C48.4985 23.5802 50.0271 23.6327 51.5557 23.6493C52.0606 23.6544 52.3219 23.8349 52.2747 24.3674C52.2531 24.6221 52.2416 24.8768 52.2263 25.1328C52.197 25.6064 51.956 25.8215 51.4767 25.769C50.7933 25.6935 50.4338 25.9571 50.4542 26.6995C50.4644 27.0733 50.2018 27.2653 49.8244 27.2755C49.4419 27.2858 49.0595 27.2935 48.6783 27.3127C48.2422 27.3344 47.9363 27.5021 47.9656 28.009C47.9924 28.4723 47.7246 28.6042 47.3243 28.5799C46.7519 28.5453 46.3414 28.6605 46.27 29.3683C46.2215 29.8509 45.7613 29.8061 45.4043 29.7792C44.3347 29.6986 43.6768 30.4858 44.0453 31.497C45.1073 34.409 45.0371 37.3018 43.738 40.0883C41.9366 43.9526 38.9788 46.3923 34.6798 47.0144C34.4274 47.0502 34.1763 47.0989 33.9226 47.1168C32.9613 47.1821 32.96 47.1782 32.9001 48.1344C32.8835 48.3981 32.8695 48.6592 32.5546 48.745C32.2716 48.8218 31.9975 48.7757 31.7693 48.5952C31.5359 48.4109 31.5844 48.1242 31.6048 47.8784C31.6494 47.3434 31.4722 47.1488 30.8985 47.1117C26.1482 46.7994 22.8322 44.3328 20.8255 40.087C19.4983 37.2774 19.4958 34.3552 20.5234 31.433C20.6508 31.0707 20.8242 30.7405 20.2212 30.6739C20.0542 30.656 19.9101 30.5216 19.8732 30.336C19.7571 29.7536 19.3479 29.6781 18.8596 29.7242C18.3318 29.7741 17.8537 29.8214 17.7683 29.0496C17.7147 28.5619 17.2061 28.5811 16.8351 28.5914C16.3073 28.6054 16.0268 28.4403 16.0612 27.8669C16.0854 27.4522 15.819 27.3114 15.4505 27.3037C15.0681 27.2947 14.6856 27.2896 14.3031 27.2768C13.9041 27.264 13.6389 27.0682 13.6427 26.6547C13.6491 25.9021 13.1672 25.7447 12.5858 25.8061C12.0567 25.8624 11.8974 25.6128 11.8655 25.1648C11.8591 25.0803 11.854 24.9946 11.8502 24.9088C11.803 23.6813 11.8234 23.7005 13.0486 23.6442C16.1479 23.5021 19.251 23.5469 22.3503 23.5226C23.4276 23.5136 24.5074 23.3575 25.5885 23.5072C26.4019 23.6199 26.9629 24.0154 27.2561 24.7936C27.5417 25.5514 27.8362 26.3053 28.1332 27.0579C28.2658 27.3946 28.3869 27.7402 28.5641 28.0538C29.1302 29.0611 29.1659 29.0624 30.1743 28.3699ZM37.6083 40.0615C38.1896 39.5955 38.553 38.9683 38.836 38.2989C39.7858 36.0499 39.5742 33.7536 39.0579 31.4534C39.0196 31.2845 39.0502 31.0003 38.8016 31.0016C38.5581 31.0029 38.4893 31.2627 38.437 31.4675C38.3962 31.6314 38.4013 31.8067 38.3771 31.9744C38.2929 32.544 38.2789 33.1712 37.9245 33.6205C37.454 34.217 37.3546 34.7751 37.5675 35.4995C37.76 36.1536 37.5229 36.3584 36.8064 36.3789C35.8311 36.4071 34.8545 36.4608 33.8792 36.4685C33.3272 36.4736 33.2724 36.7898 33.2838 37.2237C33.2953 37.6589 33.3055 38.0173 33.9098 38.0199C34.9489 38.0237 35.9879 38.1043 37.0269 38.1248C37.4528 38.1338 37.6682 38.3066 37.6631 38.7277C37.6567 39.1744 37.63 39.6199 37.6121 40.0666C36.2543 40.0691 34.8979 40.0704 33.5401 40.073C33.229 40.073 32.9205 40.0858 32.9154 40.5159C32.909 41.0266 32.9077 41.5373 32.909 42.0493C32.909 42.3194 33.0301 42.4499 33.3106 42.3718C34.9157 41.9239 36.4851 41.4118 37.6083 40.0615ZM32.1581 28.6554C32.8083 28.6835 33.4878 28.1306 33.7594 27.3575C34.2464 25.9687 34.3293 24.4032 35.5226 23.3229C35.6309 23.2243 35.6743 23.0567 35.5391 22.921C35.418 22.7994 35.2548 22.7968 35.1222 22.8595C34.7984 23.0144 34.4784 23.1834 34.1763 23.3767C33.9927 23.4944 33.8155 23.5827 33.6854 23.3677C33.2532 22.6599 32.4998 22.6816 31.833 22.5434C31.193 22.4115 29.9168 23.3485 29.8671 23.9923C29.8034 24.8167 29.7205 25.6461 29.8582 26.4755C30.0469 27.6365 31.0617 28.608 32.1581 28.6554ZM25.5146 31.4714C25.0403 34.2272 24.6438 36.9741 26.4657 39.6096C26.5358 39.2781 26.6136 39.0925 26.6059 38.9095C26.5766 38.2541 26.9042 38.1184 27.506 38.0851C28.503 38.0314 29.4999 38.0186 30.4969 37.9904C31.1484 37.9725 31.0336 37.4477 31.0821 37.0496C31.1318 36.64 30.9189 36.4813 30.5198 36.4749C29.607 36.4595 28.6955 36.4045 27.7826 36.393C26.6008 36.3776 26.6059 36.3891 26.625 35.1693C26.6314 34.7994 26.7882 34.4077 26.4682 34.071C26.0692 33.6525 25.9583 33.1034 25.8155 32.5658C25.7198 32.201 25.8129 31.7952 25.5146 31.4714ZM27.1108 40.0998C28.2072 41.3427 29.607 41.9507 31.1178 42.3462C31.2172 42.3718 31.3269 42.377 31.4085 42.2784C31.5372 42.1235 31.4786 40.343 31.3243 40.2189C31.2478 40.1562 31.1356 40.1063 31.0387 40.105C29.7294 40.0973 28.4201 40.0998 27.1108 40.0998ZM32.4908 20.3495C32.4908 20.3495 32.4934 20.3495 32.4959 20.3495C32.4959 19.881 32.5023 19.4125 32.4921 18.944C32.4883 18.7763 32.4794 18.5715 32.241 18.5741C32.0459 18.5754 31.9286 18.7213 31.912 18.9056C31.8241 19.8618 31.8661 20.8192 31.9146 21.7767C31.9235 21.9623 32.0408 22.1005 32.2499 22.0813C32.4373 22.0647 32.4845 21.9098 32.487 21.7562C32.4959 21.2864 32.4908 20.8179 32.4908 20.3495ZM33.6395 21.0291C33.6153 20.7437 33.7441 20.2688 33.5286 19.8247C33.4649 19.6928 33.3884 19.5367 33.2137 19.5507C33.0365 19.5661 32.9868 19.7363 32.9613 19.8784C32.8325 20.5952 32.8746 21.3171 32.9447 22.0339C32.9728 22.3168 33.2596 22.4858 33.5018 22.4589C33.7402 22.432 33.6242 22.144 33.6344 21.9687C33.651 21.7152 33.6395 21.4592 33.6395 21.0291ZM31.4276 19.5879C31.4238 19.4829 31.5079 19.2243 31.2491 19.1949C30.9839 19.1642 31.0158 19.4458 30.975 19.616C30.8067 20.3251 30.8704 21.0483 30.8806 21.7664C30.8845 21.9738 30.9622 22.2221 31.2504 22.1747C31.4951 22.1338 31.4008 21.9162 31.3919 21.7575C31.3536 21.0586 31.3473 20.361 31.4276 19.5879Z" fill="#18222D"/>
<path d="M31.8942 50.9325C31.8929 52.1357 31.2121 52.7181 30.2368 52.4467C29.9691 52.3725 29.7919 52.2086 29.7039 51.9488C29.6682 51.8451 29.6657 51.7235 29.7779 51.6672C30.0277 51.5392 30.27 51.5597 30.4778 51.7619C30.5925 51.8733 30.7136 51.9654 30.8628 51.8477C30.9189 51.8041 30.9686 51.6966 30.9571 51.6301C30.9278 51.4662 30.7735 51.4995 30.6524 51.4752C29.9181 51.3305 29.5343 50.9965 29.6057 50.5152C29.6912 49.9443 30.103 49.7011 30.6359 49.6538C31.3052 49.5936 31.7565 49.9405 31.8661 50.5766C31.8904 50.7238 31.8891 50.8736 31.8942 50.9325Z" fill="#18222D"/>
<path d="M35.7444 52.4877C35.6602 52.4697 35.4588 52.4646 35.2956 52.3827C35.0266 52.2458 34.7295 52.0089 34.9144 51.6979C35.0636 51.4458 35.4027 51.5213 35.65 51.6941C35.7979 51.7977 35.9598 52.0269 36.1039 51.7478C36.225 51.5123 35.9815 51.4381 35.8119 51.351C35.3402 51.1104 35.3734 50.8864 35.8413 50.688C35.9968 50.6214 36.211 50.5587 36.0644 50.3424C35.9445 50.1657 35.8119 50.3334 35.6947 50.4166C35.4346 50.5997 35.0852 50.7251 34.931 50.4051C34.7805 50.0941 35.1069 49.8521 35.3823 49.7472C35.8336 49.5744 36.3066 49.5808 36.7107 49.888C37.0805 50.1696 37.0486 50.5318 36.8472 50.9145C36.8051 50.9939 36.8217 51.1206 36.8484 51.2153C37.0945 52.0832 36.7847 52.4826 35.7444 52.4877Z" fill="#18222D"/>
<path d="M34.0539 51.1181C34.0539 51.415 34.0551 51.712 34.0539 52.0102C34.0526 52.3213 33.9073 52.4864 33.586 52.4672C33.2532 52.4467 33.1614 52.2342 33.1806 51.9424C33.1933 51.7517 33.2494 51.5584 33.2277 51.3728C33.1933 51.0669 33.4534 50.5024 32.7216 50.72C32.6056 50.7546 32.5355 50.6368 32.5189 50.5242C32.4921 50.3462 32.5189 50.1747 32.6872 50.0774C32.9065 49.9507 33.127 49.8138 33.3641 49.7331C33.7989 49.5834 34.0679 49.7178 34.059 50.2285C34.0539 50.5254 34.0577 50.8237 34.0577 51.1206C34.0564 51.1181 34.0539 51.1181 34.0539 51.1181Z" fill="#18222D"/>
<path d="M28.8281 51.1322C28.8281 51.4496 28.8357 51.7683 28.8255 52.0858C28.8166 52.3878 28.6215 52.48 28.3538 52.4659C28.0771 52.4518 28.007 52.279 28.0159 52.0333C28.0261 51.7581 28.0287 51.4816 28.021 51.2064C28.0134 50.921 28.0912 50.5446 27.5736 50.7174C27.4639 50.7546 27.3594 50.7174 27.3224 50.592C27.2701 50.4166 27.2893 50.231 27.4333 50.1248C27.7227 49.911 28.0376 49.7254 28.4048 49.6909C28.6955 49.6627 28.8293 49.8317 28.8306 50.1133C28.8319 50.4525 28.8306 50.7917 28.8306 51.1309L28.8281 51.1322Z" fill="#18222D"/>
<path d="M31.9375 24.183C32.5635 24.2317 33.0939 24.512 33.6382 24.7462C33.767 24.8013 33.8358 25.015 33.7479 25.0637C33.3374 25.2902 33.3399 25.7894 33.0633 26.0672C32.5558 26.5741 32.0433 26.5587 31.3358 26.1274C31.1917 26.039 31.0489 25.9443 30.9176 25.8381C30.6907 25.655 30.2062 25.8099 30.1935 25.4707C30.1858 25.2595 30.53 25.0202 30.7391 24.8179C31.0782 24.489 31.4696 24.2432 31.9375 24.183Z" fill="#18222D"/>
</svg>
