<svg width="65" height="64" viewBox="0 0 65 64" fill="none" xmlns="http://www.w3.org/2000/svg">
<path d="M64.9956 31.9854C65.0715 49.3996 50.7332 63.8333 33.3724 63.9976C15.656 64.165 0.903717 49.7989 0.996283 31.8054C1.08781 14.2612 15.4032 0.0428071 32.8482 -0.000871491C50.5917 -0.04559 64.9186 14.1895 64.9956 31.9854ZM32.998 62.9493C49.7399 63.0439 63.8161 49.4443 63.995 32.3452C64.1781 14.8946 50.0665 1.04949 33.0791 1.00374C15.9524 0.956937 1.84393 14.9164 1.99474 32.288C2.14243 49.3465 16.1989 63.0512 32.998 62.9493Z" fill="#18222D"/>
<path d="M33.0469 10.5777C42.4095 10.5548 51.0057 16.7467 53.7556 26.018C56.2517 34.4355 53.1804 43.661 46.1829 48.9222C42.8672 51.4161 39.1614 52.8699 35.0209 53.2714C24.8907 54.2541 15.3325 47.9405 12.3371 38.2449C9.65585 29.5654 12.8187 20.1069 20.1855 14.7718C23.3368 12.4891 26.8398 11.1195 30.7161 10.7295C31.492 10.6525 32.271 10.6276 33.0469 10.5777ZM33.0126 52.9802C44.4533 53.0707 54.2122 43.7827 54.2434 32.0415C54.2735 20.4511 44.8048 11.003 33.0687 10.9676C21.3098 10.9323 11.763 20.3804 11.7547 31.9583C11.7464 43.7245 21.5469 53.0956 33.0126 52.9802Z" fill="#18222D"/>
<path d="M55.7171 19.3508C56.0822 20.3585 55.2626 20.4365 54.8497 20.7683C55.1212 21.1603 55.375 21.515 55.61 21.881C55.6423 21.931 55.583 22.0391 55.558 22.1546C55.2554 22.0984 54.9662 22.0651 54.6896 21.9892C54.3651 21.9008 54.0614 21.7573 53.8783 22.217C53.845 22.3001 53.6006 22.3511 53.4696 22.3282C53.3094 22.3012 53.1211 22.217 53.0203 22.0953C52.6739 21.6783 52.3609 21.2342 51.9844 20.7319C52.4389 20.786 52.7852 20.7953 52.9797 20.344C53.0255 20.2379 53.4196 20.2857 53.6526 20.2566C53.8835 20.2285 54.1342 20.24 54.3411 20.1516C55.0265 19.8583 55.0245 19.8157 54.4379 19.329C54.6001 18.9338 54.8768 18.8152 55.2949 18.9213C55.8409 19.0596 56.3932 19.1699 56.8591 19.2738C56.9392 18.7643 56.9787 18.3202 57.0859 17.8928C57.2034 17.4196 57.5123 17.3458 57.8867 17.6692C58.0167 17.7815 58.1374 17.9094 58.2403 18.0467C58.6688 18.6197 59.2835 18.8755 59.9388 19.0721C60.4931 19.2385 60.8155 19.8219 60.6512 20.3752C60.5181 20.8255 60.1437 20.8255 59.8036 20.7194C58.9476 20.4521 58.1051 20.1401 57.2544 19.8521C56.7915 19.694 56.3235 19.5474 55.7171 19.3508ZM57.5175 19.2031C57.5185 19.2551 57.5206 19.3071 57.5217 19.3591C57.9242 19.3997 58.3256 19.4413 58.7281 19.4818C58.2206 18.9515 57.9138 18.9182 57.5175 19.2031Z" fill="#18222D"/>
<path d="M40.3263 7.37456C40.3897 6.88994 42.3326 4.08411 42.7122 3.89588C42.9878 4.18915 42.8672 4.48658 42.6716 4.73617C42.3523 5.14384 41.9945 5.51927 41.6534 5.90925C41.4204 6.17548 41.1875 6.44171 40.8786 6.7953C41.1739 6.88474 41.3414 6.95026 41.5161 6.98562C42.1516 7.11145 42.4012 7.58984 42.1277 8.1743C42.0913 8.2523 42.059 8.34173 41.9987 8.39789C41.539 8.82116 41.149 9.2621 41.2727 9.96824C41.2935 10.0868 41.1209 10.2386 40.9784 10.3925C40.9649 9.72905 40.6893 9.59489 40.112 9.76129C39.6846 9.884 39.1084 9.32138 38.9056 8.6922C38.3928 9.09883 37.878 9.50649 37.3631 9.91416C37.3143 9.85488 37.2664 9.79456 37.2175 9.73529C37.4162 9.56577 37.6315 9.41082 37.8114 9.22258C38.2732 8.73484 38.7537 8.25853 39.1604 7.72711C39.4506 7.34856 39.3923 7.28825 38.9981 7.12809C38.0319 7.80095 37.1125 8.44053 36.1931 9.08011C36.1588 9.03955 36.1244 8.99795 36.0901 8.95739C36.9835 8.12646 37.956 7.36832 38.6715 6.37724C38.632 6.33148 38.5935 6.28468 38.554 6.23892C38.1921 6.41884 37.8353 6.61123 37.4661 6.7745C37.2175 6.88474 36.9482 7.01578 36.7599 6.65387C36.5685 6.28468 36.7141 6.09541 37.0542 5.92901C37.7209 5.60142 38.3585 5.2104 39.0356 4.90777C39.2457 4.81417 39.5442 4.91817 39.8021 4.93065C39.7293 5.1584 39.7147 5.43607 39.5712 5.60558C39.1344 6.12245 39.15 6.36788 39.697 6.81194C39.7751 6.87538 39.8042 7.09481 39.7574 7.19673C39.6159 7.5056 39.4256 7.79159 39.2685 8.06406C39.7657 8.31469 40.2223 8.57572 40.7069 8.77124C40.8536 8.83052 41.1521 8.7702 41.2457 8.65476C41.4527 8.40101 41.6014 8.08486 41.7002 7.77183C41.7148 7.72399 41.3497 7.50664 41.1386 7.44944C40.8796 7.37872 40.5988 7.39536 40.3263 7.37456ZM40.372 9.38586C40.1474 8.76604 39.8385 8.57156 39.2821 8.66932C39.8593 9.53977 39.8593 9.53977 40.372 9.38586Z" fill="#18222D"/>
<path d="M9.46032 16.7623C8.85292 17.6099 9.43224 18.1008 9.87426 18.7175C10.2528 18.1309 10.1135 17.3884 10.6845 16.9589C10.4879 18.6447 10.2965 20.2826 10.1104 21.8831C10.0864 21.437 10.0594 20.9378 10.0324 20.4397C9.36983 21.3694 9.62257 22.6111 8.78532 23.4608C8.90181 23.0687 9.01101 22.6745 9.13478 22.2856C9.42392 21.3798 9.54664 20.4636 9.28975 19.5297C9.23775 19.3394 9.11606 19.1688 9.02661 18.9889C8.96837 19.0055 8.91013 19.0222 8.85188 19.0399C8.85188 19.3924 8.85188 19.745 8.85188 20.0985C8.09264 20.0569 7.72965 19.4902 7.99071 18.7955C8.61579 18.9099 8.76556 18.7819 8.85916 18.0415C8.89557 17.7524 8.88516 17.4529 8.96213 17.1762C9.00685 17.0182 9.18574 16.8975 9.30431 16.7603C9.35735 16.7613 9.40936 16.7623 9.46032 16.7623Z" fill="#18222D"/>
<path d="M45.1927 12.7949C46.6322 12.5006 48.1424 12.5432 49.3904 11.5157C48.9651 11.1819 48.6218 10.9125 48.2786 10.6421C48.3057 10.5912 48.3327 10.5402 48.3608 10.4882C48.5698 10.5901 48.7862 10.6785 48.9848 10.7971C49.6286 11.1819 50.2797 11.472 51.0327 11.0872C51.4997 10.8491 51.8107 10.5392 51.7306 9.94952C51.6931 9.67601 51.7607 9.38794 51.7867 9.00939C52.3068 9.60945 52.2444 10.4196 51.7171 11.2568C52.0665 11.3202 52.4264 11.3847 52.7862 11.4491C52.7862 11.5219 52.7862 11.5947 52.7862 11.6675C52.623 11.7299 52.4638 11.8183 52.2943 11.8485C52.0748 11.888 51.845 11.9036 51.6214 11.8943C50.3525 11.8371 49.1564 12.1116 47.9916 12.6035C47.2167 12.9311 46.3961 13.0486 45.5536 12.902C45.4309 12.8801 45.3124 12.8313 45.1927 12.7949Z" fill="#18222D"/>
<path d="M28.8544 8.49565C28.9698 8.43117 29.0343 8.37501 29.1092 8.35629C29.8175 8.1743 29.7998 8.17846 29.6916 7.44112C29.5315 6.34812 29.4077 5.24888 29.2496 4.15587C29.207 3.85948 29.0957 3.57245 29.0156 3.2823C28.9501 3.26982 28.8845 3.25734 28.819 3.2459C28.7046 3.52357 28.5725 3.79604 28.4789 4.08099C28.2002 4.93169 27.9152 4.98576 27.2069 4.25259C27.3307 4.16315 27.4493 4.003 27.5626 4.00716C28.2179 4.02692 28.3427 3.48613 28.61 3.08367C28.7057 2.93911 28.8596 2.728 28.9802 2.73216C29.1227 2.73736 29.3463 2.92351 29.3796 3.06599C29.5315 3.73468 29.6344 4.41482 29.7457 5.09184C29.9132 6.11309 30.0765 7.13433 30.2356 8.15662C30.2647 8.34173 30.3334 8.56324 30.2626 8.70884C30.1992 8.83884 29.9392 8.98651 29.8154 8.95115C29.4961 8.85651 29.2038 8.66828 28.8544 8.49565Z" fill="#18222D"/>
<path d="M27.6323 6.56755C27.3962 6.59563 27.1591 6.62475 26.923 6.65283C26.9063 6.61331 26.8897 6.57379 26.872 6.53427C27.3432 6.15469 27.8133 5.77406 28.2886 5.39135C28.5153 5.7231 28.5153 5.7231 28.0494 6.2098C28.1731 6.28572 28.2896 6.35748 28.4051 6.42924C28.3562 6.43652 28.3073 6.4438 28.2584 6.45212C28.2928 7.05426 28.3416 7.65639 28.3552 8.25957C28.3624 8.60484 28.3125 8.95219 28.2886 9.2985C28.2272 9.29954 28.1659 9.30058 28.1045 9.30162C28.0015 8.70468 27.8975 8.10774 27.7935 7.50664C27.0322 7.78223 27.0093 7.82071 27.157 8.53933C27.1674 8.59028 27.1924 8.64748 27.1788 8.6922C27.1216 8.88251 27.053 9.06971 26.9885 9.2569C26.8803 9.08635 26.7399 8.92723 26.6734 8.74212C26.5891 8.50605 26.5673 8.24918 26.5194 8.00998C26.9178 7.59296 27.3328 7.15825 27.7478 6.72355C27.7093 6.67051 27.6708 6.61955 27.6323 6.56755Z" fill="#18222D"/>
<path d="M48.4315 53.2828C48.7362 53.2859 49.0399 53.495 49.1169 53.9525C49.2043 54.4663 48.8922 54.8136 47.9604 55.2587C47.4518 54.5141 46.9401 53.7643 46.3961 52.9677C46.8714 52.6911 47.2385 52.1305 47.8449 52.3791C48.0956 52.481 48.2079 52.9188 48.4315 53.2828ZM48.1736 54.9415C48.4201 54.5984 48.6489 54.3529 48.7716 54.0638C48.809 53.9744 48.5407 53.6218 48.4419 53.6333C48.1351 53.6686 47.8428 53.8225 47.5006 53.9473C47.7409 54.303 47.9031 54.5422 48.1736 54.9415ZM46.8142 52.9479C47.0503 53.2766 47.2105 53.5002 47.4486 53.8309C47.6619 53.5199 47.8511 53.3098 47.9489 53.0623C47.9801 52.9833 47.7607 52.6921 47.6723 52.6983C47.4112 52.7181 47.1574 52.8387 46.8142 52.9479Z" fill="#18222D"/>
<path d="M23.7955 58.1374C23.7144 57.9481 23.5865 57.7661 23.5594 57.5695C23.4731 56.9414 23.4242 56.3091 23.262 55.6747C23.0675 56.2207 22.8803 56.7688 22.6702 57.3085C22.6327 57.4052 22.4975 57.4645 22.4081 57.5415C22.3935 57.4239 22.3373 57.2919 22.3717 57.192C22.639 56.4287 22.9239 55.6716 23.2048 54.9114C23.5781 54.8417 23.6062 55.0653 23.6301 55.3295C23.6884 55.9805 23.7654 56.6305 23.9162 57.2939C24.1502 56.6575 24.3832 56.021 24.6172 55.3846C24.6744 55.3835 24.7316 55.3825 24.7888 55.3825C24.7929 55.5354 24.8408 55.7028 24.794 55.838C24.534 56.5857 24.2511 57.3251 23.9754 58.0677C23.9162 58.0916 23.8558 58.1145 23.7955 58.1374Z" fill="#18222D"/>
<path d="M50.5688 49.6731C51.1866 50.3439 51.8044 51.0136 52.5502 51.8227C52.2423 51.8456 52.0468 51.9153 51.8949 51.8622C51.249 51.6386 50.6156 51.3786 49.8491 51.0822C50.3712 51.7343 50.9693 52.1815 51.3385 52.7805C51.2615 52.8346 51.1845 52.8887 51.1076 52.9427C50.4815 52.2626 49.8553 51.5825 49.2001 50.8701C49.7097 50.4541 50.0717 50.9179 50.4565 51.0094C50.884 51.1114 51.2854 51.3235 51.7493 51.4285C51.3374 50.9876 50.9193 50.5529 50.5189 50.1016C50.4419 50.0152 50.4378 49.8644 50.3993 49.7428C50.4565 49.7188 50.5127 49.696 50.5688 49.6731Z" fill="#18222D"/>
<path d="M56.6938 39.6468C57.5508 39.9546 58.4067 40.2624 59.2638 40.5703C59.2835 40.6171 59.3043 40.6649 59.3241 40.7117C59.167 40.798 59.0183 40.9363 58.8519 40.9623C58.1748 41.0653 57.4936 41.1339 56.6719 41.2317C57.453 41.5083 58.1082 41.7413 58.7635 41.9732C58.7739 42.0169 58.7853 42.0605 58.7957 42.1032C58.6772 42.1406 58.5378 42.2384 58.4421 42.2061C57.738 41.9732 57.0401 41.7215 56.3464 41.4563C56.2445 41.4168 56.18 41.2795 56.0978 41.187C56.1997 41.1173 56.2944 41.0008 56.4046 40.9852C57.1004 40.8843 57.8004 40.8063 58.5295 40.6441C57.997 40.46 57.4603 40.2853 56.934 40.0846C56.7915 40.0305 56.6792 39.8974 56.5523 39.7997C56.5991 39.7487 56.6459 39.6977 56.6938 39.6468Z" fill="#18222D"/>
<path d="M17.8932 52.6016C17.5562 53.0946 17.2265 53.5927 16.877 54.0773C16.8146 54.1637 16.6711 54.1917 16.565 54.2469C16.5764 54.1293 16.5463 53.9848 16.6045 53.8995C17.0611 53.2298 17.5343 52.5704 18.0065 51.9028C18.4277 51.9319 18.3414 52.2241 18.304 52.4675C18.2052 53.1102 18.0918 53.7518 18.0616 54.4278C18.3976 53.9411 18.7252 53.4492 19.0757 52.9739C19.1433 52.8814 19.3035 52.8575 19.42 52.8013C19.396 52.9199 19.4075 53.0613 19.344 53.1528C18.8771 53.8329 18.3965 54.5037 17.8921 55.2161C17.4158 54.7804 17.7683 54.3363 17.7787 53.9359C17.7902 53.4991 17.8994 53.0644 17.966 52.6297C17.942 52.6193 17.9181 52.611 17.8932 52.6016Z" fill="#18222D"/>
<path d="M31.076 59.6183C30.999 59.5268 30.9137 59.4404 30.8482 59.3406C30.8263 59.3073 30.8544 59.2408 30.8586 59.1888C30.9148 58.3838 30.9709 57.5789 31.0323 56.6981C31.6033 56.8904 32.3136 56.5337 32.6101 57.2617C32.8045 57.7401 32.6267 58.179 32.1046 58.4379C32.2731 58.8445 32.4291 59.22 32.5861 59.5964C32.5549 59.6339 32.5237 59.6713 32.4925 59.7088C32.3781 59.6204 32.2294 59.5528 32.1576 59.4373C32.0401 59.2501 32.0006 59.0109 31.8737 58.8321C31.7634 58.6761 31.5783 58.5742 31.4254 58.4473C31.3599 58.6043 31.2642 58.7572 31.2372 58.9205C31.2039 59.1201 31.2288 59.3292 31.2288 59.534C31.1779 59.5621 31.1269 59.5902 31.076 59.6183ZM31.2902 58.2466C31.6906 58.102 31.9943 58.0531 32.2096 57.8888C32.3095 57.8129 32.3209 57.4021 32.2315 57.3366C32.0068 57.1723 31.7021 57.1192 31.3505 56.9934C31.3297 57.4312 31.3152 57.7339 31.2902 58.2466Z" fill="#18222D"/>
<path d="M12.2373 49.7292C11.6476 49.7344 11.2201 49.3445 11.2139 48.7974C11.2066 48.0767 12.1302 47.224 12.931 47.2115C13.502 47.2032 13.9378 47.6036 13.9482 48.1454C13.9617 48.8723 13.0433 49.722 12.2373 49.7292ZM12.9487 47.5401C12.5035 47.5495 11.8088 48.0414 11.658 48.5281C11.5977 48.7226 11.6309 49.02 11.7485 49.1749C11.8535 49.3143 12.1998 49.437 12.3236 49.3653C12.7417 49.124 13.1858 48.8546 13.4729 48.4813C13.7922 48.0684 13.4469 47.5297 12.9487 47.5401Z" fill="#18222D"/>
<path d="M41.5473 56.046C41.6794 55.5281 41.8406 55.1454 42.3118 54.9769C42.7528 54.8178 43.1813 54.9249 43.4194 55.2972C43.6795 55.7059 43.8864 56.1791 43.9821 56.6523C44.0726 57.0974 43.8427 57.5071 43.3903 57.6975C42.9431 57.8847 42.4969 57.789 42.2306 57.4011C41.9467 56.9872 41.7709 56.5005 41.5473 56.046ZM43.7668 56.7157C43.5266 56.2561 43.3664 55.838 43.1022 55.5C42.9857 55.3513 42.6175 55.2639 42.4376 55.3357C42.2556 55.4085 42.0341 55.7309 42.0611 55.9098C42.1246 56.3341 42.2702 56.7719 42.4948 57.1348C42.5988 57.3044 43.0003 57.4323 43.1969 57.3667C43.4142 57.295 43.5494 56.9799 43.7668 56.7157Z" fill="#18222D"/>
<path d="M8.54298 44.9204C8.26945 44.4722 8.68443 44.4899 8.85604 44.3776C9.0547 44.2476 9.28143 44.1602 9.54457 44.0302C9.37815 43.6881 9.22423 43.3709 9.07966 43.0745C8.58771 43.0755 8.26113 43.6558 7.78582 43.4447C7.77022 43.3865 7.75462 43.3283 7.73901 43.27C8.56795 42.8571 9.39688 42.4443 10.2341 42.0283C10.5316 42.3881 10.1977 42.4266 10.0126 42.5285C9.8181 42.6356 9.61841 42.7334 9.37295 42.8592C9.53416 43.1889 9.68185 43.4905 9.85762 43.8524C10.1478 43.7203 10.4182 43.583 10.7001 43.477C10.7833 43.4458 10.8987 43.4978 10.9996 43.5113C10.9539 43.6028 10.931 43.7401 10.8582 43.7775C10.0927 44.1654 9.31991 44.5388 8.54298 44.9204Z" fill="#18222D"/>
<path d="M52.4805 48.1256C52.3848 48.2026 52.2641 48.2629 52.1986 48.3596C52.054 48.5738 51.8439 48.8006 51.8263 49.0345C51.7836 49.5982 52.5959 50.3335 53.1513 50.2315C53.3853 50.1889 53.6932 49.9747 53.7587 49.7708C53.8117 49.6055 53.5507 49.3403 53.4404 49.1396C53.1783 49.2498 53.0047 49.3226 52.8299 49.3954C52.8029 49.3424 52.7758 49.2893 52.7488 49.2353C52.9069 49.0574 53.065 48.8796 53.2605 48.6591C53.5309 48.8921 53.8076 49.0959 54.0354 49.3445C54.1269 49.4453 54.1685 49.6585 54.1342 49.7958C53.9667 50.4603 53.3229 50.7775 52.6822 50.5259C52.1071 50.3002 51.6765 49.9196 51.4893 49.3122C51.2823 48.6425 51.6651 48.0944 52.4805 48.1256Z" fill="#18222D"/>
<path d="M22.4153 54.4268C22.4289 54.5474 22.4923 54.693 22.4476 54.7856C22.2073 55.2837 21.9598 55.7808 21.6759 56.255C21.343 56.8114 20.8885 56.9456 20.407 56.6793C19.9837 56.4464 19.8391 55.9524 20.0773 55.4116C20.2926 54.9218 20.5401 54.4445 20.797 53.9744C20.849 53.8797 21.0071 53.8444 21.1174 53.782C21.1506 53.8236 21.1839 53.8641 21.2172 53.9057C21.0019 54.3321 20.7825 54.7564 20.5724 55.1859C20.4819 55.3721 20.3352 55.5738 20.3508 55.7579C20.3695 55.9805 20.4819 56.306 20.6452 56.3757C20.8105 56.4464 21.1912 56.3309 21.2942 56.1749C21.6561 55.6321 21.94 55.0362 22.2541 54.46C22.3072 54.4476 22.3613 54.4372 22.4153 54.4268Z" fill="#18222D"/>
<path d="M54.6719 44.0697C54.7821 44.0697 54.9163 44.0281 54.9995 44.076C55.4935 44.362 55.9907 44.6469 56.4577 44.9735C56.9548 45.3208 57.0599 45.7431 56.8186 46.1809C56.5627 46.6457 56.1217 46.7934 55.5674 46.523C55.0557 46.2734 54.5731 45.9604 54.0884 45.6599C54.0125 45.6131 53.9875 45.482 53.9386 45.3905C54.053 45.3874 54.1914 45.3406 54.2787 45.3874C54.6906 45.6079 55.0837 45.8616 55.4915 46.0883C56.024 46.3858 56.3474 46.3587 56.5211 45.9947C56.7551 45.5049 56.3641 45.3052 56.051 45.1004C55.5923 44.7998 55.116 44.5263 54.648 44.2403C54.6552 44.1852 54.6636 44.128 54.6719 44.0697Z" fill="#18222D"/>
<path d="M10.0896 46.8818C9.74842 47.0617 9.65377 46.9598 9.07758 45.8034C9.8597 45.3198 10.645 44.8341 11.4656 44.3266C11.6944 44.7873 12.0532 45.1534 12.177 45.6089C12.0938 45.6432 12.0106 45.6775 11.9274 45.7119C11.7433 45.4259 11.5592 45.1409 11.3543 44.8227C11.114 44.9693 10.8998 45.0983 10.6533 45.248C10.7718 45.4508 10.881 45.6047 10.9528 45.7743C10.9986 45.8814 10.9892 46.0114 11.0048 46.131C10.8894 46.0654 10.7479 46.0218 10.6637 45.9271C10.5409 45.7919 10.4588 45.6193 10.3433 45.4383C10.0625 45.6099 9.81602 45.7597 9.5196 45.9396C9.72138 46.2714 9.90547 46.5761 10.0896 46.8818Z" fill="#18222D"/>
<path d="M16.8229 7.45776C17.5083 8.03286 19.8922 12.3789 20.0783 13.3086C19.7882 13.3211 19.5084 13.3336 19.2276 13.346C19.7757 13.0653 19.6155 12.7564 19.3888 12.3404C18.5099 10.7253 17.6747 9.08739 16.8229 7.45776Z" fill="#18222D"/>
<path d="M58.3672 43.1941C58.18 43.2014 57.9803 43.2523 57.8077 43.2045C57.5341 43.1296 57.3885 43.1868 57.2918 43.4572C57.1972 43.7224 56.9579 43.9616 57.324 44.2226C57.4728 44.3287 57.557 44.5253 57.6704 44.6812C57.6173 44.7228 57.5633 44.7644 57.5102 44.806C56.8415 44.2164 56.1696 43.6298 55.5102 43.0298C55.4426 42.9674 55.3947 42.7844 55.4363 42.724C55.4977 42.6346 55.6547 42.5452 55.7567 42.5587C56.6251 42.6762 57.4894 42.8176 58.3558 42.9507C58.36 43.0319 58.3631 43.113 58.3672 43.1941ZM55.8898 42.8457C55.868 42.8821 55.8461 42.9185 55.8243 42.9549C56.1321 43.2087 56.439 43.4624 56.7957 43.7567C56.9039 43.5113 56.9881 43.321 57.09 43.0901C56.647 42.9996 56.2684 42.9227 55.8898 42.8457Z" fill="#18222D"/>
<path d="M15.7007 51.8705C15.475 52.1378 15.2878 52.3593 15.0777 52.6079C15.319 52.8169 15.5499 52.9979 15.7537 53.2038C15.813 53.2641 15.7974 53.3972 15.8151 53.497C15.7257 53.4856 15.6123 53.5043 15.552 53.4565C15.2306 53.1996 14.9227 52.9251 14.5858 52.6359C15.1994 51.9121 15.7891 51.2185 16.4121 50.4832C16.7834 50.7952 17.1349 51.0906 17.4875 51.3869C17.3242 51.5637 17.3242 51.5637 16.4495 51.0157C16.2904 51.1946 16.1261 51.3797 15.9306 51.6001C16.1188 51.7676 16.2831 51.8924 16.4173 52.0432C16.4807 52.1139 16.4891 52.2356 16.5224 52.3333C16.4215 52.3219 16.3008 52.3427 16.2239 52.2928C16.0533 52.1836 15.9035 52.038 15.7007 51.8705Z" fill="#18222D"/>
<path d="M28.9095 58.9444C29.9142 59.1659 29.9142 59.1659 29.9433 59.4716C29.4815 59.4009 29.0312 59.3312 28.5164 59.2522C28.6412 58.3339 28.7618 57.4385 28.8929 56.4755C29.3203 56.5317 29.7239 56.5764 30.1233 56.6461C30.1888 56.6575 30.2345 56.7802 30.2897 56.8509C30.2065 56.8873 30.1222 56.9591 30.0411 56.9539C29.7707 56.9393 29.5013 56.8988 29.2392 56.8686C29.0333 57.6163 29.0395 57.6163 29.6833 57.7703C29.7884 57.7952 29.8705 57.9138 29.9631 57.9897C29.8487 58.0303 29.7343 58.102 29.6199 58.1031C29.4514 58.1041 29.2819 58.0542 29.0426 58.0136C28.999 58.3298 28.9563 58.623 28.9095 58.9444Z" fill="#18222D"/>
<path d="M33.2799 59.1066C33.5898 59.1971 33.8332 59.3271 34.0713 59.3177C34.2294 59.3115 34.452 59.1357 34.5092 58.9849C34.5518 58.8726 34.4135 58.6282 34.2877 58.5305C34.0734 58.3641 33.752 58.3173 33.5763 58.127C33.3995 57.9367 33.2403 57.6184 33.2705 57.3813C33.2975 57.1692 33.5648 56.878 33.777 56.826C34.0422 56.7605 34.3594 56.8977 34.6507 56.9653C34.6787 56.9716 34.712 57.1192 34.6839 57.166C34.6548 57.2149 34.555 57.2347 34.4842 57.2388C34.4426 57.242 34.3906 57.1598 34.3542 57.1671C34.1119 57.2149 33.75 57.2014 33.6574 57.3501C33.4691 57.6517 33.7562 57.8368 34.0266 57.9523C34.478 58.1457 35.0001 58.3287 34.8587 58.9496C34.7983 59.2158 34.5217 59.5746 34.2856 59.6245C33.9809 59.69 33.6168 59.4966 33.2851 59.3926C33.2549 59.3864 33.2799 59.2096 33.2799 59.1066Z" fill="#18222D"/>
<path d="M13.7007 50.3127C13.5218 50.5383 13.372 50.7526 13.1931 50.9377C13.1359 50.997 12.9986 50.9793 12.8988 50.998C12.9133 50.8961 12.8904 50.7609 12.9477 50.6985C13.5134 50.0724 14.0917 49.4589 14.6471 48.8619C15.5957 49.5036 15.8474 50.0807 15.476 50.5602C15.0403 51.1197 14.5754 51.0802 13.7007 50.3127ZM14.9238 49.3611C14.5691 49.6876 14.3226 49.9144 13.968 50.2409C14.3081 50.3792 14.5691 50.556 14.8364 50.5664C14.9851 50.5727 15.2847 50.2867 15.2712 50.1587C15.242 49.8873 15.0527 49.6325 14.9238 49.3611Z" fill="#18222D"/>
<path d="M16.8177 10.3998C16.7522 10.1575 16.6856 9.91624 16.6201 9.67393C16.6648 9.65209 16.7085 9.63025 16.7532 9.60737C16.8489 9.82368 17.033 10.0442 17.0226 10.2542C16.9987 10.7139 16.8947 11.1725 16.7813 11.6218C16.747 11.7559 16.5733 11.8537 16.4631 11.9691C16.3591 11.8256 16.1999 11.6956 16.1646 11.5365C16.1157 11.3244 16.1916 11.0862 16.1594 10.8678C16.1292 10.6671 16.0252 10.4778 15.9534 10.2833C15.9014 10.2937 15.8494 10.3041 15.7985 10.3145C15.8505 9.91 15.9035 9.50545 15.9618 9.05619C16.28 9.19658 16.4662 9.29954 16.3757 9.68225C16.3029 9.99216 16.3466 10.352 16.6409 10.5257C16.6992 10.483 16.7584 10.4414 16.8177 10.3998Z" fill="#18222D"/>
<path d="M26.6931 55.9586C26.7493 56.1105 26.8419 56.2592 26.8543 56.4141C26.9043 57.061 26.9303 57.7089 27.0634 58.387C27.3609 57.7963 27.649 57.1993 27.962 56.6169C28.0275 56.4953 28.1835 56.4235 28.299 56.3289C28.3406 56.3726 28.3822 56.4173 28.4238 56.4609C28.013 57.2347 27.6094 58.0105 27.184 58.7759C27.1362 58.8622 26.9542 58.9433 26.8658 58.9173C26.7763 58.8913 26.6755 58.7343 26.6671 58.6272C26.6016 57.7692 26.5558 56.9092 26.5049 56.0502C26.5662 56.02 26.6297 55.9898 26.6931 55.9586Z" fill="#18222D"/>
<path d="M44.9702 55.6175C45.0034 56.0814 45.564 56.3694 45.3373 56.8197C45.2791 56.8374 45.2208 56.8551 45.1626 56.8728C44.7403 56.0533 44.3181 55.2338 43.8739 54.3717C44.3097 54.1439 44.7133 53.9317 45.121 53.7186C45.225 53.9671 45.225 53.9671 44.3669 54.5318C44.4813 54.7658 44.5999 55.006 44.6977 55.2047C45.0825 55.3679 45.3436 54.7336 45.7731 55.1433C45.4684 55.3232 45.2219 55.4688 44.9702 55.6175Z" fill="#18222D"/>
<path d="M10.3829 23.1269C10.6834 23.0562 10.6834 23.0562 11.0724 22.1036C11.1504 22.5206 11.2284 22.946 11.3096 23.3713C11.4645 24.1866 11.1296 24.5174 10.231 24.379C10.282 23.9641 10.3319 23.5471 10.3829 23.1269Z" fill="#18222D"/>
<path d="M53.8274 46.1507C53.6807 46.3764 53.5611 46.5594 53.4186 46.7789C54.0031 47.2073 54.5762 47.616 55.1347 48.0455C55.2273 48.1173 55.2522 48.2754 55.3094 48.3939C55.1774 48.3679 55.0182 48.3814 54.9173 48.3107C54.3526 47.9176 53.8024 47.5037 53.2179 47.0753C53.0483 47.2718 52.8965 47.4486 52.7446 47.6244C52.6968 47.6129 52.6479 47.6004 52.6001 47.589C52.6188 47.4694 52.6032 47.328 52.6625 47.2323C53.272 46.2526 53.4831 46.0519 53.8274 46.1507Z" fill="#18222D"/>
<path d="M38.399 56.2925C39.0439 56.2914 39.0564 57.034 39.5421 57.2846C39.6409 56.7969 39.7376 56.3164 39.8343 55.837C39.9103 55.8536 39.9851 55.8702 40.0611 55.8858C40.0174 56.2467 39.9404 56.6086 39.9394 56.9695C39.9383 57.4604 40.0018 57.9512 40.0205 58.4431C40.0247 58.5523 39.9602 58.6646 39.9269 58.7759C39.852 58.727 39.7168 58.6844 39.7106 58.6282C39.6066 57.66 38.8411 57.087 38.399 56.2925Z" fill="#18222D"/>
<path d="M7.05153 41.6893C7.1493 41.5884 7.22834 41.4428 7.34691 41.3929C7.98239 41.1308 8.62931 40.8927 9.31367 40.6295C9.24295 40.3789 9.1795 40.1553 9.11606 39.9296C9.452 39.8943 9.86074 40.6784 9.97931 41.5447C9.93979 41.5749 9.90027 41.6061 9.86074 41.6362C9.71722 41.4303 9.57369 41.2234 9.40936 40.9863C8.68235 41.2566 7.92831 41.5374 7.17426 41.8172C7.13266 41.7756 7.0921 41.7329 7.05153 41.6893Z" fill="#18222D"/>
<path d="M37.7386 59.2876C37.2841 59.0692 37.4963 58.57 37.3923 58.2122C37.2727 57.8025 37.2311 57.3699 37.152 56.9258C36.8806 56.8988 36.6153 56.8717 36.3501 56.8457C36.3532 56.7781 36.3553 56.7105 36.3584 56.6429C36.8733 56.5566 37.3881 56.463 37.905 56.3923C37.9893 56.3809 38.0881 56.4724 38.1796 56.5161C38.0954 56.5764 38.0184 56.6533 37.9258 56.6939C37.8041 56.7469 37.67 56.7719 37.5004 56.8208C37.6325 57.6319 37.7604 58.4223 37.8884 59.2116C37.8374 59.2366 37.7875 59.2626 37.7386 59.2876Z" fill="#18222D"/>
<path d="M56.4296 18.1091C55.9106 18.0571 55.3854 18.0332 54.8747 17.9333C54.726 17.9042 54.5273 17.664 54.5159 17.508C54.5013 17.3114 54.6084 17.0483 54.7551 16.9225C54.8341 16.8549 55.1295 16.9828 55.2897 17.0826C55.6943 17.3343 56.0791 17.6193 56.4712 17.8907C56.4587 17.9645 56.4441 18.0363 56.4296 18.1091Z" fill="#18222D"/>
<path d="M16.2987 7.45984C15.5967 8.29493 15.5988 9.55433 14.6502 10.2251C14.8853 9.10923 15.164 8.02038 16.2987 7.45984Z" fill="#18222D"/>
<path d="M50.2329 13.5218C50.6146 14.0355 50.4887 14.5878 50.4388 15.1223C50.4326 15.1878 50.2859 15.2991 50.2173 15.2908C49.7399 15.2315 49.2646 15.1462 48.7893 15.0682C48.7976 15.0225 48.8059 14.9767 48.8142 14.931C49.145 14.8093 49.5527 14.7666 49.7857 14.543C50.0166 14.3205 50.0717 13.9159 50.2329 13.5218Z" fill="#18222D"/>
<path d="M38.9721 4.42418C38.892 4.029 38.9576 3.77004 39.4412 3.66085C39.955 3.54541 40.2181 3.82308 40.4833 4.14235C40.526 4.19331 40.501 4.38466 40.4532 4.41066C40.267 4.51154 40.0569 4.63738 39.8603 4.63114C39.5754 4.62282 39.2935 4.5053 38.9721 4.42418Z" fill="#18222D"/>
<path d="M8.82588 15.5716C8.45458 16.3911 8.10304 17.1669 7.73589 17.9791C7.73589 17.4342 7.72549 16.9204 7.73901 16.4067C7.74942 15.9938 8.34641 15.5445 8.82588 15.5716Z" fill="#18222D"/>
<path d="M17.3482 11.3836C18.0117 11.8859 17.9868 11.887 17.6373 12.5723C17.5198 12.8042 17.5791 13.1266 17.5572 13.4074C17.6175 13.4282 17.6779 13.45 17.7392 13.4708C17.941 13.3107 18.1428 13.1505 18.3445 12.9904C18.3789 13.033 18.4121 13.0757 18.4465 13.1183C18.3477 13.4386 18.0668 13.6175 17.7517 13.5748C17.5811 13.552 17.448 13.2608 17.2556 13.0985C17.1058 12.9103 16.9259 12.7366 16.8281 12.5245C16.8052 12.4756 17.0465 12.2645 17.1974 12.1896C17.3211 12.1282 17.4896 12.1605 17.6394 12.1511C17.5978 11.9806 17.5676 11.8059 17.5114 11.6395C17.4792 11.5469 17.4043 11.4689 17.3482 11.3836Z" fill="#18222D"/>
<path d="M27.1102 4.70289C27.0551 5.02424 27.0083 5.29879 26.9323 5.74078C26.716 5.32999 26.5725 5.05856 26.3863 4.70601C26.0452 5.02736 25.7311 5.32375 25.417 5.62014C25.4711 5.05024 25.8476 4.71433 26.248 4.4117C26.6588 4.09971 26.846 4.52714 27.1102 4.70289Z" fill="#18222D"/>
<path d="M50.0405 53.7934C49.4924 53.0509 48.9443 52.3094 48.4055 51.5596C48.3941 51.5429 48.5022 51.44 48.5792 51.3495C49.146 52.0567 49.6796 52.7098 50.1934 53.3785C50.2558 53.4596 50.2131 53.6218 50.2183 53.7466C50.159 53.7622 50.0998 53.7778 50.0405 53.7934Z" fill="#18222D"/>
<path d="M25.2183 58.6719C25.0946 58.4379 24.976 58.3194 24.9978 58.2393C25.2079 57.476 25.4367 56.7168 25.677 55.9618C25.702 55.8827 25.8372 55.839 25.9214 55.7787C25.9516 55.8661 26.0244 55.9649 26.0036 56.0377C25.7664 56.8624 25.5158 57.6839 25.2183 58.6719Z" fill="#18222D"/>
<path d="M36.0516 59.5049C35.7001 59.3801 35.4161 57.9512 35.4775 56.956C35.4837 56.8572 35.5971 56.7646 35.6606 56.67C35.7032 56.6866 35.7458 56.7043 35.7885 56.7209C35.8748 57.6361 35.9611 58.5513 36.0516 59.5049Z" fill="#18222D"/>
<path d="M10.8727 19.4912C11.3636 19.2572 11.7786 19.0586 12.2456 18.836C12.3673 19.3893 12.0823 19.6524 11.7869 19.8105C11.477 19.9769 11.1785 19.799 10.8727 19.4912Z" fill="#18222D"/>
<path d="M24.4778 7.81863C24.5256 8.59236 24.5735 9.36714 24.6213 10.1409C24.5475 10.145 24.4747 10.1492 24.4008 10.1534C23.9505 9.40666 24.3322 8.60588 24.2656 7.83319C24.3363 7.82903 24.4071 7.82383 24.4778 7.81863Z" fill="#18222D"/>
<path d="M16.0533 15.4863C15.3346 14.8561 15.0091 14.0355 14.5348 13.3232C15.3991 14.0948 16.1282 15.0911 16.0533 15.4863Z" fill="#18222D"/>
<path d="M23.1299 19.2354C25.573 19.0835 27.7426 20.501 28.2688 22.6236C28.6225 24.0515 28.3312 25.4523 27.8518 26.8032C27.5054 27.7797 27.0509 28.7178 26.6692 29.6829C25.7664 31.9666 25.2703 34.3149 25.5647 36.7879C25.7436 38.2907 26.2251 39.678 27.0707 40.9384C27.1466 41.0507 27.1206 41.2327 27.1414 41.3814C27.0052 41.3534 26.8689 41.3263 26.7327 41.2962C26.2012 41.1786 25.6687 41.0601 25.0862 40.9301C25.0675 40.5692 25.1642 40.0711 24.4549 39.8766C24.3124 40.1137 24.1419 40.3966 23.9515 40.7127C23.5989 40.5349 23.0342 40.824 22.693 40.3176C22.665 40.2749 22.5308 40.3103 22.4466 40.2978C22.1949 40.2614 21.9432 40.2198 21.6925 40.1772C21.6426 40.1688 21.5854 40.12 21.5469 40.1335C20.8095 40.3997 20.7263 39.7893 20.5391 39.3629C19.0476 35.9539 19.1204 32.4793 20.2707 29.0214C20.7648 27.5374 21.5386 26.148 22.1501 24.7004C22.6057 23.6219 23.082 22.5414 23.4076 21.4203C23.6811 20.4761 23.549 20.1329 23.1299 19.2354ZM22.8907 30.1134C23.1361 30.1134 23.3753 30.1134 23.5865 30.1134C23.6717 29.8721 23.7529 29.6423 23.8246 29.4395C23.6249 29.2929 23.4097 29.1348 23.2443 29.0142C23.0279 29.1598 22.8189 29.3012 22.6275 29.4302C22.7107 29.6444 22.8023 29.8825 22.8907 30.1134ZM23.3212 33.6285C23.1372 33.4933 22.951 33.356 22.7711 33.2239C22.5828 33.3487 22.38 33.4839 22.1949 33.6067C22.2677 33.8323 22.3415 34.0642 22.4143 34.292C22.6348 34.2743 22.8792 34.2546 23.081 34.2379C23.1673 34.0206 23.2453 33.8219 23.3212 33.6285ZM22.9291 37.9828C23.159 37.9828 23.3732 37.9828 23.5646 37.9828C23.6291 37.7717 23.6863 37.5856 23.7373 37.4192C23.5511 37.2736 23.3826 37.1425 23.2193 37.0146C23.0498 37.1613 22.8979 37.2933 22.7367 37.4317C22.8012 37.6178 22.8678 37.8071 22.9291 37.9828Z" fill="#18222D"/>
<path d="M50.0353 25.8922C48.7914 25.9723 47.6556 26.0191 46.524 26.1231C42.707 26.4746 38.9919 27.2431 35.517 28.9351C33.698 29.8212 32.037 30.9402 30.6495 32.4294C30.297 32.808 30.0047 33.2416 29.6656 33.6337C29.4878 33.8406 29.155 34.2067 29.0905 34.1672C28.7691 33.9769 28.4061 33.7221 28.2615 33.3997C28.0671 32.9681 27.8372 32.6665 27.2454 32.497C27.3754 32.0633 27.4409 31.6047 27.6406 31.2158C29.0697 28.4432 31.4348 26.6753 34.1337 25.2963C36.8972 23.884 39.8395 22.9876 42.8744 22.3802C43.0471 22.3459 43.2665 22.3719 43.4236 22.4509C45.5578 23.5252 47.6847 24.6151 49.8127 25.7019C49.8574 25.7258 49.8907 25.7684 50.0353 25.8922Z" fill="#18222D"/>
<path d="M35.309 29.6163C34.7131 30.0427 34.1171 30.4701 33.5211 30.8965C33.542 30.9267 33.5617 30.9568 33.5825 30.987C34.4572 30.4275 35.3319 29.868 36.2066 29.3085C36.2305 29.3449 36.2544 29.3802 36.2784 29.4166C35.7521 29.765 35.2258 30.1134 34.6995 30.4628C34.7068 30.4732 34.7141 30.4836 34.7214 30.494C36.5405 29.6329 38.3585 28.7719 40.1776 27.9118C40.1942 27.9492 40.2119 27.9877 40.2285 28.0252C39.1156 28.6315 37.9778 29.1993 36.8951 29.8555C35.4962 30.7041 34.1701 31.6796 33.3339 33.1252C32.9439 33.799 32.6049 34.5728 32.5102 35.334C32.298 37.0281 33.4494 38.0733 35.4359 38.3063C35.88 38.3583 36.3356 38.3135 36.789 38.3541C36.5685 38.3801 36.3439 38.4498 36.1296 38.4259C35.4557 38.351 35.076 38.6817 34.8004 39.2526C34.5394 39.7934 34.2065 40.2999 33.9486 40.8417C33.7333 41.2941 34.1067 41.4917 34.426 41.5874C34.8171 41.7038 35.2404 41.7121 35.7136 41.7756C34.4146 41.8588 33.1925 41.8536 31.9767 41.5083C29.4826 40.798 28.6797 38.8512 29.103 36.6111C29.6303 33.8157 31.4535 31.9375 33.7198 30.4181C34.1639 30.1207 34.6507 29.8857 35.1187 29.6246C35.1738 29.5945 35.2404 29.5851 35.3017 29.5653C35.3038 29.5799 35.3069 29.5976 35.309 29.6163Z" fill="#18222D"/>
<path d="M31.9746 16.2559C33.492 16.258 34.7068 17.5277 34.7183 19.121C34.7276 20.5468 33.4775 21.7916 32.0276 21.7999C30.5362 21.8082 29.3006 20.5696 29.286 19.0513C29.2694 17.5392 30.506 16.2538 31.9746 16.2559ZM32.947 17.5381C32.5789 17.5454 32.0276 18.1517 32.037 18.5386C32.0443 18.8537 32.6818 19.4423 33.0084 19.435C33.3547 19.4278 33.933 18.7435 33.9216 18.3556C33.9091 17.9458 33.4119 17.5288 32.947 17.5381Z" fill="#18222D"/>
<path d="M49.7451 24.2719C49.2459 24.508 48.8319 24.4154 48.3899 24.1866C46.8392 23.3807 45.2791 22.5903 43.7034 21.8353C43.3882 21.6845 42.968 21.6221 42.6238 21.6814C39.5525 22.2097 36.6018 23.1196 33.8332 24.5735C33.6803 24.6536 33.5222 24.7253 33.3641 24.795C33.3381 24.8065 33.3017 24.7909 33.1207 24.7732C33.7676 24.3998 34.2991 24.066 34.8545 23.779C37.4089 22.4582 40.1256 21.6013 42.9337 21.0252C43.1844 20.9732 43.5037 20.9908 43.7263 21.1042C45.6389 22.0755 47.5381 23.076 49.4393 24.0702C49.5402 24.1222 49.6307 24.196 49.7451 24.2719Z" fill="#18222D"/>
<path d="M49.4393 22.7567C49.0275 22.947 48.6759 22.9813 48.2838 22.7702C46.8371 21.9923 45.3862 21.2207 43.9176 20.4854C43.6368 20.345 43.2499 20.2868 42.9431 20.3461C40.4729 20.8224 38.087 21.5774 35.7781 22.5778C35.3038 22.7827 34.8202 22.9647 34.2908 23.076C34.7318 22.8253 35.1634 22.5591 35.6138 22.3282C38.0465 21.0792 40.6206 20.2379 43.2915 19.6794C43.4621 19.6441 43.6815 19.6711 43.8355 19.7512C45.6327 20.682 47.4216 21.6283 49.2115 22.5726C49.2823 22.6132 49.3416 22.6787 49.4393 22.7567Z" fill="#18222D"/>
<path d="M34.8972 48.5218C35.4442 48.9628 35.543 49.4173 35.1853 49.7854C34.7817 50.1993 33.7988 50.1858 33.4379 49.7615C33.1093 49.3757 33.2206 48.9659 33.7375 48.5811C33.5971 48.3482 33.4088 48.135 33.3402 47.8875C33.3017 47.7481 33.4203 47.5162 33.5378 47.3904C33.8977 47.0077 34.8784 47.0409 35.204 47.4195C35.5046 47.7689 35.4213 48.0986 34.8972 48.5218ZM34.2305 49.8C34.2991 49.802 34.3688 49.8041 34.4374 49.8072C34.5539 49.6159 34.7682 49.4193 34.7588 49.2353C34.7505 49.073 34.4905 48.9243 34.3418 48.7704C34.1878 48.9368 33.9424 49.0876 33.9101 49.2758C33.8841 49.4266 34.114 49.6232 34.2305 49.8ZM34.3054 47.3321C34.1109 47.6015 33.8841 47.7855 33.9133 47.9083C33.9497 48.0611 34.1993 48.2639 34.3532 48.2608C34.4999 48.2577 34.7453 48.0268 34.7567 47.8812C34.7671 47.7439 34.5279 47.5869 34.3054 47.3321Z" fill="#18222D"/>
<path d="M30.5039 49.358C30.7473 49.4048 30.9304 49.4214 31.0999 49.4765C31.2767 49.5348 31.5533 49.7324 31.5898 49.6908C31.7499 49.514 31.8446 49.2758 31.9465 49.0522C31.9694 49.0013 31.9299 48.9222 31.9153 48.8328C31.4223 48.9545 30.9366 49.0543 30.5923 48.5707C30.3594 48.2421 30.3531 47.8906 30.5788 47.5547C30.8419 47.1605 31.2632 47.0347 31.6709 47.1512C31.9621 47.2344 32.374 47.486 32.4187 47.7211C32.5237 48.2795 32.5175 48.8869 32.4135 49.4474C32.3209 49.9435 31.8602 50.139 31.3641 50.0922C30.973 50.0548 30.5497 50.0069 30.5039 49.358ZM32.1451 48.0476C31.8518 47.8011 31.6969 47.5713 31.5013 47.5287C31.1644 47.4559 31.025 47.7543 31.0843 48.0185C31.13 48.2234 31.3453 48.3908 31.4847 48.5749C31.6626 48.4324 31.8425 48.2889 32.1451 48.0476Z" fill="#18222D"/>
<path d="M36.088 47.979C36.1588 47.3124 36.4978 47.1595 36.9242 47.1345C37.3933 47.1064 37.8946 47.1626 38.0329 47.6743C38.1026 47.9311 37.8759 48.2681 37.8 48.5146C37.8728 48.8671 38.0943 49.28 37.9913 49.5826C37.8208 50.0797 37.281 50.1328 36.7994 50.0776C36.3969 50.0319 36.0755 49.8509 36.0516 49.2145C36.3262 49.3393 36.5301 49.4308 36.7339 49.5244C36.8795 49.5909 37.0449 49.7355 37.1645 49.7032C37.2914 49.6689 37.4401 49.4776 37.4588 49.3382C37.4776 49.1999 37.3725 49.02 37.2737 48.8983C37.2092 48.8182 37.0522 48.8203 36.9492 48.7621C36.8743 48.7194 36.8223 48.6373 36.7599 48.5738C36.8254 48.5125 36.8826 48.4366 36.9575 48.3939C37.0449 48.344 37.2071 48.3492 37.2342 48.2868C37.3195 48.0934 37.3559 47.8781 37.411 47.6722C37.203 47.6691 36.9866 47.6275 36.7901 47.6722C36.5748 47.7169 36.3792 47.8448 36.088 47.979Z" fill="#18222D"/>
<path d="M29.2891 50.0111C29.0655 50.0111 28.8845 50.0111 28.6516 50.0111C28.6516 49.2852 28.6516 48.5697 28.6516 47.8011C28.3916 47.9093 28.1929 47.9925 27.8798 48.1225C27.9527 47.8771 27.9537 47.6285 28.0546 47.5776C28.3936 47.406 28.7681 47.2988 29.1342 47.1876C29.1602 47.1792 29.2808 47.3321 29.2819 47.4112C29.2933 48.2671 29.2891 49.124 29.2891 50.0111Z" fill="#18222D"/>
</svg>
