<svg width="64" height="64" viewBox="0 0 64 64" fill="none" xmlns="http://www.w3.org/2000/svg">
<path d="M54.8296 9.57907C51.581 6.27988 47.7657 3.75519 43.3969 2.07779C40.1778 0.841223 36.8438 0.126382 33.3434 0.00808428C33.3434 1.00098 33.3596 1.92511 33.3352 2.84824C33.3261 3.21223 33.4784 3.29008 33.8044 3.32143C34.7458 3.4104 35.6902 3.50241 36.6235 3.65205C41.3436 4.41239 45.5935 6.27583 49.3793 9.1716C50.4883 10.0199 51.5109 10.9804 52.5823 11.8985C53.3002 11.1574 54.0365 10.397 54.8296 9.57907Z" fill="white"/>
<path d="M11.458 11.9319C16.7651 6.63781 23.1537 3.76025 30.6309 3.26279C30.6309 2.15767 30.6309 1.10512 30.6309 0C26.0855 0.192107 21.8203 1.30835 17.7877 3.31435C14.5421 4.92907 11.655 7.03517 9.1406 9.60435C9.93372 10.4001 10.6811 11.1513 11.458 11.9319Z" fill="white"/>
<path d="M59.3202 31.7037C59.2664 16.8892 46.9289 4.72887 31.9826 4.74909C16.7133 4.77032 4.38596 17.2896 4.67437 32.4884C4.95059 47.0481 16.9255 59.1781 32.0354 59.1619C47.2021 59.1458 59.3761 46.8752 59.3202 31.7037Z" fill="white"/>
<path d="M25.0476 59.808C24.7988 59.7281 24.6099 59.6624 24.418 59.6068C20.4575 58.4521 16.8331 56.6605 13.6495 54.0185C13.4616 53.8628 13.1661 53.7678 12.9183 53.7627C11.6327 53.7354 10.346 53.7455 9.05936 53.7465C8.95171 53.7465 8.84407 53.7738 8.65011 53.8001C8.86844 54.0296 9.01772 54.2106 9.19036 54.3653C10.1835 55.2551 11.1391 56.1934 12.1871 57.0134C15.3159 59.4612 18.7728 61.3135 22.5789 62.4965C22.7211 62.541 22.9821 62.5137 23.0582 62.4187C23.7254 61.5764 24.3652 60.7119 25.0476 59.808Z" fill="white"/>
<path d="M38.953 59.8171C39.6355 60.721 40.2844 61.5956 40.9597 62.451C41.0257 62.5349 41.2694 62.543 41.4035 62.5006C46.673 60.8181 51.2428 58.0063 55.1038 54.0569C55.1759 53.9831 55.2155 53.878 55.2917 53.7516C53.7928 53.7516 52.3558 53.7415 50.9199 53.7627C50.7239 53.7657 50.4974 53.884 50.341 54.0155C47.7098 56.2217 44.7334 57.8152 41.5152 58.982C40.6936 59.2802 39.8518 59.5259 38.953 59.8171Z" fill="white"/>
<path d="M59.8422 24.9749C60.7358 24.4643 61.5726 23.9649 62.4317 23.5058C62.7394 23.342 62.7729 23.1803 62.6795 22.8668C61.532 19.0125 59.7 15.5101 57.2455 12.3252C57.1267 12.1715 56.9926 12.03 56.8901 11.9106C56.0858 12.7054 55.3242 13.4596 54.5432 14.2321C57.0515 17.4201 58.8084 20.9902 59.8422 24.9749Z" fill="white"/>
<path d="M4.01327 24.8941C4.76983 22.9973 5.39742 21.0863 6.28091 19.2997C7.16441 17.5131 8.30483 15.8529 9.32136 14.1543C8.6298 13.4687 7.86105 12.7064 7.02122 11.8732C6.23115 13.0431 5.39843 14.2068 4.63883 15.4161C3.16735 17.7568 2.08075 20.2744 1.31403 22.9265C1.27544 23.061 1.27951 23.3127 1.35567 23.3582C2.26049 23.9042 3.18359 24.4209 4.01327 24.8941Z" fill="white"/>
<path d="M59.8716 39.1707C60.9024 38.8997 61.9413 38.6145 62.9872 38.3608C63.3031 38.2839 63.4137 38.1302 63.4686 37.8188C63.9469 35.0656 64.1368 32.2983 63.8951 29.5107C63.8037 28.4592 63.6585 27.4127 63.5265 26.2712C62.4724 26.8717 61.5168 27.4036 60.5815 27.9698C60.483 28.0294 60.4627 28.2954 60.482 28.4561C60.7216 30.3863 60.8049 32.3235 60.5896 34.2557C60.4099 35.8755 60.1225 37.4831 59.8716 39.1707Z" fill="white"/>
<path d="M0.567632 26.3187C0.506701 26.441 0.472174 26.4845 0.464049 26.531C-0.18588 30.3368 -0.154399 34.1385 0.566616 37.9311C0.597082 38.0888 0.818464 38.2789 0.98907 38.3304C1.78117 38.5691 2.58647 38.7642 3.3867 38.9735C3.63753 39.0392 3.89039 39.0989 4.14021 39.1605C4.16357 39.0635 4.18286 39.0291 4.17677 39.0008C4.11178 38.7056 4.03967 38.4113 3.97468 38.1161C3.26281 34.8796 3.07798 31.6208 3.52582 28.3308C3.54207 28.2104 3.48114 28.0092 3.38975 27.9546C2.46563 27.4016 1.52831 26.8707 0.567632 26.3187Z" fill="white"/>
<path d="M10.3734 50.7911C8.21953 48.3089 6.60892 45.6568 5.40351 42.756C5.34766 42.6215 5.15268 42.5002 4.99933 42.4567C4.12091 42.209 3.2364 41.9845 2.3529 41.756C2.08582 41.6862 1.81671 41.6256 1.53948 41.5599C1.53034 41.664 1.51714 41.7004 1.52729 41.7297C2.53265 44.9207 4.03764 47.862 6.00165 50.5717C6.07273 50.6688 6.20678 50.782 6.31341 50.783C7.62545 50.7962 8.93851 50.7911 10.3734 50.7911Z" fill="white"/>
<path d="M62.5191 41.661C62.4795 41.6256 62.4399 41.5892 62.4013 41.5538C61.3116 41.8389 60.225 42.1392 59.1293 42.4021C58.7769 42.487 58.6033 42.664 58.4692 42.9916C57.4486 45.4647 56.1 47.7487 54.4153 49.8326C54.1776 50.1268 53.9431 50.4231 53.6425 50.7982C54.9565 50.7982 56.168 50.785 57.3785 50.8063C57.7269 50.8123 57.9249 50.6839 58.1189 50.4109C59.5152 48.4545 60.6627 46.3615 61.5858 44.1472C61.926 43.3313 62.2093 42.4911 62.5191 41.661Z" fill="white"/>
<path d="M38.7936 63.2872C38.0046 62.2488 37.3211 61.3388 36.6204 60.443C36.5595 60.3651 36.3797 60.3419 36.2599 60.352C35.4038 60.4278 34.5467 60.5097 33.6937 60.6149C33.5688 60.63 33.3606 60.7776 33.3586 60.8686C33.3342 61.8706 33.3434 62.8726 33.3434 63.999C35.1713 63.7604 36.9149 63.5329 38.7936 63.2872Z" fill="white"/>
<path d="M30.6502 63.9939C30.6502 62.8585 30.6593 61.8524 30.634 60.8474C30.6319 60.7645 30.4075 60.6341 30.2755 60.6179C29.5545 60.5259 28.8233 60.4966 28.1074 60.3773C27.626 60.2964 27.3295 60.4207 27.0512 60.8201C26.4957 61.6179 25.8874 62.3792 25.1999 63.2892C27.0827 63.5319 28.8304 63.7583 30.6502 63.9939Z" fill="white"/>
<path d="M54.8296 9.57907C54.0365 10.397 53.3002 11.1574 52.5833 11.8975C51.5109 10.9794 50.4893 10.0189 49.3804 9.17058C45.5955 6.27583 41.3446 4.41239 36.6245 3.65104C35.6912 3.50039 34.7468 3.40838 33.8054 3.32042C33.4794 3.29008 33.3271 3.21223 33.3362 2.84722C33.3596 1.9241 33.3444 0.999963 33.3444 0.0070722C36.8448 0.12537 40.1788 0.840211 43.398 2.07677C47.7657 3.75518 51.581 6.27887 54.8296 9.57907Z" fill="#18222D"/>
<path d="M11.458 11.9319C10.6811 11.1513 9.93372 10.4001 9.1406 9.60334C11.655 7.03416 14.5421 4.92805 17.7877 3.31334C21.8193 1.30835 26.0855 0.192107 30.6309 0C30.6309 1.10512 30.6309 2.15767 30.6309 3.26279C23.1537 3.76025 16.7651 6.63781 11.458 11.9319Z" fill="#18222D"/>
<path d="M59.3202 31.7037C59.375 46.8752 47.2021 59.1447 32.0354 59.1609C16.9255 59.1781 4.95059 47.0481 4.67437 32.4884C4.38596 17.2896 16.7133 4.77032 31.9826 4.74909C46.9289 4.72887 59.2664 16.8903 59.3202 31.7037ZM32.0323 5.1151C17.3906 5.08275 5.09784 16.8144 5.0237 31.8969C4.95059 46.7215 17.1977 58.8717 32.009 58.8111C46.8893 58.7504 58.9851 46.7235 58.9526 32.0212C58.9191 17.136 46.8588 5.08174 32.0323 5.1151Z" fill="#18222D"/>
<path d="M25.0476 59.808C24.3652 60.7119 23.7264 61.5764 23.0572 62.4176C22.981 62.5137 22.7211 62.54 22.5779 62.4955C18.7717 61.3125 15.3149 59.4602 12.1861 57.0124C11.1381 56.1924 10.1825 55.2541 9.18934 54.3643C9.01671 54.2096 8.86742 54.0286 8.64909 53.7991C8.84305 53.7728 8.9507 53.7455 9.05834 53.7455C10.345 53.7445 11.6317 53.7344 12.9173 53.7617C13.1651 53.7668 13.4606 53.8618 13.6485 54.0175C16.8321 56.6605 20.4565 58.4521 24.417 59.6058C24.6099 59.6624 24.7988 59.7281 25.0476 59.808Z" fill="#18222D"/>
<path d="M38.953 59.8171C39.8508 59.5259 40.6926 59.2802 41.5152 58.982C44.7334 57.8162 47.7098 56.2217 50.341 54.0155C50.4974 53.884 50.7239 53.7657 50.9199 53.7627C52.3558 53.7415 53.7928 53.7516 55.2917 53.7516C55.2155 53.878 55.1759 53.9831 55.1038 54.0569C51.2428 58.0063 46.673 60.8181 41.4035 62.5006C41.2705 62.543 41.0267 62.5349 40.9597 62.451C40.2854 61.5956 39.6355 60.721 38.953 59.8171Z" fill="#18222D"/>
<path d="M59.8422 24.9749C58.8084 20.9902 57.0515 17.4201 54.5442 14.2331C55.3252 13.4607 56.0868 12.7064 56.8911 11.9117C56.9937 12.031 57.1277 12.1725 57.2465 12.3262C59.701 15.5111 61.533 19.0125 62.6805 22.8678C62.774 23.1813 62.7394 23.342 62.4328 23.5068C61.5726 23.9649 60.7358 24.4643 59.8422 24.9749Z" fill="#18222D"/>
<path d="M4.01327 24.8941C3.18461 24.4209 2.26151 23.9042 1.35567 23.3592C1.27951 23.3137 1.27544 23.0609 1.31403 22.9275C2.08075 20.2744 3.16735 17.7578 4.63883 15.4171C5.39843 14.2078 6.23115 13.0441 7.02122 11.8742C7.86105 12.7074 8.63081 13.4697 9.32136 14.1553C8.30382 15.8539 7.16441 17.5151 6.28091 19.3007C5.39742 21.0863 4.76881 22.9973 4.01327 24.8941Z" fill="#18222D"/>
<path d="M59.8716 39.1707C60.1225 37.4841 60.4099 35.8765 60.5896 34.2567C60.8039 32.3246 60.7206 30.3873 60.482 28.4571C60.4617 28.2964 60.483 28.0305 60.5815 27.9708C61.5168 27.4046 62.4724 26.8728 63.5265 26.2722C63.6585 27.4137 63.8037 28.4602 63.8951 29.5117C64.1368 32.2993 63.9469 35.0666 63.4686 37.8198C63.4148 38.1302 63.3041 38.2849 62.9872 38.3618C61.9413 38.6145 60.9024 38.8997 59.8716 39.1707Z" fill="#18222D"/>
<path d="M0.567632 26.3187C1.52831 26.8707 2.46563 27.4016 3.38975 27.9546C3.48114 28.0092 3.54207 28.2104 3.52582 28.3308C3.07798 31.6208 3.26281 34.8796 3.97468 38.1161C4.03967 38.4113 4.11178 38.7056 4.17677 39.0008C4.18286 39.0291 4.16357 39.0635 4.14021 39.1605C3.89039 39.0989 3.63753 39.0392 3.3867 38.9735C2.58546 38.7642 1.78117 38.5691 0.98907 38.3304C0.818464 38.2789 0.597082 38.0888 0.566616 37.9311C-0.154399 34.1385 -0.18588 30.3368 0.464049 26.531C0.472174 26.4845 0.506701 26.442 0.567632 26.3187Z" fill="#18222D"/>
<path d="M10.3734 50.7911C8.9375 50.7911 7.62546 50.7962 6.3124 50.782C6.20678 50.781 6.07172 50.6678 6.00063 50.5707C4.03663 47.861 2.53164 44.9197 1.52628 41.7287C1.51714 41.6994 1.53034 41.663 1.53846 41.5588C1.8157 41.6256 2.08481 41.6862 2.35189 41.755C3.23539 41.9845 4.1199 42.208 4.99832 42.4557C5.15268 42.4992 5.34664 42.6205 5.40249 42.755C6.60893 45.6568 8.21953 48.3089 10.3734 50.7911Z" fill="#18222D"/>
<path d="M62.5191 41.661C62.2093 42.4911 61.926 43.3313 61.5858 44.1483C60.6637 46.3625 59.5152 48.4545 58.1189 50.412C57.9249 50.6839 57.7269 50.8134 57.3785 50.8073C56.168 50.785 54.9565 50.7992 53.6425 50.7992C53.942 50.4241 54.1776 50.1278 54.4153 49.8336C56.101 47.7498 57.4486 45.4657 58.4692 42.9926C58.6043 42.666 58.7769 42.488 59.1293 42.4031C60.225 42.1402 61.3116 41.8399 62.4013 41.5548C62.4399 41.5892 62.4795 41.6256 62.5191 41.661Z" fill="#18222D"/>
<path d="M38.7936 63.2872C36.9149 63.5329 35.1713 63.7614 33.3434 64C33.3434 62.8736 33.3342 61.8706 33.3586 60.8697C33.3606 60.7787 33.5678 60.6311 33.6937 60.6159C34.5467 60.5107 35.4028 60.4288 36.2599 60.353C36.3797 60.3429 36.5595 60.3651 36.6204 60.444C37.3211 61.3388 38.0046 62.2478 38.7936 63.2872Z" fill="#18222D"/>
<path d="M30.6502 63.9939C28.8304 63.7583 27.0827 63.5319 25.1999 63.2882C25.8874 62.3782 26.4957 61.6169 27.0512 60.8191C27.3295 60.4197 27.626 60.2954 28.1074 60.3763C28.8233 60.4956 29.5535 60.5249 30.2755 60.6169C30.4085 60.6341 30.6319 60.7645 30.634 60.8464C30.6593 61.8525 30.6502 62.8585 30.6502 63.9939Z" fill="#18222D"/>
<path d="M32.0323 5.1151C46.8588 5.08174 58.9191 17.136 58.9516 32.0212C58.9841 46.7235 46.8893 58.7494 32.0079 58.8111C17.1967 58.8717 4.94957 46.7215 5.02269 31.8979C5.09784 16.8144 17.3906 5.08275 32.0323 5.1151ZM6.23115 31.8827C6.14889 45.86 17.6394 57.4471 31.5957 57.619C45.8657 57.7949 57.7218 46.3636 57.7715 32.0273C57.8203 17.8771 46.283 6.34561 32.0455 6.28899C17.8801 6.23338 6.31544 17.6991 6.23115 31.8827Z" fill="white"/>
<path d="M6.23115 31.8827C6.31544 17.6991 17.8801 6.23338 32.0455 6.28899C46.283 6.34561 57.8203 17.8771 57.7715 32.0283C57.7218 46.3646 45.8657 57.7959 31.5956 57.62C17.6405 57.4471 6.14889 45.86 6.23115 31.8827ZM6.59978 31.9515C6.59775 45.9247 17.9674 57.2449 32.0262 57.2692C45.9327 57.2934 57.3938 45.8984 57.3999 32.0425C57.406 18.0035 46.0698 6.67825 31.9907 6.65803C18.005 6.63882 6.60181 17.9984 6.59978 31.9515Z" fill="#18222D"/>
<path d="M6.59978 31.9515C6.60181 17.9984 18.005 6.63882 31.9907 6.65803C46.0698 6.67825 57.406 18.0035 57.3999 32.0425C57.3938 45.8984 45.9327 57.2924 32.0262 57.2692C17.9664 57.2449 6.59775 45.9247 6.59978 31.9515ZM34.4076 54.608C34.2746 54.6565 34.1426 54.706 34.1121 54.7172C34.2533 55.068 34.3436 55.336 34.4675 55.5877C34.5447 55.7444 34.6727 55.8759 34.8707 56.1438C35.0961 55.4664 35.2667 54.9568 35.4363 54.4462C35.3957 54.431 35.3551 54.4159 35.3134 54.4007C35.152 54.7303 34.9905 55.0599 34.8087 55.431C34.6503 55.1075 34.5285 54.8577 34.4046 54.607C34.6067 54.335 34.8331 54.0751 34.9997 53.7829C35.0606 53.6768 35.0332 53.4412 34.9499 53.3542C34.8494 53.2481 33.8968 53.606 33.8298 53.7607C33.7953 53.8426 33.8338 53.9548 33.843 54.1368C34.1426 53.9245 34.365 53.7678 34.6767 53.5473C34.5681 53.976 34.4878 54.2915 34.4076 54.608ZM22.9587 44.4597C22.9973 44.397 23.0349 44.3333 23.0735 44.2706C22.8257 43.9753 22.5515 43.6973 22.3342 43.3818C21.0445 41.5042 20.4697 39.3961 20.4057 37.1454C20.3377 34.7219 20.8901 32.4236 22.0447 30.2953C23.1466 28.265 24.6871 26.6382 26.7994 25.6109C28.2719 24.8951 29.849 24.4664 31.4606 24.2854C34.9865 23.89 38.5275 23.6251 42.0544 23.2389C43.8163 23.0458 44.7466 22.5443 45.3386 20.7273C45.691 19.6465 45.6128 18.5363 45.5123 17.4241C45.4767 17.0359 45.3538 16.9115 44.9395 16.9701C41.0572 17.5111 37.1647 17.9863 33.2895 18.5778C31.7429 18.8144 30.2115 19.2228 28.7116 19.6778C26.842 20.2451 25.14 21.1854 23.5345 22.3026C21.0008 24.066 19.0754 26.3197 17.9898 29.2124C17.2546 31.1709 16.9733 33.2022 17.15 35.3133C17.4414 38.7915 18.786 41.6691 21.6802 43.7337C22.0772 44.0158 22.5312 44.219 22.9587 44.4597ZM32.4863 33.6622C32.3045 33.9686 32.014 33.8321 31.7236 33.645C31.5246 33.5166 31.3306 33.3832 31.1316 33.2548C30.1262 32.6056 29.0853 32.4944 28.0271 33.1061C27.0106 33.6946 26.5678 34.6713 26.3546 35.7582C26.0337 37.3932 26.3363 38.9755 26.8806 40.5205C27.169 41.3405 27.7793 41.7358 28.5044 41.5326C28.9005 41.4213 29.2833 41.2019 29.6215 40.9603C29.981 40.7035 29.9363 40.4952 29.5382 40.3C27.5559 39.3274 26.8827 37.2162 27.4331 35.2962C27.6656 34.4853 28.083 33.7765 28.8517 33.3397C29.6631 32.8786 30.4207 33.2335 31.1092 33.6006C31.747 33.9403 32.2547 34.3457 32.1176 35.3234C31.9541 36.4913 33.0357 37.3052 34.0908 36.9685C33.2195 36.7916 32.6802 36.3285 32.6051 35.4579C32.5868 35.2395 32.6711 35.013 32.7087 34.7896C32.9179 34.825 33.1423 34.8219 33.3322 34.9018C33.9405 35.1556 34.5112 35.1273 35.0758 34.7795C35.3419 34.6157 35.6283 34.4853 35.9989 34.2901C35.9187 35.2739 35.549 36.008 34.9976 36.6864C35.219 36.5408 35.3317 36.281 35.5287 36.1657C36.33 35.6955 36.5808 34.917 36.791 34.101C36.9383 33.5267 36.9677 32.9292 37.4552 32.4621C38.2727 31.6785 39.0191 30.817 40.1737 30.5086C40.8307 30.3327 41.436 30.452 41.9001 30.9495C42.9694 32.0971 43.074 33.4954 42.7673 34.9271C42.1306 37.8947 40.3738 40.1797 38.0878 42.0664C36.0923 43.7135 33.841 44.9379 31.3184 45.6234C31.0625 45.6932 30.8127 45.7822 30.5598 45.862C30.7446 45.9945 30.9325 46.0501 31.1184 46.043C34.1679 45.9268 37.0094 45.0562 39.6659 43.6002C42.8049 41.8794 45.1721 39.4527 46.4069 36.0342C46.9868 34.4276 47.0985 32.8443 46.412 31.2235C45.5194 29.1174 42.8729 27.4804 40.1544 29.1568C38.9673 29.8888 38.0624 30.906 37.2064 31.9747C36.9769 32.2619 36.8184 32.3185 36.5311 32.0192C35.609 31.0556 34.7752 31.0728 33.8206 32.0647C33.9181 32.0415 33.9821 32.0323 34.042 32.0121C34.9265 31.7128 35.5846 31.9353 35.939 32.6552C36.2457 33.278 35.9877 33.8584 35.1865 34.3447C34.5488 34.732 33.845 34.7744 33.1859 34.5186C32.9016 34.4094 32.7401 33.9888 32.4863 33.6622ZM20.0736 49.3372C19.8685 49.144 19.7253 49.0086 19.5141 48.8104C19.9 48.7143 20.2402 48.6436 20.5702 48.5414C20.6728 48.5101 20.751 48.3948 20.8393 48.318C20.75 48.2603 20.6657 48.1663 20.5702 48.1522C20.0878 48.0794 19.6024 48.0268 19.118 47.9671C19.0926 47.9975 19.0683 48.0278 19.0429 48.0581C19.2358 48.1977 19.4278 48.3362 19.5821 48.4474C18.5747 49.1653 17.2759 49.4797 16.3772 50.4382C16.7935 50.3381 17.1439 50.0732 17.5328 49.9913C17.8994 49.9135 18.3076 50.0287 18.5646 50.049C18.462 50.3523 18.2264 50.8518 18.2904 50.8932C18.659 51.1339 19.1018 51.3988 19.5151 51.3937C19.8837 51.3897 20.0137 50.7395 19.8025 50.1905C20.0889 50.2188 20.3438 50.2431 20.5997 50.2684C20.622 50.2259 20.6443 50.1824 20.6667 50.14C20.4626 50.0075 20.2595 49.8751 19.965 49.684C20.2381 49.7082 20.4087 49.7234 20.5824 49.7386C20.622 49.5343 20.6586 49.3453 20.7124 49.0642C20.4159 49.1906 20.1985 49.2836 20.0736 49.3372ZM40.0183 52.0509C39.995 52.0651 39.9726 52.0782 39.9493 52.0924C39.733 51.8083 39.5167 51.5242 39.3004 51.241C39.2516 51.2774 39.2029 51.3138 39.1551 51.3513C39.3664 51.7132 39.5776 52.0752 39.7837 52.4271C40.4012 52.3674 40.6398 51.508 41.3222 51.7607C41.4583 51.5555 41.5812 51.3674 41.7051 51.1804C41.7518 51.2077 41.7985 51.236 41.8452 51.2633C41.7863 51.4574 41.7264 51.6516 41.6675 51.8457C41.7071 51.8679 41.7467 51.8902 41.7863 51.9124C41.9762 51.6394 42.1672 51.3664 42.3571 51.0924C42.3195 51.0419 42.2809 50.9923 42.2433 50.9418C41.9783 50.9943 41.7122 51.0469 41.4248 51.1035C41.3466 50.8022 41.2958 50.4706 41.1689 50.1703C41.0897 49.9822 40.8957 49.8417 40.7525 49.6799C40.586 49.8619 40.4195 50.0429 40.2529 50.2249C40.2864 50.2502 40.3209 50.2755 40.3545 50.3017C40.4712 50.1925 40.588 50.0844 40.7678 49.9155C40.851 50.1258 40.912 50.2795 41.0389 50.598C40.6276 50.5525 40.2722 50.6121 40.1057 50.4635C39.9828 50.3543 40.1067 49.9711 40.1199 49.7052C40.0021 49.6991 39.8122 49.688 39.539 49.6728C39.6659 50.0277 39.7716 50.3392 39.8883 50.6465C39.997 50.9337 40.1168 51.2168 40.2326 51.5019C40.1666 51.5302 40.1016 51.5595 40.0356 51.5878C39.8843 51.3047 39.734 51.0206 39.5827 50.7375C39.5512 50.9893 39.607 51.2077 39.6944 51.4129C39.7858 51.6323 39.9086 51.8386 40.0183 52.0509ZM23.9316 51.4372C22.8226 51.7567 22.1412 52.5615 22.4174 53.334C22.7515 53.056 23.0369 52.6384 23.7 52.9346C23.4807 53.1924 23.3009 53.4038 23.1141 53.6232C23.5142 53.7304 23.958 53.8486 24.4221 53.973C24.3662 54.063 24.3276 54.1257 24.2606 54.2329C24.5023 54.248 24.7115 54.2612 25.0385 54.2804C24.8425 54.0488 24.743 53.9305 24.5937 53.7546C24.8821 53.7101 25.1004 53.698 25.3045 53.6373C25.465 53.5898 25.7361 53.4735 25.7321 53.4028C25.7209 53.2218 25.6153 52.9326 25.4873 52.8952C25.0456 52.7678 24.9572 52.4513 24.8933 52.0813C24.8851 52.0327 24.809 51.9953 24.7572 51.9468C24.4221 52.692 24.4221 52.692 23.8168 52.1187C23.7153 52.699 23.3233 52.6181 22.9496 52.5828C22.916 52.5362 22.8825 52.4907 22.849 52.4442C23.2207 52.0984 23.5934 51.7516 23.9316 51.4372ZM29.1726 55.3026C29.2356 55.2854 29.2996 55.2672 29.3625 55.25C29.3341 55.1125 29.3016 54.975 29.2793 54.8365C29.2498 54.6525 29.2001 54.4664 29.2072 54.2834C29.2275 53.8153 29.3118 53.3461 29.2935 52.88C29.2843 52.6637 29.1412 52.335 28.9756 52.2713C28.7481 52.1834 28.4415 52.2987 28.1693 52.327C28.1764 52.3917 28.1825 52.4554 28.1896 52.5201C28.4567 52.5201 28.7248 52.5201 29.0173 52.5201C28.9969 52.7516 28.9766 52.9174 28.9685 53.0833C28.9604 53.2511 28.9573 53.4199 28.9655 53.5878C28.9939 54.2137 28.9787 54.2258 28.2241 54.0397C28.4262 53.9063 28.5714 53.8112 28.7522 53.6909C28.5877 53.6009 28.4669 53.5342 28.2861 53.4351C28.4608 53.333 28.5786 53.2653 28.672 53.2107C28.4506 53.0398 28.2475 52.8831 28.0921 52.7637C28.0495 53.3431 28.0099 53.879 27.9652 54.4796C27.9469 54.4674 28.0464 54.5311 28.1754 54.614C27.9225 54.8486 27.7103 55.0468 27.4981 55.244C28.1449 55.3339 28.3277 54.7354 28.7217 54.4937C28.8863 54.7859 29.0294 55.0438 29.1726 55.3026ZM53.5145 31.1011C53.5135 31.1729 53.5135 31.2457 53.5125 31.3175C54.0812 31.4601 54.6499 31.6026 55.2185 31.7452C55.2135 31.7836 55.2094 31.822 55.2043 31.8605C54.659 31.8918 54.1147 31.9232 53.5693 31.9545C53.5744 32.001 53.5785 32.0475 53.5836 32.094C54.4011 32.094 55.2185 32.094 56.036 32.094C56.0523 32.0283 56.0675 31.9626 56.0838 31.8969C55.5232 31.4388 54.724 31.548 54.0375 31.176C54.6143 30.9849 55.1424 30.8261 55.6562 30.631C55.8055 30.5744 55.9142 30.4116 56.0949 30.2508C55.1464 30.2508 54.3462 30.2508 53.547 30.2508C53.548 30.3105 53.549 30.3691 53.5501 30.4288C54.0771 30.4288 54.6042 30.4288 55.1312 30.4288C55.1353 30.4682 55.1393 30.5076 55.1434 30.5471C54.6011 30.7321 54.0578 30.9171 53.5145 31.1011ZM31.0006 54.2794C30.963 54.0792 30.899 53.7314 30.836 53.3926C31.0869 53.3178 31.2443 53.2703 31.4007 53.2238C31.3986 53.1783 31.3976 53.1338 31.3956 53.0883C31.2331 53.0317 31.0706 52.9741 30.8624 52.9013C30.901 52.6495 30.967 52.3886 30.9701 52.1278C30.9711 52.0176 30.8381 51.9063 30.766 51.7961C30.701 51.8962 30.5812 51.9963 30.5801 52.0974C30.571 52.9983 30.5771 52.9983 29.7484 53.2208C29.7291 53.2258 29.721 53.2723 29.6773 53.3633C29.9861 53.3957 30.2704 53.425 30.5344 53.4533C30.7558 54.0266 30.2988 54.0155 29.9627 54.1055C30.5852 54.6221 30.6644 54.8608 30.4288 55.4826C30.2917 55.4492 30.1526 55.4158 30.0135 55.3825C29.9952 55.4391 29.9779 55.4957 29.9597 55.5523C30.1841 55.6312 30.4329 55.8051 30.6228 55.7556C30.7477 55.7232 30.8076 55.3724 30.8614 55.156C30.9213 54.9093 30.9427 54.6525 31.0006 54.2794ZM52.9387 27.0588C52.9814 27.1205 53.024 27.1811 53.0667 27.2428C53.8567 27.0355 54.6458 26.8273 55.4359 26.62C55.4176 26.5462 55.3993 26.4724 55.38 26.3986C54.8194 26.533 54.2599 26.6675 53.6993 26.801C53.6882 26.7737 53.678 26.7464 53.6668 26.7201C54.1624 26.2317 54.658 25.7424 55.1535 25.254C55.1109 25.1893 55.0693 25.1236 55.0266 25.0589C54.2335 25.2651 53.4404 25.4724 52.6473 25.6787C52.6645 25.7565 52.6818 25.8334 52.6991 25.9112C53.2596 25.7767 53.8202 25.6412 54.3807 25.5068C54.3939 25.5341 54.4071 25.5624 54.4193 25.5897C53.9268 26.078 53.4333 26.5684 52.9387 27.0588ZM17.9228 15.6193C17.9837 15.5769 18.0436 15.5334 18.1045 15.4909C17.9045 15.2048 17.7034 14.9186 17.5034 14.6325C17.7115 14.2614 18.0091 14.2685 18.3412 14.3878C18.6225 14.4889 18.9058 14.584 19.1881 14.682C19.2115 14.6143 19.2338 14.5466 19.2572 14.4788C18.8946 14.3251 18.5321 14.1704 18.1513 14.0087C18.332 13.6194 18.2711 13.2817 17.9116 13.033C17.5115 12.7559 17.2119 13.0097 16.9154 13.2422C16.7458 13.3757 16.5803 13.5152 16.366 13.6912C16.9012 14.3544 17.412 14.9864 17.9228 15.6193ZM48.3059 14.2766C48.243 14.2503 48.18 14.225 48.1171 14.1987C47.5199 14.7467 46.9533 15.3231 46.4262 15.9348C46.4953 16.0025 46.5633 16.0693 46.6324 16.137C46.999 15.7103 47.3666 15.2836 47.7332 14.8559C47.8215 15.6466 47.3554 16.2725 47.4356 16.8508C48.0246 16.321 48.6319 15.775 49.2392 15.228C49.2057 15.1906 49.1722 15.1522 49.1387 15.1148C48.7314 15.5091 48.3242 15.9034 47.916 16.2978C47.8875 16.2765 47.8591 16.2563 47.8307 16.2351C47.9891 15.5829 48.1475 14.9298 48.3059 14.2766ZM38.5753 11.4476C38.6504 11.4819 38.7266 11.5163 38.8017 11.5507C39.0038 11.0077 39.2069 10.4648 39.4446 9.82678C39.7594 10.5942 39.5624 11.3788 40.061 12.1341C40.391 11.2241 40.6693 10.4557 40.9485 9.68827C40.8754 9.65894 40.8023 9.62861 40.7302 9.59929C40.523 10.1443 40.3169 10.6892 40.0549 11.3778C39.8944 10.5345 39.7624 9.83892 39.6304 9.14228C39.5624 9.14126 39.4953 9.13924 39.4273 9.13823C39.144 9.90868 38.8596 10.6781 38.5753 11.4476ZM14.0598 20.0459C14.0719 19.9943 14.0841 19.9427 14.0973 19.8912C13.3997 19.4615 12.703 19.0328 12.0054 18.6031C11.9627 18.6678 11.9201 18.7325 11.8774 18.7972C12.3628 19.1116 12.8482 19.4261 13.4017 19.785C12.5964 19.9235 11.8733 19.604 11.1919 19.8335C11.1869 19.8881 11.1818 19.9427 11.1767 19.9973C11.8652 20.424 12.5537 20.8507 13.2423 21.2764C13.288 21.2056 13.3337 21.1348 13.3794 21.064C12.9031 20.7678 12.4268 20.4705 11.8459 20.1086C12.6736 19.9539 13.3854 20.2531 14.0598 20.0459ZM36.3107 8.3789C36.2406 8.36576 36.1705 8.3516 36.1005 8.33846C36.0009 8.89254 35.9014 9.44661 35.8019 10.0007C35.7684 10.0057 35.7339 10.0108 35.7004 10.0159C35.4444 9.37179 35.1885 8.72672 34.9326 8.08265C34.8626 8.09681 34.7915 8.11096 34.7214 8.12613C34.5995 8.93399 34.4787 9.74286 34.3568 10.5507C34.4289 10.5639 34.5021 10.577 34.5742 10.5912C34.6716 10.031 34.7691 9.47189 34.8839 8.81468C35.3368 9.51132 35.3216 10.2899 35.936 10.9349C36.0751 9.98148 36.1929 9.1807 36.3107 8.3789ZM7.89964 31.7503C7.923 31.821 7.94635 31.8918 7.97073 31.9626C8.78111 31.9626 9.59149 31.9626 10.4019 31.9626C10.4049 31.9161 10.408 31.8696 10.412 31.8241C9.85248 31.7937 9.29293 31.7634 8.58816 31.725C9.28582 31.2397 10.0068 31.0789 10.5014 30.5946C10.477 30.539 10.4526 30.4834 10.4283 30.4277C9.62195 30.4277 8.81462 30.4277 8.0083 30.4277C8.00627 30.4763 8.00322 30.5248 8.00119 30.5723C8.55871 30.6108 9.11724 30.6492 9.67476 30.6876C9.67679 30.72 9.67882 30.7523 9.68085 30.7857C9.08576 31.1072 8.4927 31.4287 7.89964 31.7503ZM49.878 15.9055C49.2199 16.4595 48.6086 16.9732 47.981 17.502C48.3659 17.96 48.5994 18.5373 49.2768 18.3948C49.8891 18.2653 50.3563 17.8811 50.5644 17.2907C50.7828 16.6739 50.2669 16.3564 49.878 15.9055ZM9.82302 28.1558C10.2028 28.0931 10.3826 28.2873 10.4161 28.6179C10.4557 28.9971 10.2719 29.2721 9.91645 29.4076C9.48689 29.5724 8.72424 29.3722 8.52723 29.0314C8.2114 28.4854 8.5648 28.174 9.05936 27.8869C8.62675 27.7423 8.39217 27.9091 8.24492 28.1841C8.03572 28.5734 8.0408 28.9789 8.38201 29.2974C8.81868 29.7038 9.35589 29.8353 9.93372 29.6886C10.5542 29.5309 10.8517 28.9485 10.6527 28.3459C10.543 28.0153 9.96926 27.6826 9.67679 27.8778C9.49603 27.9981 9.48384 28.3692 9.39651 28.627C9.46963 28.6503 9.54376 28.6745 9.61687 28.6978C9.68085 28.5309 9.74382 28.3641 9.82302 28.1558ZM10.1663 37.201C10.4618 37.3224 10.7177 37.3517 10.8456 37.4953C11.0944 37.7753 11.0843 38.1191 10.8304 38.4164C10.5298 38.7692 9.80779 38.9482 9.429 38.745C8.77705 38.3951 9.06139 37.9129 9.36706 37.3992C8.86641 37.5205 8.74556 37.8107 8.7608 38.1687C8.77908 38.5994 8.99944 38.9593 9.42697 39.0069C9.82912 39.0513 10.278 39.0069 10.6547 38.8653C11.2864 38.6287 11.4875 38.0028 11.196 37.4558C10.8995 36.8977 10.5065 36.8411 9.7885 37.2749C9.87583 37.5094 9.96418 37.746 10.0525 37.9816C10.1084 37.9654 10.1642 37.9493 10.2201 37.9321C10.2079 37.7622 10.1957 37.5923 10.1663 37.201ZM44.6816 50.1501C45.0878 49.9721 44.9913 49.7497 44.777 49.4929C44.6247 49.3099 44.515 49.0925 44.3729 48.9004C44.3089 48.8144 44.2165 48.7032 44.1291 48.6951C44.0428 48.687 43.9016 48.773 43.86 48.8559C43.726 49.1198 43.6254 49.4009 43.5523 49.5788C43.794 49.7396 44.0235 49.8245 44.1484 49.9883C44.4927 50.4423 44.7841 50.9337 45.1142 51.3988C45.2066 51.5292 45.3569 51.6172 45.4798 51.7254C45.5214 51.6819 45.563 51.6394 45.6047 51.5959C45.3102 51.1339 45.0147 50.6718 44.6816 50.1501ZM53.0941 24.98C53.478 24.7899 53.8882 24.6393 54.2365 24.3986C54.5656 24.1721 54.6671 23.797 54.531 23.4047C54.3939 23.0104 54.0649 22.7556 53.6811 22.8223C53.221 22.9022 52.7508 23.0802 52.3568 23.3289C52.0339 23.5321 51.9394 23.9275 52.1121 24.3228C52.2898 24.7323 52.6219 24.8819 53.0941 24.98ZM54.5158 29.5461C54.6214 29.5228 54.8763 29.4945 55.1119 29.4116C55.6105 29.2367 55.8908 28.806 55.8238 28.3732C55.7517 27.9061 55.4084 27.5987 54.8611 27.5694C54.596 27.5552 54.3158 27.5856 54.0598 27.6574C53.5054 27.8121 53.1814 28.2681 53.2515 28.7301C53.3287 29.2377 53.7501 29.5461 54.5158 29.5461ZM50.8193 19.324C51.06 19.6667 51.2641 19.9579 51.4683 20.2481C51.5332 20.2127 51.5982 20.1773 51.6642 20.1419C51.4804 19.8123 51.2976 19.4837 51.0976 19.1248C51.3281 18.9913 51.5231 18.8781 51.711 18.7689C51.9851 19.1217 52.2207 19.4241 52.4563 19.7264C52.5142 19.6809 52.5731 19.6344 52.631 19.5889C52.3731 19.1834 52.1141 18.777 51.8369 18.3422C51.0945 18.8204 50.4202 19.2532 49.7124 19.7092C50.0201 20.1702 50.2903 20.5747 50.5604 20.9781C50.6274 20.9407 50.6954 20.9033 50.7625 20.8669C50.5583 20.5039 50.3542 20.1409 50.1369 19.7537C50.3786 19.601 50.5746 19.4776 50.8193 19.324ZM28.3013 9.938C28.1825 9.59322 28.1033 9.22822 27.9347 8.91074C27.7377 8.53866 27.3803 8.36879 26.9497 8.46181C26.4927 8.5609 26.2429 8.89355 26.2388 9.32832C26.2358 9.68523 26.3109 10.0654 26.447 10.396C26.643 10.8712 27.1 11.0866 27.4991 10.9855C27.9418 10.8723 28.2282 10.4739 28.3013 9.938ZM43.9788 11.1432C43.5168 11.8844 43.0953 12.5608 42.678 13.2311C43.4853 13.8641 43.7899 14.0036 44.1332 13.8519C43.7605 13.6093 43.4203 13.3878 43.0557 13.1512C43.2162 12.8944 43.3451 12.6872 43.4843 12.4637C43.8468 12.6568 44.1647 12.8257 44.4825 12.9955C44.5181 12.9379 44.5546 12.8803 44.5902 12.8216C44.2855 12.5992 43.9809 12.3768 43.6569 12.1402C43.7991 11.9278 43.9169 11.7519 44.055 11.5466C44.2804 11.6771 44.4632 11.7934 44.6552 11.8914C44.8116 11.9713 44.9781 12.0279 45.1406 12.0957C45.169 12.03 45.1964 11.9642 45.2249 11.8985C44.8319 11.6589 44.4378 11.4213 43.9788 11.1432ZM16.5305 16.9711C16.8138 16.6527 17.2799 16.4019 17.4749 15.9196C17.4363 15.8812 17.3967 15.8428 17.3581 15.8033C17.0525 16.0723 16.7468 16.3423 16.4137 16.6365C16.2208 16.4282 16.0522 16.2472 15.8592 16.0399C16.0085 15.8822 16.1344 15.7508 16.2604 15.6173C16.3863 15.4838 16.5112 15.3504 16.6361 15.2169C16.5833 15.1613 16.5295 15.1047 16.4767 15.0491C16.2015 15.2968 15.9263 15.5445 15.6186 15.8205C15.4429 15.6335 15.2875 15.4687 15.1179 15.2877C15.4114 14.9722 15.6754 14.6871 15.9395 14.403C15.908 14.3747 15.8765 14.3464 15.845 14.318C15.5363 14.6891 15.2286 15.0602 14.9026 15.4525C15.3119 15.8347 15.8988 16.3827 16.5305 16.9711ZM53.937 36.1728C53.9167 36.1252 53.8963 36.0777 53.877 36.0302C53.5115 35.9736 53.2109 36.0979 53.0301 36.47C52.8514 36.8391 52.8605 37.2071 53.2231 37.4619C53.5663 37.7036 53.9258 37.6995 54.2162 37.3537C54.334 37.2132 54.396 37.0231 54.5219 36.8927C54.6377 36.7734 54.7981 36.6561 54.9535 36.6328C55.0327 36.6207 55.2267 36.8229 55.2216 36.92C55.2125 37.102 55.1241 37.2991 55.0124 37.4488C54.9383 37.5489 54.7666 37.5762 54.5828 37.6621C54.6925 37.7349 54.7443 37.7986 54.7941 37.7976C55.1921 37.7915 55.4054 37.563 55.4927 37.194C55.577 36.8371 55.4673 36.5509 55.1332 36.3952C54.7991 36.2385 54.5056 36.3315 54.2904 36.6338C54.2122 36.743 54.1685 36.8866 54.071 36.9705C53.9085 37.109 53.7267 37.2465 53.5287 37.3092C53.4719 37.3274 53.2322 37.0676 53.2515 36.9695C53.2962 36.745 53.4262 36.5256 53.5673 36.3386C53.6384 36.2456 53.81 36.2264 53.937 36.1728ZM19.2998 13.6922C19.4399 14.0319 19.7466 14.1199 20.1234 14.0198C20.5631 13.9025 20.82 13.5132 20.7388 13.1078C20.6616 12.7256 20.4169 12.5173 20.0249 12.5325C19.8269 12.5406 19.6309 12.6477 19.4339 12.6477C19.2551 12.6477 19.0581 12.5931 18.9078 12.5001C18.8621 12.4718 18.8966 12.1685 18.9779 12.1129C19.1373 12.0037 19.3526 11.9572 19.5517 11.9309C19.6532 11.9177 19.769 12.0037 19.8786 12.0451C19.7426 11.6103 19.4471 11.5436 19.1058 11.666C18.7555 11.7923 18.5382 12.0482 18.6062 12.4415C18.6682 12.8024 18.9038 13.0107 19.2805 12.9854C19.5141 12.9693 19.7446 12.851 19.9731 12.8601C20.1427 12.8671 20.4006 12.9703 20.4463 13.0936C20.4951 13.2261 20.3803 13.5486 20.2696 13.585C19.9832 13.6811 19.6603 13.6619 19.2998 13.6922ZM46.5054 50.96C46.5674 50.9782 46.6283 50.9953 46.6903 51.0135C46.7532 50.6758 46.8172 50.3392 46.8873 49.964C47.003 50.0085 47.1208 50.0176 47.1736 50.0803C47.5534 50.5414 47.8733 50.3028 48.1841 50.0035C48.3049 49.8872 48.4156 49.7568 48.507 49.6172C48.5761 49.5131 48.6177 49.3877 48.6451 49.2654C48.6492 49.2452 48.4776 49.1481 48.4562 49.1673C48.3679 49.2431 48.3181 49.3645 48.2308 49.4423C48.0165 49.6324 47.788 49.8083 47.5656 49.9903C47.3717 49.6759 46.7624 49.7558 46.8131 49.1966C46.8213 49.1097 46.7238 49.0136 46.675 48.9226C46.5836 48.9823 46.4496 49.0217 46.409 49.1056C46.2475 49.4403 46.1145 49.7881 45.9713 50.1319C45.9946 50.1592 46.017 50.1855 46.0403 50.2128C46.215 50.0601 46.3897 49.9064 46.675 49.6577C46.608 50.1683 46.5572 50.5646 46.5054 50.96ZM35.4282 55.3521C35.7004 55.6524 37.1089 55.6019 37.6766 55.2996C37.5151 54.9679 37.2724 55.0427 36.9941 55.1337C36.8865 55.1691 36.7372 55.0791 36.6072 55.0468C36.658 54.9184 36.6895 54.7788 36.7636 54.6656C36.856 54.523 36.9819 54.4017 37.0926 54.2723C36.9383 54.2005 36.7839 54.1287 36.6367 54.06C36.592 53.8527 36.5453 53.6383 36.4986 53.423C36.4366 53.4301 36.3736 53.4371 36.3117 53.4442C36.2995 53.6464 36.3351 53.8699 36.2589 54.0458C36.1949 54.1944 36.0009 54.2875 35.8263 54.4371C36.007 54.4583 36.1512 54.4765 36.3533 54.5008C36.2548 54.6939 36.1817 54.8345 36.1096 54.975C36.1482 54.9366 36.1868 54.8982 36.2254 54.8597C36.2924 54.9265 36.3594 54.9932 36.4265 55.0599C36.3868 55.1216 36.3462 55.1833 36.3066 55.245C36.0202 55.2793 35.7339 55.3147 35.4282 55.3521ZM10.738 20.7152C10.7065 20.7678 10.675 20.8204 10.6425 20.874C10.7522 20.9508 10.8548 21.0428 10.9726 21.1025C11.2874 21.2632 11.6134 21.4028 11.9282 21.5645C12.2704 21.7415 12.6228 21.9477 12.3892 22.4118C12.1699 22.8486 11.8053 22.7101 11.4712 22.5554C11.1198 22.3926 10.7786 22.2076 10.4273 22.0438C10.3298 21.9983 10.212 21.9983 10.1033 21.9781C10.0779 22.0499 10.0535 22.1206 10.0282 22.1924C10.6811 22.4563 11.3229 22.7566 11.9942 22.9568C12.1577 23.0053 12.5009 22.7677 12.6147 22.5756C12.7294 22.3815 12.7721 21.9973 12.6543 21.8406C12.178 21.2015 11.4032 21.0479 10.738 20.7152ZM10.4922 32.5642C10.4557 32.5258 10.4181 32.4873 10.3816 32.4489C9.63008 32.7593 8.87657 33.0677 8.12915 33.3872C8.07228 33.4115 8.00221 33.554 8.0215 33.5813C8.08142 33.6653 8.17383 33.7563 8.2703 33.7815C8.93851 33.9565 9.60977 34.1192 10.2831 34.277C10.3592 34.2952 10.4496 34.2537 10.5339 34.2396C10.54 34.1991 10.5471 34.1597 10.5532 34.1192C10.2993 34.0323 10.0454 33.9453 9.87989 33.8887C9.37518 33.1112 10.1145 32.9211 10.4922 32.5642ZM8.38912 36.5004C8.40841 36.5752 8.42771 36.65 8.447 36.7248C9.09592 36.5924 9.75397 36.4933 10.3897 36.3133C10.7654 36.2071 10.9056 35.827 10.7644 35.4923C10.6568 35.2375 10.3714 34.8786 10.1642 34.8776C9.494 34.8745 8.82376 35.0161 8.15352 35.102C8.15352 35.1637 8.15352 35.2254 8.15454 35.2881C8.24085 35.3073 8.33225 35.3518 8.41451 35.3396C8.81462 35.28 9.21067 35.193 9.61078 35.1384C9.98043 35.0879 10.3958 35.012 10.4933 35.5358C10.5897 36.0545 10.1947 36.1465 9.81795 36.2193C9.48689 36.283 9.15075 36.3214 8.81868 36.3811C8.67143 36.4073 8.53129 36.4599 8.38912 36.5004ZM46.0596 15.6173C46.1246 15.5091 46.2089 15.408 46.2516 15.2917C46.4262 14.8185 46.6029 14.3443 46.7481 13.862C46.8192 13.6244 46.8243 13.3666 46.8588 13.1189C46.6385 13.216 46.4008 13.2877 46.2008 13.4162C45.6737 13.7539 45.1619 14.1158 44.5536 14.5284C45.0685 14.7336 45.2899 14.0491 45.7936 14.4283C46.3216 14.8246 45.8626 15.1775 46.0596 15.6173ZM55.0754 35.5449C55.4602 35.6136 55.7212 35.465 55.8451 35.1415C55.9913 34.7603 55.8989 34.4114 55.5851 34.1364C55.184 33.7856 54.2843 33.6764 53.8019 33.916C53.3845 34.1233 53.2017 34.6804 53.417 35.0858C53.5836 35.4003 53.8121 35.5014 54.1055 35.3902C53.5643 34.83 53.4922 34.5813 53.7816 34.284C54.0944 33.9625 55.0896 33.9888 55.4328 34.3659C55.9274 34.9109 55.4409 35.2011 55.0754 35.5449ZM38.0249 11.3272C38.0817 11.3141 38.1396 11.2999 38.1965 11.2868C38.1285 10.4769 38.0909 9.66299 37.9751 8.86119C37.9335 8.57505 37.709 8.6974 37.5912 8.87636C37.3871 9.18575 37.1922 9.49919 36.9972 9.81465C36.7849 10.1574 36.5778 10.5022 36.3686 10.847C36.8631 10.8642 36.8052 10.1817 37.4247 10.3263C38.0553 10.4739 37.7608 11.0462 38.0249 11.3272ZM52.3365 22.4705C51.5485 22.3764 51.3301 22.2005 51.384 21.7617C51.4347 21.3502 52.2218 20.8133 52.7234 20.878C52.8778 20.8982 53.1225 20.9912 53.1479 21.0944C53.222 21.3997 53.2078 21.7273 53.2281 22.0458C53.4079 21.8759 53.6171 21.607 53.5592 21.4179C53.4739 21.1348 53.2535 20.8032 52.9976 20.6768C52.3985 20.3805 51.2763 20.9842 51.1088 21.6373C51.0052 22.0387 51.1352 22.3865 51.5038 22.5847C51.7526 22.7182 52.0512 22.8496 52.3365 22.4705ZM42.553 12.1907C41.5172 12.4667 41.3842 12.4526 41.241 12.0936C41.0927 11.7206 41.3883 10.9137 41.7924 10.668C42.551 10.208 42.6475 10.8965 42.8892 11.3626C43.0618 10.9845 43.0283 10.6832 42.7196 10.4537C42.3449 10.1746 41.9376 10.2009 41.5934 10.4779C41.1029 10.8723 40.8886 11.4213 40.9414 12.0441C40.9749 12.4425 41.2481 12.6851 41.633 12.7448C42.026 12.8055 42.3439 12.6629 42.553 12.1907ZM11.3026 26.07C11.2803 26.0113 11.2579 25.9517 11.2356 25.893C10.9502 25.9699 10.6537 26.0194 10.3836 26.1316C9.98348 26.2985 9.68491 26.2459 9.4219 25.8839C9.2848 25.6958 9.07967 25.5563 8.90602 25.3956C8.86743 25.4299 8.82884 25.4643 8.79025 25.4987C9.01366 25.7798 9.23606 26.0598 9.4676 26.352C9.08779 26.4976 8.76486 26.621 8.44193 26.7443C8.46427 26.8091 8.48661 26.8738 8.50996 26.9375C8.774 26.8657 9.05022 26.8222 9.298 26.715C9.6514 26.5613 9.90528 26.6422 10.1307 26.9334C10.3237 27.1811 10.5349 27.4157 10.737 27.6553C10.804 27.5987 10.87 27.5411 10.937 27.4845C10.672 27.166 10.4059 26.8475 10.1267 26.5128C10.544 26.3561 10.9228 26.2125 11.3026 26.07ZM41.5578 52.1824C41.4837 52.1247 41.4086 52.0671 41.3344 52.0085C41.1151 52.2471 40.8967 52.4867 40.6774 52.7253C40.715 52.7728 40.7536 52.8194 40.7911 52.8669C40.912 52.8325 41.0318 52.7981 41.11 52.7759C41.1912 53.0125 41.2623 53.2177 41.3162 53.3755C41.173 53.6222 41.0369 53.8567 40.8998 54.0913C40.9272 54.1045 40.9546 54.1176 40.9831 54.1307C41.1689 53.9235 41.3547 53.7162 41.5416 53.5089C41.6025 53.5453 41.6645 53.5807 41.7254 53.6171C41.6239 53.883 41.5223 54.1499 41.4207 54.4159C41.6381 54.3279 41.9143 54.1641 41.9255 53.9851C41.9549 53.4907 42.1215 53.1823 42.7348 53.1904C42.7033 53.1358 42.6729 53.0812 42.6414 53.0266C42.2189 53.0266 41.7965 53.0266 41.3294 53.0266C41.4228 52.6859 41.4908 52.4341 41.5578 52.1824ZM30.0267 9.3728C30.0267 9.31012 30.0267 9.24743 30.0257 9.18575C29.8591 9.17766 29.6905 9.14632 29.5281 9.16553C29.265 9.19688 29.0386 9.26462 28.9939 8.86322C28.9523 8.48102 29.1229 8.40115 29.4438 8.38497C29.658 8.37385 29.8683 8.30813 30.0815 8.26566C30.0663 8.18882 30.05 8.11299 30.0348 8.03614C29.589 8.09074 29.1432 8.14433 28.6649 8.20297C28.7685 9.05937 28.8639 9.84296 28.9594 10.6255C29.0305 10.6175 29.1015 10.6104 29.1736 10.6023C29.1533 10.2504 29.132 9.89857 29.1127 9.55783C29.4529 9.48908 29.7403 9.43145 30.0267 9.3728ZM13.0585 16.9307C13.1255 17.1491 13.1265 17.1997 13.1458 17.2077C13.8566 17.5161 14.5685 17.8245 15.2845 18.1197C15.3535 18.1481 15.5302 18.0975 15.5333 18.0702C15.5444 17.965 15.5343 17.8387 15.4805 17.7497C15.2134 17.3018 14.9331 16.8609 14.6518 16.4211C14.5167 16.2108 14.3715 16.0066 14.2304 15.8003C14.1725 15.8357 14.1156 15.8721 14.0577 15.9075C14.4304 16.5111 14.8021 17.1157 15.2479 17.8377C14.4619 17.5121 13.812 17.2421 13.0585 16.9307ZM31.8089 8.28892C32.1684 8.25656 32.4944 8.22825 32.8214 8.19893C32.8173 8.13927 32.8143 8.07861 32.8102 8.01895C32.3796 8.01895 31.9501 8.01895 31.5246 8.01895C31.5246 8.81165 31.5246 9.61142 31.5246 10.4102C31.5723 10.4142 31.62 10.4173 31.6678 10.4213C31.6992 10.0745 31.7297 9.7277 31.7632 9.36067C32.0861 9.33236 32.3847 9.30506 32.6843 9.27877C32.6863 9.22519 32.6894 9.17261 32.6914 9.11902C32.5624 9.09374 32.4334 9.05633 32.3035 9.04622C31.6485 8.99466 31.6485 8.99769 31.8089 8.28892ZM24.8262 9.12408C24.7541 9.10992 24.682 9.09678 24.6099 9.08262C24.5165 9.49211 24.4221 9.90262 24.3286 10.3121C23.8615 10.1867 23.7102 9.5912 23.173 9.67006C23.4614 10.0047 23.829 10.2535 24.093 10.5851C24.356 10.9147 24.5135 11.3283 24.7176 11.7044C24.7978 11.6933 24.878 11.6821 24.9572 11.672C24.3388 10.8257 24.6942 9.9744 24.8262 9.12408ZM22.845 12.5001C22.9526 12.4192 23.0044 12.3889 23.0003 12.3808C22.7373 11.7226 22.4692 11.0654 22.1961 10.395C22.39 10.2666 22.5687 10.1473 22.8165 9.9835C22.3108 9.90059 21.3735 10.3465 21.1948 10.7469C21.4578 10.665 21.666 10.6003 21.9066 10.5254C22.2214 11.1877 22.5291 11.8368 22.845 12.5001ZM36.3533 52.5565C36.3868 52.5807 36.4193 52.605 36.4529 52.6293C36.1299 53.0196 35.808 53.4098 35.4851 53.8011C35.9735 53.7577 36.8002 52.8618 36.9819 52.0722C36.461 52.242 36.0152 52.3876 35.5694 52.5332C35.5897 52.603 35.61 52.6717 35.6303 52.7415C35.871 52.6798 36.1116 52.6181 36.3533 52.5565ZM46.4455 47.3767C45.5163 47.5698 45.5549 48.6971 44.7364 48.8791C44.9334 49.1289 45.1071 49.3483 45.3396 49.6435C45.363 49.4706 45.3873 49.417 45.3731 49.3796C45.2462 49.0551 45.5864 48.0905 45.8921 48.1026C46.479 48.1279 46.3511 47.7538 46.4455 47.3767ZM12.6258 17.7254C12.5852 17.7841 12.5456 17.8427 12.505 17.9014C13.1783 18.3796 13.8516 18.8589 14.5249 19.3371C14.5665 19.2774 14.6081 19.2188 14.6498 19.1591C13.9856 18.6657 13.3763 18.0914 12.6258 17.7254ZM20.5804 10.8419C20.5042 10.8834 20.428 10.9248 20.3529 10.9663C20.7489 11.6902 21.145 12.4142 21.54 13.1371C21.6203 13.0926 21.7005 13.0491 21.7807 13.0046C21.3806 12.2847 20.9805 11.5628 20.5804 10.8419ZM9.1731 24.4593C9.15279 24.5119 9.13248 24.5644 9.11217 24.617C9.88599 24.8759 10.6598 25.1347 11.5027 25.4168C11.3605 25.0467 9.84537 24.4815 9.1731 24.4593ZM33.449 10.4708C33.5302 10.4749 33.6125 10.4799 33.6937 10.484C33.7485 9.67209 33.8034 8.86018 33.8582 8.04828C33.777 8.04322 33.6957 8.03817 33.6155 8.03311C33.5597 8.84501 33.5038 9.65793 33.449 10.4708ZM53.5531 32.9423C53.55 32.9868 53.548 33.0323 53.545 33.0768C54.3594 33.0768 55.1728 33.0768 55.9873 33.0768C55.9893 33.0323 55.9924 32.9868 55.9944 32.9423C55.181 32.9423 54.3665 32.9423 53.5531 32.9423ZM25.4904 51.3998C25.529 51.3149 25.5665 51.2309 25.6051 51.146C25.1116 50.8518 24.4505 51.0206 23.959 50.7183C24.2921 51.4018 24.9735 51.1895 25.4904 51.3998ZM46.4008 48.6001C46.346 48.5606 46.2901 48.5212 46.2353 48.4818C45.7834 48.5738 45.8921 49.0773 45.6433 49.319C45.7001 49.3594 45.758 49.4009 45.8149 49.4413C46.0099 49.1612 46.2059 48.8812 46.4008 48.6001ZM45.3498 48.0136C45.3762 47.7508 45.3975 47.5415 45.4188 47.3312C45.171 47.41 44.9233 47.4889 44.6806 47.5667C44.9222 47.7285 45.0736 47.8296 45.3498 48.0136ZM20.7175 46.9793C20.5194 47.2179 20.3732 47.3938 20.1863 47.6183C20.5103 47.6183 20.7561 47.6183 21.0841 47.6183C20.9429 47.3716 20.8434 47.1977 20.7175 46.9793ZM37.0804 53.976C37.2856 53.8577 37.4409 53.7688 37.5953 53.6788C37.4227 53.5382 37.249 53.3987 36.989 53.1874C37.0276 53.514 37.0469 53.6798 37.0804 53.976Z" fill="white"/>
<path d="M22.9587 44.4597C22.5312 44.22 22.0772 44.0168 21.6802 43.7337C18.786 41.6691 17.4414 38.7915 17.15 35.3133C16.9733 33.2012 17.2556 31.1699 17.9898 29.2124C19.0754 26.3187 21.0008 24.065 23.5345 22.3026C25.14 21.1854 26.841 20.2451 28.7116 19.6778C30.2115 19.2228 31.7429 18.8144 33.2895 18.5778C37.1647 17.9863 41.0572 17.5111 44.9395 16.9701C45.3549 16.9125 45.4777 17.0359 45.5123 17.4241C45.6128 18.5353 45.69 19.6465 45.3386 20.7273C44.7466 22.5443 43.8163 23.0468 42.0544 23.2389C38.5275 23.6251 34.9865 23.89 31.4606 24.2854C29.8479 24.4664 28.2719 24.8951 26.7994 25.6109C24.6881 26.6372 23.1466 28.264 22.0447 30.2953C20.8901 32.4247 20.3366 34.7219 20.4057 37.1454C20.4697 39.3951 21.0434 41.5032 22.3342 43.3818C22.5515 43.6983 22.8257 43.9753 23.0735 44.2706C23.0349 44.3333 22.9963 44.396 22.9587 44.4597Z" fill="#18222D"/>
<path d="M32.4863 33.6622C32.7401 33.9898 32.9016 34.4094 33.1839 34.5196C33.844 34.7754 34.5478 34.733 35.1845 34.3457C35.9857 33.8594 36.2437 33.278 35.937 32.6562C35.5826 31.9353 34.9245 31.7128 34.04 32.0131C33.9801 32.0334 33.9161 32.0435 33.8186 32.0657C34.7732 31.0738 35.6069 31.0567 36.529 32.0202C36.8154 32.3195 36.9738 32.2629 37.2043 31.9757C38.0604 30.907 38.9652 29.8899 40.1524 29.1578C42.8719 27.4814 45.5173 29.1184 46.41 31.2245C47.0965 32.8453 46.9848 34.4286 46.4049 36.0353C45.1711 39.4538 42.8039 41.8804 39.6639 43.6013C37.0073 45.0572 34.1659 45.9278 31.1163 46.044C30.9305 46.0511 30.7426 45.9955 30.5578 45.8631C30.8107 45.7832 31.0615 45.6942 31.3164 45.6244C33.8379 44.9389 36.0893 43.7145 38.0858 42.0674C40.3717 40.1807 42.1286 37.8957 42.7653 34.9281C43.072 33.4964 42.9684 32.0981 41.898 30.9505C41.434 30.453 40.8287 30.3337 40.1717 30.5097C39.017 30.818 38.2706 31.6795 37.4531 32.4631C36.9657 32.9302 36.9362 33.5288 36.789 34.1021C36.5788 34.918 36.328 35.6955 35.5267 36.1667C35.3297 36.282 35.218 36.5418 34.9956 36.6874C35.547 36.009 35.9167 35.2749 35.9969 34.2911C35.6272 34.4853 35.3399 34.6157 35.0738 34.7805C34.5102 35.1283 33.9395 35.1566 33.3302 34.9028C33.1403 34.824 32.9148 34.826 32.7066 34.7906C32.6691 35.013 32.5837 35.2405 32.603 35.4589C32.6772 36.3295 33.2164 36.7926 34.0887 36.9695C33.0336 37.3062 31.9521 36.4923 32.1156 35.3245C32.2527 34.3467 31.7439 33.9413 31.1072 33.6016C30.4187 33.2345 29.6611 32.8796 28.8497 33.3407C28.081 33.7775 27.6636 34.4863 27.431 35.2972C26.8806 37.2172 27.5539 39.3284 29.5362 40.301C29.9343 40.4962 29.9779 40.7045 29.6195 40.9613C29.2813 41.2029 28.8995 41.4224 28.5024 41.5336C27.7773 41.7368 27.167 41.3415 26.8786 40.5215C26.3353 38.9765 26.0327 37.3942 26.3526 35.7592C26.5658 34.6723 27.0086 33.6956 28.0251 33.1071C29.0833 32.4944 30.1242 32.6056 31.1295 33.2558C31.3276 33.3842 31.5225 33.5176 31.7216 33.6461C32.014 33.8321 32.3045 33.9686 32.4863 33.6622Z" fill="#18222D"/>
<path d="M20.0736 49.3372C20.1985 49.2836 20.4159 49.1906 20.7134 49.0642C20.6596 49.3453 20.623 49.5343 20.5834 49.7386C20.4098 49.7234 20.2392 49.7082 19.966 49.684C20.2605 49.8751 20.4646 50.0075 20.6677 50.14C20.6454 50.1824 20.623 50.2259 20.6007 50.2684C20.3448 50.2431 20.0899 50.2188 19.8035 50.1905C20.0157 50.7396 19.8858 51.3897 19.5161 51.3937C19.1018 51.3988 18.66 51.1329 18.2914 50.8932C18.2264 50.8508 18.463 50.3513 18.5656 50.049C18.3077 50.0288 17.9004 49.9145 17.5338 49.9913C17.1449 50.0732 16.7945 50.3381 16.3782 50.4382C17.2769 49.4807 18.5757 49.1653 19.5831 48.4474C19.4288 48.3362 19.2368 48.1967 19.0439 48.0581C19.0693 48.0278 19.0937 47.9975 19.119 47.9671C19.6034 48.0268 20.0889 48.0794 20.5712 48.1522C20.6677 48.1663 20.751 48.2604 20.8403 48.318C20.751 48.3948 20.6738 48.5091 20.5712 48.5414C20.2412 48.6436 19.902 48.7143 19.5151 48.8104C19.7243 49.0086 19.8685 49.144 20.0736 49.3372ZM19.6238 49.6334C18.7839 49.1552 18.7159 49.1582 18.3808 49.6334C18.7707 49.6334 19.1566 49.6334 19.6238 49.6334Z" fill="#18222D"/>
<path d="M40.0183 52.0509C39.9086 51.8386 39.7858 51.6323 39.6923 51.4129C39.605 51.2077 39.5492 50.9893 39.5806 50.7375C39.732 51.0206 39.8823 51.3047 40.0336 51.5879C40.0996 51.5595 40.1646 51.5302 40.2306 51.5019C40.1158 51.2168 39.995 50.9337 39.8863 50.6465C39.7695 50.3392 39.6639 50.0277 39.537 49.6729C39.8102 49.688 40 49.6981 40.1179 49.7052C40.1036 49.9711 39.9808 50.3533 40.1036 50.4635C40.2702 50.6132 40.6256 50.5535 41.0369 50.598C40.911 50.2795 40.85 50.1268 40.7658 49.9155C40.585 50.0834 40.4692 50.1926 40.3524 50.3017C40.3189 50.2765 40.2844 50.2512 40.2509 50.2249C40.4174 50.0429 40.584 49.8619 40.7505 49.6799C40.8927 49.8417 41.0867 49.9822 41.1669 50.1703C41.2938 50.4696 41.3446 50.8022 41.4228 51.1035C41.7102 51.0469 41.9752 50.9943 42.2413 50.9418C42.2789 50.9923 42.3175 51.0419 42.355 51.0924C42.1651 51.3654 41.9742 51.6384 41.7843 51.9124C41.7447 51.8902 41.7051 51.8679 41.6655 51.8457C41.7244 51.6516 41.7843 51.4574 41.8432 51.2633C41.7965 51.236 41.7498 51.2077 41.7031 51.1804C41.5792 51.3674 41.4563 51.5555 41.3202 51.7607C40.6378 51.508 40.3991 52.3684 39.7817 52.4271C39.5766 52.0752 39.3643 51.7132 39.1531 51.3513C39.2019 51.3149 39.2506 51.2785 39.2983 51.2411C39.5146 51.5252 39.7309 51.8093 39.9472 52.0924C39.9726 52.0782 39.995 52.0651 40.0183 52.0509Z" fill="#18222D"/>
<path d="M23.9316 51.4372C23.5934 51.7516 23.2207 52.0984 22.849 52.4453C22.8825 52.4918 22.916 52.5373 22.9496 52.5838C23.3233 52.6192 23.7153 52.7001 23.8168 52.1197C24.4231 52.693 24.4231 52.693 24.7572 51.9478C24.809 51.9963 24.8851 52.0337 24.8933 52.0823C24.9572 52.4523 25.0466 52.7688 25.4873 52.8962C25.6153 52.9336 25.7209 53.2228 25.7321 53.4038C25.7361 53.4756 25.465 53.5908 25.3045 53.6383C25.1004 53.699 24.8821 53.7111 24.5937 53.7556C24.743 53.9315 24.8425 54.0499 25.0385 54.2814C24.7115 54.2612 24.5023 54.248 24.2606 54.2339C24.3276 54.1257 24.3662 54.064 24.4221 53.974C23.957 53.8497 23.5142 53.7314 23.1141 53.6242C23.3009 53.4048 23.4807 53.1935 23.7 52.9356C23.0369 52.6394 22.7505 53.057 22.4174 53.335C22.1412 52.5615 22.8226 51.7567 23.9316 51.4372ZM25.2355 53.0934C24.6637 52.8537 24.5094 52.9508 24.289 53.6444C24.6323 53.4432 24.8861 53.2956 25.2355 53.0934ZM24.3855 52.9205C24.3449 52.873 24.3043 52.8244 24.2626 52.7769C23.7701 52.7587 23.8981 53.2379 23.7335 53.4826C23.7711 53.514 23.8077 53.5443 23.8452 53.5757C24.025 53.3573 24.2058 53.1389 24.3855 52.9205Z" fill="#18222D"/>
<path d="M29.1726 55.3026C29.0294 55.0448 28.8863 54.7859 28.7228 54.4927C28.3287 54.7344 28.146 55.3329 27.4991 55.243C27.7113 55.0458 27.9236 54.8476 28.1764 54.613C28.0474 54.5301 27.9479 54.4674 27.9662 54.4786C28.0109 53.878 28.0505 53.3411 28.0931 52.7627C28.2485 52.8831 28.4516 53.0388 28.673 53.2096C28.5796 53.2642 28.4618 53.332 28.2871 53.4341C28.4679 53.5332 28.5887 53.5999 28.7532 53.6899C28.5715 53.8092 28.4262 53.9053 28.2252 54.0387C28.9797 54.2238 28.9939 54.2116 28.9665 53.5868C28.9594 53.4189 28.9614 53.2501 28.9695 53.0822C28.9777 52.9164 28.998 52.7506 29.0183 52.5191C28.7258 52.5191 28.4577 52.5191 28.1906 52.5191C28.1835 52.4544 28.1774 52.3907 28.1703 52.326C28.4425 52.2976 28.7492 52.1824 28.9766 52.2703C29.1422 52.334 29.2854 52.6626 29.2945 52.879C29.3138 53.3451 29.2285 53.8133 29.2082 54.2824C29.2001 54.4654 29.2498 54.6515 29.2803 54.8355C29.3026 54.974 29.3351 55.1115 29.3636 55.249C29.2996 55.2672 29.2356 55.2844 29.1726 55.3026Z" fill="#18222D"/>
<path d="M53.5145 31.1011C54.0578 30.9161 54.6011 30.7321 55.1444 30.5471C55.1403 30.5076 55.1363 30.4682 55.1322 30.4288C54.6052 30.4288 54.0781 30.4288 53.5511 30.4288C53.55 30.3691 53.549 30.3105 53.548 30.2508C54.3472 30.2508 55.1474 30.2508 56.0959 30.2508C55.9152 30.4126 55.8065 30.5744 55.6572 30.631C55.1434 30.8261 54.6163 30.9859 54.0385 31.176C54.725 31.549 55.5242 31.4388 56.0848 31.8969C56.0685 31.9626 56.0533 32.0283 56.037 32.094C55.2196 32.094 54.4021 32.094 53.5846 32.094C53.5795 32.0475 53.5754 32.001 53.5704 31.9545C54.1157 31.9232 54.66 31.8918 55.2053 31.8605C55.2104 31.822 55.2145 31.7836 55.2196 31.7452C54.6509 31.6026 54.0822 31.4601 53.5135 31.3175C53.5135 31.2457 53.5145 31.1739 53.5145 31.1011Z" fill="#18222D"/>
<path d="M31.0006 54.2794C30.9437 54.6525 30.9213 54.9093 30.8604 55.156C30.8066 55.3724 30.7467 55.7232 30.6218 55.7556C30.4319 55.8051 30.1831 55.6312 29.9586 55.5523C29.9769 55.4957 29.9942 55.4391 30.0125 55.3825C30.1516 55.4158 30.2917 55.4502 30.4278 55.4826C30.6634 54.8608 30.5842 54.6231 29.9617 54.1055C30.2978 54.0155 30.7548 54.0256 30.5334 53.4533C30.2694 53.426 29.985 53.3957 29.6763 53.3633C29.72 53.2723 29.7281 53.2268 29.7474 53.2208C30.5761 52.9983 30.57 52.9983 30.5791 52.0974C30.5801 51.9963 30.7 51.8962 30.765 51.7961C30.8371 51.9063 30.9701 52.0176 30.9691 52.1278C30.967 52.3886 30.901 52.6495 30.8614 52.9013C31.0696 52.9741 31.2321 53.0307 31.3946 53.0883C31.3966 53.1338 31.3976 53.1783 31.3997 53.2238C31.2422 53.2703 31.0859 53.3178 30.835 53.3927C30.899 53.7314 30.963 54.0802 31.0006 54.2794Z" fill="#18222D"/>
<path d="M52.9387 27.0588C53.4323 26.5684 53.9268 26.078 54.4203 25.5877C54.4071 25.5604 54.3939 25.5321 54.3818 25.5048C53.8212 25.6392 53.2606 25.7747 52.7001 25.9092C52.6828 25.8313 52.6655 25.7545 52.6483 25.6766C53.4414 25.4704 54.2345 25.2631 55.0276 25.0568C55.0703 25.1216 55.1119 25.1873 55.1546 25.252C54.659 25.7403 54.1634 26.2297 53.6678 26.7181C53.679 26.7454 53.6892 26.7727 53.7003 26.799C54.2609 26.6645 54.8204 26.53 55.381 26.3965C55.3993 26.4704 55.4176 26.5442 55.4369 26.618C54.6468 26.8252 53.8577 27.0335 53.0677 27.2408C53.025 27.1812 52.9824 27.1195 52.9387 27.0588Z" fill="#18222D"/>
<path d="M17.9228 15.6193C17.412 14.9864 16.9012 14.3544 16.367 13.6922C16.5813 13.5163 16.7468 13.3767 16.9164 13.2433C17.2129 13.0107 17.5125 12.7569 17.9126 13.034C18.2721 13.2827 18.333 13.6204 18.1523 14.0097C18.5331 14.1714 18.8956 14.3251 19.2582 14.4798C19.2348 14.5476 19.2125 14.6153 19.1891 14.683C18.9068 14.585 18.6235 14.4899 18.3422 14.3888C18.0101 14.2695 17.7126 14.2624 17.5044 14.6335C17.7044 14.9196 17.9055 15.2058 18.1056 15.4919C18.0436 15.5344 17.9837 15.5769 17.9228 15.6193ZM16.7143 13.6972C16.9479 13.9692 17.1154 14.1654 17.3175 14.401C17.5785 14.041 18.2559 13.8843 17.8385 13.3787C17.417 12.8651 17.15 13.5334 16.7143 13.6972Z" fill="#18222D"/>
<path d="M48.3059 14.2766C48.1475 14.9298 47.9891 15.5829 47.8307 16.2361C47.8591 16.2573 47.8875 16.2775 47.916 16.2988C48.3232 15.9044 48.7304 15.5101 49.1387 15.1158C49.1722 15.1532 49.2057 15.1916 49.2392 15.229C48.6319 15.775 48.0246 16.322 47.4356 16.8518C47.3554 16.2725 47.8226 15.6476 47.7332 14.857C47.3666 15.2836 46.999 15.7103 46.6324 16.138C46.5633 16.0703 46.4953 16.0035 46.4262 15.9358C46.9533 15.3241 47.5199 14.7478 48.1171 14.1997C48.18 14.224 48.243 14.2503 48.3059 14.2766Z" fill="#18222D"/>
<path d="M38.5753 11.4476C38.8596 10.6781 39.143 9.90869 39.4273 9.13925C39.4953 9.14026 39.5624 9.14228 39.6304 9.14329C39.7624 9.83892 39.8944 10.5356 40.0549 11.3788C40.3169 10.6892 40.523 10.1453 40.7302 9.6003C40.8033 9.62963 40.8764 9.65996 40.9485 9.68928C40.6703 10.4567 40.392 11.2251 40.061 12.1351C39.5624 11.3798 39.7584 10.5942 39.4446 9.8278C39.2069 10.4658 39.0048 11.0088 38.8017 11.5517C38.7266 11.5163 38.6514 11.4819 38.5753 11.4476Z" fill="#18222D"/>
<path d="M14.0598 20.0459C13.3844 20.2531 12.6726 19.9539 11.8449 20.1076C12.4268 20.4705 12.9021 20.7668 13.3783 21.063C13.3326 21.1338 13.2869 21.2046 13.2412 21.2754C12.5527 20.8487 11.8642 20.422 11.1757 19.9963C11.1808 19.9417 11.1858 19.8871 11.1909 19.8325C11.8733 19.602 12.5954 19.9225 13.4007 19.784C12.8472 19.4251 12.3618 19.1106 11.8764 18.7962C11.919 18.7315 11.9617 18.6667 12.0043 18.602C12.702 19.0318 13.3986 19.4605 14.0963 19.8902C14.0851 19.9427 14.073 19.9943 14.0598 20.0459Z" fill="#18222D"/>
<path d="M36.3107 8.3789C36.1929 9.17969 36.0751 9.98148 35.9349 10.9349C35.3206 10.2899 35.3358 9.51031 34.8829 8.81468C34.7681 9.47189 34.6706 10.031 34.5731 10.5912C34.501 10.578 34.4279 10.5649 34.3558 10.5507C34.4777 9.74286 34.5985 8.93399 34.7204 8.12613C34.7905 8.11197 34.8615 8.09782 34.9316 8.08265C35.1875 8.72672 35.4434 9.37179 35.6993 10.0159C35.7329 10.0108 35.7674 10.0057 35.8009 10.0007C35.9004 9.44661 35.9999 8.89253 36.0995 8.33846C36.1705 8.35261 36.2406 8.36576 36.3107 8.3789Z" fill="#18222D"/>
<path d="M7.89964 31.7503C8.4927 31.4287 9.08576 31.1072 9.67984 30.7857C9.6778 30.7533 9.67577 30.721 9.67374 30.6876C9.11623 30.6492 8.55769 30.6108 8.00018 30.5723C8.00221 30.5238 8.00525 30.4753 8.00728 30.4277C8.8136 30.4277 9.62094 30.4277 10.4273 30.4277C10.4516 30.4834 10.476 30.539 10.5004 30.5946C10.0058 31.0799 9.2848 31.2397 8.58714 31.725C9.29292 31.7634 9.85247 31.7937 10.411 31.8241C10.408 31.8706 10.4049 31.9171 10.4009 31.9626C9.59047 31.9626 8.78009 31.9626 7.96971 31.9626C7.94635 31.8918 7.923 31.821 7.89964 31.7503Z" fill="#18222D"/>
<path d="M49.878 15.9055C50.2659 16.3554 50.7818 16.6739 50.5644 17.2907C50.3563 17.8811 49.8891 18.2653 49.2768 18.3948C48.5994 18.5373 48.3648 17.96 47.981 17.502C48.6096 16.9742 49.2199 16.4595 49.878 15.9055ZM48.4258 17.4787C48.4115 17.5495 48.3973 17.6193 48.3831 17.69C48.6756 17.8316 49.0483 18.1602 49.2453 18.0773C49.6464 17.9094 50.0374 17.5687 50.2608 17.1966C50.3664 17.0197 50.076 16.6082 49.9328 16.2159C49.3448 16.7083 48.8858 17.0935 48.4258 17.4787Z" fill="#18222D"/>
<path d="M9.82302 28.1558C9.74382 28.3641 9.68085 28.5309 9.61789 28.6978C9.54478 28.6745 9.47064 28.6503 9.39753 28.627C9.48486 28.3682 9.49705 27.9981 9.67781 27.8778C9.96926 27.6837 10.543 28.0153 10.6537 28.3459C10.8538 28.9475 10.5562 29.5309 9.93473 29.6886C9.35691 29.8353 8.8197 29.7048 8.38303 29.2974C8.04181 28.9799 8.03775 28.5734 8.24593 28.1841C8.39318 27.9091 8.62777 27.7423 9.06038 27.8869C8.56582 28.174 8.21242 28.4854 8.52825 29.0314C8.72526 29.3722 9.48791 29.5724 9.91747 29.4076C10.2719 29.2711 10.4557 28.9971 10.4171 28.6179C10.3826 28.2873 10.2028 28.0931 9.82302 28.1558Z" fill="#18222D"/>
<path d="M10.1663 37.201C10.1957 37.5923 10.2089 37.7632 10.2211 37.9331C10.1653 37.9493 10.1094 37.9654 10.0535 37.9826C9.9652 37.747 9.87685 37.5104 9.78952 37.2759C10.5075 36.8411 10.8995 36.8987 11.197 37.4569C11.4875 38.0039 11.2874 38.6297 10.6557 38.8663C10.279 39.0079 9.82912 39.0524 9.42799 39.0079C9.00046 38.9603 8.7801 38.6004 8.76182 38.1697C8.74658 37.8117 8.86743 37.5216 9.36808 37.4002C9.06241 37.9139 8.77806 38.3962 9.43002 38.746C9.80881 38.9492 10.5319 38.7703 10.8314 38.4174C11.0853 38.1201 11.0955 37.7764 10.8467 37.4963C10.7177 37.3517 10.4608 37.3214 10.1663 37.201Z" fill="#18222D"/>
<path d="M44.6816 50.1501C45.0147 50.6718 45.3102 51.1339 45.6047 51.5949C45.563 51.6384 45.5214 51.6809 45.4798 51.7243C45.3559 51.6162 45.2056 51.5272 45.1142 51.3978C44.7851 50.9327 44.4927 50.4403 44.1484 49.9873C44.0235 49.8235 43.794 49.7386 43.5523 49.5778C43.6264 49.3988 43.726 49.1178 43.86 48.8549C43.9016 48.772 44.0428 48.686 44.1291 48.6941C44.2175 48.7022 44.3089 48.8134 44.3729 48.8994C44.515 49.0915 44.6247 49.3088 44.777 49.4919C44.9903 49.7497 45.0868 49.9721 44.6816 50.1501Z" fill="#18222D"/>
<path d="M53.0941 24.98C52.6219 24.8819 52.2898 24.7323 52.1121 24.3238C51.9394 23.9275 52.0339 23.5331 52.3568 23.3299C52.7508 23.0822 53.221 22.9032 53.6811 22.8233C54.0649 22.7566 54.3939 23.0114 54.531 23.4057C54.6671 23.798 54.5656 24.1721 54.2365 24.3996C53.8872 24.6393 53.4769 24.7909 53.0941 24.98ZM53.0098 24.7474C53.415 24.5361 53.7897 24.4067 54.069 24.1671C54.2162 24.0407 54.3046 23.6727 54.2264 23.5018C54.136 23.3056 53.8232 23.0802 53.6232 23.0933C53.2738 23.1166 52.8879 23.25 52.6107 23.4593C52.437 23.5908 52.3213 23.977 52.3832 24.1903C52.4431 24.4017 52.76 24.5402 53.0098 24.7474Z" fill="#18222D"/>
<path d="M54.5158 29.5461C53.7501 29.5461 53.3287 29.2377 53.2525 28.7301C53.1824 28.2681 53.5064 27.8121 54.0609 27.6574C54.3168 27.5856 54.5971 27.5552 54.8621 27.5694C55.4095 27.5987 55.7517 27.9061 55.8248 28.3732C55.8918 28.806 55.6116 29.2367 55.1129 29.4116C54.8763 29.4955 54.6214 29.5238 54.5158 29.5461ZM54.4661 29.3964C54.8052 29.1871 55.184 29.0193 55.4613 28.7473C55.5608 28.6492 55.4927 28.2327 55.3628 28.081C55.054 27.7231 54.6082 27.7726 54.1919 27.901C53.7938 28.0244 53.4688 28.2499 53.5501 28.7241C53.6262 29.175 54.002 29.2579 54.4661 29.3964Z" fill="#18222D"/>
<path d="M50.8193 19.324C50.5746 19.4776 50.3786 19.601 50.1359 19.7537C50.3532 20.1409 50.5573 20.5039 50.7615 20.8669C50.6944 20.9043 50.6264 20.9417 50.5594 20.9781C50.2892 20.5747 50.0201 20.1702 49.7114 19.7092C50.4202 19.2532 51.0935 18.8204 51.8359 18.3422C52.1131 18.778 52.371 19.1834 52.63 19.5889C52.5721 19.6344 52.5132 19.6809 52.4553 19.7264C52.2197 19.4241 51.9851 19.1217 51.7099 18.7689C51.5221 18.8781 51.3271 18.9913 51.0966 19.1248C51.2966 19.4837 51.4804 19.8123 51.6632 20.1419C51.5982 20.1773 51.5332 20.2127 51.4672 20.2481C51.2641 19.9579 51.06 19.6667 50.8193 19.324Z" fill="#18222D"/>
<path d="M28.3013 9.938C28.2292 10.4749 27.9428 10.8733 27.5001 10.9855C27.101 11.0866 26.644 10.8712 26.448 10.396C26.3119 10.0654 26.2368 9.68524 26.2398 9.32832C26.2439 8.89355 26.4937 8.56091 26.9507 8.46182C27.3813 8.3688 27.7377 8.53765 27.9357 8.91074C28.1033 9.22823 28.1825 9.59322 28.3013 9.938ZM27.9621 9.88442C27.9591 9.85308 27.956 9.78534 27.9479 9.71861C27.8748 9.06746 27.4869 8.64179 27.0401 8.71762C26.5882 8.79548 26.3779 9.31417 26.5425 9.96025C26.5668 10.0573 26.5993 10.1564 26.6481 10.2423C26.8248 10.5548 27.0644 10.7954 27.4585 10.6953C27.8464 10.5972 27.9662 10.2899 27.9621 9.88442Z" fill="#18222D"/>
<path d="M43.9788 11.1432C44.4378 11.4203 44.8319 11.6589 45.2249 11.8965C45.1964 11.9622 45.169 12.0279 45.1406 12.0936C44.9781 12.0269 44.8116 11.9693 44.6552 11.8894C44.4632 11.7913 44.2815 11.6761 44.055 11.5446C43.9169 11.7509 43.7991 11.9258 43.6569 12.1381C43.9809 12.3747 44.2855 12.5972 44.5902 12.8196C44.5546 12.8772 44.5181 12.9349 44.4825 12.9935C44.1647 12.8247 43.8468 12.6548 43.4843 12.4617C43.3451 12.6851 43.2162 12.8924 43.0557 13.1492C43.4203 13.3868 43.7605 13.6072 44.1332 13.8499C43.7889 14.0026 43.4853 13.862 42.678 13.2291C43.0963 12.5608 43.5178 11.8844 43.9788 11.1432Z" fill="#18222D"/>
<path d="M16.5305 16.9711C15.8988 16.3817 15.3119 15.8347 14.9026 15.4525C15.2286 15.0602 15.5363 14.6891 15.845 14.318C15.8765 14.3464 15.908 14.3747 15.9395 14.403C15.6754 14.6871 15.4114 14.9722 15.1179 15.2877C15.2875 15.4687 15.4429 15.6335 15.6186 15.8205C15.9263 15.5435 16.2015 15.2958 16.4767 15.0491C16.5295 15.1047 16.5833 15.1613 16.6361 15.2169C16.5112 15.3504 16.3853 15.4838 16.2604 15.6173C16.1355 15.7498 16.0085 15.8822 15.8592 16.0399C16.0522 16.2482 16.2208 16.4282 16.4137 16.6365C16.7468 16.3423 17.0525 16.0733 17.3581 15.8033C17.3967 15.8418 17.4363 15.8802 17.4749 15.9196C17.2799 16.4019 16.8128 16.6537 16.5305 16.9711Z" fill="#18222D"/>
<path d="M53.937 36.1728C53.811 36.2264 53.6394 36.2456 53.5673 36.3396C53.4262 36.5266 53.2962 36.7461 53.2515 36.9705C53.2322 37.0686 53.4719 37.3274 53.5287 37.3102C53.7267 37.2476 53.9085 37.11 54.071 36.9715C54.1685 36.8876 54.2122 36.744 54.2904 36.6348C54.5056 36.3325 54.7991 36.2405 55.1332 36.3962C55.4673 36.5519 55.577 36.8381 55.4927 37.195C55.4054 37.564 55.1921 37.7915 54.7941 37.7986C54.7443 37.7996 54.6925 37.7359 54.5828 37.6631C54.7666 37.5772 54.9383 37.5489 55.0124 37.4498C55.1241 37.3001 55.2125 37.103 55.2216 36.921C55.2267 36.8239 55.0327 36.6217 54.9535 36.6338C54.7981 36.6561 54.6377 36.7744 54.5219 36.8937C54.396 37.0241 54.334 37.2142 54.2162 37.3547C53.9258 37.7015 53.5663 37.7046 53.2231 37.4629C52.8605 37.2081 52.8514 36.8411 53.0301 36.471C53.2099 36.099 53.5115 35.9746 53.877 36.0312C53.8963 36.0777 53.9167 36.1252 53.937 36.1728Z" fill="#18222D"/>
<path d="M19.2998 13.6922C19.6603 13.6619 19.9832 13.6801 20.2696 13.587C20.3803 13.5506 20.4951 13.2281 20.4463 13.0956C20.4006 12.9723 20.1417 12.8692 19.9731 12.8621C19.7446 12.853 19.5131 12.9713 19.2805 12.9875C18.9038 13.0127 18.6682 12.8044 18.6062 12.4435C18.5382 12.0502 18.7555 11.7944 19.1058 11.668C19.446 11.5456 19.7426 11.6114 19.8786 12.0471C19.769 12.0057 19.6542 11.9187 19.5517 11.9329C19.3536 11.9592 19.1373 12.0057 18.9779 12.1149C18.8966 12.1705 18.8621 12.4738 18.9078 12.5021C19.0581 12.5952 19.2551 12.6498 19.4339 12.6498C19.6309 12.6498 19.8269 12.5416 20.0249 12.5345C20.4169 12.5193 20.6616 12.7276 20.7388 13.1098C20.821 13.5152 20.5631 13.9045 20.1234 14.0218C19.7466 14.1209 19.4399 14.0329 19.2998 13.6922Z" fill="#18222D"/>
<path d="M46.5054 50.96C46.5562 50.5646 46.608 50.1683 46.674 49.6567C46.3897 49.9054 46.215 50.0591 46.0393 50.2118C46.0159 50.1845 45.9936 50.1582 45.9702 50.1309C46.1134 49.7881 46.2465 49.4393 46.4079 49.1046C46.4486 49.0207 46.5826 48.9813 46.674 48.9216C46.7227 49.0136 46.8202 49.1097 46.8121 49.1956C46.7613 49.7547 47.3706 49.6749 47.5646 49.9893C47.787 49.8073 48.0145 49.6324 48.2298 49.4413C48.3171 49.3634 48.3669 49.2421 48.4552 49.1663C48.4765 49.1481 48.6482 49.2452 48.6441 49.2644C48.6167 49.3867 48.575 49.5121 48.506 49.6162C48.4136 49.7558 48.3029 49.8862 48.1831 50.0025C47.8723 50.3017 47.5524 50.5404 47.1726 50.0793C47.1208 50.0166 47.002 50.0075 46.8862 49.963C46.8162 50.3381 46.7522 50.6748 46.6892 51.0125C46.6293 50.9953 46.5674 50.9782 46.5054 50.96Z" fill="#18222D"/>
<path d="M35.4282 55.3521C35.7349 55.3147 36.0202 55.2793 36.3056 55.2439C36.3452 55.1823 36.3858 55.1206 36.4254 55.0589C36.3584 54.9922 36.2914 54.9254 36.2244 54.8587C36.1858 54.8971 36.1472 54.9356 36.1086 54.974C36.1807 54.8334 36.2528 54.6919 36.3523 54.4998C36.1502 54.4755 36.006 54.4583 35.8253 54.4361C35.9999 54.2854 36.1929 54.1924 36.2579 54.0448C36.334 53.8699 36.2985 53.6464 36.3107 53.4432C36.3726 53.4361 36.4356 53.429 36.4975 53.422C36.5443 53.6373 36.591 53.8517 36.6356 54.0589C36.7829 54.1277 36.9373 54.1995 37.0916 54.2713C36.9799 54.4017 36.854 54.522 36.7626 54.6646C36.6895 54.7778 36.657 54.9184 36.6062 55.0458C36.7362 55.0781 36.8855 55.1681 36.9931 55.1327C37.2714 55.0427 37.5141 54.9679 37.6755 55.2996C37.1089 55.6019 35.7004 55.6524 35.4282 55.3521Z" fill="#18222D"/>
<path d="M10.738 20.7152C11.4032 21.0489 12.178 21.2016 12.6573 21.8406C12.7751 21.9983 12.7325 22.3815 12.6177 22.5756C12.504 22.7677 12.1597 23.0053 11.9972 22.9568C11.325 22.7576 10.6832 22.4563 10.0312 22.1924C10.0566 22.1206 10.081 22.0499 10.1064 21.9781C10.215 21.9993 10.3328 21.9993 10.4303 22.0438C10.7817 22.2066 11.1229 22.3916 11.4743 22.5554C11.8084 22.7101 12.1729 22.8476 12.3923 22.4118C12.6258 21.9477 12.2735 21.7405 11.9312 21.5645C11.6164 21.4028 11.2915 21.2632 10.9756 21.1025C10.8568 21.0418 10.7553 20.9508 10.6456 20.874C10.674 20.8204 10.7055 20.7678 10.738 20.7152Z" fill="#18222D"/>
<path d="M10.4922 32.5642C10.1145 32.9211 9.37519 33.1112 9.8799 33.8877C10.0454 33.9443 10.2993 34.0313 10.5532 34.1182C10.5471 34.1587 10.54 34.1981 10.5339 34.2386C10.4496 34.2527 10.3592 34.2942 10.2831 34.276C9.61078 34.1192 8.93851 33.9565 8.27031 33.7805C8.17383 33.7553 8.08142 33.6653 8.0215 33.5803C8.00119 33.552 8.07127 33.4105 8.12915 33.3862C8.87657 33.0667 9.63008 32.7583 10.3816 32.4479C10.4181 32.4874 10.4557 32.5258 10.4922 32.5642ZM9.44119 33.1223C9.08678 33.2649 8.80548 33.3771 8.52418 33.4903C8.53231 33.5257 8.54043 33.5621 8.54856 33.5975C8.83392 33.6683 9.11826 33.7381 9.47166 33.826C9.4615 33.5783 9.45338 33.3933 9.44119 33.1223Z" fill="#18222D"/>
<path d="M8.38912 36.5004C8.53129 36.4599 8.67245 36.4063 8.81767 36.38C9.14974 36.3204 9.48588 36.282 9.81694 36.2183C10.1947 36.1455 10.5887 36.0535 10.4923 35.5348C10.3948 35.011 9.98043 35.0868 9.60977 35.1374C9.20966 35.192 8.81361 35.279 8.4135 35.3386C8.33124 35.3507 8.24086 35.3052 8.15352 35.287C8.15352 35.2254 8.15352 35.1637 8.15251 35.101C8.82275 35.0151 9.49299 34.8735 10.1632 34.8765C10.3704 34.8776 10.6568 35.2365 10.7634 35.4913C10.9046 35.827 10.7644 36.2061 10.3887 36.3123C9.75397 36.4923 9.0949 36.5903 8.44599 36.7238C8.42771 36.65 8.40841 36.5752 8.38912 36.5004Z" fill="#18222D"/>
<path d="M46.0596 15.6173C45.8626 15.1775 46.3226 14.8246 45.7936 14.4272C45.2888 14.0481 45.0675 14.7326 44.5536 14.5273C45.1619 14.1138 45.6737 13.7518 46.2008 13.4151C46.4008 13.2867 46.6385 13.216 46.8588 13.1179C46.8243 13.3666 46.8192 13.6234 46.7481 13.861C46.6029 14.3433 46.4262 14.8175 46.2515 15.2907C46.2089 15.407 46.1246 15.5081 46.0596 15.6173ZM46.6121 13.5719C46.5714 13.5446 46.5318 13.5163 46.4912 13.489C46.2495 13.671 46.0068 13.8529 45.7093 14.0764C45.9235 14.222 46.0728 14.3231 46.2658 14.4545C46.4018 14.1077 46.5075 13.8398 46.6121 13.5719Z" fill="#18222D"/>
<path d="M55.0754 35.5449C55.4409 35.2011 55.9284 34.9109 55.4318 34.3659C55.0886 33.9888 54.0923 33.9625 53.7806 34.284C53.4912 34.5823 53.5643 34.831 54.1045 35.3902C53.8121 35.5014 53.5836 35.4003 53.416 35.0858C53.2007 34.6794 53.3845 34.1223 53.8009 33.916C54.2833 33.6764 55.183 33.7856 55.5841 34.1364C55.8979 34.4114 55.9903 34.7603 55.8441 35.1414C55.7202 35.465 55.4602 35.6146 55.0754 35.5449Z" fill="#18222D"/>
<path d="M38.0249 11.3272C37.7608 11.0462 38.0553 10.4739 37.4237 10.3253C36.8042 10.1807 36.8621 10.8632 36.3675 10.846C36.5767 10.5022 36.7839 10.1564 36.9962 9.81364C37.1911 9.49919 37.3861 9.18474 37.5902 8.87535C37.708 8.69638 37.9325 8.57505 37.9741 8.86018C38.0899 9.66299 38.1274 10.4769 38.1955 11.2858C38.1396 11.2999 38.0817 11.3141 38.0249 11.3272ZM37.8492 10.1786C37.8258 9.81263 37.8065 9.51941 37.7883 9.22721C37.7486 9.21912 37.709 9.21204 37.6684 9.20395C37.5191 9.4638 37.3699 9.72365 37.182 10.0492C37.4328 10.0978 37.6004 10.1301 37.8492 10.1786Z" fill="#18222D"/>
<path d="M52.3365 22.4705C52.0512 22.8486 51.7526 22.7182 51.5038 22.5847C51.1352 22.3876 51.0052 22.0387 51.1088 21.6373C51.2773 20.9842 52.3995 20.3805 52.9976 20.6768C53.2525 20.8032 53.4739 21.1348 53.5592 21.4179C53.6161 21.608 53.4069 21.877 53.2281 22.0458C53.2078 21.7273 53.222 21.4007 53.1479 21.0944C53.1225 20.9912 52.8778 20.8972 52.7234 20.878C52.2218 20.8133 51.4347 21.3492 51.384 21.7617C51.3301 22.2005 51.5485 22.3764 52.3365 22.4705Z" fill="#18222D"/>
<path d="M42.553 12.1907C42.3439 12.6639 42.026 12.8055 41.633 12.7448C41.2491 12.6861 40.9749 12.4425 40.9414 12.0441C40.8886 11.4213 41.1029 10.8723 41.5934 10.4779C41.9376 10.2009 42.3449 10.1746 42.7196 10.4537C43.0283 10.6832 43.0618 10.9845 42.8892 11.3626C42.6475 10.8965 42.55 10.208 41.7924 10.668C41.3883 10.9127 41.0938 11.7206 41.241 12.0936C41.3842 12.4526 41.5182 12.4657 42.553 12.1907Z" fill="#18222D"/>
<path d="M11.3026 26.07C10.9238 26.2135 10.544 26.3561 10.1287 26.5128C10.408 26.8475 10.673 27.166 10.9391 27.4845C10.8721 27.5411 10.806 27.5987 10.739 27.6553C10.5359 27.4147 10.3247 27.1811 10.1328 26.9334C9.9063 26.6422 9.65242 26.5613 9.30004 26.715C9.05225 26.8232 8.77502 26.8657 8.512 26.9375C8.48966 26.8728 8.46732 26.8081 8.44396 26.7444C8.76689 26.621 9.08983 26.4966 9.46963 26.3521C9.23809 26.0598 9.01468 25.7788 8.79228 25.4987C8.83087 25.4643 8.86946 25.4299 8.90805 25.3956C9.08272 25.5563 9.28785 25.6959 9.42393 25.8839C9.68695 26.2459 9.98551 26.2985 10.3856 26.1316C10.6557 26.0194 10.9523 25.9699 11.2376 25.893C11.2579 25.9517 11.2803 26.0103 11.3026 26.07Z" fill="#18222D"/>
<path d="M41.5578 52.1824C41.4898 52.4341 41.4218 52.6859 41.3304 53.0266C41.7975 53.0266 42.22 53.0266 42.6424 53.0266C42.6739 53.0812 42.7044 53.1358 42.7358 53.1904C42.1215 53.1833 41.9559 53.4917 41.9265 53.9851C41.9153 54.1641 41.6391 54.3279 41.4218 54.4159C41.5233 54.1499 41.6249 53.883 41.7264 53.6171C41.6655 53.5807 41.6035 53.5453 41.5426 53.5089C41.3568 53.7162 41.1709 53.9235 40.9841 54.1307C40.9567 54.1176 40.9292 54.1044 40.9008 54.0913C41.0369 53.8567 41.174 53.6222 41.3172 53.3755C41.2634 53.2177 41.1923 53.0125 41.111 52.7759C41.0328 52.7981 40.912 52.8325 40.7922 52.8669C40.7546 52.8193 40.716 52.7728 40.6784 52.7253C40.8978 52.4867 41.1161 52.2471 41.3355 52.0085C41.4096 52.0661 41.4837 52.1247 41.5578 52.1824Z" fill="#18222D"/>
<path d="M30.0267 9.3728C29.7393 9.43044 29.4519 9.48908 29.1117 9.55783C29.132 9.89958 29.1523 10.2514 29.1726 10.6023C29.1015 10.6104 29.0305 10.6175 28.9584 10.6255C28.8629 9.84296 28.7685 9.05937 28.6639 8.20297C29.1422 8.14433 29.588 8.09074 30.0338 8.03614C30.049 8.11299 30.0653 8.18882 30.0805 8.26566C29.8683 8.30712 29.657 8.37385 29.4428 8.38497C29.1208 8.40115 28.9502 8.48102 28.9929 8.86322C29.0366 9.26462 29.264 9.19688 29.527 9.16553C29.6895 9.14632 29.8591 9.17766 30.0247 9.18575C30.0267 9.24844 30.0267 9.31012 30.0267 9.3728Z" fill="#18222D"/>
<path d="M13.0585 16.9307C13.812 17.2431 14.4619 17.5121 15.2489 17.8377C14.8041 17.1157 14.4314 16.5111 14.0587 15.9075C14.1166 15.8721 14.1735 15.8357 14.2314 15.8003C14.3725 16.0066 14.5177 16.2108 14.6528 16.4211C14.9341 16.8609 15.2144 17.3008 15.4815 17.7497C15.5343 17.8387 15.5454 17.9661 15.5343 18.0702C15.5312 18.0975 15.3545 18.1481 15.2855 18.1198C14.5685 17.8245 13.8577 17.5161 13.1468 17.2077C13.1265 17.1997 13.1255 17.1491 13.0585 16.9307Z" fill="#18222D"/>
<path d="M31.8089 8.28892C31.6485 8.99769 31.6485 8.99466 32.3025 9.04522C32.4324 9.05533 32.5614 9.09274 32.6904 9.11802C32.6883 9.17161 32.6853 9.22418 32.6833 9.27777C32.3837 9.30406 32.0851 9.33136 31.7622 9.35967C31.7287 9.72771 31.6982 10.0745 31.6667 10.4203C31.619 10.4163 31.5713 10.4132 31.5236 10.4092C31.5236 9.60941 31.5236 8.81065 31.5236 8.01795C31.9491 8.01795 32.3796 8.01795 32.8092 8.01795C32.8133 8.07761 32.8163 8.13827 32.8204 8.19793C32.4944 8.22826 32.1684 8.25757 31.8089 8.28892Z" fill="#18222D"/>
<path d="M24.8262 9.12408C24.6942 9.9744 24.3388 10.8257 24.9583 11.672C24.878 11.6831 24.7978 11.6943 24.7186 11.7044C24.5145 11.3283 24.3571 10.9147 24.094 10.5851C23.83 10.2535 23.4624 10.0047 23.174 9.67006C23.7112 9.5912 23.8615 10.1857 24.3296 10.3121C24.4231 9.90261 24.5175 9.49211 24.6109 9.08262C24.682 9.09576 24.7541 9.10992 24.8262 9.12408Z" fill="#18222D"/>
<path d="M22.845 12.5001C22.5302 11.8368 22.2225 11.1877 21.9076 10.5254C21.667 10.6003 21.4588 10.665 21.1958 10.7469C21.3745 10.3465 22.3118 9.90059 22.8175 9.9835C22.5698 10.1473 22.391 10.2666 22.1971 10.395C22.4702 11.0654 22.7373 11.7226 23.0014 12.3808C23.0034 12.3889 22.9526 12.4192 22.845 12.5001Z" fill="#18222D"/>
<path d="M36.3533 52.5565C36.1127 52.6181 35.871 52.6798 35.6303 52.7415C35.61 52.6717 35.5897 52.603 35.5694 52.5332C36.0152 52.3876 36.461 52.242 36.9819 52.0722C36.8002 52.8618 35.9735 53.7577 35.4851 53.8011C35.808 53.4108 36.1309 53.0196 36.4529 52.6293C36.4193 52.605 36.3858 52.5807 36.3533 52.5565Z" fill="#18222D"/>
<path d="M46.4455 47.3767C46.3521 47.7528 46.48 48.1279 45.8921 48.1036C45.5874 48.0915 45.2462 49.0561 45.3731 49.3806C45.3874 49.4181 45.363 49.4706 45.3396 49.6445C45.1061 49.3493 44.9334 49.1299 44.7364 48.8802C45.5539 48.6982 45.5153 47.5698 46.4455 47.3767Z" fill="#18222D"/>
<path d="M34.4056 54.607C34.5274 54.8567 34.6503 55.1064 34.8077 55.43C34.9895 55.0589 35.151 54.7293 35.3124 54.3997C35.3531 54.4149 35.3937 54.43 35.4353 54.4452C35.2657 54.9548 35.0951 55.4654 34.8697 56.1428C34.6727 55.8749 34.5447 55.7434 34.4665 55.5867C34.3426 55.335 34.2522 55.067 34.1111 54.7162C34.1415 54.705 34.2746 54.6555 34.4066 54.607H34.4056Z" fill="#18222D"/>
<path d="M12.6258 17.7254C13.3763 18.0914 13.9866 18.6647 14.6498 19.1591C14.6081 19.2188 14.5665 19.2774 14.5249 19.3371C13.8516 18.8589 13.1783 18.3796 12.505 17.9014C12.5456 17.8427 12.5852 17.7841 12.6258 17.7254Z" fill="#18222D"/>
<path d="M20.5804 10.8419C20.9805 11.5628 21.3806 12.2847 21.7807 13.0057C21.7005 13.0501 21.6203 13.0936 21.54 13.1381C21.144 12.4142 20.7479 11.6902 20.3529 10.9673C20.428 10.9248 20.5042 10.8834 20.5804 10.8419Z" fill="#18222D"/>
<path d="M34.4076 54.608C34.4878 54.2915 34.5681 53.976 34.6767 53.5463C34.365 53.7667 34.1436 53.9235 33.843 54.1358C33.8328 53.9548 33.7942 53.8416 33.8298 53.7597C33.8958 53.606 34.8483 53.247 34.9499 53.3532C35.0322 53.4402 35.0596 53.6757 34.9997 53.7819C34.8331 54.0741 34.6067 54.334 34.4056 54.607L34.4076 54.608Z" fill="#18222D"/>
<path d="M9.1731 24.4593C9.84537 24.4815 11.3605 25.0467 11.5027 25.4168C10.6598 25.1347 9.88599 24.8759 9.11217 24.617C9.13146 24.5644 9.15279 24.5119 9.1731 24.4593Z" fill="#18222D"/>
<path d="M33.449 10.4708C33.5038 9.65793 33.5597 8.84602 33.6145 8.03311C33.6957 8.03816 33.777 8.04322 33.8572 8.04827C33.8024 8.86018 33.7475 9.67209 33.6927 10.484C33.6114 10.4789 33.5302 10.4749 33.449 10.4708Z" fill="#18222D"/>
<path d="M53.5531 32.9423C54.3675 32.9423 55.181 32.9423 55.9954 32.9423C55.9934 32.9868 55.9903 33.0323 55.9883 33.0768C55.1739 33.0768 54.3604 33.0768 53.546 33.0768C53.547 33.0323 53.55 32.9878 53.5531 32.9423Z" fill="#18222D"/>
<path d="M25.4904 51.3998C24.9735 51.1895 24.2911 51.4018 23.959 50.7183C24.4505 51.0206 25.1116 50.8518 25.6051 51.146C25.5665 51.2309 25.529 51.3149 25.4904 51.3998Z" fill="#18222D"/>
<path d="M46.4008 48.6001C46.2059 48.8801 46.0109 49.1612 45.8159 49.4413C45.759 49.4009 45.7011 49.3594 45.6443 49.319C45.8931 49.0783 45.7844 48.5738 46.2363 48.4818C46.2901 48.5212 46.345 48.5606 46.4008 48.6001Z" fill="#18222D"/>
<path d="M45.3498 48.0136C45.0746 47.8296 44.9222 47.7285 44.6805 47.5678C44.9233 47.4899 45.171 47.411 45.4188 47.3322C45.3975 47.5405 45.3762 47.7497 45.3498 48.0136Z" fill="#18222D"/>
<path d="M20.7175 46.9793C20.8424 47.1977 20.9429 47.3716 21.0841 47.6183C20.7561 47.6183 20.5103 47.6183 20.1863 47.6183C20.3732 47.3938 20.5194 47.2179 20.7175 46.9793Z" fill="#18222D"/>
<path d="M37.0804 53.976C37.0459 53.6798 37.0276 53.514 36.9901 53.1874C37.25 53.3977 37.4227 53.5383 37.5963 53.6788C37.4409 53.7688 37.2856 53.8577 37.0804 53.976Z" fill="#18222D"/>
<path d="M18.3808 49.6334C18.7707 49.6334 19.1566 49.6334 19.6238 49.6334C18.7839 49.1562 18.7149 49.1582 18.3808 49.6334Z" fill="white"/>
<path d="M25.2355 53.0934C24.8872 53.2966 24.6333 53.4442 24.289 53.6444C24.5084 52.9508 24.6627 52.8537 25.2355 53.0934Z" fill="white"/>
<path d="M24.3855 52.9205C24.2058 53.1389 24.026 53.3573 23.8452 53.5746C23.8077 53.5433 23.7711 53.513 23.7335 53.4816C23.8991 53.2369 23.7701 52.7587 24.2626 52.7759C24.3032 52.8254 24.3449 52.873 24.3855 52.9205Z" fill="white"/>
<path d="M16.7143 13.6972C17.15 13.5334 17.416 12.8651 17.8385 13.3787C18.2548 13.8843 17.5775 14.041 17.3175 14.401C17.1154 14.1654 16.9479 13.9692 16.7143 13.6972Z" fill="white"/>
<path d="M48.4258 17.4787C48.8858 17.0935 49.3458 16.7083 49.9328 16.2159C50.075 16.6082 50.3664 17.0197 50.2608 17.1966C50.0384 17.5687 49.6464 17.9084 49.2453 18.0773C49.0473 18.1602 48.6756 17.8326 48.3831 17.69C48.3973 17.6203 48.4115 17.5495 48.4258 17.4787Z" fill="white"/>
<path d="M53.0098 24.7474C52.76 24.5402 52.4431 24.4017 52.3812 24.1903C52.3192 23.977 52.435 23.5908 52.6087 23.4593C52.8859 23.25 53.2718 23.1166 53.6211 23.0933C53.8222 23.0802 54.134 23.3056 54.2244 23.5018C54.3026 23.6727 54.2152 24.0407 54.0669 24.1671C53.7897 24.4067 53.414 24.5361 53.0098 24.7474Z" fill="white"/>
<path d="M54.4661 29.3964C54.002 29.2579 53.6262 29.176 53.549 28.7241C53.4678 28.2499 53.7918 28.0244 54.1908 27.901C54.6072 27.7726 55.053 27.7231 55.3617 28.081C55.4927 28.2327 55.5608 28.6492 55.4602 28.7473C55.184 29.0183 54.8042 29.1871 54.4661 29.3964Z" fill="white"/>
<path d="M27.9621 9.88442C27.9652 10.2899 27.8464 10.5972 27.4574 10.6963C27.0634 10.7964 26.8237 10.5548 26.647 10.2434C26.5983 10.1574 26.5658 10.0583 26.5414 9.96126C26.3769 9.31517 26.5871 8.79648 27.039 8.71863C27.4869 8.64179 27.8738 9.06847 27.9469 9.71961C27.956 9.78533 27.9601 9.85308 27.9621 9.88442Z" fill="white"/>
<path d="M9.44119 33.1223C9.45338 33.3933 9.4615 33.5783 9.47267 33.825C9.11928 33.7381 8.83493 33.6673 8.54957 33.5965C8.54145 33.5611 8.53332 33.5247 8.5252 33.4893C8.80548 33.3771 9.08678 33.2639 9.44119 33.1223Z" fill="white"/>
<path d="M46.6121 13.5719C46.5064 13.8398 46.4018 14.1088 46.2658 14.4535C46.0718 14.3221 45.9235 14.221 45.7093 14.0754C46.0068 13.8519 46.2495 13.6699 46.4912 13.4879C46.5318 13.5163 46.5725 13.5436 46.6121 13.5719Z" fill="white"/>
<path d="M37.8492 10.1786C37.6004 10.1301 37.4328 10.0978 37.182 10.0492C37.3699 9.72264 37.5191 9.4638 37.6684 9.20395C37.708 9.21204 37.7476 9.21912 37.7883 9.22721C37.8075 9.51941 37.8258 9.81263 37.8492 10.1786Z" fill="white"/>
</svg>
