<svg width="64" height="64" viewBox="0 0 64 64" fill="none" xmlns="http://www.w3.org/2000/svg">
<g clip-path="url(#clip0_956_815)">
<path d="M32.1858 -1.37207e-05C14.1072 -0.093304 0.0854035 14.526 -1.94123e-08 31.6885C-0.0896738 49.5687 14.2055 63.9828 31.9053 63.9986C49.5568 64.0416 63.7751 49.784 63.9972 32.4377C64.2235 14.6652 49.9426 0.0918413 32.1858 -1.37207e-05ZM51.4314 20.4779C51.8485 20.3832 52.2414 20.1823 52.7709 19.9813C52.1488 19.4962 51.793 19.0556 52.0207 18.2834C52.4848 18.6796 52.8847 19.0212 53.252 19.334C53.6164 19.1073 53.9252 18.9164 54.2441 18.7183C54.1259 18.6494 53.8697 18.5188 53.6349 18.3581C53.4797 18.2504 53.3545 18.0983 53.2164 17.9663C53.3018 17.8945 53.3886 17.8227 53.474 17.7524C54.0647 18.2203 54.6569 18.6882 55.3116 19.2063C54.7052 19.6512 53.9893 18.7642 53.6861 19.7072C53.8783 19.855 54.1259 19.9899 54.291 20.1937C54.3807 20.3043 54.3295 20.531 54.3423 20.7061C54.1928 20.6932 53.9736 20.7406 53.9025 20.6588C53.3288 19.9914 52.8933 20.3588 52.3552 20.7535C50.8535 21.8543 50.0479 21.428 49.7262 19.367C50.307 19.7646 50.5489 20.6774 51.4314 20.4779ZM40.0301 8.9128C39.5305 8.43056 38.8031 8.16934 38.8216 7.31968C41.0976 8.12485 40.9083 8.19374 42.02 5.8701C42.1196 5.66199 42.195 5.44096 42.3004 5.18262C42.8256 5.48258 43.5487 5.61463 43.3267 6.36382C43.1829 6.84606 42.7317 7.23644 42.3317 7.78757C42.7744 7.83637 43.1316 7.87799 43.4903 7.91244C43.748 7.93827 44.0611 7.87225 44.2504 7.99712C44.4853 8.15356 44.6191 8.465 44.797 8.71043C44.5721 8.82094 44.3515 9.0147 44.1209 9.02618C43.4362 9.05919 42.7488 9.00896 42.0627 9.01326C41.8506 9.0147 41.6385 9.08359 41.4108 9.12521C42.0812 10.0438 42.7331 10.803 43.2256 11.6541C43.6384 12.366 43.4106 12.7865 42.5779 13.2099C42.0983 12.0172 41.62 10.8245 41.1304 9.60888C39.0038 11.1216 37.4495 11.2494 37.0281 9.93899C38.2722 10.315 39.1476 9.70361 40.0301 8.9128ZM27.6821 9.82991C27.4658 9.82561 27.238 9.86292 27.0359 9.80838C26.589 9.68639 26.1563 9.51559 25.5613 9.31179C25.631 10.2605 25.688 11.0413 25.7463 11.822C25.6851 11.8536 25.6253 11.8852 25.5641 11.9153C25.2752 11.644 24.9877 11.3728 24.6987 11.1015C24.7258 11.0628 24.7542 11.024 24.7813 10.9853C24.8766 11.0226 24.9734 11.0585 25.1143 11.113C25.1143 10.4672 25.1143 9.83852 25.1143 9.20989C24.7371 9.99927 24.2688 10.5877 23.2554 10.1399C23.1145 10.3337 22.9807 10.5203 22.7529 10.8331C22.5949 10.6552 22.4626 10.5073 22.2576 10.2777C22.9465 10.0323 23.4831 9.83996 24.2703 9.55865C24.7998 8.90705 24.8339 8.5669 24.3258 7.71007C24.6702 7.4101 25.009 7.11588 25.4503 6.73124C25.8744 6.7499 26.0253 6.96949 25.7577 7.54358C25.5499 7.98994 25.4702 8.49801 25.3634 8.87117C26.1378 9.00035 26.7569 9.06493 27.3476 9.22855C27.5042 9.26873 27.574 9.62037 27.6821 9.82991ZM25.9798 5.82704C25.5912 6.09112 25.1969 6.34947 24.7855 6.57623C24.6745 6.63795 24.4695 6.62934 24.3656 6.56188C24.2973 6.51739 24.2731 6.25187 24.3357 6.18441C24.6674 5.8213 24.9962 5.42517 25.4061 5.17401C25.5855 5.06493 25.957 5.27448 26.3541 5.36489C26.1506 5.6218 26.0865 5.75528 25.9798 5.82704ZM22.78 4.07892C23.1771 4.66306 23.6155 4.47074 24.1322 4.29421C24.7158 4.09471 24.9037 3.68567 25.0275 3.14172C25.083 2.9006 25.3165 2.69966 25.4688 2.48151C25.6552 2.71832 25.8744 2.93648 26.0168 3.19913C26.1079 3.36848 26.0851 3.60243 26.105 3.75169C25.5129 4.30426 24.9378 4.8439 24.266 5.4711C24.219 5.19554 24.1834 4.9903 24.1194 4.6157C23.7564 5.02618 23.4532 5.3692 23.0732 5.79977C22.8796 5.73662 22.5537 5.63185 22.4028 5.58305C22.2747 4.94868 22.1708 4.43486 22.0256 3.72155C22.3843 3.88373 22.6718 3.91961 22.78 4.07892ZM22.5266 6.31071C22.8654 6.45711 23.1444 6.5791 23.55 6.7542C23.2753 7.07139 23.059 7.32399 22.8426 7.57372C22.8298 7.37135 22.817 7.16898 22.8056 6.96231C22.6035 7.10296 22.3643 7.26802 22.1252 7.4345C22.0711 7.39288 22.0156 7.35269 21.9615 7.31107C22.1451 6.98384 22.3302 6.65661 22.5266 6.31071ZM21.516 8.62001C21.7281 8.88553 21.9416 9.15104 22.2405 9.52277C22.3772 9.09507 22.4825 8.76927 22.6092 8.37458C22.4127 8.35162 22.2305 8.33152 21.8932 8.29277C22.2661 8.0129 22.548 7.80192 22.8269 7.59381C23.2084 7.51057 23.5927 7.42446 24.1294 7.30533C23.7949 8.55112 23.3251 9.50411 22.0711 9.95908C21.8562 9.59597 21.6 9.16253 21.3438 8.72909C21.4021 8.6932 21.4591 8.65732 21.516 8.62001ZM10.0919 15.512C10.5231 14.8274 10.9744 14.1557 11.454 13.5055C11.5693 13.3505 11.8312 13.3061 12.0248 13.2099C12.1245 13.4324 12.2768 13.6476 12.3081 13.8787C12.3422 14.1313 12.3408 14.4399 12.2255 14.6523C11.649 15.7187 12.4034 16.2971 12.987 16.9688C13.7073 16.498 14.2083 15.3513 15.4082 16.31C14.2425 17.5271 13.0895 18.7284 11.938 19.9297C11.8355 19.8766 11.733 19.822 11.6305 19.7689C11.7615 19.2709 11.8085 18.7269 12.0419 18.2849C12.5387 17.3477 12.0946 16.6659 11.612 15.9483C11.2178 16.0402 10.8591 16.1708 10.4904 16.198C10.0178 16.2354 9.83564 15.9182 10.0919 15.512ZM11.3985 22.2303C11.3886 22.272 11.0327 22.315 10.9829 22.2476C10.7423 21.9218 10.3651 21.5472 10.3851 21.2113C10.4235 20.597 10.7068 19.9971 10.8875 19.3914C10.9345 19.4058 10.9815 19.4202 11.0284 19.4345C11.2021 20.0273 11.4199 20.6114 11.5295 21.2156C11.5878 21.5386 11.4754 21.8988 11.3985 22.2303ZM9.44421 18.3681C9.64633 18.3236 9.93813 18.6867 10.1886 18.8661C10.1901 18.9738 10.1901 19.0814 10.1915 19.1891C9.9424 19.3613 9.64206 19.7201 9.45417 19.6684C9.05135 19.5565 8.70689 19.2321 8.33823 18.9953C8.70405 18.7729 9.04851 18.4571 9.44421 18.3681ZM8.51616 15.9268C8.77237 15.9655 9.16807 16.1923 9.19796 16.3803C9.24494 16.6846 9.12252 17.1051 8.91471 17.3261C8.7681 17.4826 8.32685 17.4811 8.0806 17.3864C7.72191 17.2486 7.42015 16.9616 7.06999 16.7219C7.38314 16.0847 7.88702 15.8321 8.51616 15.9268ZM4.95483 38.615C4.85092 38.0639 5.15126 37.705 6.15048 37.54C6.07789 37.7438 6.01241 37.9519 5.92843 38.1514C5.87149 38.2878 5.78609 38.4126 5.7135 38.5432C5.88003 38.5992 6.05938 38.7269 6.21169 38.6997C6.97747 38.5633 7.73472 38.3868 8.49623 38.2246C8.58448 38.2059 8.67415 38.1916 8.83215 38.1643C8.88055 38.3839 8.92325 38.5748 8.97876 38.826C8.05071 39.0384 7.18671 39.2695 6.30848 39.4245C5.56119 39.5594 5.07155 39.2278 4.95483 38.615ZM6.08927 41.9318C7.27781 41.4725 8.42079 41.0305 9.56378 40.5884C9.64775 40.6401 9.73031 40.6918 9.81429 40.7434C9.71323 40.9472 9.66341 41.2687 9.50541 41.3362C8.48769 41.7725 7.44719 42.1543 6.35829 42.5748C6.26008 42.3452 6.18464 42.1614 6.08927 41.9318ZM8.77237 47.0944C8.06779 46.5619 8.60156 46.2504 8.91898 45.8773C8.62291 45.4309 8.63715 44.6544 7.71906 44.9673C7.59949 45.0075 7.35752 44.6817 7.03441 44.4076C8.44356 44.1234 9.61786 43.8766 10.7993 43.6627C10.9331 43.6383 11.1964 43.7689 11.2291 43.8794C11.2847 44.0674 11.2832 44.3645 11.1694 44.4951C10.3993 45.3678 9.59509 46.2088 8.77237 47.0944ZM11.4654 49.385C11.6405 48.9472 11.8241 48.5152 11.9266 48.0029C11.5366 48.3243 11.1338 48.6329 10.7608 48.9731C10.4292 49.2759 10.1915 49.2659 9.98083 48.7535C10.9018 47.9813 11.8426 47.1919 12.7749 46.4083C13.3244 46.7944 13.323 46.793 12.9557 47.6426C12.7593 48.0961 12.5714 48.554 12.3792 49.009C12.4134 49.0334 12.4476 49.0578 12.4817 49.0822C12.8817 48.7477 13.2945 48.4291 13.676 48.0746C14.0332 47.7416 14.2439 47.8522 14.4417 48.3043C13.5066 49.0893 12.5657 49.8773 11.632 50.6609C10.879 50.282 11.2918 49.8184 11.4654 49.385ZM17.1818 52.0517C17.0949 52.0847 17.0095 52.1177 16.9227 52.1493C16.8174 51.9354 16.6565 51.7316 16.6181 51.5077C16.5042 50.8461 15.9733 50.5289 15.4538 50.9322C15.078 51.2235 14.7691 51.6555 14.5627 52.089C14.4773 52.2698 14.6695 52.6875 14.8588 52.8654C15.0168 53.0147 15.3527 52.9702 15.6103 53.0118C15.6331 52.9401 15.6545 52.8669 15.6772 52.7951C15.5534 52.6358 15.4296 52.475 15.2702 52.2712C15.3855 52.1234 15.5093 51.9655 15.6701 51.7589C16.0388 52.0775 16.3704 52.3645 16.6935 52.6444C15.6758 54.3222 14.9655 54.0308 14.1855 53.2285C13.9037 52.9401 13.7969 52.2971 13.8795 51.8679C14.0475 51.0011 14.6609 50.404 15.4965 50.1098C16.127 49.8873 16.6665 50.1112 17.0821 50.6135C17.4622 51.0714 17.4494 51.5622 17.1818 52.0517ZM20.5709 54.4126C20.3744 54.1227 20.2463 53.9132 20.0969 53.7194C19.9617 53.5457 19.8222 53.3635 19.6471 53.2429C19.5802 53.197 19.4051 53.3147 19.2799 53.3563C19.3653 53.5587 19.4464 53.7625 19.5361 53.9634C19.7311 54.3997 20.1325 54.8633 20.0727 55.2594C20.0143 55.6527 19.5418 56.1851 19.1646 56.2712C18.7802 56.3602 18.2152 56.0703 17.8664 55.7804C17.4423 55.4273 17.5291 54.8877 17.8792 54.2016C18.0771 54.5016 18.2137 54.6997 18.3404 54.9063C18.4657 55.1116 18.544 55.3656 18.7148 55.5149C18.8073 55.5952 19.1461 55.5637 19.203 55.4733C19.2912 55.334 19.2898 55.0771 19.2243 54.9121C19.1503 54.7226 18.9667 54.5748 18.8258 54.4155C18.3788 53.9117 18.3603 53.3864 18.7774 52.8654C19.1546 52.3947 19.7382 52.3559 20.3061 52.7506C20.8527 53.131 21.0036 53.6161 20.5709 54.4126ZM25.0047 54.9982C24.7286 55.8062 24.4752 56.6243 24.1592 57.4166C23.8589 58.1715 23.3493 58.3796 22.6319 58.1256C21.8676 57.8543 21.6057 57.3792 21.8405 56.5698C22.0768 55.7503 22.3615 54.9451 22.6462 54.0696C22.8725 54.1299 23.0604 54.1801 23.2611 54.2332C23.2611 54.338 23.2782 54.4097 23.2582 54.47C23.0276 55.169 22.8027 55.8708 22.5537 56.564C22.4085 56.9673 22.4626 57.3419 22.8839 57.4094C23.0903 57.4424 23.4703 57.1654 23.5728 56.9386C23.9002 56.211 24.135 55.4402 24.4211 54.6408C24.6432 54.7169 24.8126 54.7743 24.9606 54.8245C24.9834 54.9092 25.0175 54.9623 25.0047 54.9982ZM30.8392 58.5303C30.7367 59.3297 30.2741 59.7158 29.5596 59.6699C28.7782 59.6196 28.344 59.1919 28.3625 58.371C28.3824 57.4926 28.4835 56.6157 28.5504 55.7086C29.0899 55.6196 29.2849 55.7402 29.2123 56.2282C29.124 56.8166 29.1027 57.4166 29.05 58.0107C29.0102 58.4499 29.0486 58.8733 29.5909 58.9164C30.0834 58.9551 30.119 58.5533 30.1574 58.1815C30.2357 57.4036 30.3268 56.6286 30.4122 55.8507C30.4933 55.8163 30.5759 55.7804 30.657 55.7459C30.7837 55.9383 31.0186 56.132 31.0157 56.3215C31.0001 57.0578 30.9332 57.7983 30.8392 58.5303ZM11.3316 32.5985C11.0171 21.1424 20.168 11.4962 31.81 11.3541C43.2341 11.301 52.3567 20.4004 52.6499 31.4431C52.9516 42.8001 43.9558 52.3846 32.4548 52.6315C20.837 52.8812 11.6377 43.6469 11.3316 32.5985ZM33.6248 57.563C33.6618 58.1198 33.7216 58.6738 33.7216 59.2278C33.7216 59.3742 33.5323 59.5206 33.4298 59.667C33.3245 59.5465 33.1409 59.4359 33.1252 59.3039C33.0099 58.3322 32.916 57.3577 32.8491 56.3818C32.8377 56.2095 32.98 56.0258 33.0526 55.8478C33.2633 55.9526 33.5494 56.0014 33.6732 56.1708C34.0461 56.6846 34.3564 57.2458 34.8233 57.7553C34.7792 57.23 34.7052 56.7047 34.7066 56.1794C34.7066 56.0086 34.9044 55.8378 35.0112 55.667C35.1279 55.812 35.33 55.9483 35.3471 56.1048C35.4624 57.1941 35.5378 58.2863 35.6403 59.5508C34.3194 59.4101 34.3835 58.0854 33.6248 57.563ZM37.7953 58.5547C37.6103 57.6706 37.3527 56.8037 37.1392 55.9254C37.0111 55.4001 37.021 55.3972 37.6872 55.2163C37.9903 56.4248 38.2935 57.6318 38.5953 58.8331C38.1341 59.1015 37.9049 59.08 37.7953 58.5547ZM41.9232 57.8299C41.7652 57.8844 41.4748 57.8644 41.3837 57.7553C40.6236 56.8453 39.8977 55.9067 39.1632 54.9795C39.5404 54.4973 39.8251 54.5992 40.1197 55.0097C40.4799 55.5106 40.8713 55.9885 41.3937 56.4506C41.3353 55.8163 41.3083 55.1762 41.2072 54.5475C41.1332 54.0839 41.2812 53.8715 41.8307 53.8328C41.9602 55.0542 42.0954 56.2368 42.1965 57.4209C42.2093 57.5572 42.0513 57.7854 41.9232 57.8299ZM46.7214 55.4977C46.1976 55.7718 45.6909 56.0789 45.086 56.4234C44.434 55.2938 43.8191 54.2318 43.1743 53.1137C43.8604 52.7119 44.491 52.3444 45.1714 51.9469C45.3023 52.132 45.4176 52.2956 45.5799 52.5238C45.1002 52.8123 44.6632 53.075 44.2319 53.3333C44.3202 54.1327 44.696 53.9347 45.1415 53.6677C45.4859 53.4625 45.9243 52.9903 46.1364 53.8787C45.7507 54.1227 45.3564 54.371 44.9009 54.6595C45.0461 54.9164 45.1799 55.1503 45.3365 55.4273C45.8461 55.1518 46.3001 54.9063 46.7755 54.6494C47.1413 54.9709 47.2282 55.2321 46.7214 55.4977ZM49.9597 52.3803C49.5355 52.211 49.07 52.1492 48.6231 52.0387C48.5875 52.1205 48.5505 52.2024 48.5149 52.2842C48.8252 52.6588 49.1355 53.0334 49.4785 53.4467C49.3077 53.5988 49.1569 53.7309 48.9647 53.9002C48.1221 52.93 47.315 52.0014 46.4581 51.0168C46.8026 50.7183 47.0744 50.4887 47.3392 50.2519C47.7591 49.8744 48.1947 49.507 48.7868 49.86C49.3618 50.2045 49.5839 50.7212 49.3561 51.3556C49.9198 51.5651 50.4621 51.766 51.0329 51.9785C50.7653 52.5267 50.4336 52.5698 49.9597 52.3803ZM53.3345 49.7581C52.8363 50.3222 52.3353 50.3581 51.5396 49.86C51.6649 49.563 51.7062 49.2515 52.21 49.4194C52.3837 49.4768 52.6968 49.2501 52.8776 49.0793C52.9516 49.009 52.8491 48.5913 52.8136 48.5899C52.5773 48.5784 52.3353 48.6214 52.1019 48.6774C51.9923 48.7033 51.9012 48.7994 51.7973 48.8568C51.161 49.2041 50.6002 49.1195 50.2173 48.61C49.8401 48.1062 49.954 47.6268 50.3312 47.1848C50.781 46.6566 51.2194 46.6135 52.1275 47.1546C51.7645 47.3111 51.5482 47.4015 51.3347 47.4977C51.1539 47.5795 50.9418 47.6326 50.8094 47.766C50.7311 47.845 50.7411 48.0703 50.7923 48.198C50.8151 48.2569 51.0443 48.2813 51.1553 48.2454C51.3318 48.188 51.487 48.066 51.6506 47.9713C52.388 47.5421 52.9516 47.601 53.4199 48.155C53.8398 48.6516 53.8099 49.2199 53.3345 49.7581ZM55.017 46.6566C54.0562 46.1055 53.1239 45.5027 52.1318 44.8855C52.2471 44.6731 52.341 44.5023 52.4663 44.2727C53.5495 44.9472 54.5885 45.5917 55.6262 46.2375C55.639 46.338 55.6532 46.4384 55.666 46.5389C55.4468 46.5834 55.1636 46.7413 55.017 46.6566ZM57.1464 43.6311C56.1898 43.2135 55.286 42.8202 54.3252 42.4026C54.1715 42.7054 54.0647 42.9135 53.9323 43.1733C53.7302 43.0929 53.5452 43.0197 53.3374 42.9379C53.3701 42.8087 53.3815 42.7154 53.4171 42.6336C53.6334 42.1299 53.8711 41.6362 54.0733 41.1266C54.2711 40.6272 54.5302 40.5813 54.9131 40.9731C54.8234 41.2128 54.7351 41.4524 54.6284 41.7395C55.5607 42.1614 56.4589 42.5691 57.414 43.0011C57.32 43.2221 57.2432 43.4044 57.1464 43.6311ZM58.3819 39.2694C57.2631 38.7872 56.2055 39.1948 55.1337 39.4259C55.0454 39.4445 54.9515 39.4288 54.7935 39.4288C54.8291 38.272 55.8625 38.7743 56.3265 38.3681C56.1728 37.7897 54.9387 37.7137 55.5636 36.6702C56.5799 37.5142 57.3755 38.6537 58.8658 38.6408C58.8872 38.7226 58.9085 38.8044 58.9313 38.8862C58.7434 39.0212 58.4901 39.3154 58.3819 39.2694ZM58.4274 18.3466C57.8196 18.5102 57.2147 18.6882 56.53 18.8819C56.8247 19.3312 57.1179 19.6512 57.2545 20.0287C57.3414 20.2684 57.1962 20.5942 57.1549 20.8812C56.9485 20.7621 56.7065 20.6789 56.5443 20.5167C56.2397 20.211 55.9806 19.8565 55.703 19.5235C55.7401 19.4761 55.7771 19.4302 55.8155 19.3828C56.002 19.4273 56.1884 19.4718 56.3777 19.5163C56.3777 19.4632 56.3962 19.4044 56.3749 19.3828C55.3145 18.2275 54.079 17.3434 52.5702 16.8755C52.4235 16.8296 52.2499 16.6918 52.2058 16.5583C52.1773 16.4722 52.3424 16.2368 52.4591 16.2024C52.9018 16.0732 53.3601 15.9986 54.0106 15.8622C53.6263 16.2095 53.3915 16.4219 53.1011 16.6846C53.427 16.841 53.6961 16.9716 53.9665 17.1008C53.9252 17.042 53.8854 16.9817 53.8441 16.9228C54.627 16.2239 55.4084 15.5264 56.1913 14.8274C56.2567 14.8834 56.3222 14.9379 56.3877 14.9939C56.1898 15.3053 55.992 15.6182 55.6803 16.1076C56.1671 15.878 56.476 15.733 56.8176 15.5723C56.9941 16.244 57.367 16.3602 57.9435 16.0473C58.0673 15.9799 58.295 16.1062 58.4744 16.1435C58.3776 16.333 58.3093 16.5482 58.1712 16.6989C58.0972 16.7808 57.8937 16.7276 57.7641 16.7764C57.6061 16.8367 57.3471 16.93 57.3385 17.0276C57.3229 17.2085 57.4154 17.4424 57.5435 17.5773C57.6688 17.7094 57.962 17.8586 58.0588 17.7998C58.2039 17.7094 58.2424 17.4438 58.3477 17.2041C58.4217 17.2156 58.5641 17.1941 58.6295 17.2558C58.9213 17.5271 59.1918 17.8213 59.4693 18.1069C59.1206 18.1859 58.7705 18.2547 58.4274 18.3466Z" fill="#18222D"/>
<path d="M46.4311 20.1349C43.1402 20.1349 39.8991 20.1349 36.5598 20.1349C36.5598 20.4305 36.5598 20.6444 36.5598 20.8582C36.5769 25.5687 36.5527 30.2806 36.6339 34.991C36.6623 36.6717 36.0972 38.0165 34.9728 39.1747C34.7635 39.39 34.4945 39.6541 34.2283 39.6885C33.2291 39.8177 32.2199 39.9096 31.2136 39.9153C30.6926 39.9182 30.1702 39.7129 29.5397 39.578C29.6962 39.8923 29.7916 40.1076 29.9069 40.31C31.874 43.8077 35.3742 45.1396 38.954 44.7032C43.5999 44.1363 46.5549 40.6186 46.562 35.7545C46.5706 30.7327 46.5207 25.7108 46.4937 20.6903C46.4909 20.5095 46.4524 20.3286 46.4311 20.1349Z" fill="#18222D"/>
<path d="M24.5692 24.5238C25.372 23.766 26.1278 22.9307 26.7626 22.0265C27.1299 21.5041 27.2124 20.7807 27.4572 20.0459C24.135 20.0459 21.0107 20.0502 17.8878 20.0402C17.4237 20.0387 17.4195 20.3172 17.4252 20.6516C17.5106 25.596 17.5946 30.5389 17.6785 35.4833C17.9419 32.6013 18.7689 29.9548 20.7872 27.8651C21.9501 26.658 23.3451 25.6792 24.5692 24.5238Z" fill="#18222D"/>
<path d="M25.2239 46.6824C22.5807 44.5181 20.9865 41.7711 20.8128 38.305C20.679 35.6297 21.0406 33.0477 22.8269 30.8905C23.5401 30.0308 24.2617 29.1726 25.0474 28.3803C26.7157 26.6968 27.8003 24.8109 27.3334 22.1198C26.7199 24.1291 25.362 25.3261 24.0027 26.5231C23.3436 27.1044 22.696 27.6986 22.0583 28.3042C18.8187 31.3785 18.0358 35.1661 18.8543 39.4388C19.6001 43.3297 22.1594 45.7022 25.4076 47.5106C25.8573 47.7603 26.3498 47.9311 26.8238 48.1392C26.3313 47.568 25.7719 47.1317 25.2239 46.6824Z" fill="#18222D"/>
<path d="M24.6005 40.4018C24.4596 39.8493 24.3713 39.2795 24.3101 38.7111C24.0653 36.4062 24.3557 34.1945 25.7933 32.31C27.0758 30.6265 27.6494 28.8008 27.3021 26.6322C27.211 26.836 27.1299 26.9968 27.0672 27.1632C26.7342 28.0703 26.2317 28.8339 25.5229 29.517C23.5159 31.4546 22.3245 33.8414 22.1024 36.6487C21.6569 42.2633 24.9222 46.6064 29.5639 48.3559C31.6861 49.1553 33.8155 49.0821 35.9734 48.3416C34.8802 48.2081 33.807 48.1909 32.795 47.934C28.744 46.9078 25.6965 44.7133 24.6005 40.4018Z" fill="#18222D"/>
<path d="M30.9588 17.1496C30.9915 17.9031 30.9915 17.9031 29.8329 17.6907C29.7788 17.7581 29.7233 17.827 29.6692 17.8945C29.9254 18.0624 30.2172 18.4011 30.4307 18.3581C30.7937 18.2849 31.3403 18.0179 31.3972 17.7452C31.5367 17.0735 31.5096 16.343 31.42 15.6526C31.3573 15.1733 30.8862 14.9207 30.4449 15.0771C30.1247 15.1905 29.7503 15.5163 29.6521 15.8277C29.3802 16.6875 29.9524 17.2228 30.9588 17.1496ZM30.4549 15.4402C30.536 15.4431 30.6172 15.446 30.6997 15.4503C30.8079 15.7058 31.0171 15.9713 30.9944 16.2138C30.9759 16.4133 30.6812 16.587 30.509 16.7707C30.3766 16.5238 30.166 16.287 30.1361 16.0272C30.1147 15.8464 30.3396 15.6369 30.4549 15.4402Z" fill="#18222D"/>
<path d="M33.2803 18.3466C33.5736 18.338 33.9479 18.0495 34.1187 17.7768C34.2909 17.4998 34.2568 17.0922 34.3123 16.7492C34.2611 16.3803 34.2995 15.977 34.1358 15.6929C33.9764 15.4144 33.6091 15.0901 33.333 15.0901C33.0512 15.0901 32.5644 15.4245 32.5245 15.6713C32.4135 16.3574 32.422 17.085 32.5274 17.7739C32.5615 18.0122 33.0213 18.3538 33.2803 18.3466ZM32.9416 16.1607C33.0369 15.9297 33.2035 15.7287 33.3387 15.5149C33.4725 15.7359 33.6405 15.944 33.7287 16.1823C33.7899 16.3488 33.7401 16.5554 33.7401 16.7449C33.7885 16.7678 33.8369 16.7894 33.8853 16.8123C33.7074 17.1798 33.4924 17.8744 33.3572 17.8601C32.6854 17.784 33.0014 17.1324 32.8932 16.719C32.8505 16.5454 32.8732 16.3258 32.9416 16.1607Z" fill="#18222D"/>
<path d="M35.683 17.1324C35.4268 17.4711 35.2019 17.8328 34.8617 18.3337C35.609 18.3337 36.1271 18.3509 36.6424 18.3193C36.7506 18.3136 36.8474 18.1313 36.9498 18.0294C36.8502 17.9548 36.7591 17.8357 36.6481 17.8127C36.4303 17.7682 36.2011 17.7768 35.8197 17.7538C36.1086 17.4395 36.3392 17.2616 36.4702 17.0291C36.6709 16.6688 36.8972 16.2799 36.9427 15.8823C37.0096 15.2953 36.6153 15.0312 36.0503 15.0398C35.4866 15.0484 35.108 15.2508 35.1478 16.0689C35.3784 15.9182 35.5008 15.8034 35.646 15.7517C35.8567 15.6756 36.0844 15.644 36.305 15.5938C36.3292 15.8364 36.4502 16.1277 36.3577 16.3114C36.2011 16.62 35.8965 16.8482 35.683 17.1324Z" fill="#18222D"/>
<path d="M27.9127 17.9763C27.917 18.0897 28.0793 18.1959 28.1675 18.305C28.243 18.2059 28.381 18.1084 28.3824 18.0079C28.3995 17.042 28.3924 16.0761 28.3924 15.1001C27.7875 15.179 27.1626 15.8091 27.1783 16.3043C27.379 16.2095 27.564 16.1234 27.8999 15.9655C27.8999 16.7047 27.8871 17.3405 27.9127 17.9763Z" fill="#18222D"/>
</g>
<defs>
<clipPath id="clip0_956_815">
<rect width="64" height="64" fill="white"/>
</clipPath>
</defs>
</svg>
