<svg width="64" height="64" viewBox="0 0 64 64" fill="none" xmlns="http://www.w3.org/2000/svg">
<path d="M63.5628 27.1767C63.3533 25.9734 63.1578 24.761 62.8283 23.5885C62.4604 22.2811 62.0261 20.9789 61.4793 19.7383C60.7742 18.1382 60.0065 16.5534 59.1187 15.0495C58.4557 13.9258 57.5462 12.9511 56.7734 11.8903C55.4653 10.0949 53.9018 8.55251 52.153 7.2079C50.9433 6.27682 49.7004 5.37528 48.4012 4.57519C47.1903 3.82904 45.9295 3.12784 44.6137 2.60258C42.9531 1.93991 41.2337 1.39667 39.5028 0.948466C38.0095 0.561907 36.4715 0.302488 34.9361 0.135536C33.5884 -0.0108688 32.2152 -0.0314168 30.8599 0.0392169C29.1788 0.12783 27.4875 0.267813 25.8346 0.573465C24.3847 0.841873 22.9706 1.33631 21.5604 1.78965C18.7194 2.70147 16.0828 4.04608 13.6736 5.81192C12.5904 6.60559 11.6042 7.53153 10.5504 8.36758C9.05837 9.55037 7.85889 11.0041 6.71561 12.5054C6.10629 13.3068 5.50207 14.1287 5.02304 15.011C4.019 16.8565 2.98941 18.7007 2.18209 20.636C1.59576 22.041 1.43481 23.6206 0.931508 25.068C0.322185 26.8184 0.277476 28.6446 0.0922519 30.4361C-0.174726 33.0252 0.175283 35.6168 0.661976 38.1699C0.902128 39.4297 1.15761 40.6999 1.57021 41.9096C2.33282 44.1494 3.26661 46.3133 4.47376 48.3681C5.66941 50.4062 7.04901 52.2825 8.63427 54.0175C10.4188 55.9696 12.3835 57.7175 14.656 59.0723C16.2885 60.0471 17.9325 61.0321 19.6647 61.7988C21.1695 62.4653 22.7943 62.8699 24.386 63.3181C25.3951 63.6019 26.4337 63.8652 27.4722 63.9371C28.9744 64.0411 30.4882 63.964 31.9968 63.964C34.2565 64.0539 36.4856 64 38.7389 63.5146C41.599 62.8994 44.2944 61.9388 46.8556 60.5955C48.9416 59.5013 50.9203 58.2157 52.6895 56.6194C54.4651 55.018 56.2075 53.3805 57.5602 51.4015C58.7214 49.7012 59.7689 47.9173 60.7793 46.1207C61.2698 45.2474 61.6109 44.2791 61.9315 43.3236C62.339 42.1087 62.7299 40.8797 62.9943 39.6288C63.3737 37.8231 63.757 36.0034 63.9128 34.1694C64.1095 31.8385 63.9652 29.4922 63.5628 27.1767ZM32.2599 63.616C14.6279 63.72 0.780774 49.7628 0.718181 32.315C0.654311 14.469 14.4414 0.811051 31.6774 0.619698C49.3146 0.424492 63.1591 14.428 63.3558 32.1365C63.2128 49.5111 49.5484 63.5146 32.2599 63.616Z" fill="#18222D"/>
<path d="M9.18867 32.3638C9.45948 44.2803 18.9289 54.1241 31.2316 54.3245C44.0453 54.5325 53.9401 44.3972 54.1342 31.7384C53.9861 19.3852 44.3314 9.03282 31.3402 9.13813C19.4194 9.23445 8.88465 18.9511 9.18867 32.3638ZM10.2387 28.9348C10.1237 28.7204 10.0637 28.4789 9.97811 28.2491C10.0305 28.2195 10.0816 28.19 10.134 28.1617C10.3664 28.5033 10.5989 28.8437 10.8621 29.2302C10.9668 29.1056 11.0639 29.0273 11.1137 28.9246C11.9172 27.2782 12.6977 25.6215 13.5204 23.9853C13.8346 23.3599 13.6583 22.8603 13.3313 22.3222C13.0477 21.8548 12.8293 21.3462 12.5815 20.8556C12.6683 20.8107 12.7552 20.7644 12.8433 20.7195C13.2342 21.4194 13.6238 22.118 14.0684 22.9143C14.5666 22.3454 15.0379 21.8252 15.4901 21.2871C16.4456 20.1506 17.373 18.9896 18.3515 17.8749C18.6389 17.5487 18.653 17.3034 18.4307 16.9798C18.3464 16.8565 18.2723 16.7255 18.2046 16.5919C17.6515 15.4965 17.6489 15.5003 16.7892 16.3184C15.8861 17.1788 14.9702 18.0264 13.9981 18.8214C14.9843 17.261 16.627 16.3004 17.6885 14.871C17.9364 14.8274 18.1918 14.8389 18.3911 14.7387C20.2306 13.8154 22.0688 12.8907 23.8814 11.9147C24.1624 11.7631 24.3042 11.3509 24.5367 11.0208C24.6019 11.5345 24.9302 11.6553 25.399 11.5461C26.5141 11.2854 27.6319 11.0337 28.7547 10.7768C27.5999 10.7768 26.449 10.7768 25.2968 10.7768C25.2891 10.7203 25.2814 10.6625 25.2738 10.606C26.5014 10.4981 27.729 10.3903 28.9565 10.2824C28.9604 10.258 28.9642 10.2336 28.968 10.2092C28.7713 10.1642 28.5746 10.118 28.3779 10.0731C30.8305 9.51313 33.2576 9.72118 35.8494 10.1039C35.5416 10.2593 35.3742 10.3428 35.1826 10.4391C36.1381 10.5495 37.0591 10.6484 37.9763 10.7653C38.2471 10.7999 38.509 10.904 38.7785 10.9374C39.3265 11.0041 39.5948 11.2083 39.4811 11.8428C39.4492 12.0213 39.7915 12.3475 40.0317 12.4823C41.8443 13.502 43.6736 14.4909 45.5373 15.5106C45.6535 15.4027 45.7813 15.2833 45.7979 15.2679C46.1096 15.7109 46.3548 16.1771 46.7074 16.538C47.6999 17.5564 48.7436 18.5247 49.7515 19.529C49.9776 19.755 50.1398 20.0465 50.3314 20.3073C50.2867 20.3458 50.2407 20.3843 50.196 20.4241C48.7679 19.0333 47.3397 17.6424 45.8515 16.1938C45.3878 16.8513 44.965 17.4498 44.5115 18.0932C45.7123 19.6202 46.8824 21.1061 48.05 22.5919C48.2071 22.7923 48.377 22.9849 48.5098 23.1994C48.819 23.7041 49.0744 23.5949 49.3567 23.1698C49.7208 22.6215 50.1053 22.0872 50.4924 21.5543C50.5716 21.4451 50.698 21.3693 50.8028 21.2794C50.8513 21.3103 50.8998 21.3411 50.9497 21.3706C50.79 21.666 50.6444 21.9704 50.4681 22.2542C50.2918 22.5393 50.1219 22.8462 49.883 23.0722C49.2009 23.7156 49.1792 24.3372 49.6135 25.1823C50.3518 26.6168 50.9369 28.1309 51.5935 29.6078C51.6867 29.8171 51.8285 30.0046 51.9831 30.2615C52.4161 29.7362 52.8083 29.261 53.2005 28.7859C53.2656 28.8295 53.332 28.8732 53.3972 28.9169C53.2349 29.1866 53.1251 29.5179 52.899 29.7131C51.8822 30.5979 52.2002 31.6626 52.4583 32.7157C52.4864 32.8287 52.724 32.9391 52.8773 32.961C53.0714 32.9892 53.2797 32.9263 53.5402 32.8955C53.5658 33.833 53.6399 34.6883 52.3076 34.9053C52.7265 35.0543 52.9296 35.1262 53.134 35.1994C52.3689 35.2983 51.582 34.8116 50.7248 35.541C51.4862 35.6386 52.1198 35.7144 52.7521 35.8043C52.876 35.8223 52.9922 35.8942 53.1123 35.9404C53.0152 36.047 52.9373 36.1934 52.816 36.2499C52.6129 36.345 52.3829 36.3822 52.0252 36.4824C52.3523 36.6455 52.5592 36.7482 52.7661 36.8522C52.761 36.8908 52.7572 36.9293 52.7521 36.9691C52.1262 36.8946 51.499 36.8201 50.873 36.7444C50.8615 36.8278 50.8488 36.9126 50.8373 36.9961C51.444 37.1014 52.0508 37.2067 52.6742 37.3146C52.793 38.0029 52.5592 38.4036 51.8796 38.595C51.5935 38.6759 51.3035 38.7439 51.0148 38.8133C50.2279 39.0021 50.2152 39.0252 50.5026 39.8869C50.9854 39.815 51.4747 39.7418 51.9627 39.6686C52.0189 39.7187 52.0751 39.7675 52.13 39.8176C51.1949 40.059 51.1936 40.7448 51.2639 41.4627C51.2051 41.455 51.1451 41.4486 51.0863 41.4409C51.0672 41.229 51.0774 41.0081 51.0186 40.8077C50.9701 40.6395 50.8411 40.4944 50.7466 40.3403C50.6393 40.5085 50.4476 40.6729 50.44 40.845C50.4157 41.4203 50.4975 42.0021 50.463 42.5761C50.4106 43.4289 49.9712 44.1532 49.2775 44.5616C48.8279 44.8274 48.5239 45.0124 48.5507 45.5607C48.5558 45.6532 48.4306 45.7521 48.299 45.9499C48.2326 45.5453 48.1854 45.2577 48.1381 44.97C48.0602 44.9649 47.9823 44.961 47.903 44.9559C47.829 45.5749 47.7561 46.1939 47.6821 46.8142C47.5965 46.8116 47.5109 46.8078 47.4253 46.8052C47.387 46.2594 47.3499 45.7136 47.3103 45.1421C46.8939 45.1652 46.6985 45.2422 46.7866 45.7226C46.8786 46.2196 46.8351 46.7448 46.83 47.2585C46.8224 48.0162 46.1734 48.3681 45.7085 48.7174C44.4809 49.6395 43.2201 50.5616 41.8507 51.2358C40.2616 52.018 38.5729 52.6318 36.8765 53.143C34.5388 53.8467 32.1194 54.0317 29.6847 53.7684C26.8079 53.4563 24.0513 52.6678 21.5003 51.3116C18.7667 49.8591 16.3613 47.9623 14.4554 45.4683C13.3019 43.958 12.3285 42.3475 11.5659 40.6061C11.4305 40.2979 11.3156 40.0564 11.7486 39.833C12.1612 39.6211 12.0897 38.6155 11.6745 38.2521C11.3079 37.931 10.9183 37.6356 10.5504 37.3159C10.4852 37.2593 10.4725 37.1412 10.544 36.9319C10.9898 37.2555 11.4356 37.5804 11.8035 37.8488C12.395 37.6279 12.9289 37.3891 13.4846 37.2337C13.9279 37.1104 14.1092 36.9088 14.0914 36.4272C14.0543 35.4023 14.0454 34.3736 14.0901 33.3501C14.1118 32.8274 13.9853 32.4498 13.5638 32.139C12.7782 31.5586 12.0117 30.9511 11.2338 30.3604C11.1891 30.327 11.115 30.3334 10.9988 30.309C10.7241 32.0145 10.4507 33.7084 10.1774 35.4023C10.1058 35.3959 10.0356 35.3895 9.96406 35.3831C9.99854 34.8771 10.0037 34.3672 10.0739 33.8664C10.2234 32.7876 10.3869 31.7114 10.5798 30.6403C10.6973 30.0136 10.5261 29.4717 10.2387 28.9348Z" fill="#18222D"/>
<path d="M3.45694 26.3586C3.51826 26.7722 3.62045 27.3257 3.88104 27.4169C4.22466 27.5363 4.69347 27.2923 5.13929 27.1973C5.23893 27.8407 4.986 28.66 5.9696 28.8347C6.60064 28.9464 7.2138 29.2983 7.90104 28.886C7.60213 28.6574 7.28022 28.5098 6.94554 28.4006C6.64663 28.303 6.31706 28.285 6.03986 28.1515C5.93128 28.0988 5.91723 27.8278 5.89168 27.6506C5.88785 27.6223 6.11778 27.5119 6.14461 27.5376C6.78331 28.1694 6.83696 27.4657 7.01708 27.1163C7.18442 27.3796 7.32749 27.6056 7.47183 27.8317C7.61363 27.6711 7.75542 27.5106 7.9202 27.3231C8.0901 27.309 8.30981 27.2897 8.65344 27.2615C8.21784 26.8505 7.87677 26.5307 7.51271 26.1878C7.36325 26.1352 7.04774 26.1223 6.98259 25.9862C6.69389 25.3852 6.49334 25.669 6.2749 26.0106C5.88913 25.7229 5.65281 25.3788 5.98876 24.9306C6.1676 24.6917 6.49334 24.3038 6.64152 24.3501C7.08606 24.4875 7.48333 24.7931 7.87549 25.068C7.91765 25.0975 7.76691 25.3531 7.77458 25.5008C7.78224 25.6613 7.87166 25.818 7.92404 25.9772C8.21784 25.8359 8.55635 25.7435 8.78884 25.5342C8.92297 25.4121 8.97662 25.0705 8.91275 24.8792C8.63172 24.038 7.841 23.9263 7.13204 23.7683C6.2468 23.5718 5.74861 23.9327 5.55445 24.8548C5.46119 25.2927 5.43054 25.7448 5.35517 26.3047C5.22232 26.1275 5.14695 26.0568 5.10863 25.9695C4.93618 25.5842 4.81483 25.1681 4.59894 24.8098C4.27959 24.2807 3.83378 24.3205 3.52975 24.8432C3.44928 24.9806 3.27044 25.0551 3.1708 25.1861C2.98175 25.4353 2.81696 25.7024 2.64196 25.9631C2.85912 26.0671 3.07628 26.1711 3.29343 26.2752C3.34836 26.3021 3.40201 26.3304 3.45694 26.3586Z" fill="#18222D"/>
<path d="M49.5075 13.0782C49.3657 13.2413 49.2635 13.3196 49.215 13.4224C49.1204 13.624 49.0553 13.8398 48.9773 14.0504C49.1677 13.9759 49.3823 13.9374 49.5432 13.8218C50.1015 13.4198 50.6418 12.9922 51.1566 12.5992C51.5884 12.919 51.923 13.1655 52.2565 13.4134C52.2437 13.4738 52.2309 13.5354 52.2181 13.5958C51.5462 13.6561 50.8756 13.7165 50.2037 13.7768C50.196 13.8385 50.1883 13.8988 50.1794 13.9605C50.5933 14.0491 51.0072 14.139 51.4223 14.2276C51.444 14.2905 51.467 14.3522 51.4887 14.4151C51.1604 14.6013 50.813 14.7631 50.5102 14.984C50.3276 15.1176 50.2024 15.3398 50.0785 15.5388C50.0568 15.5748 50.1717 15.6955 50.2228 15.7764C50.3723 15.6762 50.532 15.5889 50.6686 15.4733C51.025 15.1703 51.3712 14.8556 51.8477 14.4331C51.8886 15.5363 51.9627 16.4481 53.0995 16.8629C53.0484 16.6857 53.0229 16.5893 52.9922 16.4956C52.8019 15.9138 52.5873 15.3398 52.4251 14.7516C52.2692 14.1839 52.5707 13.7871 53.1353 13.755C53.3231 13.7447 53.5121 13.7537 53.7242 13.7537C53.8085 13.4866 53.9235 13.2323 53.958 12.9665C53.9746 12.8393 53.8724 12.6197 53.7663 12.5722C53.6514 12.5208 53.4253 12.5722 53.3244 12.6647C52.7291 13.2053 52.457 13.2118 51.8336 12.666C52.0623 12.2306 52.2948 11.8042 52.5055 11.3663C52.5388 11.297 52.4851 11.1069 52.4417 11.0953C52.3357 11.0684 52.1836 11.0761 52.0981 11.1377C51.1719 11.8042 51.0455 11.8145 50.2522 11.2135C49.7387 11.6373 50.2944 11.8697 50.454 12.151C49.7974 12.5632 48.8803 12.2409 48.3642 12.9048C48.3897 12.9626 48.4153 13.0204 48.4421 13.0782C48.7653 13.0782 49.0859 13.0782 49.5075 13.0782Z" fill="#18222D"/>
<path d="M18.2468 11.3111C18.9072 10.7601 19.5191 10.2888 20.0798 9.76356C20.3749 9.48744 20.5831 9.50286 20.9114 9.6865C21.1363 9.81236 21.4441 9.79053 21.7149 9.83548C21.7136 9.51441 21.7941 9.16253 21.6894 8.87999C21.5693 8.55508 21.2755 8.29823 21.0724 8.00157C20.61 7.32734 20.1654 6.64026 19.6915 5.97502C19.5893 5.83247 19.4092 5.69762 19.2419 5.65781C18.5355 5.48829 17.0779 6.51441 16.8467 7.45961C17.0818 7.26569 17.2108 7.16295 17.336 7.05636C17.7179 6.73273 18.0743 6.37057 18.4907 6.10088C18.6389 6.00456 19.0477 6.04437 19.1346 6.16766C19.7745 7.07177 20.3634 8.01313 20.8833 8.81065C20.3647 9.124 19.9585 9.33077 19.5983 9.59917C19.2764 9.83804 19.0273 10.1771 18.7002 10.4044C18.5814 10.4866 18.2084 10.4391 18.1535 10.3389C17.7562 9.61844 17.4228 8.86458 17.0434 8.13385C16.9272 7.91039 16.7343 7.72545 16.5414 7.47759C16.4584 7.63427 16.392 7.70619 16.4073 7.73701C16.9936 8.88385 17.5838 10.0268 18.2468 11.3111Z" fill="#18222D"/>
<path d="M25.7285 6.65439C25.7937 7.91938 26.1437 8.13128 27.2423 7.60602C27.2614 7.59703 27.2959 7.5996 27.301 7.58675C27.4569 7.20533 27.6089 6.82263 27.7622 6.4412C27.4262 6.44506 27.0826 6.40396 26.7594 6.47074C26.5448 6.51441 26.3596 6.71218 26.1616 6.84061C26.1207 6.77896 26.0798 6.71732 26.0389 6.65567C26.4516 5.94163 27.3534 5.8787 27.9206 5.29822C27.651 5.29822 27.3828 5.29822 27.0711 5.29822C27.3508 4.53152 26.7607 4.68949 26.3315 4.58546C26.4911 4.25413 26.6329 3.9793 26.7543 3.69548C26.7964 3.59787 26.8361 3.43606 26.7875 3.3757C26.7249 3.29864 26.5397 3.23186 26.4669 3.27039C26.1003 3.4656 25.7515 3.69419 25.4041 3.92022C25.3734 3.94077 25.3913 4.0358 25.3849 4.12827C25.5318 4.19762 25.6774 4.26568 25.8052 4.32476C25.6097 5.07476 25.4181 5.80807 25.2189 6.56706C25.422 6.60174 25.5791 6.6287 25.7285 6.65439ZM27.0366 6.5555C27.112 6.63256 27.1873 6.7109 27.264 6.78795C26.9689 7.06406 26.6738 7.33889 26.3787 7.61501C26.3149 7.5508 26.251 7.4853 26.1871 7.42109C26.4707 7.13213 26.7543 6.84317 27.0366 6.5555Z" fill="#18222D"/>
<path d="M57.4363 37.7448C57.7736 37.8694 58.1159 37.9798 58.4736 38.1031C57.877 38.5873 56.873 37.565 56.569 38.7131C57.7889 39.0047 58.9079 39.2718 60.064 39.5466C60.0742 39.458 60.0946 39.282 60.1087 39.1626C59.599 39.0945 59.143 39.0329 58.6856 38.9713C58.6908 38.9109 58.6959 38.8505 58.701 38.7902C59.217 38.7902 59.7331 38.7902 60.2479 38.7902C60.2569 38.7311 60.2658 38.6733 60.2747 38.6142C59.682 38.3728 59.0893 38.1301 58.4966 37.8886C58.5132 37.8386 58.5298 37.7885 58.5464 37.7384C59.1404 37.9079 59.7357 38.0774 60.382 38.2623C60.4229 38.0299 60.4638 37.7923 60.4804 37.696C59.2899 37.4096 58.1772 37.1412 57.0327 36.8651C56.7836 37.3415 56.8449 37.5265 57.4363 37.7448Z" fill="#18222D"/>
<path d="M56.3646 23.496C56.127 23.4305 55.9111 23.2906 55.6761 23.2122C55.5304 23.1634 55.3682 23.1686 55.2124 23.1506C55.1804 23.2328 55.1498 23.315 55.1178 23.3972C55.5368 23.654 55.9558 23.9121 56.3799 24.1716C55.7259 24.4387 55.0335 24.7212 54.3399 25.0038C54.3808 25.1103 54.4217 25.2169 54.4625 25.3248C55.2328 25.0204 56.0044 24.7161 56.7708 24.413C56.8973 24.6133 57.002 24.7777 57.1336 24.9858C57.2358 24.8715 57.3303 24.8163 57.3341 24.7533C57.375 24.0971 57.7723 24.1009 58.2615 24.2101C58.4889 24.2615 59.8647 23.4434 60.0052 23.2084C60.0103 23.2007 59.9873 23.1763 59.9068 23.044C59.5696 23.148 59.1685 23.4074 58.8415 23.3329C58.5106 23.2585 58.2552 22.8526 57.8822 22.5149C57.6905 23.401 57.1694 23.7208 56.3646 23.496Z" fill="#18222D"/>
<path d="M55.0323 18.4014C55.1319 18.5157 55.1907 18.8471 55.1357 18.8843C54.7193 19.1694 54.7589 19.4956 55.031 19.8745C54.354 20.184 53.8558 19.9746 53.3704 19.3697C53.3563 19.6561 53.3371 19.8141 53.3423 19.9721C53.3614 20.6168 53.585 20.8261 54.2505 20.8325C55.045 20.8402 55.2609 20.6566 55.3171 19.9875C55.3337 19.7948 55.4027 19.484 55.5215 19.443C56.1117 19.2388 56.0223 18.8227 55.8587 18.3436C56.4578 18.3912 57.0084 18.4258 57.1017 17.5692C56.1934 17.934 55.2865 17.1429 54.2569 17.7542C54.5839 18.0187 54.8406 18.1818 55.0323 18.4014Z" fill="#18222D"/>
<path d="M56.3327 29.08C56.4425 29.3021 56.6942 29.4524 56.8807 29.636C56.9714 29.3997 57.1029 29.1711 57.1476 28.9271C57.3112 28.023 57.1017 26.9789 58.1287 26.4139C58.1389 26.4087 58.1146 26.3394 58.1083 26.3008C57.9179 26.2598 57.6982 26.2662 57.5526 26.1647C57.4057 26.062 57.3316 25.8526 57.1796 25.6189C57.0403 25.9284 56.9497 26.1313 56.7976 26.4691C56.3863 26.1686 56.0312 25.9079 55.6761 25.6472C55.2085 26.2058 55.4347 26.5461 56.7146 27.1099C56.1858 27.6917 55.9737 28.3556 56.3327 29.08Z" fill="#18222D"/>
<path d="M35.3985 6.23958C35.9593 6.10088 36.5201 5.96089 37.1179 5.8132C36.9122 6.15096 36.6836 6.46047 36.5277 6.80208C36.3757 7.13341 36.2991 7.49814 36.1892 7.84746C36.2608 7.87314 36.3323 7.89883 36.4038 7.92323C36.7308 7.21047 37.0579 6.49771 37.3862 5.7811C37.6634 5.84146 37.8588 5.88384 38.0619 5.92879C38.0798 5.39839 38.0823 5.39968 38.6086 4.57262C38.6866 4.44933 38.7581 4.3055 38.7798 4.16423C38.8322 3.81491 38.8539 3.46046 38.9101 2.87998C38.4336 3.73786 37.9661 4.41723 36.9851 3.61714C36.9608 3.68007 36.9352 3.74299 36.911 3.80592C37.0068 4.14625 37.1026 4.48658 37.2444 4.98872C36.6555 5.30079 35.9874 5.65524 35.3193 6.00841C35.3449 6.08547 35.3717 6.16252 35.3985 6.23958Z" fill="#18222D"/>
<path d="M40.4328 56.1455C40.618 56.5334 40.8058 56.8647 40.931 57.2179C40.9782 57.3502 40.8837 57.5338 40.853 57.6931C40.724 57.5903 40.5299 57.5133 40.4775 57.381C40.3382 57.0252 40.2616 56.6451 40.1428 56.2162C39.9295 56.3176 39.7085 56.4216 39.5667 56.4884C39.9652 57.6314 40.3459 58.7217 40.7445 59.8634C40.8863 59.8313 41.1047 59.7838 41.3359 59.7324C41.12 59.2085 40.9322 58.7911 40.7802 58.3609C40.7432 58.2568 40.8237 58.1104 40.8505 57.9833C40.9846 58.0514 41.1954 58.0886 41.2375 58.1952C41.4087 58.6164 41.5275 59.0582 41.6795 59.5385C41.829 59.4846 42.0538 59.4037 42.2058 59.3497C41.8034 58.1875 41.4253 57.0933 41.0344 55.9645C40.9131 56.0017 40.6768 56.0723 40.4328 56.1455Z" fill="#18222D"/>
<path d="M11.8431 50.2611C12.3732 50.0929 12.8765 49.8912 12.9519 49.3865C13.0107 48.9884 12.7003 48.5351 12.5546 48.1087C11.5212 49.0102 10.6539 49.7692 9.77372 50.5372C10.1633 51.2911 10.6155 51.5839 11.0856 51.3347C11.2913 50.9302 11.4969 50.3703 11.8431 50.2611ZM12.5521 48.8099C12.4154 49.5843 12.197 49.7577 11.534 49.6742C11.9159 49.3506 12.234 49.0809 12.5521 48.8099Z" fill="#18222D"/>
<path d="M11.2121 13.5277C11.2862 13.7499 11.5225 13.9168 11.686 14.1095C11.7997 13.886 11.9517 13.6741 12.0168 13.4378C12.0846 13.1912 12.0705 12.9215 12.0999 12.5619C12.5853 13.1912 12.5891 13.4391 12.1714 14.1146C12.92 14.4074 12.9149 15.0521 12.8178 15.761C13.4054 15.8676 13.4769 15.5555 13.3875 15.2152C13.1665 14.3753 12.9902 13.5033 12.6198 12.7302C12.409 12.2922 11.8866 11.9583 11.4369 11.7002C11.1163 11.5153 10.8008 11.6591 10.9144 12.1587C11.0179 12.6146 11.0665 13.0872 11.2121 13.5277Z" fill="#18222D"/>
<path d="M48.6158 51.4221C48.0704 51.8728 47.6476 52.2221 47.1213 52.6575C48.5022 53.107 49.3133 53.9084 49.3542 55.4212C49.8933 55.009 50.3442 54.6648 50.882 54.2538C49.6161 53.6721 48.5264 53.0749 48.6158 51.4221Z" fill="#18222D"/>
<path d="M7.12821 19.1874C7.12949 19.2953 7.39902 19.5149 7.43862 19.4918C7.68388 19.3543 8.04794 19.1964 8.09521 18.9819C8.26127 18.2486 8.31237 17.4896 8.41712 16.6638C8.17313 16.7524 7.95725 16.7627 7.91126 16.859C7.69282 17.3021 7.52165 17.7683 7.32493 18.2447C7.11544 17.7619 7.83079 17.0016 6.88678 16.8205C6.40009 16.7268 6.18676 17.0979 6.23275 17.7876C6.97237 18.0406 7.1231 18.2987 7.12821 19.1874Z" fill="#18222D"/>
<path d="M44.9867 9.13556C44.7159 8.92623 44.5754 8.81835 44.4477 8.72075C44.5703 7.91552 45.1004 8.00799 45.6459 8.07349C45.9039 8.10431 46.3714 8.10816 46.4021 8.01441C46.4992 7.70876 46.4391 7.35174 46.4391 7.15268C45.4696 7.15268 44.6329 7.15268 43.7183 7.15268C43.763 7.39283 43.7502 7.57263 43.8268 7.70105C44.2522 8.41253 44.2011 8.58462 43.4526 8.97888C43.2558 9.08291 43.0974 9.25885 42.9212 9.4014C42.9531 9.46304 42.985 9.52469 43.017 9.58633C43.6276 9.44506 44.2369 9.30637 44.9867 9.13556Z" fill="#18222D"/>
<path d="M3.66133 37.9734C4.9579 37.7795 6.0884 37.61 7.28789 37.4302C7.27384 37.3377 7.24573 37.1463 7.22785 37.0333C6.57637 37.1874 5.98876 37.3274 5.39988 37.4674C7.45267 36.1665 7.2534 36.2666 7.00686 35.8891C5.81759 36.0984 4.69986 36.2962 3.51187 36.5055C3.51698 36.5659 3.53486 36.7611 3.54764 36.8998C4.29109 36.6943 4.97706 36.5055 5.6643 36.3154C5.6873 36.3732 5.71029 36.4297 5.73201 36.4875C5.16867 37.0513 4.20934 37.104 3.66133 37.9734Z" fill="#18222D"/>
<path d="M39.3495 7.59446C39.4402 8.61287 40.0585 9.11116 41.1864 9.28582C41.1085 8.97631 41.12 8.66938 40.9744 8.50628C40.4034 7.86801 39.5015 7.43393 39.7915 6.18949C39.5284 7.01398 39.0085 6.246 38.6406 6.53881C38.7491 6.70833 38.845 6.85858 39.0506 7.17965C38.4822 7.27083 38.0236 7.34403 37.5688 7.41723C38.0887 7.9823 38.4617 8.02982 39.3495 7.59446Z" fill="#18222D"/>
<path d="M8.57551 41.6297C7.97002 41.9199 7.42457 42.1819 6.87912 42.4439C7.13588 42.0047 7.43223 41.6656 7.79119 41.4152C8.19996 41.1288 8.52697 40.8822 8.11181 40.4109C7.10522 41.1301 5.98621 41.4576 4.76245 41.7041C4.8391 41.8801 4.91702 42.0612 4.96045 42.16C5.62598 41.8428 6.20465 41.568 6.78331 41.2919C6.82036 41.3561 6.8574 41.4216 6.89445 41.4858C6.35027 41.9803 5.80737 42.4747 5.2632 42.9704C5.30152 43.0385 5.34112 43.1065 5.37944 43.1746C6.47929 42.7829 7.57914 42.3912 8.74158 41.9764C8.69814 41.8827 8.60489 41.69 8.57551 41.6297Z" fill="#18222D"/>
<path d="M30.8216 7.50071C31.1614 7.89112 31.5548 8.16467 32.0274 7.97588C32.951 7.6073 32.4426 6.82134 32.4618 6.15353C32.6942 6.03538 32.9421 5.90824 33.1899 5.78238C33.1848 5.73101 33.1797 5.67964 33.1733 5.62827C32.8399 5.58204 32.5052 5.53581 32.1398 5.48444C32.3378 5.21346 32.4911 5.00541 32.6431 4.79736C32.6087 4.7293 32.5742 4.65995 32.5397 4.59188C32.1194 4.67408 31.6991 4.75498 31.2789 4.83717C31.2916 4.91166 31.3044 4.98615 31.3172 5.06063C31.5382 5.04779 31.7605 5.03623 32.159 5.0144C31.7043 5.46774 31.3721 5.79779 30.9301 6.23829C31.2916 6.31663 31.5867 6.38084 31.8805 6.44377C31.9201 7.2567 31.8959 7.28239 30.8216 7.50071Z" fill="#18222D"/>
<path d="M11.9044 52.5573C11.8661 52.4906 11.8278 52.4238 11.7895 52.357C12.0884 52.0398 12.3873 51.7226 12.6875 51.4054C12.7271 51.44 12.7654 51.4734 12.805 51.5081C12.7986 51.6327 12.7922 51.7573 12.782 51.9743C13.1116 51.6712 13.3645 51.4375 13.6839 51.1434C13.3888 51.1434 13.2074 51.1434 12.8472 51.1434C13.2853 50.7928 13.5842 50.5526 13.8819 50.3138C13.9355 50.3523 13.9904 50.3895 14.0441 50.4281C13.9815 50.7658 13.9189 51.1023 13.8563 51.44C14.1361 51.3001 14.3468 51.092 14.4989 50.8467C14.5666 50.7363 14.5806 50.4935 14.5078 50.4126C14.2293 50.1057 13.9049 49.8399 13.6634 49.6177C13.2368 50.08 12.8638 50.5192 12.4524 50.9212C12.0322 51.3322 11.5761 51.7072 11.0818 52.1438C11.4101 52.4636 11.7844 52.827 12.174 53.2059C12.4933 52.8964 12.7769 52.6203 13.1014 52.3069C12.6466 52.4045 12.2762 52.4803 11.9044 52.5573Z" fill="#18222D"/>
<path d="M12.4486 11.0285C13.1857 11.8646 13.8921 12.7276 14.6432 13.5521C14.9434 13.8809 15.3279 14.1326 15.6741 14.419C15.7545 14.3355 15.8337 14.2533 15.9142 14.1698C15.3253 13.5277 14.7352 12.8856 14.2153 12.3179C14.5257 11.9391 14.7939 11.6193 15.0405 11.2841C15.0481 11.2738 14.7901 11.0093 14.7543 11.0298C14.3673 11.2559 14.0007 11.5166 13.5497 11.8209C13.2521 11.3984 12.8804 10.8475 12.478 10.3209C12.395 10.2118 12.2008 10.1514 12.0526 10.1411C11.9747 10.136 11.8112 10.3004 11.8201 10.3697C11.8393 10.5097 11.9274 10.6612 12.0309 10.7627C12.1459 10.8744 12.3426 10.9091 12.4486 11.0285Z" fill="#18222D"/>
<path d="M51.7928 48.119C52.3152 48.4786 52.7968 48.8086 53.2784 49.1387C53.2452 49.199 53.2132 49.2594 53.18 49.3197C52.9922 49.2581 52.8006 49.2029 52.6167 49.1322C52.282 49.0038 51.9588 48.8099 51.6139 48.7547C51.4159 48.7226 51.1834 48.9088 51.0238 48.9743C52.038 49.8232 52.9079 50.5526 53.8341 51.327C53.8788 51.2679 54.0065 51.101 54.0435 51.0535C53.3933 50.5706 52.807 50.1352 52.2207 49.6999C52.2437 49.6562 52.2679 49.6126 52.2909 49.5702C53.0574 49.8501 53.8251 50.1301 54.5916 50.4101C54.6337 50.3382 54.6759 50.2662 54.718 50.1943C53.8417 49.4045 52.9654 48.616 52.0636 47.8043C51.9984 47.8827 51.8668 48.0329 51.7928 48.119Z" fill="#18222D"/>
<path d="M54.5571 43.9978C55.1651 44.2778 55.7131 44.5295 56.2611 44.7812C56.2432 44.8364 56.2254 44.8916 56.2062 44.9482C55.6965 44.8544 55.1779 44.7966 54.6823 44.6541C54.2007 44.5154 54.0154 44.7003 53.9758 44.9867C55.0616 45.6083 56.0389 46.1669 57.0787 46.7602C57.1157 46.7024 57.2307 46.5226 57.2792 46.4456C56.5703 46.1078 55.9201 45.797 55.2699 45.4875C55.2865 45.449 55.3018 45.4105 55.3184 45.3707C56.1053 45.4619 56.8922 45.5518 57.6803 45.6429C57.6918 45.5762 57.702 45.5081 57.7135 45.4413C56.7095 44.8339 55.7042 44.2264 54.6644 43.5971C54.6286 43.7243 54.5801 43.9118 54.5571 43.9978Z" fill="#18222D"/>
<path d="M34.4341 60.652C34.3804 60.72 34.0176 60.6661 34.0125 60.6314C33.9499 60.2487 33.9308 59.8596 33.8886 59.3485C34.1262 59.5347 34.2463 59.6297 34.4571 59.7954C34.4264 59.3343 34.4021 58.9863 34.3715 58.5278C34.1875 58.7603 34.0841 58.89 33.881 59.1455C33.881 58.6113 33.881 58.2299 33.881 57.8472C33.9269 57.8112 33.9716 57.7765 34.0176 57.7419C34.2565 58.0501 34.4954 58.3583 34.7394 58.6717C34.8646 57.5261 34.899 57.2808 33.2729 57.6545C33.3534 58.8091 33.4326 59.9508 33.5182 61.1901C33.8988 61.1361 34.4123 61.1297 34.8582 60.9538C34.9719 60.9088 34.8748 60.3232 34.8748 59.9867C34.6627 60.2089 34.5861 60.4606 34.4341 60.652Z" fill="#18222D"/>
<path d="M18.6709 6.70062C18.2519 7.03966 17.8214 7.36715 17.4254 7.73316C17.373 7.78068 17.4535 8.09275 17.5531 8.15825C17.6949 8.252 17.9108 8.23016 18.0373 8.24943C18.1011 8.50628 18.1484 8.68864 18.1918 8.871C18.2302 9.0341 18.2698 9.19592 18.2979 9.3603C18.3272 9.52469 18.3426 9.69036 18.3656 9.85474C18.5751 9.80722 18.8114 9.80465 18.9851 9.69935C19.1754 9.58505 19.3313 9.38984 19.459 9.20106C19.5906 9.00713 19.6698 8.77725 19.772 8.56278C19.5306 8.53838 19.2891 8.5127 19.086 8.49215C19.086 8.38042 19.155 8.10559 19.072 8.04652C18.8842 7.91295 18.621 7.88598 18.3911 7.81535C18.5418 7.49686 18.699 7.16424 18.8574 6.8329C18.7948 6.79052 18.7322 6.74557 18.6709 6.70062Z" fill="#18222D"/>
<path d="M11.6732 47.9405C11.7793 47.7298 11.8201 47.3099 11.6988 47.1994C11.4995 47.0171 11.1393 46.9323 10.8544 46.9503C10.5529 46.9683 10.2298 47.1057 9.97427 47.2778C9.40072 47.6631 8.81822 48.0663 8.71603 48.6661C8.66621 49.4019 9.02516 49.7166 9.59488 49.5586C10.5006 49.3069 11.2402 48.7971 11.6732 47.9405ZM10.8084 48.2641C10.3818 48.6044 9.9104 48.8921 9.44415 49.1759C9.34068 49.2388 9.16568 49.2234 9.03794 49.19C8.99195 49.1785 8.94724 49 8.96768 48.9126C9.09414 48.363 10.7624 47.2804 11.6285 47.3471C11.2964 47.726 11.0882 48.0406 10.8084 48.2641Z" fill="#18222D"/>
<path d="M44.965 54.7496C44.7389 54.5749 44.3161 54.5235 44.0363 54.6031C43.8537 54.6558 43.7681 55.0475 43.7093 55.1579C43.8039 56.1892 44.1845 56.8981 44.8002 57.4439C45.0314 57.6494 45.4798 57.7996 45.743 57.7123C45.9448 57.6455 46.1364 57.1562 46.1134 56.8724C46.0431 56.0158 45.642 55.2722 44.965 54.7496ZM44.2152 54.8125C44.8948 55.0385 45.7851 56.5501 45.7583 57.4889C44.9561 57.4067 44.0517 55.8001 44.2152 54.8125Z" fill="#18222D"/>
<path d="M17.6017 55.1014C17.7281 54.5492 17.8048 54.1588 17.9083 53.7748C18.0373 53.2919 17.8942 53.0158 17.4548 52.9529C17.1022 54.1755 16.346 55.0616 15.5591 55.9786C15.7022 56.0633 15.8567 56.1571 15.9078 56.1879C16.2591 55.61 16.5874 55.0719 16.9157 54.5325C16.9834 54.5646 17.0524 54.5954 17.1201 54.6275C17.0383 54.9717 16.9515 55.3159 16.8748 55.6614C16.7969 56.0145 16.7267 56.3703 16.6538 56.7247C16.7318 56.7581 16.8084 56.7902 16.8863 56.8236C17.3398 56.1507 17.792 55.4777 18.2455 54.8048C18.2174 54.7817 18.1906 54.7573 18.1625 54.7341C18.0258 54.8228 17.8891 54.9114 17.6017 55.1014Z" fill="#18222D"/>
<path d="M42.2774 55.4597C42.0589 55.5638 41.8647 55.9413 41.8481 56.211C41.7945 57.0753 42.1432 57.8343 42.7436 58.4341C42.9518 58.6421 43.3644 58.8258 43.6135 58.7577C43.8486 58.6935 43.9904 58.2851 44.0772 58.1631C44.0427 57.0612 43.6902 56.2984 43.0668 55.6909C42.8841 55.5124 42.4677 55.3686 42.2774 55.4597ZM43.5228 58.5201C43.4564 58.5535 43.2367 58.4289 43.1856 58.3262C42.842 57.6263 42.5086 56.9187 42.2122 56.1969C42.1611 56.0736 42.2991 55.8733 42.3489 55.7089C42.4792 55.7834 42.6695 55.8258 42.7295 55.9375C43.1051 56.6413 43.4513 57.3617 43.8217 58.1079C43.7029 58.2864 43.6416 58.4598 43.5228 58.5201Z" fill="#18222D"/>
<path d="M25.4386 57.9204C25.5535 57.6404 25.8026 57.4169 25.993 57.1691C26.0862 57.4246 26.1795 57.6789 26.2714 57.9345C26.2906 57.9859 26.3072 58.0398 26.3826 58.2645C26.5129 57.8022 26.5997 57.4927 26.684 57.196C25.8742 56.6669 25.3875 56.7915 25.0311 57.6237C24.874 57.991 24.7718 58.3865 24.6862 58.7795C24.4269 59.952 24.7718 60.3656 25.9138 60.3476C26.0888 59.8557 26.2574 59.3806 26.4515 58.8322C26.1935 58.7949 25.8857 58.7513 25.694 58.723C25.5995 59.2534 25.5254 59.6747 25.4501 60.0972C25.3517 60.092 25.2533 60.0869 25.1537 60.0818C25.1333 59.7915 25.0605 59.4923 25.1026 59.2123C25.169 58.7718 25.2725 58.3288 25.4386 57.9204Z" fill="#18222D"/>
<path d="M7.4961 43.7628C7.23424 44.4756 6.82419 44.6515 6.25702 44.5436C6.61853 43.6999 8.5653 42.8908 9.08137 43.3711C8.87187 43.6254 8.66238 43.8797 8.45161 44.1352C8.49248 44.184 8.53208 44.2341 8.57296 44.2829C8.8476 44.0543 9.27553 43.8732 9.36112 43.5881C9.51058 43.0911 9.05965 42.6763 8.4746 42.7726C7.90232 42.8677 7.31471 43.0398 6.80503 43.3133C5.82909 43.8386 5.7716 44.2624 6.40648 45.2153C6.897 45.0483 7.3888 44.8801 7.9432 44.6913C7.83206 44.4601 7.69793 44.1827 7.4961 43.7628Z" fill="#18222D"/>
<path d="M3.19763 33.4554C4.36007 33.4554 5.52251 33.4554 6.70794 33.4554C6.70794 33.3629 6.70794 33.187 6.70794 33.0547C6.09096 33.1099 5.51101 33.16 4.93235 33.2114C4.9183 33.1664 4.90552 33.1215 4.89147 33.0765C5.36028 32.9006 5.82142 32.6977 6.30173 32.5564C6.76926 32.4177 6.81908 32.157 6.70794 31.8719C5.48802 31.8719 4.34985 31.8719 3.18741 31.8719C3.18741 32.0517 3.18741 32.2662 3.18741 32.3355C3.95258 32.2533 4.68325 32.175 5.41265 32.0979C5.42415 32.1622 5.43437 32.2277 5.44587 32.2919C4.67687 32.595 3.90659 32.8993 3.13759 33.2024C3.15803 33.2872 3.17847 33.3706 3.19763 33.4554Z" fill="#18222D"/>
<path d="M31.8384 60.8908C31.5305 60.146 31.4667 58.8116 31.7106 58.1502C31.7553 58.0295 31.8844 57.9396 31.9738 57.8356C32.0773 57.9499 32.2063 58.0514 32.2765 58.1836C32.3762 58.375 32.4324 58.5895 32.5065 58.7937C32.5499 58.7821 32.5946 58.7705 32.638 58.7577C32.638 58.4341 32.638 58.1092 32.638 57.7894C31.8486 57.4966 31.4347 57.6186 31.2572 58.2106C31.1665 58.515 31.0975 58.8296 31.0502 59.1443C30.8305 60.5942 31.413 61.2979 32.6202 61.0565C32.6789 60.5415 32.7389 60.0278 32.8003 59.4884C32.5077 59.4884 32.2114 59.4884 31.8831 59.4884C32.3851 60.3887 32.3813 60.5556 31.8384 60.8908Z" fill="#18222D"/>
<path d="M59.1532 35.8313C58.945 35.2328 58.2041 34.9002 57.5909 35.1313C57.1681 35.2906 56.9765 35.9571 57.1221 36.3629C58.319 36.5517 59.4304 36.7277 60.6069 36.9139C60.6311 36.7225 60.6631 36.4618 60.7052 36.1177C59.9758 36.3873 59.2911 36.2294 59.1532 35.8313ZM58.7559 36.1138C58.3548 36.0522 57.9524 35.9892 57.5513 35.9276C57.5654 35.8313 57.5807 35.7349 57.5947 35.6386C57.9984 35.7003 58.4021 35.7606 58.8057 35.8223C58.7891 35.9199 58.7725 36.0175 58.7559 36.1138Z" fill="#18222D"/>
<path d="M16.1365 54.2025C15.8874 54.0394 15.6396 53.8763 15.5157 53.7941C15.2116 54.25 14.9677 54.616 14.7237 54.982C14.5142 54.2294 15.5221 52.6742 16.1212 52.506C16.4571 52.4122 16.6321 52.5201 16.5261 52.89C16.4648 53.1044 16.3677 53.3086 16.2859 53.5167C16.3268 53.5436 16.3677 53.5693 16.4086 53.5963C16.6206 53.324 16.834 53.0518 17.0447 52.7808C16.3434 51.9576 16.1633 51.9114 15.3317 52.5381C15.006 52.7834 14.7326 53.1391 14.5244 53.4961C13.8384 54.6789 13.878 54.7919 14.9613 55.3763C15.2755 54.9576 15.5885 54.5415 15.9014 54.1254C15.9806 54.1511 16.0586 54.1768 16.1365 54.2025Z" fill="#18222D"/>
<path d="M22.1365 55.6062C21.439 56.5758 20.7403 57.5454 20.0019 58.5715C20.1948 58.6434 20.4056 58.723 20.4669 58.7461C20.6496 58.3544 20.7786 58.0565 20.937 57.7752C20.9498 57.7508 21.2525 57.8433 21.2499 57.8639C21.2142 58.2183 21.1516 58.5689 21.0775 59.0261C21.1874 59.0698 21.4633 59.1802 21.72 59.283C21.9295 58.0077 22.1224 56.8339 22.3153 55.6601C22.2553 55.6421 22.1952 55.6241 22.1365 55.6062Z" fill="#18222D"/>
<path d="M24.4882 56.4961C24.3617 57.0304 24.2506 57.4991 24.1394 57.9679C24.0717 57.9615 24.004 57.955 23.9363 57.9486C23.9159 57.5569 23.8916 57.1665 23.8737 56.7748C23.8444 56.1468 23.8278 56.1288 23.2938 56.0993C23.2389 56.4024 23.198 56.6862 23.1328 56.9662C23.0728 57.2256 22.9898 57.4799 22.9157 57.7354C23.0447 57.6712 23.1776 57.6057 23.4394 57.4747C23.4394 58.3326 23.4394 59.1057 23.4394 59.8788C23.5135 59.8853 23.5876 59.893 23.6617 59.8994C24.0602 58.7975 24.4575 57.6956 24.874 56.5449C24.7411 56.5282 24.5687 56.5064 24.4882 56.4961Z" fill="#18222D"/>
<path d="M8.89742 46.592C8.85782 46.7358 8.81822 46.8784 8.73647 47.175C9.17462 46.9015 9.49014 46.705 9.86059 46.4751C9.64215 46.3904 9.51058 46.3403 9.2998 46.2581C9.67408 46.0154 9.96278 45.8292 10.2655 45.6327C10.6194 46.2324 10.0662 46.4546 9.98066 46.9066C10.2757 46.6755 10.834 46.4186 10.8148 46.217C10.7714 45.7611 10.4431 45.3321 10.2898 45.0124C9.21039 45.6815 8.24083 46.2825 7.20869 46.9208C7.30322 47.0813 7.44245 47.3189 7.54465 47.4935C7.99813 47.1275 8.39157 46.8103 8.78501 46.4931C8.82333 46.5252 8.86038 46.5586 8.89742 46.592Z" fill="#18222D"/>
<path d="M29.8571 57.4927C29.4943 58.6473 29.1303 59.8018 28.7471 61.0205C28.9118 61.0449 29.1201 61.0758 29.1763 61.0848C29.2772 60.6378 29.3525 60.2821 29.4496 59.9341C29.4535 59.9199 29.7626 59.9482 29.769 59.9854C29.8316 60.3322 29.8597 60.6841 29.9057 61.1079C30.0321 61.1079 30.3132 61.1079 30.538 61.1079C30.3796 59.8878 30.2263 58.6922 30.0717 57.4966C29.9989 57.4953 29.9274 57.494 29.8571 57.4927Z" fill="#18222D"/>
<path d="M36.736 58.3133C36.4166 58.0424 36.3681 57.7932 36.6695 57.3758C36.879 57.6866 37.0489 57.9383 37.2188 58.1888C37.3006 58.1541 37.3823 58.1207 37.4641 58.086C37.3044 57.7778 37.2201 57.336 36.9684 57.1922C36.5724 56.9649 36.1151 57.3591 36.0666 57.8626C35.9951 58.6139 36.4153 59.0749 36.9748 59.4833C37.5407 59.8968 37.5471 60.0766 37.0502 60.53C36.8343 60.223 36.621 59.9212 36.3182 59.4897C36.3987 60.0304 36.4549 60.399 36.5086 60.7624C37.6544 60.7881 38.0466 60.2295 37.565 59.2059C37.4002 58.8566 37.0464 58.5766 36.736 58.3133Z" fill="#18222D"/>
<path d="M33.324 4.0358C33.2652 4.18349 33.2269 4.27596 33.1452 4.48015C33.5156 4.48015 33.8107 4.51098 34.0943 4.46731C34.2297 4.44676 34.3932 4.30421 34.4468 4.17579C34.4801 4.09488 34.3638 3.8894 34.2616 3.82647C34.07 3.70832 33.8439 3.59274 33.6267 3.58118C32.7709 3.53495 31.9393 3.63126 31.1716 4.0769C30.8509 4.26312 30.4869 4.37356 30.0181 4.57134C29.8699 4.85002 29.6578 5.26098 30.1816 5.77082C30.7871 4.34017 31.9572 4.04608 33.324 4.0358Z" fill="#18222D"/>
<path d="M56.2701 40.0205C57.2843 40.6434 58.2986 41.2662 59.3461 41.9096C59.3882 41.7606 59.4419 41.568 59.4598 41.5038C59.0778 41.2958 58.7674 41.1365 58.4762 40.9477C58.4532 40.9323 58.5809 40.592 58.6116 40.5971C58.9462 40.6446 59.2758 40.7307 59.6986 40.8283C59.7395 40.6588 59.8085 40.3711 59.8724 40.104C58.6345 40.0102 57.4721 39.9229 56.3084 39.8343C56.2956 39.8946 56.2828 39.9576 56.2701 40.0205Z" fill="#18222D"/>
<path d="M50.0951 49.9144C50.7568 50.9315 51.4172 51.9499 52.1211 53.0312C52.2858 52.8912 52.4251 52.7718 52.4864 52.7204C52.1977 52.4186 51.9614 52.1849 51.7544 51.9281C51.7366 51.9049 51.9805 51.6147 51.9997 51.6263C52.3063 51.806 52.5962 52.0154 52.9552 52.2632C53.0523 52.1477 53.2196 51.9486 53.3831 51.7534C52.2948 51.0843 51.2435 50.4383 50.1922 49.7936C50.1602 49.8334 50.127 49.8733 50.0951 49.9144Z" fill="#18222D"/>
<path d="M6.77565 34.5753C5.59915 34.407 4.42266 34.2375 3.18102 34.0603C3.22829 34.2915 3.26661 34.4854 3.28194 34.5611C3.68815 34.5611 4.019 34.5316 4.33708 34.5804C4.41883 34.5933 4.46482 34.8488 4.55935 35.0671C4.06627 35.1069 3.70348 35.1365 3.30749 35.1686C3.35475 35.4087 3.40201 35.6463 3.45567 35.9173C4.63471 35.5089 5.72562 35.1313 6.81652 34.7538C6.80375 34.6934 6.7897 34.6343 6.77565 34.5753Z" fill="#18222D"/>
<path d="M60.5788 31.5624C60.041 31.1848 59.1481 31.4687 58.7112 31.9926C58.6039 32.1211 58.4864 32.306 58.3484 32.3304C58.1517 32.3664 57.932 32.279 57.7225 32.2456C57.8374 32.1005 57.9371 31.94 58.0712 31.8154C58.1555 31.7371 58.2909 31.7152 58.4876 31.6331C57.8566 31.3441 57.4657 31.4905 57.3393 32.0402C57.2038 32.6309 57.7353 32.681 58.1006 32.7542C58.6844 32.8711 59.217 32.7786 59.6041 32.2122C59.9401 31.7191 60.2875 31.7165 60.8406 32.211C60.4242 32.3959 60.0614 32.5564 59.5862 32.7683C60.1061 32.7683 60.4919 32.7683 61.1012 32.7683C60.9019 32.2713 60.8534 31.7538 60.5788 31.5624Z" fill="#18222D"/>
<path d="M8.55635 19.9888C8.75946 20.0658 8.99706 20.0491 9.21933 20.0735C9.23849 20.017 9.25637 19.9605 9.27553 19.9053C8.66621 19.5123 8.59979 18.9845 8.86804 18.2139C8.92041 18.5299 8.94213 18.6917 8.97406 18.8509C9.03666 19.1668 8.92169 19.538 9.53485 19.511C9.8031 19.4995 10.0944 20.0363 10.4571 20.4061C10.5632 20.3727 10.8135 20.2944 11.0639 20.2161C11.0831 20.1416 11.1009 20.0671 11.1201 19.9926C10.8506 19.8167 10.5964 19.5239 10.3102 19.4892C9.65364 19.4083 9.50163 18.9832 9.41222 18.4566C9.37773 18.2537 9.35218 18.0495 9.32407 17.8595C8.83611 17.7131 8.61511 17.9982 8.53847 18.3334C8.45288 18.7096 8.60745 19.1835 8.435 19.4866C8.25361 19.8013 8.33025 19.904 8.55635 19.9888Z" fill="#18222D"/>
<path d="M47.4419 55.1618C47.5122 55.5175 47.5837 55.8746 47.654 56.2303C47.5607 56.2598 47.4687 56.2881 47.3755 56.3176C46.8288 55.4199 46.282 54.5222 45.7021 53.5706C45.5692 53.6669 45.3585 53.821 45.2397 53.9071C45.8886 54.9396 46.503 55.9195 47.1494 56.9469C47.4406 56.7581 47.8379 56.5013 48.2582 56.229C48.0014 55.7988 47.7868 55.4392 47.5722 55.0809C47.5288 55.1079 47.4853 55.1348 47.4419 55.1618Z" fill="#18222D"/>
<path d="M39.6357 59.4306C39.5935 59.6246 39.4862 59.8031 39.4083 59.9893C39.2243 59.8776 38.9229 59.8005 38.8756 59.6464C38.6572 58.9413 38.4949 58.2157 38.3519 57.4901C38.3289 57.3733 38.4962 57.2179 38.5767 57.0805C38.7121 57.1627 38.8718 57.2217 38.9753 57.3335C39.1081 57.4773 39.1975 57.6635 39.3048 57.8318C39.3559 57.8086 39.407 57.7868 39.4581 57.7637C39.3623 57.4311 39.2652 57.0984 39.1681 56.762C38.5205 56.6669 37.9086 56.7106 37.9303 57.4349C37.9533 58.2003 38.1398 58.9812 38.3761 59.7145C38.5256 60.1794 38.9663 60.467 39.5054 60.2384C39.8809 60.0792 39.9461 59.3741 39.6446 58.8322C39.6446 59.0608 39.6753 59.2534 39.6357 59.4306Z" fill="#18222D"/>
<path d="M19.2891 57.824C19.215 57.7624 19.1409 57.6995 19.0681 57.6378C19.5702 56.708 20.0709 55.777 20.5997 54.7971C20.435 54.7264 20.1795 54.6173 20.0543 54.5633C19.4897 55.6729 18.9685 56.6965 18.4422 57.7316C19.5178 58.4032 19.6366 58.6819 20.1961 57.0715C19.8384 57.3681 19.5638 57.5967 19.2891 57.824Z" fill="#18222D"/>
<path d="M54.9147 47.7388C55.0923 48.0573 55.2711 48.3771 55.4487 48.6956C55.3746 48.756 55.3018 48.8163 55.2277 48.8767C54.3987 48.241 53.5709 47.604 52.6882 46.9259C52.586 47.0774 52.4302 47.3086 52.2833 47.5269C53.4496 48.0471 54.3463 48.7495 55.1843 49.6331C55.45 49.2517 55.7195 48.8651 56.0082 48.4516C55.6314 48.1536 55.3095 47.8994 54.9863 47.6451C54.962 47.6759 54.9377 47.7067 54.9147 47.7388Z" fill="#18222D"/>
<path d="M58.1977 42.1164C58.3318 42.2435 58.4876 42.3553 58.5949 42.5029C58.7827 42.7636 58.7648 42.9756 58.397 43.0552C57.725 43.2003 56.1257 42.4413 55.7182 41.681C56.1653 41.6412 56.5575 41.6053 57.0799 41.5577C56.6392 41.3664 56.3084 41.2213 55.989 41.0826C55.3286 41.8904 55.2737 42.1472 55.9392 42.6275C56.4834 43.0205 57.1515 43.2606 57.794 43.4867C58.2143 43.6344 58.6946 43.5393 58.8606 43.0539C59.0305 42.5582 58.7061 42.2384 58.1977 42.1164Z" fill="#18222D"/>
<path d="M5.33856 39.4374C6.10884 39.2731 6.87912 39.1138 7.70688 38.9404C7.63662 38.7234 7.55231 38.4614 7.48078 38.2392C6.42564 38.8197 5.36794 38.9918 4.28981 39.0779C4.27959 38.9944 4.27065 38.9122 4.26043 38.8287C4.50186 38.8287 4.7484 38.8582 4.98217 38.8133C5.07414 38.7953 5.17506 38.6194 5.19549 38.5025C5.20571 38.4421 5.02177 38.2713 4.97195 38.288C4.68325 38.3869 4.37412 38.4832 4.14546 38.672C4.03944 38.7594 4.01389 39.1523 4.10331 39.2294C4.30131 39.4015 4.58873 39.4952 4.85443 39.5543C5.00005 39.5864 5.17378 39.4721 5.33856 39.4374Z" fill="#18222D"/>
<path d="M45.674 9.37186C45.3776 9.49387 45.0851 9.61458 44.7926 9.73402C44.7964 9.82007 44.8002 9.90739 44.8041 9.99344C45.6178 10.4018 46.4328 10.8089 47.2465 11.2173C47.2758 11.1647 47.3039 11.112 47.3333 11.0607C47.1379 10.8552 46.9424 10.6484 46.6793 10.3723C47.0076 10.2195 47.2733 10.1103 47.5224 9.97161C47.654 9.8984 47.866 9.74301 47.8494 9.67494C47.8124 9.52854 47.6488 9.41424 47.5275 9.27426C46.8901 10.109 46.0304 10.4005 45.674 9.37186Z" fill="#18222D"/>
<path d="M53.3384 45.9833C54.3948 46.6613 55.3427 47.2701 56.3314 47.9045C56.4234 47.7825 56.5805 47.5744 56.6635 47.464C55.616 46.7859 54.6337 46.1489 53.6169 45.4901C53.5402 45.6275 53.401 45.8728 53.3384 45.9833Z" fill="#18222D"/>
<path d="M23.8571 6.22416C24.1803 6.90739 23.5761 7.85516 24.4831 8.45362C24.9097 7.91424 24.9161 7.3633 24.7628 6.78281C24.7577 6.76355 24.6964 6.75841 24.6517 6.743C24.5623 6.87913 24.4716 7.01783 24.2838 7.30422C24.2838 6.65824 24.3106 6.19591 24.2685 5.74C24.2544 5.5936 23.981 5.33418 23.9619 5.34574C23.6361 5.54865 23.3308 5.78752 23.0217 6.0174C23.0358 6.07262 23.0511 6.12785 23.0651 6.18307C23.313 6.19591 23.5595 6.20875 23.8571 6.22416Z" fill="#18222D"/>
<path d="M15.1158 51.0342C14.297 51.9627 13.5293 52.8322 12.7309 53.7376C12.8587 53.8454 13.0579 54.0137 13.1333 54.0766C13.9802 53.1275 14.7288 52.2876 15.5195 51.4015C15.4288 51.3167 15.2104 51.119 15.1158 51.0342Z" fill="#18222D"/>
<path d="M7.7963 39.4644C6.6313 39.8176 5.53017 40.1515 4.41628 40.4892C4.46482 40.6678 4.52996 40.9079 4.57084 41.0582C5.73584 40.6883 6.84846 40.3351 8.00196 39.9678C7.94447 39.824 7.84356 39.58 7.7963 39.4644Z" fill="#18222D"/>
<path d="M28.0675 57.2564C27.729 57.1986 27.4428 57.1498 27.2359 57.1139C27.1758 57.6828 27.1132 58.1759 27.0762 58.6717C27.0315 59.2598 26.9676 59.8544 27.0072 60.4388C27.0187 60.6006 27.3713 60.8536 27.5642 60.851C27.7238 60.8485 27.8797 60.5698 28.0381 60.3964C27.8835 60.4593 27.7277 60.5223 27.5795 60.5826C27.2372 60.0895 27.5259 57.9602 28.0675 57.2564Z" fill="#18222D"/>
<path d="M28.0368 60.3964C28.0483 60.3913 28.0598 60.3874 28.0713 60.3823L28.0585 60.372C28.0521 60.3797 28.0445 60.3887 28.0368 60.3964Z" fill="#18222D"/>
<path d="M48.8662 51.2089C49.6799 52.1156 50.4528 52.976 51.2792 53.8981C51.3687 53.8082 51.5603 53.6168 51.665 53.5115C50.8296 52.5882 50.0644 51.7431 49.1332 50.7157C49.0361 50.8942 48.9135 51.1228 48.8662 51.2089Z" fill="#18222D"/>
<path d="M60.5123 33.6519C60.5174 33.6583 60.5238 33.6647 60.5289 33.6712C60.5264 33.6609 60.5251 33.6506 60.5213 33.639L60.5123 33.6519Z" fill="#18222D"/>
<path d="M59.9005 34.3287C59.0523 34.2619 58.2066 34.1759 57.3393 34.0975C57.3393 34.3171 57.3393 34.5586 57.3393 34.7358C57.9639 34.7358 58.5477 34.7384 59.1315 34.7345C59.5939 34.7319 60.064 34.7666 60.5136 34.687C60.672 34.6587 60.8713 34.3428 60.8815 34.1489C60.8892 33.9961 60.6656 33.8304 60.5302 33.6699C60.6592 34.2311 60.5251 34.3775 59.9005 34.3287Z" fill="#18222D"/>
<path d="M56.4489 21.0239C57.2154 21.0688 57.4402 20.9173 57.4862 20.2276C57.5155 19.7961 57.5283 19.2991 56.9535 19.1604C56.7644 19.8539 56.6073 20.437 56.4489 21.0239Z" fill="#18222D"/>
<path d="M60.276 26.3265C59.811 25.7306 59.3869 25.1887 58.9054 24.5722C58.6741 25.651 59.3231 26.4922 60.276 26.3265Z" fill="#18222D"/>
<path d="M41.3142 4.9245C40.6193 4.82819 39.9244 4.73187 39.2307 4.63555C39.8234 5.4305 40.6576 5.55892 41.3142 4.9245Z" fill="#18222D"/>
<path d="M60.7257 25.818C60.8483 25.6022 61.0821 25.3775 61.0655 25.172C61.0437 24.9087 60.8228 24.6609 60.6873 24.4066C60.6107 24.4066 60.5341 24.4053 60.4561 24.4053C60.3833 24.7418 60.2569 25.0808 60.2658 25.416C60.2696 25.5534 60.5634 25.6844 60.7257 25.818Z" fill="#18222D"/>
<path d="M28.7994 57.3823C28.7011 57.3669 28.5018 57.3347 28.3766 57.3142C28.3511 57.7419 28.3421 58.0822 28.3063 58.4199C28.2386 59.0544 28.1569 59.6875 28.0802 60.3219C28.1697 60.092 28.2795 59.8673 28.3332 59.631C28.4967 58.9118 28.6334 58.1875 28.7994 57.3823Z" fill="#18222D"/>
<path d="M28.0713 60.3836C28.0739 60.363 28.0764 60.3425 28.079 60.3219C28.0726 60.3386 28.0649 60.3553 28.0585 60.372L28.0713 60.3836Z" fill="#18222D"/>
<path d="M57.3852 33.1254C57.3852 33.2358 57.3852 33.4374 57.3852 33.639C58.4621 33.639 59.4738 33.639 60.4842 33.639C60.2888 33.5517 60.0985 33.4259 59.8941 33.3989C59.0753 33.291 58.25 33.2165 57.3852 33.1254Z" fill="#18222D"/>
<path d="M60.5111 33.6519L60.5213 33.6403C60.5085 33.6403 60.497 33.6403 60.4842 33.6403C60.4945 33.6442 60.5034 33.648 60.5111 33.6519Z" fill="#18222D"/>
<path d="M10.3971 18.6981C10.7509 18.5453 11.0895 18.3578 11.5429 18.1266C10.788 17.7054 10.3319 17.8042 10.0944 18.3334C10.0573 18.4168 10.0318 18.5774 10.0739 18.612C10.1569 18.6775 10.3128 18.734 10.3971 18.6981Z" fill="#18222D"/>
<path d="M40.8428 4.35044C40.9718 4.37998 41.2541 4.24514 41.2656 4.15909C41.2874 3.98957 41.2197 3.70575 41.0983 3.64025C40.8543 3.50798 40.549 3.49 40.1901 3.40652C40.2258 3.91894 40.3983 4.25027 40.8428 4.35044Z" fill="#18222D"/>
<path d="M33.3802 2.52681C33.3547 2.05806 32.965 2.0876 32.7504 2.28665C32.6253 2.62313 32.4988 2.96089 32.357 3.34231C32.7888 3.15224 33.416 3.18948 33.3802 2.52681Z" fill="#18222D"/>
<path d="M30.7858 3.60558C30.9186 3.66851 31.2687 3.26782 31.5459 3.05977C31.1652 2.86842 30.9301 2.75027 30.6734 2.62056C30.4575 2.97887 30.3323 3.38983 30.7858 3.60558Z" fill="#18222D"/>
<path d="M24.0794 4.68435C24.156 4.63041 24.2059 4.37998 24.1599 4.33632C23.7945 3.99342 23.4496 4.11799 23.0945 4.43392C23.3781 4.79736 23.686 4.95918 24.0794 4.68435Z" fill="#18222D"/>
<path d="M22.8991 57.7881C22.9042 57.7778 22.908 57.7675 22.9131 57.756L22.9119 57.7534C22.9131 57.747 22.9157 57.7406 22.9182 57.7341C22.9131 57.7367 22.9093 57.7393 22.9042 57.7406C22.9016 57.7573 22.9004 57.7727 22.8991 57.7881Z" fill="#18222D"/>
<path d="M22.7394 59.6374C22.7701 59.2675 22.7931 58.9709 22.8186 58.6729C22.8442 58.3776 22.8723 58.0835 22.8991 57.7881C22.6666 58.3288 22.4316 58.8681 22.1812 59.4448C22.3447 59.5013 22.5478 59.5719 22.7394 59.6374Z" fill="#18222D"/>
<path d="M47.7012 11.8094C47.8162 11.8004 47.9158 11.5756 48.1266 11.3278C47.5415 11.3663 47.1609 11.3907 46.7048 11.4202C46.9488 11.9545 47.3627 11.8351 47.7012 11.8094Z" fill="#18222D"/>
<path d="M9.6677 20.4742C9.60127 20.7966 9.53612 21.1189 9.4697 21.44C9.62937 21.4412 9.78905 21.4438 9.94745 21.4451C9.94745 21.1317 9.94745 20.8184 9.94745 20.5063C9.85548 20.4948 9.76095 20.4845 9.6677 20.4742Z" fill="#18222D"/>
<path d="M32.4234 2.67193C32.0824 2.52039 31.8984 2.43948 31.7145 2.35729C31.6532 2.3971 31.5918 2.43691 31.5305 2.47672C31.6506 2.69633 31.7707 2.91465 31.892 3.13426C32.0466 2.99941 32.2024 2.86328 32.4234 2.67193Z" fill="#18222D"/>
<path d="M39.6497 28.1014C39.6178 27.8715 39.6178 27.7854 39.5935 27.7084C38.9957 25.7332 38.4043 23.7567 37.7796 21.7906C37.7298 21.6352 37.4321 21.4451 37.2686 21.4618C36.1956 21.571 35.1251 21.7199 34.0611 21.8959C33.9282 21.9177 33.7277 22.1784 33.7379 22.3158C33.8835 24.3154 34.0662 26.3124 34.2246 28.3107C34.2578 28.7255 34.42 28.8604 34.8352 28.7949C35.6923 28.66 36.5533 28.5586 37.4143 28.4532C37.8907 28.3955 38.3595 28.3467 38.3187 27.6262C38.7709 27.7867 39.1566 27.9241 39.6497 28.1014Z" fill="#18222D"/>
<path d="M45.4977 27.142C45.9691 28.669 46.4736 30.1844 46.9744 31.7024C47.157 32.2585 47.3563 32.8081 47.5569 33.3873C48.9659 32.4575 50.3059 31.5727 51.6842 30.6634C50.7402 28.5457 49.8217 26.4896 48.8573 24.3257C47.7255 25.0641 46.6512 25.7422 45.6114 26.4717C45.4773 26.5628 45.4364 26.9417 45.4977 27.142Z" fill="#18222D"/>
<path d="M44.8577 26.4177C44.5805 25.9374 44.3723 25.5945 44.1807 25.2401C43.3133 23.6322 42.4562 22.0204 41.5799 20.4177C41.5147 20.2995 41.3001 20.1493 41.2082 20.1801C40.1466 20.5217 39.0953 20.8954 38.0095 21.2717C38.6316 23.2572 39.2077 25.1733 39.8541 27.0663C39.9474 27.3398 40.3485 27.5787 40.6563 27.6788C40.8147 27.7302 41.0842 27.4413 41.2925 27.3128C42.5597 27.4657 43.5956 26.6964 44.8577 26.4177Z" fill="#18222D"/>
<path d="M17.755 25.7242C17.8316 25.8103 17.8648 25.8783 17.9159 25.9002C19.2265 26.4498 20.5346 27.0033 21.8567 27.5235C21.9436 27.5581 22.2067 27.3565 22.2629 27.2139C22.5848 26.4049 22.8659 25.5804 23.1661 24.7636C23.5531 23.7092 23.944 22.6561 24.3374 21.6031C24.5035 21.16 24.4524 20.8415 23.9414 20.6643C23.2823 20.437 22.6244 20.193 21.9972 19.8899C21.5271 19.6638 21.2908 19.8526 21.0698 20.2238C20.7224 20.8068 20.3647 21.3835 20.0147 21.9639C19.2597 23.2199 18.5061 24.4759 17.755 25.7242Z" fill="#18222D"/>
<path d="M37.5905 28.8077C36.6683 28.9644 35.7345 29.0581 34.8186 29.2405C34.6321 29.2777 34.3574 29.5924 34.3638 29.7709C34.4251 31.8231 34.5363 33.8728 34.6244 35.9237C34.6448 36.3886 34.8646 36.4914 35.2912 36.4194C36.0653 36.2872 36.8433 36.1498 37.625 36.1061C38.1475 36.0766 38.2701 35.8595 38.2599 35.3908C38.2382 34.407 38.2535 33.422 38.2535 32.437C38.2574 32.437 38.2599 32.437 38.2637 32.437C38.2637 31.4314 38.251 30.4246 38.2688 29.419C38.2778 28.9207 38.1079 28.7191 37.5905 28.8077Z" fill="#18222D"/>
<path d="M21.8503 28.4854C21.8899 28.285 21.7392 27.901 21.5757 27.8291C20.3954 27.3064 19.1869 26.8505 17.9964 26.3509C17.6758 26.2161 17.4637 26.2456 17.3436 26.5821C16.9221 27.761 16.5069 28.9438 16.0841 30.1395C16.535 30.2294 17.0153 30.9177 17.2785 29.9738C17.5519 30.0804 17.7792 30.169 18.0334 30.2692C18.1101 30.0483 18.1701 29.8775 18.2417 29.672C18.5035 29.8068 18.7999 29.8698 18.9302 30.0534C19.0362 30.2024 18.9813 30.684 18.9327 30.6943C18.4141 30.7983 18.4652 31.1707 18.4703 31.5393C18.4767 31.9888 18.5355 32.4473 18.4639 32.8839C18.2915 33.937 18.6798 34.5444 19.7298 34.7409C19.9317 34.7782 20.1156 34.9143 20.4056 35.0504C20.5921 34.2028 20.7581 33.4336 20.9293 32.6669C21.241 31.2735 21.5719 29.8852 21.8503 28.4854Z" fill="#18222D"/>
<path d="M14.1565 30.4952C14.4618 30.6634 14.6802 30.7842 14.8948 30.9023C15.1887 30.5594 15.5578 30.2833 15.7162 29.9147C16.1952 28.8051 16.5989 27.6622 17.0166 26.5269C17.1405 26.1891 17.1303 25.8989 16.7675 25.6395C16.0241 25.1078 15.2908 24.553 14.6164 23.9365C14.1782 23.5371 13.9968 23.663 13.7873 24.1125C12.9149 25.9824 12.0335 27.8471 11.1342 29.7568C12.0769 30.5145 12.9966 31.2542 14.0313 32.0851C14.0786 31.4789 14.1156 31.0153 14.1565 30.4952Z" fill="#18222D"/>
<path d="M33.2563 29.3394C32.4707 29.3214 31.6838 29.3201 30.8995 29.2777C30.3834 29.2495 30.1944 29.4254 30.2059 29.9674C30.2403 31.5894 30.2237 33.214 30.2263 34.836C30.2276 35.3214 30.2263 35.8056 30.2263 36.422C31.6365 35.6977 32.9216 36.4169 34.2488 36.4503C34.2706 36.3283 34.3089 36.2242 34.3025 36.1228C34.1773 34.0359 34.047 31.9477 33.9167 29.8608C33.8912 29.4396 33.6076 29.3471 33.2563 29.3394Z" fill="#18222D"/>
<path d="M43.9827 18.4579C43.3504 18.8394 42.7359 19.2529 42.1215 19.6638C41.8532 19.8436 41.8034 20.044 41.9772 20.3625C42.9863 22.2002 43.9725 24.0508 44.9612 25.9002C45.1145 26.1878 45.2563 26.2431 45.5552 26.0389C46.5528 25.3569 47.5735 24.7109 48.6669 23.9982C47.2158 22.1437 45.8183 20.3496 44.4055 18.5684C44.3314 18.4733 44.0747 18.4027 43.9827 18.4579Z" fill="#18222D"/>
<path d="M17.9249 24.666C18.888 23.0941 19.8346 21.5119 20.8297 19.9605C21.103 19.5354 20.9689 19.303 20.6534 19.0577C20.2357 18.7315 19.7963 18.4322 19.3964 18.0842C19.0618 17.794 18.8357 17.8261 18.5559 18.1677C17.5851 19.3505 16.59 20.5114 15.6076 21.684C15.181 22.1925 14.7633 22.7088 14.3187 23.2495C15.3752 24.0791 16.3345 24.8329 17.3577 25.6369C17.5685 25.2734 17.7409 24.9652 17.9249 24.666Z" fill="#18222D"/>
<path d="M32.9497 21.9768C32.0683 21.9472 31.1856 21.9614 30.2314 21.9614C30.2314 24.1356 30.2263 26.3047 30.248 28.4738C30.2493 28.5817 30.483 28.7756 30.6121 28.7794C31.6455 28.8051 32.6789 28.7936 33.8861 28.7936C33.6919 26.6425 33.5016 24.4823 33.287 22.3235C33.2729 22.1912 33.0698 21.9806 32.9497 21.9768Z" fill="#18222D"/>
<path d="M33.4926 15.3603C33.0123 15.4425 32.9088 15.6518 32.9663 16.0885C33.1298 17.3124 33.2691 18.5401 33.4249 19.7653C33.4939 20.3124 33.5769 20.8569 33.6715 21.5234C34.9719 21.3347 36.2224 21.1536 37.4896 20.9699C36.7679 19.3775 36.0806 17.9224 35.4483 16.4442C34.8901 15.1369 34.8748 15.1227 33.4926 15.3603Z" fill="#18222D"/>
<path d="M35.9631 14.8094C35.4585 14.9661 35.2427 15.2345 35.5237 15.7572C35.6527 15.9999 35.7524 16.258 35.866 16.5084C36.4639 17.8184 37.0655 19.127 37.6595 20.4395C37.809 20.7709 38.0351 20.8749 38.3761 20.7555C39.1745 20.4768 39.9755 20.2071 40.7726 19.9245C40.8888 19.8834 40.9872 19.7871 41.1277 19.6947C40.9808 19.52 40.8875 19.4096 40.7943 19.2978C39.7008 17.9712 38.5971 16.6548 37.5203 15.3154C36.9506 14.609 36.8139 14.5448 35.9631 14.8094Z" fill="#18222D"/>
<path d="M30.2135 19.9104C30.225 20.2944 30.188 20.6848 30.2416 21.0611C30.2621 21.2049 30.4703 21.4284 30.6006 21.4335C31.4667 21.4669 32.334 21.4502 33.2525 21.4502C33.0417 19.5791 32.8424 17.7567 32.6176 15.9369C32.5997 15.7867 32.4222 15.5517 32.2982 15.5388C31.7732 15.4798 31.2393 15.4669 30.713 15.4952C30.6057 15.5016 30.4613 15.7507 30.423 15.91C30.2621 16.5714 30.1267 17.2405 29.9989 17.9096C29.9018 18.4194 29.571 18.9511 30.1471 19.416C30.2403 19.493 30.2097 19.7409 30.2135 19.9104Z" fill="#18222D"/>
<path d="M43.9316 18.0174C43.2699 17.505 42.704 17.0799 42.1509 16.6369C41.1251 15.8137 40.1224 14.9609 39.0838 14.1557C38.2791 13.5315 37.9725 13.5996 37.2814 14.4588C38.6789 16.1514 40.0828 17.8505 41.5313 19.6061C42.3259 19.0795 43.0706 18.5864 43.9316 18.0174Z" fill="#18222D"/>
<path d="M25.634 14.5628C25.7784 14.4048 25.7873 14.1236 25.8601 13.8988C25.4603 13.8115 25.2866 13.0936 24.6798 13.5431C22.894 14.8646 21.0813 16.1514 19.2265 17.4883C19.9559 18.0649 20.6445 18.6095 21.3483 19.1656C22.8135 17.6001 24.2352 16.0923 25.634 14.5628Z" fill="#18222D"/>
<path d="M46.9105 33.6146C47.0165 33.5723 47.1072 33.2435 47.06 33.0945C46.535 31.4545 45.9614 29.8312 45.4453 28.1887C45.2729 27.6403 44.8948 27.77 44.532 27.7803C44.0849 27.7931 44.1973 28.1437 44.196 28.3967C44.1871 30.2332 44.1884 32.0684 44.1896 33.9049C44.1896 34.0885 44.2152 34.2735 44.2382 34.5714C45.209 34.2324 46.07 33.9473 46.9105 33.6146Z" fill="#18222D"/>
<path d="M26.6317 14.4292C26.4745 14.3997 26.2357 14.4755 26.1233 14.5936C24.8829 15.8959 23.6579 17.2135 22.4367 18.5337C22.2195 18.7687 22.0419 19.041 21.7801 19.3839C22.8275 19.8038 23.7626 20.1788 24.6977 20.5538C24.7347 20.5063 24.7718 20.4601 24.8088 20.4126C24.363 20.0042 24.4703 19.6433 24.9263 19.398C25.8052 18.9228 26.1629 18.2589 26.0773 17.2225C26.0287 16.6394 26.3238 16.0243 26.4809 15.4284C26.5026 15.3488 26.6432 15.3077 26.7058 15.2293C26.822 15.0829 27.0021 14.9224 26.9996 14.7696C26.997 14.6476 26.7786 14.4562 26.6317 14.4292Z" fill="#18222D"/>
<path d="M38.6763 13.362C40.4928 14.8107 42.3195 16.2683 44.2267 17.7876C44.6827 17.1441 45.1043 16.5508 45.5347 15.9447C43.6761 14.907 41.8775 13.8976 40.0725 12.8971C39.2563 12.4438 39.1554 12.4797 38.6763 13.362Z" fill="#18222D"/>
<path d="M24.8229 12.9883C24.598 12.648 24.4307 12.395 24.2634 12.142C22.1403 13.2285 20.0913 14.2764 17.9645 15.3642C18.3285 16.0114 18.6581 16.5971 18.9979 17.1994C20.9549 15.7841 22.8684 14.401 24.8229 12.9883Z" fill="#18222D"/>
<path d="M23.1111 33.58C23.3845 33.1215 23.4586 31.5098 23.2057 31.0718C23.0677 30.833 22.9681 30.5466 22.9412 30.2717C22.8965 29.8056 22.9502 29.3304 22.9067 28.8642C22.885 28.6343 22.7407 28.4173 22.6525 28.1938C22.5031 28.3839 22.2719 28.5534 22.2182 28.7679C21.7737 30.5466 21.3598 32.3317 20.9472 34.1181C20.8961 34.3364 20.9089 34.5701 20.891 34.8039C21.7162 34.9259 22.4814 35.0389 23.4535 35.1827C23.3078 34.773 23.1865 34.5111 23.1239 34.2349C23.0754 34.0205 23.0153 33.7405 23.1111 33.58Z" fill="#18222D"/>
<path d="M38.5933 35.8942C39.6484 35.8159 39.6536 35.8159 39.6561 34.9028C39.6599 33.0406 39.6612 31.1797 39.6574 29.3175C39.6574 29.1378 39.6229 28.9567 39.6012 28.755C39.2282 28.7769 38.9203 28.7936 38.5933 28.8128C38.5933 31.2105 38.5933 33.5325 38.5933 35.8942Z" fill="#18222D"/>
<path d="M42.5941 27.9665C42.3476 28.1193 42.1483 28.3428 41.9401 28.3531C41.4905 28.3736 41.4291 28.5945 41.4317 28.9682C41.4432 30.7405 41.4291 32.5128 41.4432 34.285C41.4458 34.6587 41.525 35.0325 41.5697 35.41C42.5213 35.2264 42.5954 35.1455 42.5967 34.2748C42.5993 32.4588 42.5954 30.6429 42.5941 28.827C42.5941 28.5213 42.5941 28.2144 42.5941 27.9665Z" fill="#18222D"/>
<path d="M43.9278 33.8625C43.9239 32.9237 43.929 31.9837 43.929 31.0449C43.929 30.0277 43.929 29.0106 43.929 27.9896C42.7781 28.1566 42.7755 28.1566 42.7743 29.3111C42.7717 30.955 42.7717 32.5988 42.7781 34.2426C42.7794 34.4867 42.8202 34.7307 42.8432 34.9785C43.8511 34.8244 43.9303 34.7332 43.9278 33.8625Z" fill="#18222D"/>
<path d="M47.8686 34.6665C48.8292 34.3338 49.7617 33.9884 50.7082 33.6917C52.245 33.2088 52.2501 33.223 51.8898 31.642C51.8566 31.4982 51.8119 31.3582 51.7404 31.1027C50.4873 31.922 49.335 32.7105 48.1445 33.4374C47.6118 33.7623 47.6144 34.1181 47.8686 34.6665Z" fill="#18222D"/>
<path d="M24.2238 23.0594C23.6579 24.5825 23.0932 26.1056 22.5274 27.6288C22.581 27.6878 22.6359 27.7482 22.6896 27.8073C23.1418 27.6288 23.6106 27.4811 24.0385 27.2563C24.2161 27.1626 24.4128 26.9044 24.4179 26.7157C24.4524 25.5226 24.4358 24.327 24.4358 23.1326C24.3643 23.1082 24.294 23.0838 24.2238 23.0594Z" fill="#18222D"/>
<path d="M30.179 15.4168C29.6297 15.3115 29.1456 15.2203 28.5554 15.1073C28.5554 16.2888 28.5261 17.3304 28.5823 18.3667C28.5925 18.5465 28.9476 18.734 29.1763 18.8522C29.2159 18.8727 29.4956 18.5825 29.5416 18.4027C29.7051 17.7683 29.8124 17.1197 29.9453 16.4776C30.013 16.1514 30.0883 15.8265 30.179 15.4168Z" fill="#18222D"/>
<path d="M40.2156 30.2204C40.1364 30.2306 40.0572 30.2409 39.978 30.2512C39.978 31.845 39.9793 33.4387 39.9767 35.0325C39.9767 35.3985 39.9857 35.7054 40.5069 35.69C41.0242 35.6746 41.1238 35.4113 41.051 34.9875C40.7764 33.3963 40.4954 31.809 40.2156 30.2204Z" fill="#18222D"/>
<path d="M32.4886 15.1497C32.265 13.8629 32.0619 12.6981 31.8588 11.5333C31.8179 11.5358 31.7771 11.5384 31.7362 11.5397C31.3836 12.6608 31.0311 13.782 30.6363 15.0393C31.2789 15.0791 31.8256 15.1112 32.4886 15.1497Z" fill="#18222D"/>
<path d="M33.1247 15.0264C33.5782 14.9827 34.0266 14.8929 34.6065 14.7978C33.8528 13.6882 33.163 12.6724 32.472 11.6565C32.417 11.6784 32.3634 11.7002 32.3085 11.722C32.4745 12.7456 32.6342 13.7704 32.8194 14.7901C32.8386 14.889 33.0289 15.0354 33.1247 15.0264Z" fill="#18222D"/>
<path d="M29.7255 14.9339C30.1381 15.0611 30.308 14.8749 30.4102 14.5153C30.5789 13.9232 30.7551 13.3325 30.9365 12.7443C31.0387 12.4117 31.1562 12.0842 31.2661 11.7554C31.1997 11.7285 31.1332 11.7015 31.0668 11.6745C30.2531 12.6506 29.4394 13.6266 28.5465 14.6964C29.0319 14.7914 29.3883 14.8312 29.7255 14.9339Z" fill="#18222D"/>
<path d="M36.0014 14.4344C36.1126 14.3766 36.2161 14.3034 36.4383 14.1647C35.3142 13.3119 34.268 12.5183 33.2218 11.7259C33.1771 11.7683 33.1324 11.8107 33.0877 11.853C33.5846 12.5992 34.0764 13.3505 34.581 14.0928C35.0677 14.8081 35.2171 14.8389 36.0014 14.4344Z" fill="#18222D"/>
<path d="M27.4633 14.243C27.6485 14.5024 28.0023 14.7079 28.323 14.3291C29.0485 13.4725 29.7703 12.612 30.492 11.7529C30.4537 11.7118 30.4153 11.6694 30.377 11.6283C29.4458 12.2499 28.498 12.8509 27.5961 13.5149C27.4428 13.6266 27.3585 14.0966 27.4633 14.243Z" fill="#18222D"/>
<path d="M46.6704 35.0646C47.2822 34.9169 47.4457 34.6433 47.1762 33.9974C46.3484 34.2645 45.5143 34.5303 44.6827 34.8051C44.2062 34.9631 44.0708 35.2739 44.3378 35.8236C45.1157 35.5641 45.8784 35.2546 46.6704 35.0646Z" fill="#18222D"/>
<path d="M37.8933 13.3312C36.5724 12.743 35.2823 12.169 33.9908 11.5949C33.9716 11.645 33.9512 11.6951 33.932 11.7452C34.6921 12.3449 35.4496 12.9498 36.2148 13.5444C36.9723 14.1326 37.0936 14.1172 37.8933 13.3312Z" fill="#18222D"/>
<path d="M48.4907 39.3308C47.6731 39.449 47.5569 39.6314 47.8085 40.5085C48.3003 40.4225 48.8036 40.3698 49.2878 40.2401C50.0389 40.0385 50.081 39.928 49.9009 39.0599C49.3976 39.1588 48.9467 39.2654 48.4907 39.3308Z" fill="#18222D"/>
<path d="M38.8207 12.3102C37.459 11.9904 36.1062 11.6732 34.7547 11.356C34.7509 11.4023 34.7483 11.4485 34.7445 11.4947C35.6898 11.9211 36.6568 12.3038 37.5714 12.7893C38.1858 13.1155 38.5639 13.0718 38.8207 12.3102Z" fill="#18222D"/>
<path d="M16.116 34.1977C16.1556 33.7187 15.9781 33.5299 15.4722 33.4914C15.4722 34.5226 15.4722 35.5115 15.4722 36.4991C16.0241 36.5761 16.1454 36.2679 16.1416 35.8544C16.1365 35.3022 16.0701 34.7461 16.116 34.1977Z" fill="#18222D"/>
<path d="M39.0583 11.1339C37.846 11.0684 36.7015 11.0067 35.5582 10.9451C35.5492 11.0067 35.539 11.0696 35.5301 11.1313C36.658 11.4087 37.786 11.6861 38.9663 11.9763C39.0008 11.6553 39.0251 11.4344 39.0583 11.1339Z" fill="#18222D"/>
<path d="M41.0421 28.3582C40.7815 28.4134 40.558 28.4597 40.2616 28.5226C40.4915 29.7388 40.7125 30.9113 40.9335 32.0825C40.9693 32.0748 41.0063 32.0684 41.0421 32.0607C41.0421 30.8291 41.0421 29.5975 41.0421 28.3582Z" fill="#18222D"/>
<path d="M17.7958 30.9884C17.6898 31.145 17.502 31.2979 17.4931 31.461C17.456 32.1198 17.4433 32.785 17.4905 33.4426C17.5059 33.6583 17.7332 33.8587 17.8635 34.0667C17.9491 34.0359 18.0347 34.0038 18.119 33.973C18.119 33.1305 18.1356 32.2867 18.105 31.4443C18.0986 31.2889 17.9031 31.1399 17.7958 30.9884Z" fill="#18222D"/>
<path d="M16.8799 33.6057C16.9528 33.5864 17.0256 33.5658 17.0997 33.5466C17.0997 32.8133 17.0997 32.08 17.0997 31.294C16.8723 31.3171 16.6781 31.3377 16.3881 31.3672C16.6973 32.1301 15.9947 33.0547 16.8799 33.6057Z" fill="#18222D"/>
<path d="M48.4945 41.2868C48.5175 41.7517 48.5124 42.2191 48.5724 42.6776C48.589 42.8022 48.7998 42.9974 48.9084 42.9884C49.0323 42.9781 49.2392 42.7791 49.2405 42.6596C49.2482 42.0535 49.1996 41.4473 49.1715 40.8231C48.6759 40.7589 48.474 40.8938 48.4945 41.2868Z" fill="#18222D"/>
<path d="M17.1316 34.6061C17.2018 34.1694 16.9617 33.9152 16.5005 33.9023C16.5005 34.6729 16.5005 35.4049 16.5005 36.2666C17.4854 35.898 17.0434 35.1519 17.1316 34.6061Z" fill="#18222D"/>
<path d="M27.0481 11.8029C27.0085 11.731 26.9676 11.6591 26.928 11.5859C26.2395 11.7362 25.551 11.8864 24.7973 12.0521C24.9327 12.3526 25.0311 12.5684 25.1397 12.8085C25.8346 12.4656 26.6572 12.5054 27.0481 11.8029Z" fill="#18222D"/>
<path d="M49.4398 41.7196C49.427 42.0971 49.243 42.6776 49.9737 42.8009C49.9737 42.0162 49.9737 41.2932 49.9737 40.5278C49.0604 40.6549 49.4538 41.315 49.4398 41.7196Z" fill="#18222D"/>
<path d="M47.9567 41.0081C47.8813 41.1609 47.7472 41.3112 47.7395 41.4666C47.7127 42.0188 47.7293 42.5749 47.7293 43.1284C47.8047 43.1695 47.8788 43.2093 47.9541 43.2504C48.0755 43.0783 48.285 42.9139 48.3003 42.7328C48.3361 42.291 48.3029 41.8377 48.2492 41.3959C48.2313 41.2572 48.0589 41.1378 47.9567 41.0081Z" fill="#18222D"/>
<path d="M25.519 13.0628C25.9023 13.5315 26.1667 13.9117 26.7121 13.6292C27.1592 13.398 27.1069 13.0448 26.9485 12.5491C26.4822 12.716 26.0453 12.8727 25.519 13.0628Z" fill="#18222D"/>
<path d="M38.7121 36.3668C38.601 36.4207 38.5192 36.8574 38.5908 36.9165C38.8488 37.1284 39.1771 37.2529 39.4798 37.4109C39.5488 37.357 39.6178 37.303 39.6855 37.2491C39.6242 36.9203 39.6267 36.5543 39.4671 36.2846C39.4083 36.1857 38.9395 36.2576 38.7121 36.3668Z" fill="#18222D"/>
<path d="M27.4083 13.1399C28.1352 12.657 28.816 12.2049 29.6323 11.663C28.2131 11.7619 27.2985 12.3539 27.4083 13.1399Z" fill="#18222D"/>
<path d="M46.9003 43.3775C47.3985 43.1297 47.4968 41.9379 47.0638 41.0106C46.7074 41.8839 46.8658 42.6121 46.9003 43.3775Z" fill="#18222D"/>
<path d="M39.9985 36.7315C40.0189 36.8779 40.2616 37.104 40.3996 37.1027C41.0114 37.0975 41.1226 36.8908 41.0178 36.0663C40.0866 36.0753 39.9193 36.1742 39.9985 36.7315Z" fill="#18222D"/>
<path d="M14.9817 33.6635C14.8527 34.6793 14.7224 35.6951 14.5934 36.7097C14.6866 36.7212 14.7812 36.7328 14.8744 36.7457C15.448 35.7863 14.8335 34.6767 15.1439 33.684C15.0903 33.6776 15.0366 33.6699 14.9817 33.6635Z" fill="#18222D"/>
<path d="M15.9385 33.178C15.9858 33.1356 16.0343 33.0945 16.0816 33.0521C16.0816 32.6296 16.1071 32.2045 16.0637 31.7859C16.0522 31.6819 15.8133 31.6009 15.6792 31.5098C15.5987 31.9182 15.4658 32.3253 15.4633 32.7337C15.462 32.8813 15.7711 33.0303 15.9385 33.178Z" fill="#18222D"/>
<path d="M42.8228 35.6682C42.7692 35.7118 42.9122 36.1459 42.9595 36.1446C43.2418 36.1382 43.5931 36.1395 43.7821 35.9764C43.9418 35.839 43.9112 35.4794 43.9648 35.2187C43.8984 35.1686 43.832 35.1198 43.7643 35.0697C43.4462 35.2636 43.1102 35.4357 42.8228 35.6682Z" fill="#18222D"/>
<path d="M17.5186 34.3081C17.5186 34.8424 17.5186 35.3497 17.5186 35.8698C17.9491 35.8865 18.1433 35.717 18.1075 35.3099C18.0718 34.904 18.2468 34.3814 17.5186 34.3081Z" fill="#18222D"/>
<path d="M49.5292 35.8749C50.2177 36.0727 50.8935 36.4862 51.7212 36.0355C50.9497 35.708 50.2726 35.4319 49.5292 35.8749Z" fill="#18222D"/>
<path d="M36.4805 36.8522C37.0285 36.9563 37.5765 37.059 38.1845 37.1746C38.2114 36.8921 38.2305 36.6943 38.2625 36.3578C37.6046 36.4914 37.0374 36.607 36.4715 36.7212C36.4741 36.7649 36.4779 36.8086 36.4805 36.8522Z" fill="#18222D"/>
<path d="M46.9961 39.7559C46.7559 39.8535 46.5605 40.0577 46.3472 40.2208C46.5656 40.3852 46.77 40.5868 47.014 40.6896C47.0778 40.7165 47.2695 40.4366 47.4981 40.1964C47.2618 39.9832 47.0702 39.7264 46.9961 39.7559Z" fill="#18222D"/>
<path d="M50.3697 36.449C49.639 36.2191 49.0055 35.9456 48.133 36.2602C49.8064 36.7341 49.8064 36.7341 50.3697 36.449Z" fill="#18222D"/>
<path d="M41.7549 36.6583C42.2991 36.5402 42.7449 36.4066 42.5392 35.7272C41.6693 35.7157 41.5748 35.8248 41.7549 36.6583Z" fill="#18222D"/>
<path d="M18.5329 35.6335C18.9698 35.5063 19.3402 35.3985 19.8806 35.2405C19.3274 35.0119 18.9672 34.8629 18.5329 34.6844C18.5329 35.0312 18.5329 35.288 18.5329 35.6335Z" fill="#18222D"/>
<path d="M25.7758 24.6133C25.8844 24.6262 25.993 24.639 26.1003 24.6519C26.1667 24.1073 26.2318 23.5641 26.2983 23.0196C26.1833 23.0067 26.0683 22.9926 25.9546 22.9798C25.8946 23.5243 25.8358 24.0688 25.7758 24.6133Z" fill="#18222D"/>
<path d="M45.4939 37.2105C46.1083 37.2953 46.6359 37.3685 47.1634 37.4417C46.641 36.8664 46.0598 36.8189 45.4939 37.2105Z" fill="#18222D"/>
<path d="M44.3199 37.4417C44.3135 37.529 44.3071 37.6151 44.2995 37.7024C44.9063 37.7461 45.513 37.7897 46.1198 37.8334C46.1262 37.7564 46.1313 37.6793 46.1377 37.6035C45.5245 37.6369 44.9548 37.1129 44.3199 37.4417Z" fill="#18222D"/>
<path d="M48.9927 36.8535C48.4702 36.6981 48.0691 36.58 47.631 36.449C47.7268 37.1142 48.1394 37.2375 48.9927 36.8535Z" fill="#18222D"/>
<path d="M28.9387 11.3483C28.9131 11.2815 28.8888 11.2148 28.8633 11.148C28.3498 11.3111 27.835 11.4729 27.3215 11.636C27.3636 11.7297 27.4045 11.8222 27.4467 11.916C27.9448 11.7259 28.4417 11.5371 28.9387 11.3483Z" fill="#18222D"/>
<path d="M15.0532 31.7461C15.0073 31.6934 14.9613 31.6395 14.9166 31.5868C14.7543 31.6523 14.458 31.7101 14.4529 31.7872C14.4375 32.0325 14.5282 32.2842 14.5793 32.5333C14.656 32.5307 14.7339 32.5282 14.8105 32.5243C14.891 32.2649 14.9715 32.0055 15.0532 31.7461Z" fill="#18222D"/>
<path d="M48.1458 37.7551C48.6733 37.8321 49.2009 37.9092 49.7297 37.9862C49.7412 37.8938 49.7527 37.8013 49.7642 37.7088C49.2392 37.6318 48.7142 37.5534 48.1879 37.4764C48.1739 37.5689 48.1598 37.6613 48.1458 37.7551Z" fill="#18222D"/>
<path d="M51.4977 37.3493C51.071 37.2748 50.7159 37.2118 50.2867 37.1361C50.4872 37.7307 50.8526 37.7975 51.4977 37.3493Z" fill="#18222D"/>
</svg>
