<svg width="64" height="64" viewBox="0 0 64 64" fill="none" xmlns="http://www.w3.org/2000/svg">
<path fill-rule="evenodd" clip-rule="evenodd" d="M9 21.3333C9 15.9945 13.3279 11.6666 18.6667 11.6666H45.3333C50.6721 11.6666 55 15.9945 55 21.3333V42.6666C55 48.0054 50.6721 52.3333 45.3333 52.3333H18.6667C13.3279 52.3333 9 48.0054 9 42.6666V21.3333ZM18.6667 15C15.1689 15 12.3333 17.8355 12.3333 21.3333V42.6666C12.3333 46.1644 15.1689 49 18.6667 49H45.3333C48.8311 49 51.6667 46.1644 51.6667 42.6666V21.3333C51.6667 17.8355 48.8311 15 45.3333 15H18.6667Z" fill="#099DFD"/>
<path fill-rule="evenodd" clip-rule="evenodd" d="M17 48C17 45.6067 18.9401 43.6666 21.3333 43.6666H26.6667C29.0599 43.6666 31 45.6067 31 48V52.3333H17V48ZM21.3333 47C20.781 47 20.3333 47.4477 20.3333 48V49H27.6667V48C27.6667 47.4477 27.219 47 26.6667 47H21.3333Z" fill="#099DFD"/>
<path fill-rule="evenodd" clip-rule="evenodd" d="M56 52.3333H8V49H56V52.3333Z" fill="#099DFD"/>
</svg>
