<svg width="122" height="122" viewBox="0 0 122 122" fill="none" xmlns="http://www.w3.org/2000/svg">
<circle cx="61" cy="61" r="60.5" fill="white" stroke="#E3E7EC"/>
<rect x="29" y="29" width="64" height="64" fill="white"/>
<path d="M47.8476 56.6552L39.2213 43.3996C44.5958 36.7154 52.6575 33.0346 60.8999 33.0007C65.676 32.9668 70.5537 34.1862 74.991 36.7493C79.8913 39.5946 83.6173 43.6819 85.9884 48.3789L62.8081 47.1595C56.248 46.7756 50.0042 50.4678 47.8476 56.6552ZM51.5623 61.0022C51.5623 66.2186 55.7851 70.4414 61.0015 70.4414C66.2179 70.4414 70.4407 66.2186 70.4407 61.0022C70.4407 55.7858 66.2179 51.563 61.0015 51.563C55.7851 51.563 51.5623 55.7745 51.5623 61.0022ZM87.1175 50.9307L71.344 51.7436C75.6233 56.7455 75.691 63.9604 72.0892 69.493L59.4321 88.9586C64.6824 89.2408 70.0907 88.0892 74.991 85.2439C87.1175 78.2435 92.029 63.5653 87.1175 50.9307ZM48.096 66.3767L37.5615 45.6578C34.6823 50.0613 33 55.3454 33 61.0022C33 75.003 43.2522 86.5988 56.6545 88.6537L63.8468 74.5626C57.3433 75.782 51.0655 72.2141 48.096 66.3767Z" fill="#586376"/>
</svg>
